G04 #@! TF.GenerationSoftware,KiCad,Pcbnew,(6.0.5)*
G04 #@! TF.CreationDate,2022-06-25T18:23:23-07:00*
G04 #@! TF.ProjectId,solid_state_relays_24v,736f6c69-645f-4737-9461-74655f72656c,0.0.6*
G04 #@! TF.SameCoordinates,Original*
G04 #@! TF.FileFunction,Copper,L2,Bot*
G04 #@! TF.FilePolarity,Positive*
%FSLAX46Y46*%
G04 Gerber Fmt 4.6, Leading zero omitted, Abs format (unit mm)*
G04 Created by KiCad (PCBNEW (6.0.5)) date 2022-06-25 18:23:23*
%MOMM*%
%LPD*%
G01*
G04 APERTURE LIST*
G04 Aperture macros list*
%AMRoundRect*
0 Rectangle with rounded corners*
0 $1 Rounding radius*
0 $2 $3 $4 $5 $6 $7 $8 $9 X,Y pos of 4 corners*
0 Add a 4 corners polygon primitive as box body*
4,1,4,$2,$3,$4,$5,$6,$7,$8,$9,$2,$3,0*
0 Add four circle primitives for the rounded corners*
1,1,$1+$1,$2,$3*
1,1,$1+$1,$4,$5*
1,1,$1+$1,$6,$7*
1,1,$1+$1,$8,$9*
0 Add four rect primitives between the rounded corners*
20,1,$1+$1,$2,$3,$4,$5,0*
20,1,$1+$1,$4,$5,$6,$7,0*
20,1,$1+$1,$6,$7,$8,$9,0*
20,1,$1+$1,$8,$9,$2,$3,0*%
%AMFreePoly0*
4,1,49,2.135355,7.464855,2.150000,7.429500,2.150000,3.175000,2.148124,3.170471,2.148343,3.170047,2.149457,3.156966,2.153880,3.144602,1.999446,0.007822,2.000000,0.000000,1.996053,-0.125581,1.958446,-0.405575,1.881762,-0.677476,1.767531,-0.935860,1.618034,-1.175571,1.436253,-1.391826,1.225814,-1.580310,0.990917,-1.737263,0.736249,-1.859553,0.466891,-1.944740,0.188217,-1.991124,
-0.094213,-1.997780,-0.374763,-1.964575,-0.647835,-1.892171,-0.907981,-1.782013,-1.150011,-1.636299,-1.369094,-1.457937,-1.560861,-1.250485,-1.721484,-1.018083,-1.847759,-0.765367,-1.937166,-0.497380,-1.987922,-0.219469,-1.999013,0.062822,-1.970219,0.343858,-1.902113,0.618034,-1.796055,0.879878,-1.775958,0.914478,-1.775454,0.916957,-1.768707,0.926961,-1.654161,1.124167,-1.526461,1.286153,
0.066046,3.647457,0.079502,3.656364,0.091689,3.666934,0.167860,3.692324,0.167860,7.429500,0.182505,7.464855,0.217860,7.479500,2.100000,7.479500,2.135355,7.464855,2.135355,7.464855,$1*%
%AMFreePoly1*
4,1,47,-0.199145,7.464855,-0.184500,7.429500,-0.184500,3.805567,-0.165806,3.789025,-0.162929,3.783124,-0.157457,3.779494,1.488463,1.333474,1.488900,1.331313,1.520812,1.298896,1.688656,1.071654,1.822807,0.823029,1.920587,0.557982,1.980047,0.281802,2.000000,0.000000,1.996053,-0.125581,1.958446,-0.405575,1.881762,-0.677476,1.767531,-0.935860,1.618034,-1.175571,1.436253,-1.391826,
1.225814,-1.580310,0.990917,-1.737263,0.736249,-1.859553,0.466891,-1.944740,0.188217,-1.991124,-0.094213,-1.997780,-0.374763,-1.964575,-0.647835,-1.892171,-0.907981,-1.782013,-1.150011,-1.636299,-1.369094,-1.457937,-1.560861,-1.250485,-1.721484,-1.018083,-1.847759,-0.765367,-1.937166,-0.497380,-1.987922,-0.219469,-1.990619,-0.150827,-1.995069,-0.146434,-1.995127,-0.137495,-1.998942,-0.129411,
-2.157387,3.152662,-2.166640,3.175000,-2.166640,7.429500,-2.151995,7.464855,-2.116640,7.479500,-0.234500,7.479500,-0.199145,7.464855,-0.199145,7.464855,$1*%
G04 Aperture macros list end*
G04 #@! TA.AperFunction,ComponentPad*
%ADD10C,0.800000*%
G04 #@! TD*
G04 #@! TA.AperFunction,ComponentPad*
%ADD11C,6.400000*%
G04 #@! TD*
G04 #@! TA.AperFunction,ComponentPad*
%ADD12R,1.950000X1.950000*%
G04 #@! TD*
G04 #@! TA.AperFunction,ComponentPad*
%ADD13C,1.950000*%
G04 #@! TD*
G04 #@! TA.AperFunction,ComponentPad*
%ADD14RoundRect,0.250000X-0.600000X-0.600000X0.600000X-0.600000X0.600000X0.600000X-0.600000X0.600000X0*%
G04 #@! TD*
G04 #@! TA.AperFunction,ComponentPad*
%ADD15C,1.700000*%
G04 #@! TD*
G04 #@! TA.AperFunction,ComponentPad*
%ADD16O,2.800000X1.600000*%
G04 #@! TD*
G04 #@! TA.AperFunction,ComponentPad*
%ADD17FreePoly0,90.000000*%
G04 #@! TD*
G04 #@! TA.AperFunction,ComponentPad*
%ADD18C,2.200000*%
G04 #@! TD*
G04 #@! TA.AperFunction,ComponentPad*
%ADD19FreePoly1,90.000000*%
G04 #@! TD*
G04 #@! TA.AperFunction,ComponentPad*
%ADD20R,1.920000X1.920000*%
G04 #@! TD*
G04 #@! TA.AperFunction,ComponentPad*
%ADD21C,1.920000*%
G04 #@! TD*
G04 #@! TA.AperFunction,ViaPad*
%ADD22C,0.800000*%
G04 #@! TD*
G04 #@! TA.AperFunction,Conductor*
%ADD23C,0.250000*%
G04 #@! TD*
G04 #@! TA.AperFunction,Conductor*
%ADD24C,2.250000*%
G04 #@! TD*
G04 APERTURE END LIST*
D10*
G04 #@! TO.P,H1,1,1*
G04 #@! TO.N,GNDPWR*
X53302944Y-53302944D03*
D11*
X55000000Y-55000000D03*
D10*
X57400000Y-55000000D03*
X53302944Y-56697056D03*
X56697056Y-53302944D03*
X55000000Y-52600000D03*
X52600000Y-55000000D03*
X55000000Y-57400000D03*
X56697056Y-56697056D03*
G04 #@! TD*
G04 #@! TO.P,H4,1,1*
G04 #@! TO.N,GNDPWR*
X53302944Y-133302944D03*
X56697056Y-136697056D03*
X56697056Y-133302944D03*
X57400000Y-135000000D03*
X53302944Y-136697056D03*
X52600000Y-135000000D03*
X55000000Y-137400000D03*
X55000000Y-132600000D03*
D11*
X55000000Y-135000000D03*
G04 #@! TD*
G04 #@! TO.P,HQ2,1,1*
G04 #@! TO.N,+BATT*
X106250000Y-77500000D03*
D10*
X107947056Y-75802944D03*
X107947056Y-79197056D03*
X106250000Y-75100000D03*
X103850000Y-77500000D03*
X104552944Y-79197056D03*
X108650000Y-77500000D03*
X106250000Y-79900000D03*
X104552944Y-75802944D03*
G04 #@! TD*
G04 #@! TO.P,H2,1,1*
G04 #@! TO.N,GNDPWR*
X163302944Y-56697056D03*
X165000000Y-52600000D03*
D11*
X165000000Y-55000000D03*
D10*
X162600000Y-55000000D03*
X165000000Y-57400000D03*
X166697056Y-53302944D03*
X163302944Y-53302944D03*
X167400000Y-55000000D03*
X166697056Y-56697056D03*
G04 #@! TD*
G04 #@! TO.P,HQ1,1,1*
G04 #@! TO.N,+BATT*
X81250000Y-75100000D03*
X78850000Y-77500000D03*
D11*
X81250000Y-77500000D03*
D10*
X79552944Y-75802944D03*
X82947056Y-79197056D03*
X83650000Y-77500000D03*
X81250000Y-79900000D03*
X82947056Y-75802944D03*
X79552944Y-79197056D03*
G04 #@! TD*
D12*
G04 #@! TO.P,J2,1,1*
G04 #@! TO.N,OUT2*
X95000000Y-67000000D03*
D13*
G04 #@! TO.P,J2,2,2*
X95000000Y-58800000D03*
G04 #@! TO.P,J2,3,3*
X90000000Y-67000000D03*
G04 #@! TO.P,J2,4,4*
X90000000Y-58800000D03*
G04 #@! TD*
D11*
G04 #@! TO.P,H3,1,1*
G04 #@! TO.N,GNDPWR*
X165000000Y-135000000D03*
D10*
X166697056Y-133302944D03*
X167400000Y-135000000D03*
X166697056Y-136697056D03*
X165000000Y-132600000D03*
X162600000Y-135000000D03*
X165000000Y-137400000D03*
X163302944Y-136697056D03*
X163302944Y-133302944D03*
G04 #@! TD*
D12*
G04 #@! TO.P,J1,1,1*
G04 #@! TO.N,OUT1*
X70000000Y-67000000D03*
D13*
G04 #@! TO.P,J1,2,2*
X70000000Y-58800000D03*
G04 #@! TO.P,J1,3,3*
X65000000Y-67000000D03*
G04 #@! TO.P,J1,4,4*
X65000000Y-58800000D03*
G04 #@! TD*
D10*
G04 #@! TO.P,HQ7,1,1*
G04 #@! TO.N,+BATT*
X91150000Y-112500000D03*
X88750000Y-110100000D03*
D11*
X88750000Y-112500000D03*
D10*
X90447056Y-114197056D03*
X87052944Y-114197056D03*
X87052944Y-110802944D03*
X86350000Y-112500000D03*
X90447056Y-110802944D03*
X88750000Y-114900000D03*
G04 #@! TD*
D12*
G04 #@! TO.P,J6,1,1*
G04 #@! TO.N,OUT6*
X125000000Y-123000000D03*
D13*
G04 #@! TO.P,J6,2,2*
X125000000Y-131200000D03*
G04 #@! TO.P,J6,3,3*
X130000000Y-123000000D03*
G04 #@! TO.P,J6,4,4*
X130000000Y-131200000D03*
G04 #@! TD*
D12*
G04 #@! TO.P,J4,1,1*
G04 #@! TO.N,OUT4*
X145000000Y-67000000D03*
D13*
G04 #@! TO.P,J4,2,2*
X145000000Y-58800000D03*
G04 #@! TO.P,J4,3,3*
X140000000Y-67000000D03*
G04 #@! TO.P,J4,4,4*
X140000000Y-58800000D03*
G04 #@! TD*
D12*
G04 #@! TO.P,J3,1,1*
G04 #@! TO.N,OUT3*
X120000000Y-67000000D03*
D13*
G04 #@! TO.P,J3,2,2*
X120000000Y-58800000D03*
G04 #@! TO.P,J3,3,3*
X115000000Y-67000000D03*
G04 #@! TO.P,J3,4,4*
X115000000Y-58800000D03*
G04 #@! TD*
D14*
G04 #@! TO.P,JCNTL1,1,Pin_1*
G04 #@! TO.N,+BATT*
X156200000Y-87500000D03*
D15*
G04 #@! TO.P,JCNTL1,2,Pin_2*
X158740000Y-87500000D03*
G04 #@! TO.P,JCNTL1,3,Pin_3*
G04 #@! TO.N,/a3*
X156200000Y-90040000D03*
G04 #@! TO.P,JCNTL1,4,Pin_4*
G04 #@! TO.N,/a4*
X158740000Y-90040000D03*
G04 #@! TO.P,JCNTL1,5,Pin_5*
G04 #@! TO.N,/a1*
X156200000Y-92580000D03*
G04 #@! TO.P,JCNTL1,6,Pin_6*
G04 #@! TO.N,/a2*
X158740000Y-92580000D03*
G04 #@! TO.P,JCNTL1,7,Pin_7*
G04 #@! TO.N,/a8*
X156200000Y-95120000D03*
G04 #@! TO.P,JCNTL1,8,Pin_8*
G04 #@! TO.N,/a7*
X158740000Y-95120000D03*
G04 #@! TO.P,JCNTL1,9,Pin_9*
G04 #@! TO.N,/a6*
X156200000Y-97660000D03*
G04 #@! TO.P,JCNTL1,10,Pin_10*
G04 #@! TO.N,/a5*
X158740000Y-97660000D03*
G04 #@! TO.P,JCNTL1,11,Pin_11*
G04 #@! TO.N,GNDPWR*
X156200000Y-100200000D03*
G04 #@! TO.P,JCNTL1,12,Pin_12*
X158740000Y-100200000D03*
G04 #@! TD*
D10*
G04 #@! TO.P,HQ6,1,1*
G04 #@! TO.N,+BATT*
X112052944Y-114197056D03*
X115447056Y-110802944D03*
X111350000Y-112500000D03*
D11*
X113750000Y-112500000D03*
D10*
X113750000Y-110100000D03*
X113750000Y-114900000D03*
X116150000Y-112500000D03*
X115447056Y-114197056D03*
X112052944Y-110802944D03*
G04 #@! TD*
G04 #@! TO.P,HQ8,1,1*
G04 #@! TO.N,+BATT*
X65447056Y-110802944D03*
X65447056Y-114197056D03*
X63750000Y-114900000D03*
D11*
X63750000Y-112500000D03*
D10*
X61350000Y-112500000D03*
X62052944Y-114197056D03*
X66150000Y-112500000D03*
X62052944Y-110802944D03*
X63750000Y-110100000D03*
G04 #@! TD*
D12*
G04 #@! TO.P,J8,1,1*
G04 #@! TO.N,OUT8*
X75000000Y-123000000D03*
D13*
G04 #@! TO.P,J8,2,2*
X75000000Y-131200000D03*
G04 #@! TO.P,J8,3,3*
X80000000Y-123000000D03*
G04 #@! TO.P,J8,4,4*
X80000000Y-131200000D03*
G04 #@! TD*
D16*
G04 #@! TO.P,JPWR1,*
G04 #@! TO.N,*
X60100000Y-88250000D03*
X60100000Y-101750000D03*
D17*
G04 #@! TO.P,JPWR1,1,-*
G04 #@! TO.N,GNDPWR*
X66100000Y-98600000D03*
D18*
X62925000Y-97540000D03*
D19*
G04 #@! TO.P,JPWR1,2,+*
G04 #@! TO.N,+BATT*
X66100000Y-91400000D03*
D18*
X62925000Y-92460000D03*
G04 #@! TD*
D10*
G04 #@! TO.P,HC1,1*
G04 #@! TO.N,N/C*
X108302944Y-96697056D03*
X111697056Y-96697056D03*
X108302944Y-93302944D03*
D11*
X110000000Y-95000000D03*
D10*
X110000000Y-97400000D03*
X112400000Y-95000000D03*
X107600000Y-95000000D03*
X110000000Y-92600000D03*
X111697056Y-93302944D03*
G04 #@! TD*
D12*
G04 #@! TO.P,J7,1,1*
G04 #@! TO.N,OUT7*
X100000000Y-123000000D03*
D13*
G04 #@! TO.P,J7,2,2*
X100000000Y-131200000D03*
G04 #@! TO.P,J7,3,3*
X105000000Y-123000000D03*
G04 #@! TO.P,J7,4,4*
X105000000Y-131200000D03*
G04 #@! TD*
D12*
G04 #@! TO.P,J5,1,1*
G04 #@! TO.N,OUT5*
X150000000Y-123000000D03*
D13*
G04 #@! TO.P,J5,2,2*
X150000000Y-131200000D03*
G04 #@! TO.P,J5,3,3*
X155000000Y-123000000D03*
G04 #@! TO.P,J5,4,4*
X155000000Y-131200000D03*
G04 #@! TD*
D11*
G04 #@! TO.P,HQ5,1,1*
G04 #@! TO.N,+BATT*
X138750000Y-112500000D03*
D10*
X137052944Y-114197056D03*
X141150000Y-112500000D03*
X136350000Y-112500000D03*
X140447056Y-110802944D03*
X138750000Y-114900000D03*
X140447056Y-114197056D03*
X137052944Y-110802944D03*
X138750000Y-110100000D03*
G04 #@! TD*
G04 #@! TO.P,HQ4,1,1*
G04 #@! TO.N,+BATT*
X154552944Y-79197056D03*
X156250000Y-75100000D03*
D11*
X156250000Y-77500000D03*
D10*
X158650000Y-77500000D03*
X157947056Y-79197056D03*
X154552944Y-75802944D03*
X156250000Y-79900000D03*
X157947056Y-75802944D03*
X153850000Y-77500000D03*
G04 #@! TD*
G04 #@! TO.P,HQ3,1,1*
G04 #@! TO.N,+BATT*
X131250000Y-75100000D03*
X129552944Y-79197056D03*
X132947056Y-79197056D03*
X129552944Y-75802944D03*
D11*
X131250000Y-77500000D03*
D10*
X128850000Y-77500000D03*
X133650000Y-77500000D03*
X132947056Y-75802944D03*
X131250000Y-79900000D03*
G04 #@! TD*
D20*
G04 #@! TO.P,Q5,1*
G04 #@! TO.N,/a5*
X155000000Y-110000000D03*
D21*
G04 #@! TO.P,Q5,2*
G04 #@! TO.N,+BATT*
X155000000Y-112540000D03*
G04 #@! TO.P,Q5,3*
G04 #@! TO.N,OUT5*
X155000000Y-115080000D03*
G04 #@! TD*
D20*
G04 #@! TO.P,Q4,1*
G04 #@! TO.N,/a4*
X140000000Y-80000000D03*
D21*
G04 #@! TO.P,Q4,2*
G04 #@! TO.N,+BATT*
X140000000Y-77460000D03*
G04 #@! TO.P,Q4,3*
G04 #@! TO.N,OUT4*
X140000000Y-74920000D03*
G04 #@! TD*
D20*
G04 #@! TO.P,Q1,1*
G04 #@! TO.N,/a1*
X65000000Y-80000000D03*
D21*
G04 #@! TO.P,Q1,2*
G04 #@! TO.N,+BATT*
X65000000Y-77460000D03*
G04 #@! TO.P,Q1,3*
G04 #@! TO.N,OUT1*
X65000000Y-74920000D03*
G04 #@! TD*
D20*
G04 #@! TO.P,Q8,1*
G04 #@! TO.N,/a8*
X80000000Y-110000000D03*
D21*
G04 #@! TO.P,Q8,2*
G04 #@! TO.N,+BATT*
X80000000Y-112540000D03*
G04 #@! TO.P,Q8,3*
G04 #@! TO.N,OUT8*
X80000000Y-115080000D03*
G04 #@! TD*
D20*
G04 #@! TO.P,Q2,1*
G04 #@! TO.N,/a2*
X90000000Y-80000000D03*
D21*
G04 #@! TO.P,Q2,2*
G04 #@! TO.N,+BATT*
X90000000Y-77460000D03*
G04 #@! TO.P,Q2,3*
G04 #@! TO.N,OUT2*
X90000000Y-74920000D03*
G04 #@! TD*
D20*
G04 #@! TO.P,Q3,1*
G04 #@! TO.N,/a3*
X115000000Y-80000000D03*
D21*
G04 #@! TO.P,Q3,2*
G04 #@! TO.N,+BATT*
X115000000Y-77460000D03*
G04 #@! TO.P,Q3,3*
G04 #@! TO.N,OUT3*
X115000000Y-74920000D03*
G04 #@! TD*
D20*
G04 #@! TO.P,Q6,1*
G04 #@! TO.N,/a6*
X130000000Y-110000000D03*
D21*
G04 #@! TO.P,Q6,2*
G04 #@! TO.N,+BATT*
X130000000Y-112540000D03*
G04 #@! TO.P,Q6,3*
G04 #@! TO.N,OUT6*
X130000000Y-115080000D03*
G04 #@! TD*
D20*
G04 #@! TO.P,Q7,1*
G04 #@! TO.N,/a7*
X105000000Y-110000000D03*
D21*
G04 #@! TO.P,Q7,2*
G04 #@! TO.N,+BATT*
X105000000Y-112540000D03*
G04 #@! TO.P,Q7,3*
G04 #@! TO.N,OUT7*
X105000000Y-115080000D03*
G04 #@! TD*
D22*
G04 #@! TO.N,GNDPWR*
X55000000Y-95000000D03*
X148500000Y-135000000D03*
X55000000Y-85000000D03*
X55000000Y-105000000D03*
X121500000Y-74000000D03*
X55000000Y-115000000D03*
X71500000Y-74000000D03*
X73500000Y-135000000D03*
X165000000Y-115000000D03*
X55000000Y-75000000D03*
X161450000Y-100200000D03*
X165000000Y-95000000D03*
X98500000Y-135000000D03*
X55000000Y-125000000D03*
X165000000Y-125000000D03*
X165000000Y-75000000D03*
X165000000Y-105000000D03*
X121500000Y-55000000D03*
X55000000Y-65000000D03*
X98500000Y-116000000D03*
X73500000Y-116000000D03*
X146500000Y-55000000D03*
X165000000Y-65000000D03*
X96500000Y-74000000D03*
X123500000Y-135000000D03*
X71500000Y-55000000D03*
X148500000Y-116000000D03*
X146500000Y-74000000D03*
X96500000Y-55000000D03*
X165000000Y-85000000D03*
X123500000Y-116000000D03*
G04 #@! TO.N,+BATT*
X80000000Y-95000000D03*
X126500000Y-80000000D03*
X150000000Y-95000000D03*
X70000000Y-95000000D03*
X101500000Y-80000000D03*
X90000000Y-95000000D03*
X140000000Y-95000000D03*
X68500000Y-110000000D03*
X76500000Y-80000000D03*
X93500000Y-110000000D03*
X120000000Y-95000000D03*
X143500000Y-110000000D03*
X100000000Y-95000000D03*
X151500000Y-80000000D03*
X130000000Y-95000000D03*
X118500000Y-110000000D03*
G04 #@! TD*
D23*
G04 #@! TO.N,GNDPWR*
X156200000Y-100200000D02*
X161450000Y-100200000D01*
D24*
G04 #@! TO.N,+BATT*
X63750000Y-112500000D02*
X88750000Y-112500000D01*
X154960000Y-112500000D02*
X155000000Y-112540000D01*
X65000000Y-77460000D02*
X156210000Y-77460000D01*
X88750000Y-112500000D02*
X113750000Y-112500000D01*
X138750000Y-112500000D02*
X154960000Y-112500000D01*
X113750000Y-112500000D02*
X138750000Y-112500000D01*
G04 #@! TO.N,OUT1*
X65000000Y-74920000D02*
X65000000Y-58800000D01*
X65000000Y-67000000D02*
X70000000Y-67000000D01*
X65000000Y-58800000D02*
X70000000Y-58800000D01*
X70000000Y-67000000D02*
X70000000Y-58800000D01*
G04 #@! TO.N,OUT2*
X95000000Y-67000000D02*
X95000000Y-58800000D01*
X90000000Y-58800000D02*
X95000000Y-58800000D01*
X90000000Y-67000000D02*
X95000000Y-67000000D01*
X90000000Y-74920000D02*
X90000000Y-58800000D01*
G04 #@! TO.N,OUT3*
X120000000Y-67000000D02*
X120000000Y-58800000D01*
X115000000Y-58800000D02*
X120000000Y-58800000D01*
X115000000Y-74920000D02*
X115000000Y-58800000D01*
X115000000Y-67000000D02*
X120000000Y-67000000D01*
G04 #@! TO.N,OUT4*
X140000000Y-58800000D02*
X145000000Y-58800000D01*
X145000000Y-67000000D02*
X145000000Y-58800000D01*
X140000000Y-74920000D02*
X140000000Y-58800000D01*
X140000000Y-67000000D02*
X145000000Y-67000000D01*
G04 #@! TO.N,OUT5*
X155000000Y-131200000D02*
X150000000Y-131200000D01*
X150000000Y-131200000D02*
X150000000Y-123000000D01*
X155000000Y-115080000D02*
X155000000Y-131200000D01*
X150000000Y-123000000D02*
X155000000Y-123000000D01*
G04 #@! TO.N,OUT6*
X130000000Y-131200000D02*
X125000000Y-131200000D01*
X125000000Y-123000000D02*
X125000000Y-131200000D01*
X130000000Y-123000000D02*
X125000000Y-123000000D01*
X130000000Y-115080000D02*
X130000000Y-131200000D01*
G04 #@! TO.N,OUT7*
X105000000Y-115080000D02*
X105000000Y-131200000D01*
X100000000Y-131200000D02*
X100000000Y-123000000D01*
X105000000Y-131200000D02*
X100000000Y-131200000D01*
X100000000Y-123000000D02*
X105000000Y-123000000D01*
G04 #@! TO.N,OUT8*
X80000000Y-115080000D02*
X80000000Y-131200000D01*
X80000000Y-123000000D02*
X75000000Y-123000000D01*
X75000000Y-123000000D02*
X75000000Y-131200000D01*
X80000000Y-131200000D02*
X75000000Y-131200000D01*
G04 #@! TD*
G04 #@! TA.AperFunction,Conductor*
G04 #@! TO.N,+BATT*
G36*
X160342582Y-76019767D02*
G01*
X160389075Y-76073422D01*
X160400462Y-76125732D01*
X160406574Y-99448467D01*
X160386590Y-99516593D01*
X160332946Y-99563100D01*
X160280574Y-99574500D01*
X160016267Y-99574500D01*
X159948146Y-99554498D01*
X159913054Y-99520770D01*
X159781654Y-99333111D01*
X159778495Y-99328599D01*
X159611401Y-99161505D01*
X159606893Y-99158348D01*
X159606890Y-99158346D01*
X159430950Y-99035152D01*
X159428181Y-99033213D01*
X159383853Y-98977756D01*
X159376544Y-98907137D01*
X159408575Y-98843776D01*
X159428181Y-98826787D01*
X159606890Y-98701654D01*
X159606893Y-98701652D01*
X159611401Y-98698495D01*
X159778495Y-98531401D01*
X159914035Y-98337829D01*
X159918487Y-98328283D01*
X160011580Y-98128645D01*
X160011581Y-98128643D01*
X160013903Y-98123663D01*
X160075063Y-97895408D01*
X160095659Y-97660000D01*
X160075063Y-97424592D01*
X160013903Y-97196337D01*
X160006590Y-97180655D01*
X159916358Y-96987152D01*
X159916356Y-96987149D01*
X159914035Y-96982171D01*
X159778495Y-96788599D01*
X159611401Y-96621505D01*
X159606893Y-96618348D01*
X159606890Y-96618346D01*
X159443742Y-96504109D01*
X159428181Y-96493213D01*
X159383853Y-96437756D01*
X159376544Y-96367137D01*
X159408575Y-96303776D01*
X159428181Y-96286787D01*
X159606890Y-96161654D01*
X159606893Y-96161652D01*
X159611401Y-96158495D01*
X159778495Y-95991401D01*
X159914035Y-95797829D01*
X159929880Y-95763851D01*
X160011580Y-95588645D01*
X160011581Y-95588643D01*
X160013903Y-95583663D01*
X160066508Y-95387338D01*
X160073639Y-95360723D01*
X160073639Y-95360722D01*
X160075063Y-95355408D01*
X160095659Y-95120000D01*
X160075063Y-94884592D01*
X160013903Y-94656337D01*
X159933288Y-94483458D01*
X159916358Y-94447152D01*
X159916356Y-94447149D01*
X159914035Y-94442171D01*
X159778495Y-94248599D01*
X159611401Y-94081505D01*
X159606893Y-94078348D01*
X159606890Y-94078346D01*
X159479408Y-93989082D01*
X159428181Y-93953213D01*
X159383853Y-93897756D01*
X159376544Y-93827137D01*
X159408575Y-93763776D01*
X159428181Y-93746787D01*
X159606890Y-93621654D01*
X159606893Y-93621652D01*
X159611401Y-93618495D01*
X159778495Y-93451401D01*
X159914035Y-93257829D01*
X159929880Y-93223851D01*
X160011580Y-93048645D01*
X160011581Y-93048643D01*
X160013903Y-93043663D01*
X160072577Y-92824688D01*
X160073639Y-92820723D01*
X160073639Y-92820722D01*
X160075063Y-92815408D01*
X160095659Y-92580000D01*
X160075063Y-92344592D01*
X160073639Y-92339277D01*
X160015326Y-92121647D01*
X160015325Y-92121645D01*
X160013903Y-92116337D01*
X159933288Y-91943458D01*
X159916358Y-91907152D01*
X159916356Y-91907149D01*
X159914035Y-91902171D01*
X159778495Y-91708599D01*
X159611401Y-91541505D01*
X159606893Y-91538348D01*
X159606890Y-91538346D01*
X159479408Y-91449082D01*
X159428181Y-91413213D01*
X159383853Y-91357756D01*
X159376544Y-91287137D01*
X159408575Y-91223776D01*
X159428181Y-91206787D01*
X159606890Y-91081654D01*
X159606893Y-91081652D01*
X159611401Y-91078495D01*
X159778495Y-90911401D01*
X159914035Y-90717829D01*
X159929880Y-90683851D01*
X160011580Y-90508645D01*
X160011581Y-90508643D01*
X160013903Y-90503663D01*
X160075063Y-90275408D01*
X160095659Y-90040000D01*
X160075063Y-89804592D01*
X160013903Y-89576337D01*
X159968123Y-89478162D01*
X159916358Y-89367152D01*
X159916356Y-89367149D01*
X159914035Y-89362171D01*
X159778495Y-89168599D01*
X159611401Y-89001505D01*
X159606893Y-88998348D01*
X159606890Y-88998346D01*
X159476775Y-88907239D01*
X159435336Y-88878223D01*
X159391008Y-88822766D01*
X159383699Y-88752147D01*
X159415730Y-88688786D01*
X159438018Y-88670859D01*
X159437737Y-88670465D01*
X159489247Y-88633723D01*
X159497648Y-88623023D01*
X159490660Y-88609870D01*
X158752812Y-87872022D01*
X158738868Y-87864408D01*
X158737035Y-87864539D01*
X158730420Y-87868790D01*
X157986737Y-88612473D01*
X157979977Y-88624853D01*
X157985257Y-88631906D01*
X158039612Y-88663669D01*
X158088335Y-88715308D01*
X158101406Y-88785091D01*
X158074674Y-88850863D01*
X158048312Y-88875669D01*
X157868599Y-89001505D01*
X157701505Y-89168599D01*
X157698346Y-89173111D01*
X157573213Y-89351820D01*
X157517756Y-89396149D01*
X157447137Y-89403458D01*
X157383776Y-89371428D01*
X157366787Y-89351820D01*
X157241654Y-89173111D01*
X157238495Y-89168599D01*
X157071401Y-89001505D01*
X157073138Y-88999768D01*
X157039554Y-88949342D01*
X157038392Y-88878355D01*
X157075794Y-88818009D01*
X157110721Y-88797722D01*
X157110156Y-88796517D01*
X157129962Y-88787239D01*
X157267807Y-88701937D01*
X157279208Y-88692901D01*
X157393739Y-88578171D01*
X157402751Y-88566760D01*
X157487816Y-88428757D01*
X157493964Y-88415574D01*
X157516297Y-88348241D01*
X157556727Y-88289881D01*
X157586015Y-88272199D01*
X157625694Y-88255096D01*
X158367978Y-87512812D01*
X158374356Y-87501132D01*
X159104408Y-87501132D01*
X159104539Y-87502965D01*
X159108790Y-87509580D01*
X159850474Y-88251264D01*
X159862484Y-88257823D01*
X159874223Y-88248855D01*
X159905004Y-88206019D01*
X159910315Y-88197180D01*
X160004670Y-88006267D01*
X160008469Y-87996672D01*
X160070376Y-87792915D01*
X160072555Y-87782834D01*
X160100590Y-87569887D01*
X160101109Y-87563212D01*
X160102572Y-87503364D01*
X160102378Y-87496646D01*
X160084781Y-87282604D01*
X160083096Y-87272424D01*
X160031214Y-87065875D01*
X160027894Y-87056124D01*
X159942972Y-86860814D01*
X159938105Y-86851739D01*
X159873063Y-86751197D01*
X159862377Y-86741995D01*
X159852812Y-86746398D01*
X159112022Y-87487188D01*
X159104408Y-87501132D01*
X158374356Y-87501132D01*
X158375592Y-87498868D01*
X158375461Y-87497035D01*
X158371210Y-87490420D01*
X157629849Y-86749059D01*
X157589966Y-86727280D01*
X157576009Y-86724244D01*
X157525807Y-86674042D01*
X157516871Y-86653532D01*
X157493413Y-86583218D01*
X157487239Y-86570038D01*
X157401937Y-86432193D01*
X157392901Y-86420792D01*
X157348459Y-86376427D01*
X157981223Y-86376427D01*
X157987968Y-86388758D01*
X158727188Y-87127978D01*
X158741132Y-87135592D01*
X158742965Y-87135461D01*
X158749580Y-87131210D01*
X159493389Y-86387401D01*
X159500410Y-86374544D01*
X159493611Y-86365213D01*
X159489554Y-86362518D01*
X159303117Y-86259599D01*
X159293705Y-86255369D01*
X159092959Y-86184280D01*
X159082989Y-86181646D01*
X158873327Y-86144301D01*
X158863073Y-86143331D01*
X158650116Y-86140728D01*
X158639832Y-86141448D01*
X158429321Y-86173661D01*
X158419293Y-86176050D01*
X158216868Y-86242212D01*
X158207359Y-86246209D01*
X158018466Y-86344540D01*
X158009734Y-86350039D01*
X157989677Y-86365099D01*
X157981223Y-86376427D01*
X157348459Y-86376427D01*
X157278171Y-86306261D01*
X157266760Y-86297249D01*
X157128757Y-86212184D01*
X157115576Y-86206037D01*
X156961290Y-86154862D01*
X156947914Y-86151995D01*
X156853562Y-86142328D01*
X156847145Y-86142000D01*
X156472115Y-86142000D01*
X156456876Y-86146475D01*
X156455671Y-86147865D01*
X156454000Y-86155548D01*
X156454000Y-87628000D01*
X156433998Y-87696121D01*
X156380342Y-87742614D01*
X156328000Y-87754000D01*
X154860116Y-87754000D01*
X154844877Y-87758475D01*
X154843672Y-87759865D01*
X154842001Y-87767548D01*
X154842001Y-88147095D01*
X154842338Y-88153614D01*
X154852257Y-88249206D01*
X154855149Y-88262600D01*
X154906588Y-88416784D01*
X154912761Y-88429962D01*
X154998063Y-88567807D01*
X155007099Y-88579208D01*
X155121829Y-88693739D01*
X155133240Y-88702751D01*
X155271243Y-88787816D01*
X155291057Y-88797056D01*
X155289925Y-88799484D01*
X155338050Y-88832833D01*
X155365279Y-88898400D01*
X155352737Y-88968280D01*
X155327439Y-89000345D01*
X155328599Y-89001505D01*
X155161505Y-89168599D01*
X155025965Y-89362171D01*
X155023644Y-89367149D01*
X155023642Y-89367152D01*
X154971877Y-89478162D01*
X154926097Y-89576337D01*
X154864937Y-89804592D01*
X154844341Y-90040000D01*
X154864937Y-90275408D01*
X154926097Y-90503663D01*
X154928419Y-90508643D01*
X154928420Y-90508645D01*
X155010121Y-90683851D01*
X155025965Y-90717829D01*
X155161505Y-90911401D01*
X155328599Y-91078495D01*
X155333107Y-91081652D01*
X155333110Y-91081654D01*
X155511820Y-91206788D01*
X155556148Y-91262245D01*
X155563457Y-91332865D01*
X155531426Y-91396225D01*
X155511822Y-91413211D01*
X155328599Y-91541505D01*
X155161505Y-91708599D01*
X155025965Y-91902171D01*
X155023644Y-91907149D01*
X155023642Y-91907152D01*
X155006712Y-91943458D01*
X154926097Y-92116337D01*
X154924675Y-92121645D01*
X154924674Y-92121647D01*
X154866361Y-92339277D01*
X154864937Y-92344592D01*
X154844341Y-92580000D01*
X154864937Y-92815408D01*
X154866361Y-92820722D01*
X154866361Y-92820723D01*
X154867424Y-92824688D01*
X154926097Y-93043663D01*
X154928419Y-93048643D01*
X154928420Y-93048645D01*
X155010121Y-93223851D01*
X155025965Y-93257829D01*
X155161505Y-93451401D01*
X155328599Y-93618495D01*
X155333107Y-93621652D01*
X155333110Y-93621654D01*
X155511820Y-93746788D01*
X155556148Y-93802245D01*
X155563457Y-93872865D01*
X155531426Y-93936225D01*
X155511822Y-93953211D01*
X155328599Y-94081505D01*
X155161505Y-94248599D01*
X155025965Y-94442171D01*
X155023644Y-94447149D01*
X155023642Y-94447152D01*
X155006712Y-94483458D01*
X154926097Y-94656337D01*
X154864937Y-94884592D01*
X154844341Y-95120000D01*
X154864937Y-95355408D01*
X154866361Y-95360722D01*
X154866361Y-95360723D01*
X154873493Y-95387338D01*
X154926097Y-95583663D01*
X154928419Y-95588643D01*
X154928420Y-95588645D01*
X155010121Y-95763851D01*
X155025965Y-95797829D01*
X155161505Y-95991401D01*
X155328599Y-96158495D01*
X155333107Y-96161652D01*
X155333110Y-96161654D01*
X155511820Y-96286788D01*
X155556148Y-96342245D01*
X155563457Y-96412865D01*
X155531426Y-96476225D01*
X155511822Y-96493211D01*
X155328599Y-96621505D01*
X155161505Y-96788599D01*
X155025965Y-96982171D01*
X155023644Y-96987149D01*
X155023642Y-96987152D01*
X154933410Y-97180655D01*
X154926097Y-97196337D01*
X154864937Y-97424592D01*
X154844341Y-97660000D01*
X154864937Y-97895408D01*
X154926097Y-98123663D01*
X154928419Y-98128643D01*
X154928420Y-98128645D01*
X155021514Y-98328283D01*
X155025965Y-98337829D01*
X155161505Y-98531401D01*
X155328599Y-98698495D01*
X155333107Y-98701652D01*
X155333110Y-98701654D01*
X155511820Y-98826788D01*
X155556148Y-98882245D01*
X155563457Y-98952865D01*
X155531426Y-99016225D01*
X155511822Y-99033211D01*
X155328599Y-99161505D01*
X155161505Y-99328599D01*
X155025965Y-99522171D01*
X155023644Y-99527149D01*
X155023642Y-99527152D01*
X155006879Y-99563100D01*
X154926097Y-99736337D01*
X154924675Y-99741645D01*
X154924674Y-99741647D01*
X154916781Y-99771106D01*
X154864937Y-99964592D01*
X154844341Y-100200000D01*
X154864937Y-100435408D01*
X154866361Y-100440722D01*
X154866361Y-100440723D01*
X154903898Y-100580813D01*
X154926097Y-100663663D01*
X154928419Y-100668643D01*
X154928420Y-100668645D01*
X155021535Y-100868328D01*
X155025965Y-100877829D01*
X155161505Y-101071401D01*
X155328599Y-101238495D01*
X155333107Y-101241652D01*
X155333110Y-101241654D01*
X155517661Y-101370878D01*
X155522170Y-101374035D01*
X155527152Y-101376358D01*
X155527157Y-101376361D01*
X155731355Y-101471580D01*
X155736337Y-101473903D01*
X155741645Y-101475325D01*
X155741647Y-101475326D01*
X155900885Y-101517993D01*
X155964592Y-101535063D01*
X156200000Y-101555659D01*
X156435408Y-101535063D01*
X156499115Y-101517993D01*
X156658353Y-101475326D01*
X156658355Y-101475325D01*
X156663663Y-101473903D01*
X156668645Y-101471580D01*
X156872843Y-101376361D01*
X156872848Y-101376358D01*
X156877830Y-101374035D01*
X156882339Y-101370878D01*
X157066890Y-101241654D01*
X157066893Y-101241652D01*
X157071401Y-101238495D01*
X157238495Y-101071401D01*
X157366787Y-100888180D01*
X157422244Y-100843851D01*
X157492863Y-100836542D01*
X157556224Y-100868572D01*
X157573212Y-100888179D01*
X157701505Y-101071401D01*
X157868599Y-101238495D01*
X157873107Y-101241652D01*
X157873110Y-101241654D01*
X158057661Y-101370878D01*
X158062170Y-101374035D01*
X158067152Y-101376358D01*
X158067157Y-101376361D01*
X158271355Y-101471580D01*
X158276337Y-101473903D01*
X158281645Y-101475325D01*
X158281647Y-101475326D01*
X158440885Y-101517993D01*
X158504592Y-101535063D01*
X158740000Y-101555659D01*
X158975408Y-101535063D01*
X159039115Y-101517993D01*
X159198353Y-101475326D01*
X159198355Y-101475325D01*
X159203663Y-101473903D01*
X159208645Y-101471580D01*
X159412843Y-101376361D01*
X159412848Y-101376358D01*
X159417830Y-101374035D01*
X159422339Y-101370878D01*
X159606890Y-101241654D01*
X159606893Y-101241652D01*
X159611401Y-101238495D01*
X159778495Y-101071401D01*
X159913054Y-100879230D01*
X159968511Y-100834901D01*
X160016267Y-100825500D01*
X160280968Y-100825500D01*
X160349089Y-100845502D01*
X160395582Y-100899158D01*
X160406968Y-100951467D01*
X160409710Y-111411335D01*
X160410098Y-112891371D01*
X160410374Y-113946239D01*
X160390390Y-114014365D01*
X160336746Y-114060872D01*
X160284251Y-114072272D01*
X156402422Y-114068414D01*
X156331599Y-114068344D01*
X156263498Y-114048274D01*
X156235915Y-114024177D01*
X156152956Y-113927044D01*
X155958399Y-113760877D01*
X155740243Y-113627191D01*
X155735671Y-113625297D01*
X155733914Y-113624402D01*
X155702019Y-113601229D01*
X155012812Y-112912022D01*
X154998868Y-112904408D01*
X154997035Y-112904539D01*
X154990420Y-112908790D01*
X154297981Y-113601229D01*
X154266086Y-113624402D01*
X154264329Y-113625297D01*
X154259757Y-113627191D01*
X154041601Y-113760877D01*
X153847044Y-113927044D01*
X153768833Y-114018618D01*
X153766346Y-114021530D01*
X153706895Y-114060339D01*
X153670410Y-114065699D01*
X142308330Y-114054409D01*
X142240229Y-114034339D01*
X142193789Y-113980637D01*
X142183755Y-113910353D01*
X142190824Y-113883255D01*
X142280171Y-113650498D01*
X142282212Y-113644216D01*
X142381094Y-113275184D01*
X142382465Y-113268734D01*
X142442234Y-112891371D01*
X142442920Y-112884833D01*
X142462609Y-112509167D01*
X153527706Y-112509167D01*
X153541006Y-112739838D01*
X153542442Y-112750058D01*
X153593238Y-112975454D01*
X153596317Y-112985282D01*
X153683249Y-113199370D01*
X153687892Y-113208561D01*
X153786464Y-113369416D01*
X153796921Y-113378876D01*
X153805697Y-113375093D01*
X154910905Y-112269885D01*
X154973217Y-112235859D01*
X155044032Y-112240924D01*
X155089095Y-112269885D01*
X156189296Y-113370086D01*
X156201306Y-113376645D01*
X156213046Y-113367677D01*
X156259616Y-113302867D01*
X156264927Y-113294028D01*
X156367296Y-113086901D01*
X156371094Y-113077308D01*
X156438262Y-112856232D01*
X156440439Y-112846162D01*
X156470835Y-112615279D01*
X156471354Y-112608604D01*
X156472949Y-112543364D01*
X156472755Y-112536647D01*
X156453675Y-112304567D01*
X156451992Y-112294405D01*
X156395703Y-112070306D01*
X156392382Y-112060551D01*
X156300252Y-111848667D01*
X156295374Y-111839570D01*
X156169877Y-111645581D01*
X156163585Y-111637410D01*
X156140008Y-111611499D01*
X156108956Y-111547653D01*
X156117352Y-111477154D01*
X156162529Y-111422386D01*
X156188974Y-111408718D01*
X156202824Y-111403526D01*
X156210003Y-111398146D01*
X156210006Y-111398144D01*
X156310365Y-111322928D01*
X156317546Y-111317546D01*
X156347511Y-111277564D01*
X156398144Y-111210006D01*
X156398146Y-111210003D01*
X156403526Y-111202824D01*
X156453851Y-111068580D01*
X156460500Y-111007377D01*
X156460499Y-108992624D01*
X156458023Y-108969829D01*
X156454705Y-108939278D01*
X156454704Y-108939274D01*
X156453851Y-108931420D01*
X156403526Y-108797176D01*
X156398146Y-108789997D01*
X156398144Y-108789994D01*
X156322928Y-108689635D01*
X156317546Y-108682454D01*
X156310365Y-108677072D01*
X156210006Y-108601856D01*
X156210003Y-108601854D01*
X156202824Y-108596474D01*
X156113439Y-108562966D01*
X156075975Y-108548921D01*
X156075973Y-108548921D01*
X156068580Y-108546149D01*
X156060730Y-108545296D01*
X156060729Y-108545296D01*
X156010774Y-108539869D01*
X156010773Y-108539869D01*
X156007377Y-108539500D01*
X155000148Y-108539500D01*
X153992624Y-108539501D01*
X153989230Y-108539870D01*
X153989224Y-108539870D01*
X153939278Y-108545295D01*
X153939274Y-108545296D01*
X153931420Y-108546149D01*
X153797176Y-108596474D01*
X153789997Y-108601854D01*
X153789994Y-108601856D01*
X153689635Y-108677072D01*
X153682454Y-108682454D01*
X153677072Y-108689635D01*
X153601856Y-108789994D01*
X153601854Y-108789997D01*
X153596474Y-108797176D01*
X153546149Y-108931420D01*
X153539500Y-108992623D01*
X153539501Y-111007376D01*
X153546149Y-111068580D01*
X153596474Y-111202824D01*
X153601854Y-111210003D01*
X153601856Y-111210006D01*
X153652489Y-111277564D01*
X153682454Y-111317546D01*
X153689635Y-111322928D01*
X153789994Y-111398144D01*
X153789997Y-111398146D01*
X153797176Y-111403526D01*
X153808541Y-111407786D01*
X153811050Y-111409671D01*
X153813455Y-111410988D01*
X153813265Y-111411335D01*
X153865304Y-111450426D01*
X153890005Y-111516987D01*
X153874798Y-111586336D01*
X153861379Y-111604680D01*
X153862066Y-111605236D01*
X153852326Y-111617264D01*
X153722119Y-111808139D01*
X153717031Y-111817095D01*
X153619750Y-112026670D01*
X153616187Y-112036357D01*
X153554442Y-112258999D01*
X153552511Y-112269118D01*
X153527958Y-112498878D01*
X153527706Y-112509167D01*
X142462609Y-112509167D01*
X142462916Y-112503301D01*
X142462916Y-112496699D01*
X142442920Y-112115167D01*
X142442234Y-112108629D01*
X142382465Y-111731266D01*
X142381094Y-111724816D01*
X142282212Y-111355784D01*
X142280171Y-111349502D01*
X142143260Y-110992836D01*
X142140578Y-110986811D01*
X141967128Y-110646397D01*
X141963831Y-110640687D01*
X141755747Y-110320265D01*
X141751877Y-110314939D01*
X141558522Y-110076165D01*
X141546267Y-110067700D01*
X141535176Y-110074034D01*
X138839095Y-112770115D01*
X138776783Y-112804141D01*
X138705968Y-112799076D01*
X138660905Y-112770115D01*
X135965690Y-110074900D01*
X135952614Y-110067759D01*
X135942247Y-110075216D01*
X135748123Y-110314939D01*
X135744253Y-110320265D01*
X135536169Y-110640687D01*
X135532872Y-110646397D01*
X135359422Y-110986811D01*
X135356740Y-110992836D01*
X135219829Y-111349502D01*
X135217788Y-111355784D01*
X135118906Y-111724816D01*
X135117535Y-111731266D01*
X135057766Y-112108629D01*
X135057080Y-112115167D01*
X135037084Y-112496699D01*
X135037084Y-112503301D01*
X135057080Y-112884833D01*
X135057766Y-112891371D01*
X135117535Y-113268734D01*
X135118906Y-113275184D01*
X135217788Y-113644216D01*
X135219829Y-113650498D01*
X135306460Y-113876181D01*
X135312199Y-113946945D01*
X135278768Y-114009578D01*
X135216783Y-114044195D01*
X135188705Y-114047335D01*
X131310362Y-114043481D01*
X131242264Y-114023412D01*
X131214680Y-113999314D01*
X131152956Y-113927044D01*
X131149194Y-113923831D01*
X131149189Y-113923826D01*
X131014462Y-113808759D01*
X130958399Y-113760877D01*
X130740243Y-113627191D01*
X130735671Y-113625297D01*
X130733914Y-113624402D01*
X130702019Y-113601229D01*
X130012812Y-112912022D01*
X129998868Y-112904408D01*
X129997035Y-112904539D01*
X129990420Y-112908790D01*
X129297981Y-113601229D01*
X129266086Y-113624402D01*
X129264329Y-113625297D01*
X129259757Y-113627191D01*
X129041601Y-113760877D01*
X128847044Y-113927044D01*
X128787543Y-113996711D01*
X128728095Y-114035518D01*
X128691609Y-114040879D01*
X126222941Y-114038426D01*
X117317862Y-114029577D01*
X117249761Y-114009507D01*
X117203321Y-113955805D01*
X117193287Y-113885521D01*
X117200356Y-113858423D01*
X117280171Y-113650498D01*
X117282212Y-113644216D01*
X117381094Y-113275184D01*
X117382465Y-113268734D01*
X117442234Y-112891371D01*
X117442920Y-112884833D01*
X117462609Y-112509167D01*
X128527706Y-112509167D01*
X128541006Y-112739838D01*
X128542442Y-112750058D01*
X128593238Y-112975454D01*
X128596317Y-112985282D01*
X128683249Y-113199370D01*
X128687892Y-113208561D01*
X128786464Y-113369416D01*
X128796921Y-113378876D01*
X128805697Y-113375093D01*
X129910905Y-112269885D01*
X129973217Y-112235859D01*
X130044032Y-112240924D01*
X130089095Y-112269885D01*
X131189296Y-113370086D01*
X131201306Y-113376645D01*
X131213046Y-113367677D01*
X131259616Y-113302867D01*
X131264927Y-113294028D01*
X131367296Y-113086901D01*
X131371094Y-113077308D01*
X131438262Y-112856232D01*
X131440439Y-112846162D01*
X131470835Y-112615279D01*
X131471354Y-112608604D01*
X131472949Y-112543364D01*
X131472755Y-112536647D01*
X131453675Y-112304567D01*
X131451992Y-112294405D01*
X131395703Y-112070306D01*
X131392382Y-112060551D01*
X131300252Y-111848667D01*
X131295374Y-111839570D01*
X131169877Y-111645581D01*
X131163585Y-111637410D01*
X131140008Y-111611499D01*
X131108956Y-111547653D01*
X131117352Y-111477154D01*
X131162529Y-111422386D01*
X131188974Y-111408718D01*
X131202824Y-111403526D01*
X131210003Y-111398146D01*
X131210006Y-111398144D01*
X131310365Y-111322928D01*
X131317546Y-111317546D01*
X131347511Y-111277564D01*
X131398144Y-111210006D01*
X131398146Y-111210003D01*
X131403526Y-111202824D01*
X131453851Y-111068580D01*
X131460500Y-111007377D01*
X131460499Y-109703733D01*
X136317700Y-109703733D01*
X136324034Y-109714824D01*
X138737188Y-112127978D01*
X138751132Y-112135592D01*
X138752965Y-112135461D01*
X138759580Y-112131210D01*
X141175100Y-109715690D01*
X141182241Y-109702614D01*
X141174784Y-109692247D01*
X140935065Y-109498126D01*
X140929728Y-109494249D01*
X140609315Y-109286170D01*
X140603606Y-109282873D01*
X140263189Y-109109422D01*
X140257164Y-109106740D01*
X139900498Y-108969829D01*
X139894216Y-108967788D01*
X139525184Y-108868906D01*
X139518734Y-108867535D01*
X139141371Y-108807766D01*
X139134833Y-108807080D01*
X138753301Y-108787084D01*
X138746699Y-108787084D01*
X138365167Y-108807080D01*
X138358629Y-108807766D01*
X137981266Y-108867535D01*
X137974816Y-108868906D01*
X137605784Y-108967788D01*
X137599502Y-108969829D01*
X137242836Y-109106740D01*
X137236811Y-109109422D01*
X136896397Y-109282872D01*
X136890687Y-109286169D01*
X136570265Y-109494253D01*
X136564939Y-109498123D01*
X136326165Y-109691478D01*
X136317700Y-109703733D01*
X131460499Y-109703733D01*
X131460499Y-108992624D01*
X131458023Y-108969829D01*
X131454705Y-108939278D01*
X131454704Y-108939274D01*
X131453851Y-108931420D01*
X131403526Y-108797176D01*
X131398146Y-108789997D01*
X131398144Y-108789994D01*
X131322928Y-108689635D01*
X131317546Y-108682454D01*
X131310365Y-108677072D01*
X131210006Y-108601856D01*
X131210003Y-108601854D01*
X131202824Y-108596474D01*
X131113439Y-108562966D01*
X131075975Y-108548921D01*
X131075973Y-108548921D01*
X131068580Y-108546149D01*
X131060730Y-108545296D01*
X131060729Y-108545296D01*
X131010774Y-108539869D01*
X131010773Y-108539869D01*
X131007377Y-108539500D01*
X130000148Y-108539500D01*
X128992624Y-108539501D01*
X128989230Y-108539870D01*
X128989224Y-108539870D01*
X128939278Y-108545295D01*
X128939274Y-108545296D01*
X128931420Y-108546149D01*
X128797176Y-108596474D01*
X128789997Y-108601854D01*
X128789994Y-108601856D01*
X128689635Y-108677072D01*
X128682454Y-108682454D01*
X128677072Y-108689635D01*
X128601856Y-108789994D01*
X128601854Y-108789997D01*
X128596474Y-108797176D01*
X128546149Y-108931420D01*
X128539500Y-108992623D01*
X128539501Y-111007376D01*
X128546149Y-111068580D01*
X128596474Y-111202824D01*
X128601854Y-111210003D01*
X128601856Y-111210006D01*
X128652489Y-111277564D01*
X128682454Y-111317546D01*
X128689635Y-111322928D01*
X128789994Y-111398144D01*
X128789997Y-111398146D01*
X128797176Y-111403526D01*
X128808541Y-111407786D01*
X128811050Y-111409671D01*
X128813455Y-111410988D01*
X128813265Y-111411335D01*
X128865304Y-111450426D01*
X128890005Y-111516987D01*
X128874798Y-111586336D01*
X128861379Y-111604680D01*
X128862066Y-111605236D01*
X128852326Y-111617264D01*
X128722119Y-111808139D01*
X128717031Y-111817095D01*
X128619750Y-112026670D01*
X128616187Y-112036357D01*
X128554442Y-112258999D01*
X128552511Y-112269118D01*
X128527958Y-112498878D01*
X128527706Y-112509167D01*
X117462609Y-112509167D01*
X117462916Y-112503301D01*
X117462916Y-112496699D01*
X117442920Y-112115167D01*
X117442234Y-112108629D01*
X117382465Y-111731266D01*
X117381094Y-111724816D01*
X117282212Y-111355784D01*
X117280171Y-111349502D01*
X117143260Y-110992836D01*
X117140578Y-110986811D01*
X116967128Y-110646397D01*
X116963831Y-110640687D01*
X116755747Y-110320265D01*
X116751877Y-110314939D01*
X116558522Y-110076165D01*
X116546267Y-110067700D01*
X116535176Y-110074034D01*
X113839095Y-112770115D01*
X113776783Y-112804141D01*
X113705968Y-112799076D01*
X113660905Y-112770115D01*
X110965690Y-110074900D01*
X110952614Y-110067759D01*
X110942247Y-110075216D01*
X110748123Y-110314939D01*
X110744253Y-110320265D01*
X110536169Y-110640687D01*
X110532872Y-110646397D01*
X110359422Y-110986811D01*
X110356740Y-110992836D01*
X110219829Y-111349502D01*
X110217788Y-111355784D01*
X110118906Y-111724816D01*
X110117535Y-111731266D01*
X110057766Y-112108629D01*
X110057080Y-112115167D01*
X110037084Y-112496699D01*
X110037084Y-112503301D01*
X110057080Y-112884833D01*
X110057766Y-112891371D01*
X110117535Y-113268734D01*
X110118906Y-113275184D01*
X110217788Y-113644216D01*
X110219829Y-113650498D01*
X110296921Y-113851330D01*
X110302660Y-113922094D01*
X110269229Y-113984727D01*
X110207244Y-114019344D01*
X110179168Y-114022484D01*
X106289127Y-114018618D01*
X106221029Y-113998549D01*
X106193445Y-113974451D01*
X106152956Y-113927044D01*
X106149194Y-113923831D01*
X106149189Y-113923826D01*
X106014462Y-113808759D01*
X105958399Y-113760877D01*
X105740243Y-113627191D01*
X105735671Y-113625297D01*
X105733914Y-113624402D01*
X105702019Y-113601229D01*
X105012812Y-112912022D01*
X104998868Y-112904408D01*
X104997035Y-112904539D01*
X104990420Y-112908790D01*
X104297981Y-113601229D01*
X104266086Y-113624402D01*
X104264329Y-113625297D01*
X104259757Y-113627191D01*
X104041601Y-113760877D01*
X103985538Y-113808759D01*
X103850811Y-113923826D01*
X103850806Y-113923831D01*
X103847044Y-113927044D01*
X103843831Y-113930806D01*
X103843822Y-113930815D01*
X103808741Y-113971889D01*
X103749290Y-114010698D01*
X103712806Y-114016058D01*
X96136790Y-114008530D01*
X92327395Y-114004745D01*
X92259294Y-113984675D01*
X92212854Y-113930973D01*
X92202820Y-113860689D01*
X92209889Y-113833591D01*
X92280171Y-113650498D01*
X92282212Y-113644216D01*
X92381094Y-113275184D01*
X92382465Y-113268734D01*
X92442234Y-112891371D01*
X92442920Y-112884833D01*
X92462609Y-112509167D01*
X103527706Y-112509167D01*
X103541006Y-112739838D01*
X103542442Y-112750058D01*
X103593238Y-112975454D01*
X103596317Y-112985282D01*
X103683249Y-113199370D01*
X103687892Y-113208561D01*
X103786464Y-113369416D01*
X103796921Y-113378876D01*
X103805697Y-113375093D01*
X104910905Y-112269885D01*
X104973217Y-112235859D01*
X105044032Y-112240924D01*
X105089095Y-112269885D01*
X106189296Y-113370086D01*
X106201306Y-113376645D01*
X106213046Y-113367677D01*
X106259616Y-113302867D01*
X106264927Y-113294028D01*
X106367296Y-113086901D01*
X106371094Y-113077308D01*
X106438262Y-112856232D01*
X106440439Y-112846162D01*
X106470835Y-112615279D01*
X106471354Y-112608604D01*
X106472949Y-112543364D01*
X106472755Y-112536647D01*
X106453675Y-112304567D01*
X106451992Y-112294405D01*
X106395703Y-112070306D01*
X106392382Y-112060551D01*
X106300252Y-111848667D01*
X106295374Y-111839570D01*
X106169877Y-111645581D01*
X106163585Y-111637410D01*
X106140008Y-111611499D01*
X106108956Y-111547653D01*
X106117352Y-111477154D01*
X106162529Y-111422386D01*
X106188974Y-111408718D01*
X106202824Y-111403526D01*
X106210003Y-111398146D01*
X106210006Y-111398144D01*
X106310365Y-111322928D01*
X106317546Y-111317546D01*
X106347511Y-111277564D01*
X106398144Y-111210006D01*
X106398146Y-111210003D01*
X106403526Y-111202824D01*
X106453851Y-111068580D01*
X106460500Y-111007377D01*
X106460499Y-109703733D01*
X111317700Y-109703733D01*
X111324034Y-109714824D01*
X113737188Y-112127978D01*
X113751132Y-112135592D01*
X113752965Y-112135461D01*
X113759580Y-112131210D01*
X116175100Y-109715690D01*
X116182241Y-109702614D01*
X116174784Y-109692247D01*
X115935065Y-109498126D01*
X115929728Y-109494249D01*
X115609315Y-109286170D01*
X115603606Y-109282873D01*
X115263189Y-109109422D01*
X115257164Y-109106740D01*
X114900498Y-108969829D01*
X114894216Y-108967788D01*
X114525184Y-108868906D01*
X114518734Y-108867535D01*
X114141371Y-108807766D01*
X114134833Y-108807080D01*
X113753301Y-108787084D01*
X113746699Y-108787084D01*
X113365167Y-108807080D01*
X113358629Y-108807766D01*
X112981266Y-108867535D01*
X112974816Y-108868906D01*
X112605784Y-108967788D01*
X112599502Y-108969829D01*
X112242836Y-109106740D01*
X112236811Y-109109422D01*
X111896397Y-109282872D01*
X111890687Y-109286169D01*
X111570265Y-109494253D01*
X111564939Y-109498123D01*
X111326165Y-109691478D01*
X111317700Y-109703733D01*
X106460499Y-109703733D01*
X106460499Y-108992624D01*
X106458023Y-108969829D01*
X106454705Y-108939278D01*
X106454704Y-108939274D01*
X106453851Y-108931420D01*
X106403526Y-108797176D01*
X106398146Y-108789997D01*
X106398144Y-108789994D01*
X106322928Y-108689635D01*
X106317546Y-108682454D01*
X106310365Y-108677072D01*
X106210006Y-108601856D01*
X106210003Y-108601854D01*
X106202824Y-108596474D01*
X106113439Y-108562966D01*
X106075975Y-108548921D01*
X106075973Y-108548921D01*
X106068580Y-108546149D01*
X106060730Y-108545296D01*
X106060729Y-108545296D01*
X106010774Y-108539869D01*
X106010773Y-108539869D01*
X106007377Y-108539500D01*
X105000148Y-108539500D01*
X103992624Y-108539501D01*
X103989230Y-108539870D01*
X103989224Y-108539870D01*
X103939278Y-108545295D01*
X103939274Y-108545296D01*
X103931420Y-108546149D01*
X103797176Y-108596474D01*
X103789997Y-108601854D01*
X103789994Y-108601856D01*
X103689635Y-108677072D01*
X103682454Y-108682454D01*
X103677072Y-108689635D01*
X103601856Y-108789994D01*
X103601854Y-108789997D01*
X103596474Y-108797176D01*
X103546149Y-108931420D01*
X103539500Y-108992623D01*
X103539501Y-111007376D01*
X103546149Y-111068580D01*
X103596474Y-111202824D01*
X103601854Y-111210003D01*
X103601856Y-111210006D01*
X103652489Y-111277564D01*
X103682454Y-111317546D01*
X103689635Y-111322928D01*
X103789994Y-111398144D01*
X103789997Y-111398146D01*
X103797176Y-111403526D01*
X103808541Y-111407786D01*
X103811050Y-111409671D01*
X103813455Y-111410988D01*
X103813265Y-111411335D01*
X103865304Y-111450426D01*
X103890005Y-111516987D01*
X103874798Y-111586336D01*
X103861379Y-111604680D01*
X103862066Y-111605236D01*
X103852326Y-111617264D01*
X103722119Y-111808139D01*
X103717031Y-111817095D01*
X103619750Y-112026670D01*
X103616187Y-112036357D01*
X103554442Y-112258999D01*
X103552511Y-112269118D01*
X103527958Y-112498878D01*
X103527706Y-112509167D01*
X92462609Y-112509167D01*
X92462916Y-112503301D01*
X92462916Y-112496699D01*
X92442920Y-112115167D01*
X92442234Y-112108629D01*
X92382465Y-111731266D01*
X92381094Y-111724816D01*
X92282212Y-111355784D01*
X92280171Y-111349502D01*
X92143260Y-110992836D01*
X92140578Y-110986811D01*
X91967128Y-110646397D01*
X91963831Y-110640687D01*
X91755747Y-110320265D01*
X91751877Y-110314939D01*
X91558522Y-110076165D01*
X91546267Y-110067700D01*
X91535176Y-110074034D01*
X88839095Y-112770115D01*
X88776783Y-112804141D01*
X88705968Y-112799076D01*
X88660905Y-112770115D01*
X85965690Y-110074900D01*
X85952614Y-110067759D01*
X85942247Y-110075216D01*
X85748123Y-110314939D01*
X85744253Y-110320265D01*
X85536169Y-110640687D01*
X85532872Y-110646397D01*
X85359422Y-110986811D01*
X85356740Y-110992836D01*
X85219829Y-111349502D01*
X85217788Y-111355784D01*
X85118906Y-111724816D01*
X85117535Y-111731266D01*
X85057766Y-112108629D01*
X85057080Y-112115167D01*
X85037084Y-112496699D01*
X85037084Y-112503301D01*
X85057080Y-112884833D01*
X85057766Y-112891371D01*
X85117535Y-113268734D01*
X85118906Y-113275184D01*
X85217788Y-113644216D01*
X85219829Y-113650498D01*
X85287381Y-113826479D01*
X85293120Y-113897243D01*
X85259689Y-113959877D01*
X85197704Y-113994493D01*
X85169630Y-113997632D01*
X81267893Y-113993755D01*
X81199794Y-113973686D01*
X81172208Y-113949585D01*
X81156175Y-113930812D01*
X81156169Y-113930806D01*
X81152956Y-113927044D01*
X81149194Y-113923831D01*
X81149189Y-113923826D01*
X81014462Y-113808759D01*
X80958399Y-113760877D01*
X80740243Y-113627191D01*
X80735671Y-113625297D01*
X80733914Y-113624402D01*
X80702019Y-113601229D01*
X80012812Y-112912022D01*
X79998868Y-112904408D01*
X79997035Y-112904539D01*
X79990420Y-112908790D01*
X79297981Y-113601229D01*
X79266086Y-113624402D01*
X79264329Y-113625297D01*
X79259757Y-113627191D01*
X79041601Y-113760877D01*
X78985538Y-113808759D01*
X78850811Y-113923826D01*
X78850806Y-113923831D01*
X78847044Y-113927044D01*
X78830650Y-113946239D01*
X78829943Y-113947067D01*
X78770492Y-113985876D01*
X78734006Y-113991237D01*
X72423532Y-113984967D01*
X67336926Y-113979913D01*
X67268826Y-113959843D01*
X67222386Y-113906141D01*
X67212352Y-113835857D01*
X67219421Y-113808759D01*
X67280171Y-113650498D01*
X67282212Y-113644216D01*
X67381094Y-113275184D01*
X67382465Y-113268734D01*
X67442234Y-112891371D01*
X67442920Y-112884833D01*
X67462609Y-112509167D01*
X78527706Y-112509167D01*
X78541006Y-112739838D01*
X78542442Y-112750058D01*
X78593238Y-112975454D01*
X78596317Y-112985282D01*
X78683249Y-113199370D01*
X78687892Y-113208561D01*
X78786464Y-113369416D01*
X78796921Y-113378876D01*
X78805697Y-113375093D01*
X79910905Y-112269885D01*
X79973217Y-112235859D01*
X80044032Y-112240924D01*
X80089095Y-112269885D01*
X81189296Y-113370086D01*
X81201306Y-113376645D01*
X81213046Y-113367677D01*
X81259616Y-113302867D01*
X81264927Y-113294028D01*
X81367296Y-113086901D01*
X81371094Y-113077308D01*
X81438262Y-112856232D01*
X81440439Y-112846162D01*
X81470835Y-112615279D01*
X81471354Y-112608604D01*
X81472949Y-112543364D01*
X81472755Y-112536647D01*
X81453675Y-112304567D01*
X81451992Y-112294405D01*
X81395703Y-112070306D01*
X81392382Y-112060551D01*
X81300252Y-111848667D01*
X81295374Y-111839570D01*
X81169877Y-111645581D01*
X81163585Y-111637410D01*
X81140008Y-111611499D01*
X81108956Y-111547653D01*
X81117352Y-111477154D01*
X81162529Y-111422386D01*
X81188974Y-111408718D01*
X81202824Y-111403526D01*
X81210003Y-111398146D01*
X81210006Y-111398144D01*
X81310365Y-111322928D01*
X81317546Y-111317546D01*
X81347511Y-111277564D01*
X81398144Y-111210006D01*
X81398146Y-111210003D01*
X81403526Y-111202824D01*
X81453851Y-111068580D01*
X81460500Y-111007377D01*
X81460499Y-109703733D01*
X86317700Y-109703733D01*
X86324034Y-109714824D01*
X88737188Y-112127978D01*
X88751132Y-112135592D01*
X88752965Y-112135461D01*
X88759580Y-112131210D01*
X91175100Y-109715690D01*
X91182241Y-109702614D01*
X91174784Y-109692247D01*
X90935065Y-109498126D01*
X90929728Y-109494249D01*
X90609315Y-109286170D01*
X90603606Y-109282873D01*
X90263189Y-109109422D01*
X90257164Y-109106740D01*
X89900498Y-108969829D01*
X89894216Y-108967788D01*
X89525184Y-108868906D01*
X89518734Y-108867535D01*
X89141371Y-108807766D01*
X89134833Y-108807080D01*
X88753301Y-108787084D01*
X88746699Y-108787084D01*
X88365167Y-108807080D01*
X88358629Y-108807766D01*
X87981266Y-108867535D01*
X87974816Y-108868906D01*
X87605784Y-108967788D01*
X87599502Y-108969829D01*
X87242836Y-109106740D01*
X87236811Y-109109422D01*
X86896397Y-109282872D01*
X86890687Y-109286169D01*
X86570265Y-109494253D01*
X86564939Y-109498123D01*
X86326165Y-109691478D01*
X86317700Y-109703733D01*
X81460499Y-109703733D01*
X81460499Y-108992624D01*
X81458023Y-108969829D01*
X81454705Y-108939278D01*
X81454704Y-108939274D01*
X81453851Y-108931420D01*
X81403526Y-108797176D01*
X81398146Y-108789997D01*
X81398144Y-108789994D01*
X81322928Y-108689635D01*
X81317546Y-108682454D01*
X81310365Y-108677072D01*
X81210006Y-108601856D01*
X81210003Y-108601854D01*
X81202824Y-108596474D01*
X81113439Y-108562966D01*
X81075975Y-108548921D01*
X81075973Y-108548921D01*
X81068580Y-108546149D01*
X81060730Y-108545296D01*
X81060729Y-108545296D01*
X81010774Y-108539869D01*
X81010773Y-108539869D01*
X81007377Y-108539500D01*
X80000148Y-108539500D01*
X78992624Y-108539501D01*
X78989230Y-108539870D01*
X78989224Y-108539870D01*
X78939278Y-108545295D01*
X78939274Y-108545296D01*
X78931420Y-108546149D01*
X78797176Y-108596474D01*
X78789997Y-108601854D01*
X78789994Y-108601856D01*
X78689635Y-108677072D01*
X78682454Y-108682454D01*
X78677072Y-108689635D01*
X78601856Y-108789994D01*
X78601854Y-108789997D01*
X78596474Y-108797176D01*
X78546149Y-108931420D01*
X78539500Y-108992623D01*
X78539501Y-111007376D01*
X78546149Y-111068580D01*
X78596474Y-111202824D01*
X78601854Y-111210003D01*
X78601856Y-111210006D01*
X78652489Y-111277564D01*
X78682454Y-111317546D01*
X78689635Y-111322928D01*
X78789994Y-111398144D01*
X78789997Y-111398146D01*
X78797176Y-111403526D01*
X78808541Y-111407786D01*
X78811050Y-111409671D01*
X78813455Y-111410988D01*
X78813265Y-111411335D01*
X78865304Y-111450426D01*
X78890005Y-111516987D01*
X78874798Y-111586336D01*
X78861379Y-111604680D01*
X78862066Y-111605236D01*
X78852326Y-111617264D01*
X78722119Y-111808139D01*
X78717031Y-111817095D01*
X78619750Y-112026670D01*
X78616187Y-112036357D01*
X78554442Y-112258999D01*
X78552511Y-112269118D01*
X78527958Y-112498878D01*
X78527706Y-112509167D01*
X67462609Y-112509167D01*
X67462916Y-112503301D01*
X67462916Y-112496699D01*
X67442920Y-112115167D01*
X67442234Y-112108629D01*
X67382465Y-111731266D01*
X67381094Y-111724816D01*
X67282212Y-111355784D01*
X67280171Y-111349502D01*
X67143260Y-110992836D01*
X67140578Y-110986811D01*
X66967128Y-110646397D01*
X66963831Y-110640687D01*
X66755747Y-110320265D01*
X66751877Y-110314939D01*
X66558522Y-110076165D01*
X66546267Y-110067700D01*
X66535176Y-110074034D01*
X63839095Y-112770115D01*
X63776783Y-112804141D01*
X63705968Y-112799076D01*
X63660905Y-112770115D01*
X60965690Y-110074900D01*
X60952614Y-110067759D01*
X60942247Y-110075216D01*
X60748123Y-110314939D01*
X60744253Y-110320265D01*
X60536169Y-110640687D01*
X60532872Y-110646397D01*
X60359422Y-110986811D01*
X60356740Y-110992836D01*
X60252885Y-111263388D01*
X60209799Y-111319816D01*
X60143046Y-111343993D01*
X60073819Y-111328242D01*
X60024097Y-111277564D01*
X60009254Y-111218267D01*
X60009200Y-111010776D01*
X60008856Y-109703733D01*
X61317700Y-109703733D01*
X61324034Y-109714824D01*
X63737188Y-112127978D01*
X63751132Y-112135592D01*
X63752965Y-112135461D01*
X63759580Y-112131210D01*
X66175100Y-109715690D01*
X66182241Y-109702614D01*
X66174784Y-109692247D01*
X65935065Y-109498126D01*
X65929728Y-109494249D01*
X65609315Y-109286170D01*
X65603606Y-109282873D01*
X65263189Y-109109422D01*
X65257164Y-109106740D01*
X64900498Y-108969829D01*
X64894216Y-108967788D01*
X64525184Y-108868906D01*
X64518734Y-108867535D01*
X64141371Y-108807766D01*
X64134833Y-108807080D01*
X63753301Y-108787084D01*
X63746699Y-108787084D01*
X63365167Y-108807080D01*
X63358629Y-108807766D01*
X62981266Y-108867535D01*
X62974816Y-108868906D01*
X62605784Y-108967788D01*
X62599502Y-108969829D01*
X62242836Y-109106740D01*
X62236811Y-109109422D01*
X61896397Y-109282872D01*
X61890687Y-109286169D01*
X61570265Y-109494253D01*
X61564939Y-109498123D01*
X61326165Y-109691478D01*
X61317700Y-109703733D01*
X60008856Y-109703733D01*
X60007141Y-103176533D01*
X60027125Y-103108407D01*
X60080769Y-103061900D01*
X60133141Y-103050500D01*
X60756784Y-103050500D01*
X60759501Y-103050262D01*
X60759508Y-103050262D01*
X60827698Y-103044296D01*
X60926692Y-103035635D01*
X60932005Y-103034211D01*
X60932007Y-103034211D01*
X61141186Y-102978162D01*
X61141188Y-102978161D01*
X61146496Y-102976739D01*
X61151478Y-102974416D01*
X61347753Y-102882891D01*
X61347756Y-102882889D01*
X61352734Y-102880568D01*
X61539139Y-102750047D01*
X61700047Y-102589139D01*
X61830568Y-102402734D01*
X61926739Y-102196496D01*
X61985635Y-101976692D01*
X62005468Y-101750000D01*
X61985635Y-101523308D01*
X61926739Y-101303504D01*
X61896425Y-101238495D01*
X61832891Y-101102247D01*
X61832889Y-101102244D01*
X61830568Y-101097266D01*
X61700047Y-100910861D01*
X61539139Y-100749953D01*
X61352734Y-100619432D01*
X61347756Y-100617111D01*
X61347753Y-100617109D01*
X61151478Y-100525584D01*
X61151476Y-100525583D01*
X61146496Y-100523261D01*
X61141188Y-100521839D01*
X61141186Y-100521838D01*
X60932007Y-100465789D01*
X60932005Y-100465789D01*
X60926692Y-100464365D01*
X60827698Y-100455704D01*
X60759508Y-100449738D01*
X60759501Y-100449738D01*
X60756784Y-100449500D01*
X60132392Y-100449500D01*
X60064271Y-100429498D01*
X60017778Y-100375842D01*
X60006392Y-100323533D01*
X60006182Y-99527152D01*
X60006060Y-99063819D01*
X60026044Y-98995694D01*
X60079688Y-98949187D01*
X60132060Y-98937787D01*
X62106576Y-98937787D01*
X62166909Y-98953171D01*
X62173293Y-98956653D01*
X62178764Y-98959818D01*
X62186360Y-98964472D01*
X62190940Y-98967418D01*
X63005233Y-99516593D01*
X64454705Y-100494145D01*
X64462259Y-100499658D01*
X64563444Y-100579425D01*
X64659919Y-100655480D01*
X64661747Y-100656722D01*
X64661752Y-100656726D01*
X64693846Y-100678537D01*
X64718993Y-100695627D01*
X64720913Y-100696742D01*
X64720919Y-100696746D01*
X64796389Y-100740582D01*
X64963905Y-100837883D01*
X64965889Y-100838855D01*
X64965891Y-100838856D01*
X65026051Y-100868328D01*
X65026059Y-100868331D01*
X65028046Y-100869305D01*
X65290559Y-100975634D01*
X65358487Y-100997706D01*
X65360627Y-100998238D01*
X65360632Y-100998239D01*
X65631212Y-101065452D01*
X65631220Y-101065454D01*
X65633363Y-101065986D01*
X65664390Y-101071401D01*
X65701535Y-101077884D01*
X65701541Y-101077885D01*
X65703725Y-101078266D01*
X65705927Y-101078492D01*
X65705937Y-101078493D01*
X65818455Y-101090021D01*
X65985480Y-101107134D01*
X66056870Y-101109377D01*
X66059084Y-101109290D01*
X66059090Y-101109290D01*
X66198376Y-101103817D01*
X66339881Y-101098257D01*
X66342084Y-101098014D01*
X66342095Y-101098013D01*
X66387806Y-101092966D01*
X66410874Y-101090420D01*
X66689495Y-101039535D01*
X66758676Y-101021772D01*
X67027348Y-100932136D01*
X67093334Y-100904803D01*
X67095324Y-100903809D01*
X67095332Y-100903805D01*
X67219051Y-100841986D01*
X67346696Y-100778206D01*
X67408176Y-100741847D01*
X67409997Y-100740588D01*
X67410007Y-100740582D01*
X67639349Y-100582073D01*
X67639350Y-100582072D01*
X67641172Y-100580813D01*
X67642905Y-100579425D01*
X67695191Y-100537536D01*
X67695198Y-100537530D01*
X67696913Y-100536156D01*
X67904895Y-100343900D01*
X67953790Y-100291832D01*
X68047499Y-100176728D01*
X68131196Y-100073922D01*
X68131205Y-100073910D01*
X68132607Y-100072188D01*
X68173676Y-100013754D01*
X68223162Y-99931559D01*
X68318611Y-99773018D01*
X68318612Y-99773016D01*
X68319762Y-99771106D01*
X68352188Y-99707466D01*
X68428541Y-99527152D01*
X68461749Y-99448730D01*
X68461751Y-99448724D01*
X68462627Y-99446656D01*
X68485762Y-99379082D01*
X68558351Y-99105312D01*
X68571735Y-99035152D01*
X68605025Y-98753886D01*
X68608390Y-98682541D01*
X68607005Y-98623747D01*
X68601770Y-98401625D01*
X68601769Y-98401616D01*
X68601717Y-98399390D01*
X68596876Y-98348180D01*
X68595205Y-98330502D01*
X68595204Y-98330496D01*
X68594995Y-98328283D01*
X68548493Y-98048897D01*
X68531819Y-97979445D01*
X68506923Y-97900723D01*
X68447090Y-97711535D01*
X68447089Y-97711531D01*
X68446414Y-97709398D01*
X68420121Y-97642990D01*
X68297519Y-97387671D01*
X68262131Y-97325628D01*
X68104777Y-97090132D01*
X68061001Y-97033697D01*
X67872035Y-96822720D01*
X67870441Y-96821175D01*
X67870433Y-96821167D01*
X67822333Y-96774556D01*
X67820741Y-96773013D01*
X67819041Y-96771584D01*
X67605642Y-96592204D01*
X67605633Y-96592197D01*
X67603933Y-96590768D01*
X67546151Y-96548786D01*
X67483875Y-96509947D01*
X67307714Y-96400083D01*
X67307710Y-96400080D01*
X67305828Y-96398907D01*
X67242705Y-96365486D01*
X66983661Y-96250964D01*
X66916459Y-96226770D01*
X66643864Y-96149890D01*
X66573924Y-96135405D01*
X66293215Y-96097701D01*
X66291620Y-96097569D01*
X66291609Y-96097568D01*
X66243399Y-96093584D01*
X66243387Y-96093583D01*
X66241786Y-96093451D01*
X66240180Y-96093401D01*
X66240171Y-96093400D01*
X66199812Y-96092132D01*
X66115884Y-96089494D01*
X66064289Y-96090507D01*
X66051705Y-96091398D01*
X66036618Y-96091560D01*
X63628183Y-95972984D01*
X63056229Y-95944825D01*
X63052555Y-95944590D01*
X62925000Y-95934551D01*
X62920070Y-95934939D01*
X62805385Y-95943965D01*
X62795499Y-95944353D01*
X60131208Y-95944353D01*
X60063087Y-95924351D01*
X60016594Y-95870695D01*
X60005208Y-95818386D01*
X60004993Y-95000000D01*
X106294422Y-95000000D01*
X106314722Y-95387338D01*
X106375398Y-95770433D01*
X106475786Y-96145087D01*
X106476971Y-96148175D01*
X106476972Y-96148177D01*
X106479437Y-96154598D01*
X106614786Y-96507194D01*
X106790875Y-96852789D01*
X107002124Y-97178084D01*
X107246219Y-97479516D01*
X107520484Y-97753781D01*
X107821916Y-97997876D01*
X108147211Y-98209125D01*
X108492806Y-98385214D01*
X108854913Y-98524214D01*
X109229567Y-98624602D01*
X109433201Y-98656854D01*
X109609414Y-98684764D01*
X109609422Y-98684765D01*
X109612662Y-98685278D01*
X110000000Y-98705578D01*
X110387338Y-98685278D01*
X110390578Y-98684765D01*
X110390586Y-98684764D01*
X110566799Y-98656854D01*
X110770433Y-98624602D01*
X111145087Y-98524214D01*
X111507194Y-98385214D01*
X111852789Y-98209125D01*
X112178084Y-97997876D01*
X112479516Y-97753781D01*
X112753781Y-97479516D01*
X112997876Y-97178084D01*
X113209125Y-96852789D01*
X113385214Y-96507194D01*
X113520563Y-96154598D01*
X113523028Y-96148177D01*
X113523029Y-96148175D01*
X113524214Y-96145087D01*
X113624602Y-95770433D01*
X113685278Y-95387338D01*
X113705578Y-95000000D01*
X113685278Y-94612662D01*
X113624602Y-94229567D01*
X113524214Y-93854913D01*
X113385214Y-93492806D01*
X113209125Y-93147211D01*
X112997876Y-92821916D01*
X112753781Y-92520484D01*
X112479516Y-92246219D01*
X112178084Y-92002124D01*
X111852789Y-91790875D01*
X111507194Y-91614786D01*
X111145087Y-91475786D01*
X110770433Y-91375398D01*
X110566799Y-91343146D01*
X110390586Y-91315236D01*
X110390578Y-91315235D01*
X110387338Y-91314722D01*
X110000000Y-91294422D01*
X109612662Y-91314722D01*
X109609422Y-91315235D01*
X109609414Y-91315236D01*
X109433201Y-91343146D01*
X109229567Y-91375398D01*
X108854913Y-91475786D01*
X108492806Y-91614786D01*
X108147211Y-91790875D01*
X107821916Y-92002124D01*
X107520484Y-92246219D01*
X107246219Y-92520484D01*
X107002124Y-92821916D01*
X106790875Y-93147211D01*
X106614786Y-93492806D01*
X106475786Y-93854913D01*
X106375398Y-94229567D01*
X106314722Y-94612662D01*
X106294422Y-95000000D01*
X60004993Y-95000000D01*
X60003594Y-89676533D01*
X60023578Y-89608407D01*
X60077222Y-89561900D01*
X60129594Y-89550500D01*
X60756784Y-89550500D01*
X60759501Y-89550262D01*
X60759508Y-89550262D01*
X60827698Y-89544296D01*
X60926692Y-89535635D01*
X60932005Y-89534211D01*
X60932007Y-89534211D01*
X61141186Y-89478162D01*
X61141188Y-89478161D01*
X61146496Y-89476739D01*
X61319321Y-89396149D01*
X61347753Y-89382891D01*
X61347756Y-89382889D01*
X61352734Y-89380568D01*
X61539139Y-89250047D01*
X61700047Y-89089139D01*
X61830568Y-88902734D01*
X61843189Y-88875670D01*
X61924416Y-88701478D01*
X61924417Y-88701476D01*
X61926739Y-88696496D01*
X61933609Y-88670859D01*
X61984211Y-88482007D01*
X61984211Y-88482005D01*
X61985635Y-88476692D01*
X62005468Y-88250000D01*
X61985635Y-88023308D01*
X61926739Y-87803504D01*
X61921801Y-87792915D01*
X61832891Y-87602247D01*
X61832889Y-87602244D01*
X61830568Y-87597266D01*
X61700047Y-87410861D01*
X61539139Y-87249953D01*
X61507622Y-87227885D01*
X154842000Y-87227885D01*
X154846475Y-87243124D01*
X154847865Y-87244329D01*
X154855548Y-87246000D01*
X155927885Y-87246000D01*
X155943124Y-87241525D01*
X155944329Y-87240135D01*
X155946000Y-87232452D01*
X155946000Y-86160116D01*
X155941525Y-86144877D01*
X155940135Y-86143672D01*
X155932452Y-86142001D01*
X155552905Y-86142001D01*
X155546386Y-86142338D01*
X155450794Y-86152257D01*
X155437400Y-86155149D01*
X155283216Y-86206588D01*
X155270038Y-86212761D01*
X155132193Y-86298063D01*
X155120792Y-86307099D01*
X155006261Y-86421829D01*
X154997249Y-86433240D01*
X154912184Y-86571243D01*
X154906037Y-86584424D01*
X154854862Y-86738710D01*
X154851995Y-86752086D01*
X154842328Y-86846438D01*
X154842000Y-86852855D01*
X154842000Y-87227885D01*
X61507622Y-87227885D01*
X61352734Y-87119432D01*
X61347756Y-87117111D01*
X61347753Y-87117109D01*
X61151478Y-87025584D01*
X61151476Y-87025583D01*
X61146496Y-87023261D01*
X61141188Y-87021839D01*
X61141186Y-87021838D01*
X60932007Y-86965789D01*
X60932005Y-86965789D01*
X60926692Y-86964365D01*
X60827698Y-86955704D01*
X60759508Y-86949738D01*
X60759501Y-86949738D01*
X60756784Y-86949500D01*
X60128844Y-86949500D01*
X60060723Y-86929498D01*
X60014230Y-86875842D01*
X60002844Y-86823533D01*
X60002825Y-86751197D01*
X60000375Y-77429167D01*
X63527706Y-77429167D01*
X63541006Y-77659838D01*
X63542442Y-77670058D01*
X63593238Y-77895454D01*
X63596317Y-77905282D01*
X63683249Y-78119370D01*
X63687892Y-78128561D01*
X63808624Y-78325577D01*
X63814702Y-78333881D01*
X63863525Y-78390243D01*
X63893008Y-78454828D01*
X63882894Y-78525101D01*
X63836393Y-78578749D01*
X63812517Y-78590723D01*
X63797176Y-78596474D01*
X63789997Y-78601854D01*
X63789994Y-78601856D01*
X63733474Y-78644216D01*
X63682454Y-78682454D01*
X63677072Y-78689635D01*
X63601856Y-78789994D01*
X63601854Y-78789997D01*
X63596474Y-78797176D01*
X63546149Y-78931420D01*
X63539500Y-78992623D01*
X63539501Y-81007376D01*
X63539870Y-81010770D01*
X63539870Y-81010776D01*
X63542199Y-81032212D01*
X63546149Y-81068580D01*
X63596474Y-81202824D01*
X63601854Y-81210003D01*
X63601856Y-81210006D01*
X63677072Y-81310365D01*
X63682454Y-81317546D01*
X63689635Y-81322928D01*
X63789994Y-81398144D01*
X63789997Y-81398146D01*
X63797176Y-81403526D01*
X63886561Y-81437034D01*
X63924025Y-81451079D01*
X63924027Y-81451079D01*
X63931420Y-81453851D01*
X63939270Y-81454704D01*
X63939271Y-81454704D01*
X63989217Y-81460130D01*
X63992623Y-81460500D01*
X64999852Y-81460500D01*
X66007376Y-81460499D01*
X66010770Y-81460130D01*
X66010776Y-81460130D01*
X66060722Y-81454705D01*
X66060726Y-81454704D01*
X66068580Y-81453851D01*
X66202824Y-81403526D01*
X66210003Y-81398146D01*
X66210006Y-81398144D01*
X66310365Y-81322928D01*
X66317546Y-81317546D01*
X66322928Y-81310365D01*
X66398144Y-81210006D01*
X66398146Y-81210003D01*
X66403526Y-81202824D01*
X66453851Y-81068580D01*
X66460500Y-81007377D01*
X66460500Y-80297386D01*
X78817759Y-80297386D01*
X78825216Y-80307753D01*
X79064935Y-80501874D01*
X79070272Y-80505751D01*
X79390685Y-80713830D01*
X79396394Y-80717127D01*
X79736811Y-80890578D01*
X79742836Y-80893260D01*
X80099502Y-81030171D01*
X80105784Y-81032212D01*
X80474816Y-81131094D01*
X80481266Y-81132465D01*
X80858629Y-81192234D01*
X80865167Y-81192920D01*
X81246699Y-81212916D01*
X81253301Y-81212916D01*
X81634833Y-81192920D01*
X81641371Y-81192234D01*
X82018734Y-81132465D01*
X82025184Y-81131094D01*
X82394216Y-81032212D01*
X82400498Y-81030171D01*
X82757164Y-80893260D01*
X82763189Y-80890578D01*
X83103606Y-80717127D01*
X83109315Y-80713830D01*
X83429728Y-80505751D01*
X83435065Y-80501874D01*
X83673835Y-80308522D01*
X83682300Y-80296267D01*
X83675966Y-80285176D01*
X81262812Y-77872022D01*
X81248868Y-77864408D01*
X81247035Y-77864539D01*
X81240420Y-77868790D01*
X78824900Y-80284310D01*
X78817759Y-80297386D01*
X66460500Y-80297386D01*
X66460499Y-78992624D01*
X66453851Y-78931420D01*
X66403526Y-78797176D01*
X66398146Y-78789997D01*
X66398144Y-78789994D01*
X66322928Y-78689635D01*
X66317546Y-78682454D01*
X66266526Y-78644216D01*
X66210006Y-78601856D01*
X66210003Y-78601854D01*
X66202824Y-78596474D01*
X66190245Y-78591759D01*
X66186708Y-78589101D01*
X66186545Y-78589012D01*
X66186558Y-78588988D01*
X66133481Y-78549117D01*
X66108782Y-78482555D01*
X66123990Y-78413206D01*
X66132153Y-78400251D01*
X66259616Y-78222867D01*
X66264927Y-78214028D01*
X66367296Y-78006901D01*
X66371094Y-77997308D01*
X66438262Y-77776232D01*
X66440439Y-77766162D01*
X66470835Y-77535279D01*
X66471354Y-77528604D01*
X66472949Y-77463364D01*
X66472755Y-77456647D01*
X66453675Y-77224567D01*
X66451992Y-77214405D01*
X66395703Y-76990306D01*
X66392382Y-76980551D01*
X66300252Y-76768667D01*
X66295374Y-76759570D01*
X66212616Y-76631645D01*
X66201930Y-76622442D01*
X66192365Y-76626845D01*
X65089095Y-77730115D01*
X65026783Y-77764141D01*
X64955968Y-77759076D01*
X64910905Y-77730115D01*
X63810687Y-76629897D01*
X63799151Y-76623597D01*
X63786868Y-76633221D01*
X63722126Y-76728129D01*
X63717028Y-76737103D01*
X63619750Y-76946670D01*
X63616187Y-76956357D01*
X63554442Y-77178999D01*
X63552511Y-77189118D01*
X63527958Y-77418878D01*
X63527706Y-77429167D01*
X60000375Y-77429167D01*
X60000033Y-76126033D01*
X60020017Y-76057907D01*
X60073661Y-76011400D01*
X60126033Y-76000000D01*
X61981926Y-75999995D01*
X63726641Y-75999991D01*
X63794760Y-76019993D01*
X63822447Y-76044157D01*
X63847044Y-76072956D01*
X64041601Y-76239123D01*
X64259757Y-76372809D01*
X64264329Y-76374703D01*
X64266086Y-76375598D01*
X64297981Y-76398771D01*
X64987188Y-77087978D01*
X65001132Y-77095592D01*
X65002965Y-77095461D01*
X65009580Y-77091210D01*
X65702019Y-76398771D01*
X65733914Y-76375598D01*
X65735671Y-76374703D01*
X65740243Y-76372809D01*
X65958399Y-76239123D01*
X66038098Y-76171054D01*
X66149189Y-76076174D01*
X66149194Y-76076169D01*
X66152956Y-76072956D01*
X66165809Y-76057907D01*
X66177556Y-76044154D01*
X66237007Y-76005346D01*
X66273366Y-75999986D01*
X72161867Y-75999972D01*
X77670677Y-75999959D01*
X77738795Y-76019960D01*
X77785289Y-76073615D01*
X77795393Y-76143889D01*
X77788306Y-76171112D01*
X77719829Y-76349502D01*
X77717788Y-76355784D01*
X77618906Y-76724816D01*
X77617535Y-76731266D01*
X77557766Y-77108629D01*
X77557080Y-77115167D01*
X77537084Y-77496699D01*
X77537084Y-77503301D01*
X77557080Y-77884833D01*
X77557766Y-77891371D01*
X77617535Y-78268734D01*
X77618906Y-78275184D01*
X77717788Y-78644216D01*
X77719829Y-78650498D01*
X77856740Y-79007164D01*
X77859422Y-79013189D01*
X78032872Y-79353603D01*
X78036169Y-79359313D01*
X78244253Y-79679735D01*
X78248123Y-79685061D01*
X78441478Y-79923835D01*
X78453733Y-79932300D01*
X78464824Y-79925966D01*
X81160905Y-77229885D01*
X81223217Y-77195859D01*
X81294032Y-77200924D01*
X81339095Y-77229885D01*
X84034310Y-79925100D01*
X84047386Y-79932241D01*
X84057753Y-79924784D01*
X84251877Y-79685061D01*
X84255747Y-79679735D01*
X84463831Y-79359313D01*
X84467128Y-79353603D01*
X84640578Y-79013189D01*
X84643260Y-79007164D01*
X84780171Y-78650498D01*
X84782212Y-78644216D01*
X84881094Y-78275184D01*
X84882465Y-78268734D01*
X84942234Y-77891371D01*
X84942920Y-77884833D01*
X84962916Y-77503301D01*
X84962916Y-77496699D01*
X84959377Y-77429167D01*
X88527706Y-77429167D01*
X88541006Y-77659838D01*
X88542442Y-77670058D01*
X88593238Y-77895454D01*
X88596317Y-77905282D01*
X88683249Y-78119370D01*
X88687892Y-78128561D01*
X88808624Y-78325577D01*
X88814702Y-78333881D01*
X88863525Y-78390243D01*
X88893008Y-78454828D01*
X88882894Y-78525101D01*
X88836393Y-78578749D01*
X88812517Y-78590723D01*
X88797176Y-78596474D01*
X88789997Y-78601854D01*
X88789994Y-78601856D01*
X88733474Y-78644216D01*
X88682454Y-78682454D01*
X88677072Y-78689635D01*
X88601856Y-78789994D01*
X88601854Y-78789997D01*
X88596474Y-78797176D01*
X88546149Y-78931420D01*
X88539500Y-78992623D01*
X88539501Y-81007376D01*
X88539870Y-81010770D01*
X88539870Y-81010776D01*
X88542199Y-81032212D01*
X88546149Y-81068580D01*
X88596474Y-81202824D01*
X88601854Y-81210003D01*
X88601856Y-81210006D01*
X88677072Y-81310365D01*
X88682454Y-81317546D01*
X88689635Y-81322928D01*
X88789994Y-81398144D01*
X88789997Y-81398146D01*
X88797176Y-81403526D01*
X88886561Y-81437034D01*
X88924025Y-81451079D01*
X88924027Y-81451079D01*
X88931420Y-81453851D01*
X88939270Y-81454704D01*
X88939271Y-81454704D01*
X88989217Y-81460130D01*
X88992623Y-81460500D01*
X89999852Y-81460500D01*
X91007376Y-81460499D01*
X91010770Y-81460130D01*
X91010776Y-81460130D01*
X91060722Y-81454705D01*
X91060726Y-81454704D01*
X91068580Y-81453851D01*
X91202824Y-81403526D01*
X91210003Y-81398146D01*
X91210006Y-81398144D01*
X91310365Y-81322928D01*
X91317546Y-81317546D01*
X91322928Y-81310365D01*
X91398144Y-81210006D01*
X91398146Y-81210003D01*
X91403526Y-81202824D01*
X91453851Y-81068580D01*
X91460500Y-81007377D01*
X91460500Y-80297386D01*
X103817759Y-80297386D01*
X103825216Y-80307753D01*
X104064935Y-80501874D01*
X104070272Y-80505751D01*
X104390685Y-80713830D01*
X104396394Y-80717127D01*
X104736811Y-80890578D01*
X104742836Y-80893260D01*
X105099502Y-81030171D01*
X105105784Y-81032212D01*
X105474816Y-81131094D01*
X105481266Y-81132465D01*
X105858629Y-81192234D01*
X105865167Y-81192920D01*
X106246699Y-81212916D01*
X106253301Y-81212916D01*
X106634833Y-81192920D01*
X106641371Y-81192234D01*
X107018734Y-81132465D01*
X107025184Y-81131094D01*
X107394216Y-81032212D01*
X107400498Y-81030171D01*
X107757164Y-80893260D01*
X107763189Y-80890578D01*
X108103606Y-80717127D01*
X108109315Y-80713830D01*
X108429728Y-80505751D01*
X108435065Y-80501874D01*
X108673835Y-80308522D01*
X108682300Y-80296267D01*
X108675966Y-80285176D01*
X106262812Y-77872022D01*
X106248868Y-77864408D01*
X106247035Y-77864539D01*
X106240420Y-77868790D01*
X103824900Y-80284310D01*
X103817759Y-80297386D01*
X91460500Y-80297386D01*
X91460499Y-78992624D01*
X91453851Y-78931420D01*
X91403526Y-78797176D01*
X91398146Y-78789997D01*
X91398144Y-78789994D01*
X91322928Y-78689635D01*
X91317546Y-78682454D01*
X91266526Y-78644216D01*
X91210006Y-78601856D01*
X91210003Y-78601854D01*
X91202824Y-78596474D01*
X91190245Y-78591759D01*
X91186708Y-78589101D01*
X91186545Y-78589012D01*
X91186558Y-78588988D01*
X91133481Y-78549117D01*
X91108782Y-78482555D01*
X91123990Y-78413206D01*
X91132153Y-78400251D01*
X91259616Y-78222867D01*
X91264927Y-78214028D01*
X91367296Y-78006901D01*
X91371094Y-77997308D01*
X91438262Y-77776232D01*
X91440439Y-77766162D01*
X91470835Y-77535279D01*
X91471354Y-77528604D01*
X91472949Y-77463364D01*
X91472755Y-77456647D01*
X91453675Y-77224567D01*
X91451992Y-77214405D01*
X91395703Y-76990306D01*
X91392382Y-76980551D01*
X91300252Y-76768667D01*
X91295374Y-76759570D01*
X91212616Y-76631645D01*
X91201930Y-76622442D01*
X91192365Y-76626845D01*
X90089095Y-77730115D01*
X90026783Y-77764141D01*
X89955968Y-77759076D01*
X89910905Y-77730115D01*
X88810687Y-76629897D01*
X88799151Y-76623597D01*
X88786868Y-76633221D01*
X88722126Y-76728129D01*
X88717028Y-76737103D01*
X88619750Y-76946670D01*
X88616187Y-76956357D01*
X88554442Y-77178999D01*
X88552511Y-77189118D01*
X88527958Y-77418878D01*
X88527706Y-77429167D01*
X84959377Y-77429167D01*
X84942920Y-77115167D01*
X84942234Y-77108629D01*
X84882465Y-76731266D01*
X84881094Y-76724816D01*
X84782212Y-76355784D01*
X84780171Y-76349502D01*
X84711687Y-76171096D01*
X84705948Y-76100332D01*
X84739378Y-76037699D01*
X84801364Y-76003082D01*
X84829318Y-75999942D01*
X85345069Y-75999941D01*
X88726593Y-75999933D01*
X88794710Y-76019934D01*
X88822399Y-76044100D01*
X88847044Y-76072956D01*
X89041601Y-76239123D01*
X89259757Y-76372809D01*
X89264329Y-76374703D01*
X89266086Y-76375598D01*
X89297981Y-76398771D01*
X89987188Y-77087978D01*
X90001132Y-77095592D01*
X90002965Y-77095461D01*
X90009580Y-77091210D01*
X90702019Y-76398771D01*
X90733914Y-76375598D01*
X90735671Y-76374703D01*
X90740243Y-76372809D01*
X90958399Y-76239123D01*
X91038098Y-76171054D01*
X91149189Y-76076174D01*
X91149194Y-76076169D01*
X91152956Y-76072956D01*
X91156171Y-76069192D01*
X91177605Y-76044096D01*
X91237056Y-76005287D01*
X91273416Y-75999927D01*
X98305347Y-75999910D01*
X102670697Y-75999900D01*
X102738817Y-76019902D01*
X102785311Y-76073557D01*
X102795415Y-76143831D01*
X102788328Y-76171054D01*
X102719829Y-76349502D01*
X102717788Y-76355784D01*
X102618906Y-76724816D01*
X102617535Y-76731266D01*
X102557766Y-77108629D01*
X102557080Y-77115167D01*
X102537084Y-77496699D01*
X102537084Y-77503301D01*
X102557080Y-77884833D01*
X102557766Y-77891371D01*
X102617535Y-78268734D01*
X102618906Y-78275184D01*
X102717788Y-78644216D01*
X102719829Y-78650498D01*
X102856740Y-79007164D01*
X102859422Y-79013189D01*
X103032872Y-79353603D01*
X103036169Y-79359313D01*
X103244253Y-79679735D01*
X103248123Y-79685061D01*
X103441478Y-79923835D01*
X103453733Y-79932300D01*
X103464824Y-79925966D01*
X106160905Y-77229885D01*
X106223217Y-77195859D01*
X106294032Y-77200924D01*
X106339095Y-77229885D01*
X109034310Y-79925100D01*
X109047386Y-79932241D01*
X109057753Y-79924784D01*
X109251877Y-79685061D01*
X109255747Y-79679735D01*
X109463831Y-79359313D01*
X109467128Y-79353603D01*
X109640578Y-79013189D01*
X109643260Y-79007164D01*
X109780171Y-78650498D01*
X109782212Y-78644216D01*
X109881094Y-78275184D01*
X109882465Y-78268734D01*
X109942234Y-77891371D01*
X109942920Y-77884833D01*
X109962916Y-77503301D01*
X109962916Y-77496699D01*
X109959377Y-77429167D01*
X113527706Y-77429167D01*
X113541006Y-77659838D01*
X113542442Y-77670058D01*
X113593238Y-77895454D01*
X113596317Y-77905282D01*
X113683249Y-78119370D01*
X113687892Y-78128561D01*
X113808624Y-78325577D01*
X113814702Y-78333881D01*
X113863525Y-78390243D01*
X113893008Y-78454828D01*
X113882894Y-78525101D01*
X113836393Y-78578749D01*
X113812517Y-78590723D01*
X113797176Y-78596474D01*
X113789997Y-78601854D01*
X113789994Y-78601856D01*
X113733474Y-78644216D01*
X113682454Y-78682454D01*
X113677072Y-78689635D01*
X113601856Y-78789994D01*
X113601854Y-78789997D01*
X113596474Y-78797176D01*
X113546149Y-78931420D01*
X113539500Y-78992623D01*
X113539501Y-81007376D01*
X113539870Y-81010770D01*
X113539870Y-81010776D01*
X113542199Y-81032212D01*
X113546149Y-81068580D01*
X113596474Y-81202824D01*
X113601854Y-81210003D01*
X113601856Y-81210006D01*
X113677072Y-81310365D01*
X113682454Y-81317546D01*
X113689635Y-81322928D01*
X113789994Y-81398144D01*
X113789997Y-81398146D01*
X113797176Y-81403526D01*
X113886561Y-81437034D01*
X113924025Y-81451079D01*
X113924027Y-81451079D01*
X113931420Y-81453851D01*
X113939270Y-81454704D01*
X113939271Y-81454704D01*
X113989217Y-81460130D01*
X113992623Y-81460500D01*
X114999852Y-81460500D01*
X116007376Y-81460499D01*
X116010770Y-81460130D01*
X116010776Y-81460130D01*
X116060722Y-81454705D01*
X116060726Y-81454704D01*
X116068580Y-81453851D01*
X116202824Y-81403526D01*
X116210003Y-81398146D01*
X116210006Y-81398144D01*
X116310365Y-81322928D01*
X116317546Y-81317546D01*
X116322928Y-81310365D01*
X116398144Y-81210006D01*
X116398146Y-81210003D01*
X116403526Y-81202824D01*
X116453851Y-81068580D01*
X116460500Y-81007377D01*
X116460500Y-80297386D01*
X128817759Y-80297386D01*
X128825216Y-80307753D01*
X129064935Y-80501874D01*
X129070272Y-80505751D01*
X129390685Y-80713830D01*
X129396394Y-80717127D01*
X129736811Y-80890578D01*
X129742836Y-80893260D01*
X130099502Y-81030171D01*
X130105784Y-81032212D01*
X130474816Y-81131094D01*
X130481266Y-81132465D01*
X130858629Y-81192234D01*
X130865167Y-81192920D01*
X131246699Y-81212916D01*
X131253301Y-81212916D01*
X131634833Y-81192920D01*
X131641371Y-81192234D01*
X132018734Y-81132465D01*
X132025184Y-81131094D01*
X132394216Y-81032212D01*
X132400498Y-81030171D01*
X132757164Y-80893260D01*
X132763189Y-80890578D01*
X133103606Y-80717127D01*
X133109315Y-80713830D01*
X133429728Y-80505751D01*
X133435065Y-80501874D01*
X133673835Y-80308522D01*
X133682300Y-80296267D01*
X133675966Y-80285176D01*
X131262812Y-77872022D01*
X131248868Y-77864408D01*
X131247035Y-77864539D01*
X131240420Y-77868790D01*
X128824900Y-80284310D01*
X128817759Y-80297386D01*
X116460500Y-80297386D01*
X116460499Y-78992624D01*
X116453851Y-78931420D01*
X116403526Y-78797176D01*
X116398146Y-78789997D01*
X116398144Y-78789994D01*
X116322928Y-78689635D01*
X116317546Y-78682454D01*
X116266526Y-78644216D01*
X116210006Y-78601856D01*
X116210003Y-78601854D01*
X116202824Y-78596474D01*
X116190245Y-78591759D01*
X116186708Y-78589101D01*
X116186545Y-78589012D01*
X116186558Y-78588988D01*
X116133481Y-78549117D01*
X116108782Y-78482555D01*
X116123990Y-78413206D01*
X116132153Y-78400251D01*
X116259616Y-78222867D01*
X116264927Y-78214028D01*
X116367296Y-78006901D01*
X116371094Y-77997308D01*
X116438262Y-77776232D01*
X116440439Y-77766162D01*
X116470835Y-77535279D01*
X116471354Y-77528604D01*
X116472949Y-77463364D01*
X116472755Y-77456647D01*
X116453675Y-77224567D01*
X116451992Y-77214405D01*
X116395703Y-76990306D01*
X116392382Y-76980551D01*
X116300252Y-76768667D01*
X116295374Y-76759570D01*
X116212616Y-76631645D01*
X116201930Y-76622442D01*
X116192365Y-76626845D01*
X115089095Y-77730115D01*
X115026783Y-77764141D01*
X114955968Y-77759076D01*
X114910905Y-77730115D01*
X113810687Y-76629897D01*
X113799151Y-76623597D01*
X113786868Y-76633221D01*
X113722126Y-76728129D01*
X113717028Y-76737103D01*
X113619750Y-76946670D01*
X113616187Y-76956357D01*
X113554442Y-77178999D01*
X113552511Y-77189118D01*
X113527958Y-77418878D01*
X113527706Y-77429167D01*
X109959377Y-77429167D01*
X109942920Y-77115167D01*
X109942234Y-77108629D01*
X109882465Y-76731266D01*
X109881094Y-76724816D01*
X109782212Y-76355784D01*
X109780171Y-76349502D01*
X109711665Y-76171038D01*
X109705926Y-76100274D01*
X109739356Y-76037641D01*
X109801342Y-76003024D01*
X109829296Y-75999884D01*
X112633773Y-75999877D01*
X113726540Y-75999874D01*
X113794659Y-76019876D01*
X113822350Y-76044044D01*
X113843822Y-76069185D01*
X113843829Y-76069192D01*
X113847044Y-76072956D01*
X113850806Y-76076169D01*
X113850811Y-76076174D01*
X113961902Y-76171054D01*
X114041601Y-76239123D01*
X114259757Y-76372809D01*
X114264329Y-76374703D01*
X114266086Y-76375598D01*
X114297981Y-76398771D01*
X114987188Y-77087978D01*
X115001132Y-77095592D01*
X115002965Y-77095461D01*
X115009580Y-77091210D01*
X115702019Y-76398771D01*
X115733914Y-76375598D01*
X115735671Y-76374703D01*
X115740243Y-76372809D01*
X115958399Y-76239123D01*
X116152956Y-76072956D01*
X116177655Y-76044037D01*
X116237102Y-76005230D01*
X116273464Y-75999869D01*
X122433570Y-75999854D01*
X127670722Y-75999842D01*
X127738840Y-76019843D01*
X127785334Y-76073498D01*
X127795438Y-76143772D01*
X127788351Y-76170995D01*
X127719829Y-76349502D01*
X127717788Y-76355784D01*
X127618906Y-76724816D01*
X127617535Y-76731266D01*
X127557766Y-77108629D01*
X127557080Y-77115167D01*
X127537084Y-77496699D01*
X127537084Y-77503301D01*
X127557080Y-77884833D01*
X127557766Y-77891371D01*
X127617535Y-78268734D01*
X127618906Y-78275184D01*
X127717788Y-78644216D01*
X127719829Y-78650498D01*
X127856740Y-79007164D01*
X127859422Y-79013189D01*
X128032872Y-79353603D01*
X128036169Y-79359313D01*
X128244253Y-79679735D01*
X128248123Y-79685061D01*
X128441478Y-79923835D01*
X128453733Y-79932300D01*
X128464824Y-79925966D01*
X131160905Y-77229885D01*
X131223217Y-77195859D01*
X131294032Y-77200924D01*
X131339095Y-77229885D01*
X134034310Y-79925100D01*
X134047386Y-79932241D01*
X134057753Y-79924784D01*
X134251877Y-79685061D01*
X134255747Y-79679735D01*
X134463831Y-79359313D01*
X134467128Y-79353603D01*
X134640578Y-79013189D01*
X134643260Y-79007164D01*
X134780171Y-78650498D01*
X134782212Y-78644216D01*
X134881094Y-78275184D01*
X134882465Y-78268734D01*
X134942234Y-77891371D01*
X134942920Y-77884833D01*
X134962916Y-77503301D01*
X134962916Y-77496699D01*
X134959377Y-77429167D01*
X138527706Y-77429167D01*
X138541006Y-77659838D01*
X138542442Y-77670058D01*
X138593238Y-77895454D01*
X138596317Y-77905282D01*
X138683249Y-78119370D01*
X138687892Y-78128561D01*
X138808624Y-78325577D01*
X138814702Y-78333881D01*
X138863525Y-78390243D01*
X138893008Y-78454828D01*
X138882894Y-78525101D01*
X138836393Y-78578749D01*
X138812517Y-78590723D01*
X138797176Y-78596474D01*
X138789997Y-78601854D01*
X138789994Y-78601856D01*
X138733474Y-78644216D01*
X138682454Y-78682454D01*
X138677072Y-78689635D01*
X138601856Y-78789994D01*
X138601854Y-78789997D01*
X138596474Y-78797176D01*
X138546149Y-78931420D01*
X138539500Y-78992623D01*
X138539501Y-81007376D01*
X138539870Y-81010770D01*
X138539870Y-81010776D01*
X138542199Y-81032212D01*
X138546149Y-81068580D01*
X138596474Y-81202824D01*
X138601854Y-81210003D01*
X138601856Y-81210006D01*
X138677072Y-81310365D01*
X138682454Y-81317546D01*
X138689635Y-81322928D01*
X138789994Y-81398144D01*
X138789997Y-81398146D01*
X138797176Y-81403526D01*
X138886561Y-81437034D01*
X138924025Y-81451079D01*
X138924027Y-81451079D01*
X138931420Y-81453851D01*
X138939270Y-81454704D01*
X138939271Y-81454704D01*
X138989217Y-81460130D01*
X138992623Y-81460500D01*
X139999852Y-81460500D01*
X141007376Y-81460499D01*
X141010770Y-81460130D01*
X141010776Y-81460130D01*
X141060722Y-81454705D01*
X141060726Y-81454704D01*
X141068580Y-81453851D01*
X141202824Y-81403526D01*
X141210003Y-81398146D01*
X141210006Y-81398144D01*
X141310365Y-81322928D01*
X141317546Y-81317546D01*
X141322928Y-81310365D01*
X141398144Y-81210006D01*
X141398146Y-81210003D01*
X141403526Y-81202824D01*
X141453851Y-81068580D01*
X141460500Y-81007377D01*
X141460500Y-80297386D01*
X153817759Y-80297386D01*
X153825216Y-80307753D01*
X154064935Y-80501874D01*
X154070272Y-80505751D01*
X154390685Y-80713830D01*
X154396394Y-80717127D01*
X154736811Y-80890578D01*
X154742836Y-80893260D01*
X155099502Y-81030171D01*
X155105784Y-81032212D01*
X155474816Y-81131094D01*
X155481266Y-81132465D01*
X155858629Y-81192234D01*
X155865167Y-81192920D01*
X156246699Y-81212916D01*
X156253301Y-81212916D01*
X156634833Y-81192920D01*
X156641371Y-81192234D01*
X157018734Y-81132465D01*
X157025184Y-81131094D01*
X157394216Y-81032212D01*
X157400498Y-81030171D01*
X157757164Y-80893260D01*
X157763189Y-80890578D01*
X158103606Y-80717127D01*
X158109315Y-80713830D01*
X158429728Y-80505751D01*
X158435065Y-80501874D01*
X158673835Y-80308522D01*
X158682300Y-80296267D01*
X158675966Y-80285176D01*
X156262812Y-77872022D01*
X156248868Y-77864408D01*
X156247035Y-77864539D01*
X156240420Y-77868790D01*
X153824900Y-80284310D01*
X153817759Y-80297386D01*
X141460500Y-80297386D01*
X141460499Y-78992624D01*
X141453851Y-78931420D01*
X141403526Y-78797176D01*
X141398146Y-78789997D01*
X141398144Y-78789994D01*
X141322928Y-78689635D01*
X141317546Y-78682454D01*
X141266526Y-78644216D01*
X141210006Y-78601856D01*
X141210003Y-78601854D01*
X141202824Y-78596474D01*
X141190245Y-78591759D01*
X141186708Y-78589101D01*
X141186545Y-78589012D01*
X141186558Y-78588988D01*
X141133481Y-78549117D01*
X141108782Y-78482555D01*
X141123990Y-78413206D01*
X141132153Y-78400251D01*
X141259616Y-78222867D01*
X141264927Y-78214028D01*
X141367296Y-78006901D01*
X141371094Y-77997308D01*
X141438262Y-77776232D01*
X141440439Y-77766162D01*
X141470835Y-77535279D01*
X141471354Y-77528604D01*
X141472949Y-77463364D01*
X141472755Y-77456647D01*
X141453675Y-77224567D01*
X141451992Y-77214405D01*
X141395703Y-76990306D01*
X141392382Y-76980551D01*
X141300252Y-76768667D01*
X141295374Y-76759570D01*
X141212616Y-76631645D01*
X141201930Y-76622442D01*
X141192365Y-76626845D01*
X140089095Y-77730115D01*
X140026783Y-77764141D01*
X139955968Y-77759076D01*
X139910905Y-77730115D01*
X138810687Y-76629897D01*
X138799151Y-76623597D01*
X138786868Y-76633221D01*
X138722126Y-76728129D01*
X138717028Y-76737103D01*
X138619750Y-76946670D01*
X138616187Y-76956357D01*
X138554442Y-77178999D01*
X138552511Y-77189118D01*
X138527958Y-77418878D01*
X138527706Y-77429167D01*
X134959377Y-77429167D01*
X134942920Y-77115167D01*
X134942234Y-77108629D01*
X134882465Y-76731266D01*
X134881094Y-76724816D01*
X134782212Y-76355784D01*
X134780173Y-76349509D01*
X134711642Y-76170980D01*
X134705903Y-76100215D01*
X134739333Y-76037582D01*
X134801319Y-76002965D01*
X134829273Y-75999825D01*
X135483717Y-75999823D01*
X138726492Y-75999816D01*
X138794610Y-76019817D01*
X138822299Y-76043984D01*
X138847044Y-76072956D01*
X139041601Y-76239123D01*
X139259757Y-76372809D01*
X139264329Y-76374703D01*
X139266086Y-76375598D01*
X139297981Y-76398771D01*
X139987188Y-77087978D01*
X140001132Y-77095592D01*
X140002965Y-77095461D01*
X140009580Y-77091210D01*
X140702019Y-76398771D01*
X140733914Y-76375598D01*
X140735671Y-76374703D01*
X140740243Y-76372809D01*
X140958399Y-76239123D01*
X141038098Y-76171054D01*
X141149189Y-76076174D01*
X141149194Y-76076169D01*
X141152956Y-76072956D01*
X141156171Y-76069192D01*
X141177705Y-76043979D01*
X141237156Y-76005170D01*
X141273516Y-75999810D01*
X149416693Y-75999791D01*
X152670742Y-75999783D01*
X152738862Y-76019785D01*
X152785356Y-76073440D01*
X152795460Y-76143714D01*
X152788373Y-76170937D01*
X152719829Y-76349502D01*
X152717788Y-76355784D01*
X152618906Y-76724816D01*
X152617535Y-76731266D01*
X152557766Y-77108629D01*
X152557080Y-77115167D01*
X152537084Y-77496699D01*
X152537084Y-77503301D01*
X152557080Y-77884833D01*
X152557766Y-77891371D01*
X152617535Y-78268734D01*
X152618906Y-78275184D01*
X152717788Y-78644216D01*
X152719829Y-78650498D01*
X152856740Y-79007164D01*
X152859422Y-79013189D01*
X153032872Y-79353603D01*
X153036169Y-79359313D01*
X153244253Y-79679735D01*
X153248123Y-79685061D01*
X153441478Y-79923835D01*
X153453733Y-79932300D01*
X153464824Y-79925966D01*
X156160905Y-77229885D01*
X156223217Y-77195859D01*
X156294032Y-77200924D01*
X156339095Y-77229885D01*
X159034310Y-79925100D01*
X159047386Y-79932241D01*
X159057753Y-79924784D01*
X159251877Y-79685061D01*
X159255747Y-79679735D01*
X159463831Y-79359313D01*
X159467128Y-79353603D01*
X159640578Y-79013189D01*
X159643260Y-79007164D01*
X159780171Y-78650498D01*
X159782212Y-78644216D01*
X159881094Y-78275184D01*
X159882465Y-78268734D01*
X159942234Y-77891371D01*
X159942920Y-77884833D01*
X159962916Y-77503301D01*
X159962916Y-77496699D01*
X159942920Y-77115167D01*
X159942234Y-77108629D01*
X159882465Y-76731266D01*
X159881094Y-76724816D01*
X159782212Y-76355784D01*
X159780171Y-76349502D01*
X159711620Y-76170921D01*
X159705881Y-76100157D01*
X159739311Y-76037524D01*
X159801297Y-76002907D01*
X159829250Y-75999767D01*
X160137428Y-75999766D01*
X160274462Y-75999765D01*
X160342582Y-76019767D01*
G37*
G04 #@! TD.AperFunction*
G04 #@! TA.AperFunction,Conductor*
G36*
X140000356Y-113407248D02*
G01*
X140045419Y-113436209D01*
X140661984Y-114052774D01*
X139942849Y-114052059D01*
X139686209Y-113795419D01*
X139652183Y-113733107D01*
X139657248Y-113662292D01*
X139686209Y-113617229D01*
X139867229Y-113436209D01*
X139929541Y-113402183D01*
X140000356Y-113407248D01*
G37*
G04 #@! TD.AperFunction*
G04 #@! TA.AperFunction,Conductor*
G36*
X137587708Y-113407248D02*
G01*
X137632771Y-113436209D01*
X137813791Y-113617229D01*
X137847817Y-113679541D01*
X137842752Y-113750356D01*
X137813791Y-113795419D01*
X137559519Y-114049691D01*
X136841812Y-114048978D01*
X137454581Y-113436209D01*
X137516893Y-113402183D01*
X137587708Y-113407248D01*
G37*
G04 #@! TD.AperFunction*
G04 #@! TA.AperFunction,Conductor*
G36*
X115000356Y-113407248D02*
G01*
X115045419Y-113436209D01*
X115637117Y-114027907D01*
X114917982Y-114027192D01*
X114686209Y-113795419D01*
X114652183Y-113733107D01*
X114657248Y-113662292D01*
X114686209Y-113617229D01*
X114867229Y-113436209D01*
X114929541Y-113402183D01*
X115000356Y-113407248D01*
G37*
G04 #@! TD.AperFunction*
G04 #@! TA.AperFunction,Conductor*
G36*
X112587708Y-113407248D02*
G01*
X112632771Y-113436209D01*
X112813791Y-113617229D01*
X112847817Y-113679541D01*
X112842752Y-113750356D01*
X112813791Y-113795419D01*
X112584336Y-114024874D01*
X111866630Y-114024160D01*
X112454581Y-113436209D01*
X112516893Y-113402183D01*
X112587708Y-113407248D01*
G37*
G04 #@! TD.AperFunction*
G04 #@! TA.AperFunction,Conductor*
G36*
X90000356Y-113407248D02*
G01*
X90045419Y-113436209D01*
X90612251Y-114003041D01*
X89893116Y-114002326D01*
X89686209Y-113795419D01*
X89652183Y-113733107D01*
X89657248Y-113662292D01*
X89686209Y-113617229D01*
X89867229Y-113436209D01*
X89929541Y-113402183D01*
X90000356Y-113407248D01*
G37*
G04 #@! TD.AperFunction*
G04 #@! TA.AperFunction,Conductor*
G36*
X87587708Y-113407248D02*
G01*
X87632771Y-113436209D01*
X87813791Y-113617229D01*
X87847817Y-113679541D01*
X87842752Y-113750356D01*
X87813791Y-113795419D01*
X87609153Y-114000057D01*
X86891447Y-113999343D01*
X87454581Y-113436209D01*
X87516893Y-113402183D01*
X87587708Y-113407248D01*
G37*
G04 #@! TD.AperFunction*
G04 #@! TA.AperFunction,Conductor*
G36*
X65000356Y-113407248D02*
G01*
X65045419Y-113436209D01*
X65587384Y-113978174D01*
X64868250Y-113977460D01*
X64686209Y-113795419D01*
X64652183Y-113733107D01*
X64657248Y-113662292D01*
X64686209Y-113617229D01*
X64867229Y-113436209D01*
X64929541Y-113402183D01*
X65000356Y-113407248D01*
G37*
G04 #@! TD.AperFunction*
G04 #@! TA.AperFunction,Conductor*
G36*
X62587708Y-113407248D02*
G01*
X62632771Y-113436209D01*
X62813791Y-113617229D01*
X62847817Y-113679541D01*
X62842752Y-113750356D01*
X62813791Y-113795419D01*
X62633971Y-113975239D01*
X61916264Y-113974526D01*
X62454581Y-113436209D01*
X62516893Y-113402183D01*
X62587708Y-113407248D01*
G37*
G04 #@! TD.AperFunction*
G04 #@! TA.AperFunction,Conductor*
G36*
X157545419Y-76563791D02*
G01*
X157483107Y-76597817D01*
X157412292Y-76592752D01*
X157367229Y-76563791D01*
X157186209Y-76382771D01*
X157152183Y-76320459D01*
X157157248Y-76249644D01*
X157186209Y-76204581D01*
X157391018Y-75999772D01*
X158109440Y-75999770D01*
X157545419Y-76563791D01*
G37*
G04 #@! TD.AperFunction*
G04 #@! TA.AperFunction,Conductor*
G36*
X132545419Y-76563791D02*
G01*
X132483107Y-76597817D01*
X132412292Y-76592752D01*
X132367229Y-76563791D01*
X132186209Y-76382771D01*
X132152183Y-76320459D01*
X132157248Y-76249644D01*
X132186209Y-76204581D01*
X132390959Y-75999831D01*
X133109381Y-75999829D01*
X132545419Y-76563791D01*
G37*
G04 #@! TD.AperFunction*
G04 #@! TA.AperFunction,Conductor*
G36*
X82545419Y-76563791D02*
G01*
X82483107Y-76597817D01*
X82412292Y-76592752D01*
X82367229Y-76563791D01*
X82186209Y-76382771D01*
X82152183Y-76320459D01*
X82157248Y-76249644D01*
X82186209Y-76204581D01*
X82390842Y-75999948D01*
X83109264Y-75999946D01*
X82545419Y-76563791D01*
G37*
G04 #@! TD.AperFunction*
G04 #@! TA.AperFunction,Conductor*
G36*
X130313791Y-76204581D02*
G01*
X130347817Y-76266893D01*
X130342752Y-76337708D01*
X130313791Y-76382771D01*
X130132771Y-76563791D01*
X130070459Y-76597817D01*
X129999644Y-76592752D01*
X129954581Y-76563791D01*
X129390628Y-75999838D01*
X130109046Y-75999836D01*
X130313791Y-76204581D01*
G37*
G04 #@! TD.AperFunction*
G04 #@! TA.AperFunction,Conductor*
G36*
X107545419Y-76563791D02*
G01*
X107483107Y-76597817D01*
X107412292Y-76592752D01*
X107367229Y-76563791D01*
X107186209Y-76382771D01*
X107152183Y-76320459D01*
X107157248Y-76249644D01*
X107186209Y-76204581D01*
X107390901Y-75999889D01*
X108109323Y-75999887D01*
X107545419Y-76563791D01*
G37*
G04 #@! TD.AperFunction*
G04 #@! TA.AperFunction,Conductor*
G36*
X155313791Y-76204581D02*
G01*
X155347817Y-76266893D01*
X155342752Y-76337708D01*
X155313791Y-76382771D01*
X155132771Y-76563791D01*
X155070459Y-76597817D01*
X154999644Y-76592752D01*
X154954581Y-76563791D01*
X154390569Y-75999779D01*
X155108987Y-75999777D01*
X155313791Y-76204581D01*
G37*
G04 #@! TD.AperFunction*
G04 #@! TA.AperFunction,Conductor*
G36*
X105313791Y-76204581D02*
G01*
X105347817Y-76266893D01*
X105342752Y-76337708D01*
X105313791Y-76382771D01*
X105132771Y-76563791D01*
X105070459Y-76597817D01*
X104999644Y-76592752D01*
X104954581Y-76563791D01*
X104390686Y-75999896D01*
X105109104Y-75999894D01*
X105313791Y-76204581D01*
G37*
G04 #@! TD.AperFunction*
G04 #@! TA.AperFunction,Conductor*
G36*
X80313791Y-76204581D02*
G01*
X80347817Y-76266893D01*
X80342752Y-76337708D01*
X80313791Y-76382771D01*
X80132771Y-76563791D01*
X80070459Y-76597817D01*
X79999644Y-76592752D01*
X79954581Y-76563791D01*
X79390745Y-75999955D01*
X80109163Y-75999953D01*
X80313791Y-76204581D01*
G37*
G04 #@! TD.AperFunction*
G04 #@! TD*
G04 #@! TA.AperFunction,Conductor*
G04 #@! TO.N,GNDPWR*
G36*
X169441621Y-50520502D02*
G01*
X169488114Y-50574158D01*
X169499500Y-50626500D01*
X169499500Y-139373500D01*
X169479498Y-139441621D01*
X169425842Y-139488114D01*
X169373500Y-139499500D01*
X50626500Y-139499500D01*
X50558379Y-139479498D01*
X50511886Y-139425842D01*
X50500500Y-139373500D01*
X50500500Y-137797386D01*
X52567759Y-137797386D01*
X52575216Y-137807753D01*
X52814935Y-138001874D01*
X52820272Y-138005751D01*
X53140685Y-138213830D01*
X53146394Y-138217127D01*
X53486811Y-138390578D01*
X53492836Y-138393260D01*
X53849502Y-138530171D01*
X53855784Y-138532212D01*
X54224816Y-138631094D01*
X54231266Y-138632465D01*
X54608629Y-138692234D01*
X54615167Y-138692920D01*
X54996699Y-138712916D01*
X55003301Y-138712916D01*
X55384833Y-138692920D01*
X55391371Y-138692234D01*
X55768734Y-138632465D01*
X55775184Y-138631094D01*
X56144216Y-138532212D01*
X56150498Y-138530171D01*
X56507164Y-138393260D01*
X56513189Y-138390578D01*
X56853606Y-138217127D01*
X56859315Y-138213830D01*
X57179728Y-138005751D01*
X57185065Y-138001874D01*
X57423835Y-137808522D01*
X57431527Y-137797386D01*
X162567759Y-137797386D01*
X162575216Y-137807753D01*
X162814935Y-138001874D01*
X162820272Y-138005751D01*
X163140685Y-138213830D01*
X163146394Y-138217127D01*
X163486811Y-138390578D01*
X163492836Y-138393260D01*
X163849502Y-138530171D01*
X163855784Y-138532212D01*
X164224816Y-138631094D01*
X164231266Y-138632465D01*
X164608629Y-138692234D01*
X164615167Y-138692920D01*
X164996699Y-138712916D01*
X165003301Y-138712916D01*
X165384833Y-138692920D01*
X165391371Y-138692234D01*
X165768734Y-138632465D01*
X165775184Y-138631094D01*
X166144216Y-138532212D01*
X166150498Y-138530171D01*
X166507164Y-138393260D01*
X166513189Y-138390578D01*
X166853606Y-138217127D01*
X166859315Y-138213830D01*
X167179728Y-138005751D01*
X167185065Y-138001874D01*
X167423835Y-137808522D01*
X167432300Y-137796267D01*
X167425966Y-137785176D01*
X165012812Y-135372022D01*
X164998868Y-135364408D01*
X164997035Y-135364539D01*
X164990420Y-135368790D01*
X162574900Y-137784310D01*
X162567759Y-137797386D01*
X57431527Y-137797386D01*
X57432300Y-137796267D01*
X57425966Y-137785176D01*
X55012812Y-135372022D01*
X54998868Y-135364408D01*
X54997035Y-135364539D01*
X54990420Y-135368790D01*
X52574900Y-137784310D01*
X52567759Y-137797386D01*
X50500500Y-137797386D01*
X50500500Y-135003301D01*
X51287084Y-135003301D01*
X51307080Y-135384833D01*
X51307766Y-135391371D01*
X51367535Y-135768734D01*
X51368906Y-135775184D01*
X51467788Y-136144216D01*
X51469829Y-136150498D01*
X51606740Y-136507164D01*
X51609422Y-136513189D01*
X51782872Y-136853603D01*
X51786169Y-136859313D01*
X51994253Y-137179735D01*
X51998123Y-137185061D01*
X52191478Y-137423835D01*
X52203733Y-137432300D01*
X52214824Y-137425966D01*
X54627978Y-135012812D01*
X54634356Y-135001132D01*
X55364408Y-135001132D01*
X55364539Y-135002965D01*
X55368790Y-135009580D01*
X57784310Y-137425100D01*
X57797386Y-137432241D01*
X57807753Y-137424784D01*
X58001877Y-137185061D01*
X58005747Y-137179735D01*
X58213831Y-136859313D01*
X58217128Y-136853603D01*
X58390578Y-136513189D01*
X58393260Y-136507164D01*
X58530171Y-136150498D01*
X58532212Y-136144216D01*
X58631094Y-135775184D01*
X58632465Y-135768734D01*
X58692234Y-135391371D01*
X58692920Y-135384833D01*
X58712916Y-135003301D01*
X161287084Y-135003301D01*
X161307080Y-135384833D01*
X161307766Y-135391371D01*
X161367535Y-135768734D01*
X161368906Y-135775184D01*
X161467788Y-136144216D01*
X161469829Y-136150498D01*
X161606740Y-136507164D01*
X161609422Y-136513189D01*
X161782872Y-136853603D01*
X161786169Y-136859313D01*
X161994253Y-137179735D01*
X161998123Y-137185061D01*
X162191478Y-137423835D01*
X162203733Y-137432300D01*
X162214824Y-137425966D01*
X164627978Y-135012812D01*
X164634356Y-135001132D01*
X165364408Y-135001132D01*
X165364539Y-135002965D01*
X165368790Y-135009580D01*
X167784310Y-137425100D01*
X167797386Y-137432241D01*
X167807753Y-137424784D01*
X168001877Y-137185061D01*
X168005747Y-137179735D01*
X168213831Y-136859313D01*
X168217128Y-136853603D01*
X168390578Y-136513189D01*
X168393260Y-136507164D01*
X168530171Y-136150498D01*
X168532212Y-136144216D01*
X168631094Y-135775184D01*
X168632465Y-135768734D01*
X168692234Y-135391371D01*
X168692920Y-135384833D01*
X168712916Y-135003301D01*
X168712916Y-134996699D01*
X168692920Y-134615167D01*
X168692234Y-134608629D01*
X168632465Y-134231266D01*
X168631094Y-134224816D01*
X168532212Y-133855784D01*
X168530171Y-133849502D01*
X168393260Y-133492836D01*
X168390578Y-133486811D01*
X168217128Y-133146397D01*
X168213831Y-133140687D01*
X168005747Y-132820265D01*
X168001877Y-132814939D01*
X167808522Y-132576165D01*
X167796267Y-132567700D01*
X167785176Y-132574034D01*
X165372022Y-134987188D01*
X165364408Y-135001132D01*
X164634356Y-135001132D01*
X164635592Y-134998868D01*
X164635461Y-134997035D01*
X164631210Y-134990420D01*
X162215690Y-132574900D01*
X162202614Y-132567759D01*
X162192247Y-132575216D01*
X161998123Y-132814939D01*
X161994253Y-132820265D01*
X161786169Y-133140687D01*
X161782872Y-133146397D01*
X161609422Y-133486811D01*
X161606740Y-133492836D01*
X161469829Y-133849502D01*
X161467788Y-133855784D01*
X161368906Y-134224816D01*
X161367535Y-134231266D01*
X161307766Y-134608629D01*
X161307080Y-134615167D01*
X161287084Y-134996699D01*
X161287084Y-135003301D01*
X58712916Y-135003301D01*
X58712916Y-134996699D01*
X58692920Y-134615167D01*
X58692234Y-134608629D01*
X58632465Y-134231266D01*
X58631094Y-134224816D01*
X58532212Y-133855784D01*
X58530171Y-133849502D01*
X58393260Y-133492836D01*
X58390578Y-133486811D01*
X58217128Y-133146397D01*
X58213831Y-133140687D01*
X58005747Y-132820265D01*
X58001877Y-132814939D01*
X57808522Y-132576165D01*
X57796267Y-132567700D01*
X57785176Y-132574034D01*
X55372022Y-134987188D01*
X55364408Y-135001132D01*
X54634356Y-135001132D01*
X54635592Y-134998868D01*
X54635461Y-134997035D01*
X54631210Y-134990420D01*
X52215690Y-132574900D01*
X52202614Y-132567759D01*
X52192247Y-132575216D01*
X51998123Y-132814939D01*
X51994253Y-132820265D01*
X51786169Y-133140687D01*
X51782872Y-133146397D01*
X51609422Y-133486811D01*
X51606740Y-133492836D01*
X51469829Y-133849502D01*
X51467788Y-133855784D01*
X51368906Y-134224816D01*
X51367535Y-134231266D01*
X51307766Y-134608629D01*
X51307080Y-134615167D01*
X51287084Y-134996699D01*
X51287084Y-135003301D01*
X50500500Y-135003301D01*
X50500500Y-132203733D01*
X52567700Y-132203733D01*
X52574034Y-132214824D01*
X54987188Y-134627978D01*
X55001132Y-134635592D01*
X55002965Y-134635461D01*
X55009580Y-134631210D01*
X57425100Y-132215690D01*
X57432241Y-132202614D01*
X57424784Y-132192247D01*
X57185065Y-131998126D01*
X57179728Y-131994249D01*
X56859315Y-131786170D01*
X56853606Y-131782873D01*
X56513189Y-131609422D01*
X56507164Y-131606740D01*
X56150498Y-131469829D01*
X56144216Y-131467788D01*
X55775184Y-131368906D01*
X55768734Y-131367535D01*
X55391371Y-131307766D01*
X55384833Y-131307080D01*
X55003301Y-131287084D01*
X54996699Y-131287084D01*
X54615167Y-131307080D01*
X54608629Y-131307766D01*
X54231266Y-131367535D01*
X54224816Y-131368906D01*
X53855784Y-131467788D01*
X53849502Y-131469829D01*
X53492836Y-131606740D01*
X53486811Y-131609422D01*
X53146397Y-131782872D01*
X53140687Y-131786169D01*
X52820265Y-131994253D01*
X52814939Y-131998123D01*
X52576165Y-132191478D01*
X52567700Y-132203733D01*
X50500500Y-132203733D01*
X50500500Y-91644294D01*
X58110929Y-91644294D01*
X58110943Y-91644447D01*
X58114853Y-91644447D01*
X58114853Y-91652031D01*
X58114773Y-91656530D01*
X58113629Y-91688543D01*
X58114762Y-91692981D01*
X58114853Y-91694686D01*
X58114853Y-93506693D01*
X58114709Y-93506693D01*
X58115649Y-93514173D01*
X58113629Y-93570683D01*
X58149220Y-93710135D01*
X58153340Y-93720082D01*
X58153341Y-93720085D01*
X58165072Y-93748407D01*
X58216886Y-93843296D01*
X58222259Y-93849067D01*
X58308815Y-93942034D01*
X58308818Y-93942037D01*
X58314958Y-93948631D01*
X58438734Y-94022068D01*
X58477003Y-94037919D01*
X58514045Y-94048795D01*
X58573151Y-94066151D01*
X58573154Y-94066151D01*
X58580713Y-94068371D01*
X58680447Y-94071935D01*
X58680294Y-94076211D01*
X58680447Y-94076197D01*
X58680447Y-94072287D01*
X58688031Y-94072287D01*
X58692530Y-94072367D01*
X58724543Y-94073511D01*
X58728981Y-94072378D01*
X58730686Y-94072287D01*
X59373282Y-94072287D01*
X59441403Y-94092289D01*
X59487896Y-94145945D01*
X59499282Y-94198254D01*
X59499493Y-95000133D01*
X59499708Y-95818519D01*
X59511274Y-95925900D01*
X59522660Y-95978209D01*
X59556775Y-96080686D01*
X59634562Y-96201726D01*
X59681055Y-96255382D01*
X59684448Y-96258322D01*
X59782982Y-96343703D01*
X59782985Y-96343705D01*
X59789794Y-96349605D01*
X59920672Y-96409375D01*
X59988793Y-96429377D01*
X59993233Y-96430015D01*
X59993236Y-96430016D01*
X60126762Y-96449214D01*
X60126765Y-96449214D01*
X60131208Y-96449853D01*
X62795499Y-96449853D01*
X62810048Y-96449568D01*
X62814718Y-96449476D01*
X62814731Y-96449476D01*
X62815323Y-96449464D01*
X62815903Y-96449441D01*
X62815945Y-96449440D01*
X62824608Y-96449100D01*
X62824647Y-96449098D01*
X62825209Y-96449076D01*
X62839453Y-96448237D01*
X62844438Y-96447943D01*
X62844456Y-96447942D01*
X62845046Y-96447907D01*
X62845595Y-96447864D01*
X62845738Y-96447854D01*
X62915112Y-96442393D01*
X62934886Y-96442393D01*
X63012416Y-96448495D01*
X63012553Y-96448505D01*
X63012893Y-96448532D01*
X63014968Y-96448680D01*
X63020046Y-96449042D01*
X63020118Y-96449047D01*
X63020288Y-96449059D01*
X63020439Y-96449069D01*
X63020503Y-96449073D01*
X63022711Y-96449214D01*
X63023962Y-96449294D01*
X63024097Y-96449302D01*
X63024152Y-96449305D01*
X63029967Y-96449634D01*
X63031372Y-96449713D01*
X63031390Y-96449714D01*
X63031410Y-96449715D01*
X65382963Y-96565490D01*
X66011761Y-96596448D01*
X66042046Y-96597031D01*
X66042978Y-96597021D01*
X66042980Y-96597021D01*
X66056236Y-96596879D01*
X66056261Y-96596878D01*
X66057133Y-96596869D01*
X66057995Y-96596834D01*
X66058030Y-96596833D01*
X66085376Y-96595719D01*
X66088024Y-96595639D01*
X66091122Y-96595578D01*
X66109695Y-96595213D01*
X66116115Y-96595251D01*
X66209820Y-96598196D01*
X66216216Y-96598561D01*
X66235503Y-96600155D01*
X66241887Y-96600846D01*
X66481057Y-96632971D01*
X66484492Y-96633432D01*
X66493272Y-96634929D01*
X66519500Y-96640361D01*
X66528149Y-96642474D01*
X66757752Y-96707230D01*
X66766228Y-96709947D01*
X66791423Y-96719017D01*
X66799692Y-96722328D01*
X66862452Y-96750074D01*
X67017899Y-96818796D01*
X67025900Y-96822677D01*
X67049573Y-96835212D01*
X67057269Y-96839642D01*
X67259713Y-96965898D01*
X67267076Y-96970860D01*
X67288752Y-96986609D01*
X67295744Y-96992076D01*
X67478383Y-97145598D01*
X67484994Y-97151566D01*
X67504212Y-97170190D01*
X67510383Y-97176608D01*
X67669562Y-97354329D01*
X67675261Y-97361164D01*
X67691675Y-97382323D01*
X67696884Y-97389551D01*
X67829413Y-97587895D01*
X67834095Y-97595469D01*
X67847363Y-97618730D01*
X67851499Y-97626616D01*
X67954772Y-97841682D01*
X67958340Y-97849839D01*
X67968195Y-97874729D01*
X67971177Y-97883113D01*
X68024952Y-98053148D01*
X68024951Y-98053148D01*
X68043120Y-98110599D01*
X68045495Y-98119152D01*
X68051748Y-98145197D01*
X68053520Y-98153925D01*
X68092689Y-98389253D01*
X68093840Y-98398082D01*
X68096359Y-98424729D01*
X68096883Y-98433618D01*
X68101645Y-98635650D01*
X68101645Y-98635652D01*
X68102504Y-98672124D01*
X68102399Y-98681026D01*
X68101138Y-98707767D01*
X68100405Y-98716642D01*
X68098740Y-98730711D01*
X68075628Y-98925984D01*
X68072363Y-98953567D01*
X68071007Y-98962350D01*
X68065989Y-98988656D01*
X68064013Y-98997336D01*
X68002867Y-99227951D01*
X68000281Y-99236474D01*
X67991614Y-99261787D01*
X67988435Y-99270103D01*
X67895402Y-99489809D01*
X67891647Y-99497871D01*
X67879491Y-99521728D01*
X67875178Y-99529500D01*
X67752123Y-99733894D01*
X67747261Y-99741359D01*
X67731869Y-99763258D01*
X67726498Y-99770354D01*
X67575876Y-99955366D01*
X67570013Y-99962069D01*
X67551693Y-99981578D01*
X67545372Y-99987849D01*
X67370172Y-100149803D01*
X67363436Y-100155603D01*
X67342530Y-100172351D01*
X67335400Y-100177661D01*
X67139138Y-100313306D01*
X67131651Y-100318098D01*
X67108599Y-100331732D01*
X67100778Y-100335992D01*
X66887354Y-100442633D01*
X66879256Y-100446328D01*
X66871599Y-100449500D01*
X66854528Y-100456571D01*
X66846186Y-100459685D01*
X66619875Y-100535189D01*
X66611345Y-100537704D01*
X66586930Y-100543973D01*
X66585412Y-100544363D01*
X66576715Y-100546271D01*
X66517071Y-100557164D01*
X66341995Y-100589138D01*
X66333209Y-100590423D01*
X66306610Y-100593360D01*
X66297750Y-100594022D01*
X66098622Y-100601847D01*
X66059341Y-100603390D01*
X66050436Y-100603425D01*
X66040829Y-100603123D01*
X66023673Y-100602584D01*
X66014793Y-100601990D01*
X65978161Y-100598237D01*
X65777462Y-100577674D01*
X65768644Y-100576454D01*
X65742272Y-100571852D01*
X65733565Y-100570014D01*
X65523624Y-100517864D01*
X65502010Y-100512495D01*
X65493456Y-100510046D01*
X65468017Y-100501780D01*
X65459652Y-100498732D01*
X65238501Y-100409156D01*
X65230373Y-100405524D01*
X65206349Y-100393755D01*
X65198506Y-100389564D01*
X64992194Y-100269728D01*
X64984661Y-100264988D01*
X64962520Y-100249942D01*
X64955360Y-100244698D01*
X64775210Y-100102680D01*
X64760258Y-100091336D01*
X64752704Y-100085823D01*
X64752201Y-100085470D01*
X64737876Y-100075417D01*
X64737847Y-100075397D01*
X64737351Y-100075049D01*
X62473586Y-98548322D01*
X62464406Y-98542275D01*
X62459826Y-98539329D01*
X62459608Y-98539192D01*
X62450660Y-98533573D01*
X62450607Y-98533540D01*
X62450449Y-98533441D01*
X62442853Y-98528787D01*
X62431893Y-98522261D01*
X62431550Y-98522063D01*
X62431515Y-98522042D01*
X62426794Y-98519311D01*
X62426772Y-98519298D01*
X62426422Y-98519096D01*
X62415343Y-98512871D01*
X62408959Y-98509389D01*
X62351814Y-98486929D01*
X62295469Y-98464783D01*
X62295465Y-98464782D01*
X62291807Y-98463344D01*
X62287991Y-98462371D01*
X62287988Y-98462370D01*
X62235283Y-98448931D01*
X62235279Y-98448930D01*
X62231474Y-98447960D01*
X62227586Y-98447472D01*
X62227580Y-98447471D01*
X62110476Y-98432776D01*
X62110470Y-98432776D01*
X62106576Y-98432287D01*
X60132060Y-98432287D01*
X60128707Y-98432648D01*
X60128701Y-98432648D01*
X60027908Y-98443491D01*
X60027906Y-98443491D01*
X60024544Y-98443853D01*
X60021246Y-98444571D01*
X60021239Y-98444572D01*
X60001215Y-98448931D01*
X59972172Y-98455253D01*
X59968977Y-98456317D01*
X59968970Y-98456319D01*
X59943557Y-98464783D01*
X59869577Y-98489422D01*
X59748557Y-98567241D01*
X59745156Y-98570189D01*
X59745150Y-98570194D01*
X59716312Y-98595196D01*
X59694913Y-98613748D01*
X59675945Y-98635650D01*
X59606618Y-98715699D01*
X59606617Y-98715701D01*
X59600719Y-98722511D01*
X59540983Y-98853405D01*
X59520999Y-98921530D01*
X59500560Y-99063952D01*
X59500561Y-99068446D01*
X59500561Y-99068449D01*
X59500891Y-100320000D01*
X59500892Y-100323666D01*
X59500646Y-100323666D01*
X59484685Y-100391291D01*
X59433608Y-100440603D01*
X59386158Y-100454492D01*
X59273308Y-100464365D01*
X59267995Y-100465789D01*
X59267993Y-100465789D01*
X59058814Y-100521838D01*
X59058812Y-100521839D01*
X59053504Y-100523261D01*
X59048524Y-100525583D01*
X59048522Y-100525584D01*
X58852247Y-100617109D01*
X58852244Y-100617111D01*
X58847266Y-100619432D01*
X58660861Y-100749953D01*
X58499953Y-100910861D01*
X58369432Y-101097266D01*
X58273261Y-101303504D01*
X58214365Y-101523308D01*
X58194532Y-101750000D01*
X58214365Y-101976692D01*
X58273261Y-102196496D01*
X58369432Y-102402734D01*
X58499953Y-102589139D01*
X58660861Y-102750047D01*
X58847266Y-102880568D01*
X58852244Y-102882889D01*
X58852247Y-102882891D01*
X59048522Y-102974416D01*
X59053504Y-102976739D01*
X59058812Y-102978161D01*
X59058814Y-102978162D01*
X59267993Y-103034211D01*
X59267995Y-103034211D01*
X59273308Y-103035635D01*
X59340455Y-103041510D01*
X59387022Y-103045584D01*
X59453140Y-103071448D01*
X59494780Y-103128951D01*
X59501259Y-103176666D01*
X59501641Y-103176666D01*
X59503356Y-109703866D01*
X59503700Y-111010908D01*
X59503754Y-111218399D01*
X59518883Y-111341015D01*
X59533726Y-111400312D01*
X59578144Y-111515589D01*
X59663267Y-111631587D01*
X59666408Y-111634788D01*
X59666411Y-111634792D01*
X59709838Y-111679054D01*
X59709842Y-111679058D01*
X59712989Y-111682265D01*
X59716562Y-111684993D01*
X59716563Y-111684994D01*
X59820185Y-111764115D01*
X59820188Y-111764116D01*
X59827347Y-111769583D01*
X59961670Y-111821145D01*
X59966055Y-111822143D01*
X59966056Y-111822143D01*
X59990770Y-111827766D01*
X60052755Y-111862383D01*
X60086185Y-111925017D01*
X60087264Y-111970337D01*
X60064722Y-112112662D01*
X60044422Y-112500000D01*
X60064722Y-112887338D01*
X60125398Y-113270433D01*
X60225786Y-113645087D01*
X60364786Y-114007194D01*
X60540875Y-114352789D01*
X60752124Y-114678084D01*
X60996219Y-114979516D01*
X61270484Y-115253781D01*
X61571916Y-115497876D01*
X61897211Y-115709125D01*
X62242806Y-115885214D01*
X62604913Y-116024214D01*
X62979567Y-116124602D01*
X63183201Y-116156854D01*
X63359414Y-116184764D01*
X63359422Y-116184765D01*
X63362662Y-116185278D01*
X63750000Y-116205578D01*
X64137338Y-116185278D01*
X64140578Y-116184765D01*
X64140586Y-116184764D01*
X64316799Y-116156854D01*
X64520433Y-116124602D01*
X64895087Y-116024214D01*
X65257194Y-115885214D01*
X65602789Y-115709125D01*
X65928084Y-115497876D01*
X66229516Y-115253781D01*
X66503781Y-114979516D01*
X66747876Y-114678084D01*
X66827900Y-114554858D01*
X66892100Y-114455999D01*
X66945976Y-114409762D01*
X67016297Y-114399993D01*
X67050229Y-114410063D01*
X67121836Y-114442852D01*
X67121840Y-114442853D01*
X67125925Y-114444724D01*
X67194025Y-114464794D01*
X67198472Y-114465438D01*
X67198477Y-114465439D01*
X67288716Y-114478505D01*
X67336424Y-114485413D01*
X73145708Y-114491185D01*
X78308737Y-114496315D01*
X78376838Y-114516385D01*
X78423278Y-114570087D01*
X78433312Y-114640371D01*
X78431130Y-114651730D01*
X78390705Y-114820108D01*
X78390704Y-114820116D01*
X78389548Y-114824930D01*
X78389160Y-114829864D01*
X78377198Y-114981860D01*
X78374500Y-115016137D01*
X78374500Y-121248500D01*
X78354498Y-121316621D01*
X78300842Y-121363114D01*
X78248500Y-121374500D01*
X75068819Y-121374500D01*
X75058933Y-121374112D01*
X75004930Y-121369862D01*
X75000000Y-121369474D01*
X74936137Y-121374500D01*
X74744930Y-121389548D01*
X74740123Y-121390702D01*
X74740117Y-121390703D01*
X74584157Y-121428147D01*
X74496140Y-121449278D01*
X74491569Y-121451171D01*
X74491567Y-121451172D01*
X74337691Y-121514910D01*
X74289473Y-121524501D01*
X73977624Y-121524501D01*
X73974230Y-121524870D01*
X73974224Y-121524870D01*
X73924278Y-121530295D01*
X73924274Y-121530296D01*
X73916420Y-121531149D01*
X73782176Y-121581474D01*
X73774997Y-121586854D01*
X73774994Y-121586856D01*
X73674635Y-121662072D01*
X73667454Y-121667454D01*
X73662072Y-121674635D01*
X73586856Y-121774994D01*
X73586854Y-121774997D01*
X73581474Y-121782176D01*
X73531149Y-121916420D01*
X73524500Y-121977623D01*
X73524500Y-122289475D01*
X73514909Y-122337692D01*
X73449278Y-122496140D01*
X73448123Y-122500952D01*
X73390703Y-122740117D01*
X73390702Y-122740123D01*
X73389548Y-122744930D01*
X73369474Y-123000000D01*
X73369862Y-123004930D01*
X73374112Y-123058933D01*
X73374500Y-123068819D01*
X73374500Y-131131181D01*
X73374112Y-131141067D01*
X73369474Y-131200000D01*
X73374500Y-131263863D01*
X73389548Y-131455070D01*
X73390702Y-131459877D01*
X73390703Y-131459883D01*
X73392601Y-131467788D01*
X73449278Y-131703860D01*
X73547191Y-131940243D01*
X73680877Y-132158399D01*
X73847044Y-132352956D01*
X74041601Y-132519123D01*
X74259757Y-132652809D01*
X74264327Y-132654702D01*
X74264331Y-132654704D01*
X74491567Y-132748828D01*
X74496140Y-132750722D01*
X74584157Y-132771853D01*
X74740117Y-132809297D01*
X74740123Y-132809298D01*
X74744930Y-132810452D01*
X75000000Y-132830526D01*
X75004930Y-132830138D01*
X75058933Y-132825888D01*
X75068819Y-132825500D01*
X79931181Y-132825500D01*
X79941067Y-132825888D01*
X80000000Y-132830526D01*
X80255070Y-132810452D01*
X80259877Y-132809298D01*
X80259883Y-132809297D01*
X80415843Y-132771853D01*
X80503860Y-132750722D01*
X80508433Y-132748828D01*
X80735669Y-132654704D01*
X80735673Y-132654702D01*
X80740243Y-132652809D01*
X80958399Y-132519123D01*
X81152956Y-132352956D01*
X81319123Y-132158399D01*
X81452809Y-131940243D01*
X81550722Y-131703860D01*
X81607399Y-131467788D01*
X81609297Y-131459883D01*
X81609298Y-131459877D01*
X81610452Y-131455070D01*
X81625500Y-131263863D01*
X81630526Y-131200000D01*
X81625888Y-131141067D01*
X81625500Y-131131181D01*
X81625500Y-123068819D01*
X81625888Y-123058933D01*
X81630138Y-123004930D01*
X81630526Y-123000000D01*
X81625888Y-122941067D01*
X81625500Y-122931181D01*
X81625500Y-115016137D01*
X81622803Y-114981860D01*
X81610840Y-114829864D01*
X81610452Y-114824930D01*
X81609298Y-114820123D01*
X81609297Y-114820117D01*
X81569677Y-114655091D01*
X81573224Y-114584183D01*
X81614544Y-114526449D01*
X81680517Y-114500219D01*
X81692316Y-114499677D01*
X85169128Y-114503132D01*
X85225801Y-114500001D01*
X85227539Y-114499807D01*
X85227547Y-114499806D01*
X85252123Y-114497058D01*
X85252127Y-114497057D01*
X85253875Y-114496862D01*
X85255612Y-114496568D01*
X85255621Y-114496567D01*
X85296658Y-114489627D01*
X85309851Y-114487396D01*
X85444175Y-114435835D01*
X85448113Y-114433636D01*
X85451813Y-114431570D01*
X85521041Y-114415824D01*
X85587793Y-114440004D01*
X85618913Y-114472957D01*
X85752124Y-114678084D01*
X85996219Y-114979516D01*
X86270484Y-115253781D01*
X86571916Y-115497876D01*
X86897211Y-115709125D01*
X87242806Y-115885214D01*
X87604913Y-116024214D01*
X87979567Y-116124602D01*
X88183201Y-116156854D01*
X88359414Y-116184764D01*
X88359422Y-116184765D01*
X88362662Y-116185278D01*
X88750000Y-116205578D01*
X89137338Y-116185278D01*
X89140578Y-116184765D01*
X89140586Y-116184764D01*
X89316799Y-116156854D01*
X89520433Y-116124602D01*
X89895087Y-116024214D01*
X90257194Y-115885214D01*
X90602789Y-115709125D01*
X90928084Y-115497876D01*
X91229516Y-115253781D01*
X91503781Y-114979516D01*
X91747876Y-114678084D01*
X91877484Y-114478505D01*
X91931361Y-114432268D01*
X92001682Y-114422498D01*
X92035614Y-114432568D01*
X92112306Y-114467685D01*
X92112310Y-114467686D01*
X92116395Y-114469557D01*
X92184496Y-114489627D01*
X92188940Y-114490270D01*
X92188947Y-114490272D01*
X92277767Y-114503132D01*
X92326893Y-114510245D01*
X100877490Y-114518741D01*
X103302774Y-114521151D01*
X103370875Y-114541221D01*
X103417315Y-114594923D01*
X103427349Y-114665207D01*
X103425167Y-114676566D01*
X103390705Y-114820108D01*
X103390704Y-114820116D01*
X103389548Y-114824930D01*
X103389160Y-114829864D01*
X103377198Y-114981860D01*
X103374500Y-115016137D01*
X103374500Y-121248500D01*
X103354498Y-121316621D01*
X103300842Y-121363114D01*
X103248500Y-121374500D01*
X100068819Y-121374500D01*
X100058933Y-121374112D01*
X100004930Y-121369862D01*
X100000000Y-121369474D01*
X99936137Y-121374500D01*
X99744930Y-121389548D01*
X99740123Y-121390702D01*
X99740117Y-121390703D01*
X99584157Y-121428147D01*
X99496140Y-121449278D01*
X99491569Y-121451171D01*
X99491567Y-121451172D01*
X99337691Y-121514910D01*
X99289473Y-121524501D01*
X98977624Y-121524501D01*
X98974230Y-121524870D01*
X98974224Y-121524870D01*
X98924278Y-121530295D01*
X98924274Y-121530296D01*
X98916420Y-121531149D01*
X98782176Y-121581474D01*
X98774997Y-121586854D01*
X98774994Y-121586856D01*
X98674635Y-121662072D01*
X98667454Y-121667454D01*
X98662072Y-121674635D01*
X98586856Y-121774994D01*
X98586854Y-121774997D01*
X98581474Y-121782176D01*
X98531149Y-121916420D01*
X98524500Y-121977623D01*
X98524500Y-122289475D01*
X98514909Y-122337692D01*
X98449278Y-122496140D01*
X98448123Y-122500952D01*
X98390703Y-122740117D01*
X98390702Y-122740123D01*
X98389548Y-122744930D01*
X98369474Y-123000000D01*
X98369862Y-123004930D01*
X98374112Y-123058933D01*
X98374500Y-123068819D01*
X98374500Y-131131181D01*
X98374112Y-131141067D01*
X98369474Y-131200000D01*
X98374500Y-131263863D01*
X98389548Y-131455070D01*
X98390702Y-131459877D01*
X98390703Y-131459883D01*
X98392601Y-131467788D01*
X98449278Y-131703860D01*
X98547191Y-131940243D01*
X98680877Y-132158399D01*
X98847044Y-132352956D01*
X99041601Y-132519123D01*
X99259757Y-132652809D01*
X99264327Y-132654702D01*
X99264331Y-132654704D01*
X99491567Y-132748828D01*
X99496140Y-132750722D01*
X99584157Y-132771853D01*
X99740117Y-132809297D01*
X99740123Y-132809298D01*
X99744930Y-132810452D01*
X100000000Y-132830526D01*
X100004930Y-132830138D01*
X100058933Y-132825888D01*
X100068819Y-132825500D01*
X104931181Y-132825500D01*
X104941067Y-132825888D01*
X105000000Y-132830526D01*
X105255070Y-132810452D01*
X105259877Y-132809298D01*
X105259883Y-132809297D01*
X105415843Y-132771853D01*
X105503860Y-132750722D01*
X105508433Y-132748828D01*
X105735669Y-132654704D01*
X105735673Y-132654702D01*
X105740243Y-132652809D01*
X105958399Y-132519123D01*
X106152956Y-132352956D01*
X106319123Y-132158399D01*
X106452809Y-131940243D01*
X106550722Y-131703860D01*
X106607399Y-131467788D01*
X106609297Y-131459883D01*
X106609298Y-131459877D01*
X106610452Y-131455070D01*
X106625500Y-131263863D01*
X106630526Y-131200000D01*
X106625888Y-131141067D01*
X106625500Y-131131181D01*
X106625500Y-123068819D01*
X106625888Y-123058933D01*
X106630138Y-123004930D01*
X106630526Y-123000000D01*
X106625888Y-122941067D01*
X106625500Y-122931181D01*
X106625500Y-115016137D01*
X106622803Y-114981860D01*
X106610840Y-114829864D01*
X106610452Y-114824930D01*
X106609296Y-114820116D01*
X106609295Y-114820108D01*
X106575643Y-114679940D01*
X106579189Y-114609032D01*
X106620508Y-114551298D01*
X106686482Y-114525067D01*
X106698286Y-114524525D01*
X107027329Y-114524852D01*
X110178666Y-114527984D01*
X110235352Y-114524852D01*
X110237118Y-114524655D01*
X110237124Y-114524654D01*
X110244949Y-114523779D01*
X110263428Y-114521712D01*
X110266745Y-114521151D01*
X110313214Y-114513292D01*
X110313217Y-114513291D01*
X110319397Y-114512246D01*
X110435941Y-114467508D01*
X110449516Y-114462297D01*
X110449518Y-114462296D01*
X110453720Y-114460683D01*
X110466187Y-114453721D01*
X110535413Y-114437969D01*
X110602166Y-114462145D01*
X110633294Y-114495103D01*
X110707281Y-114609032D01*
X110752124Y-114678084D01*
X110996219Y-114979516D01*
X111270484Y-115253781D01*
X111571916Y-115497876D01*
X111897211Y-115709125D01*
X112242806Y-115885214D01*
X112604913Y-116024214D01*
X112979567Y-116124602D01*
X113183201Y-116156854D01*
X113359414Y-116184764D01*
X113359422Y-116184765D01*
X113362662Y-116185278D01*
X113750000Y-116205578D01*
X114137338Y-116185278D01*
X114140578Y-116184765D01*
X114140586Y-116184764D01*
X114316799Y-116156854D01*
X114520433Y-116124602D01*
X114895087Y-116024214D01*
X115257194Y-115885214D01*
X115602789Y-115709125D01*
X115928084Y-115497876D01*
X116229516Y-115253781D01*
X116503781Y-114979516D01*
X116747876Y-114678084D01*
X116831568Y-114549209D01*
X116862870Y-114501009D01*
X116916746Y-114454772D01*
X116987067Y-114445003D01*
X117020999Y-114455073D01*
X117102773Y-114492517D01*
X117102777Y-114492518D01*
X117106862Y-114494389D01*
X117174963Y-114514459D01*
X117179407Y-114515102D01*
X117179414Y-114515104D01*
X117290231Y-114531149D01*
X117317360Y-114535077D01*
X128296812Y-114545987D01*
X128364912Y-114566057D01*
X128411352Y-114619759D01*
X128421386Y-114690043D01*
X128419205Y-114701401D01*
X128390703Y-114820117D01*
X128390702Y-114820123D01*
X128389548Y-114824930D01*
X128389160Y-114829864D01*
X128377198Y-114981860D01*
X128374500Y-115016137D01*
X128374500Y-121248500D01*
X128354498Y-121316621D01*
X128300842Y-121363114D01*
X128248500Y-121374500D01*
X125068819Y-121374500D01*
X125058933Y-121374112D01*
X125004930Y-121369862D01*
X125000000Y-121369474D01*
X124936137Y-121374500D01*
X124744930Y-121389548D01*
X124740123Y-121390702D01*
X124740117Y-121390703D01*
X124584157Y-121428147D01*
X124496140Y-121449278D01*
X124491569Y-121451171D01*
X124491567Y-121451172D01*
X124337691Y-121514910D01*
X124289473Y-121524501D01*
X123977624Y-121524501D01*
X123974230Y-121524870D01*
X123974224Y-121524870D01*
X123924278Y-121530295D01*
X123924274Y-121530296D01*
X123916420Y-121531149D01*
X123782176Y-121581474D01*
X123774997Y-121586854D01*
X123774994Y-121586856D01*
X123674635Y-121662072D01*
X123667454Y-121667454D01*
X123662072Y-121674635D01*
X123586856Y-121774994D01*
X123586854Y-121774997D01*
X123581474Y-121782176D01*
X123531149Y-121916420D01*
X123524500Y-121977623D01*
X123524500Y-122289475D01*
X123514909Y-122337692D01*
X123449278Y-122496140D01*
X123448123Y-122500952D01*
X123390703Y-122740117D01*
X123390702Y-122740123D01*
X123389548Y-122744930D01*
X123369474Y-123000000D01*
X123369862Y-123004930D01*
X123374112Y-123058933D01*
X123374500Y-123068819D01*
X123374500Y-131131181D01*
X123374112Y-131141067D01*
X123369474Y-131200000D01*
X123374500Y-131263863D01*
X123389548Y-131455070D01*
X123390702Y-131459877D01*
X123390703Y-131459883D01*
X123392601Y-131467788D01*
X123449278Y-131703860D01*
X123547191Y-131940243D01*
X123680877Y-132158399D01*
X123847044Y-132352956D01*
X124041601Y-132519123D01*
X124259757Y-132652809D01*
X124264327Y-132654702D01*
X124264331Y-132654704D01*
X124491567Y-132748828D01*
X124496140Y-132750722D01*
X124584157Y-132771853D01*
X124740117Y-132809297D01*
X124740123Y-132809298D01*
X124744930Y-132810452D01*
X125000000Y-132830526D01*
X125004930Y-132830138D01*
X125058933Y-132825888D01*
X125068819Y-132825500D01*
X129931181Y-132825500D01*
X129941067Y-132825888D01*
X130000000Y-132830526D01*
X130255070Y-132810452D01*
X130259877Y-132809298D01*
X130259883Y-132809297D01*
X130415843Y-132771853D01*
X130503860Y-132750722D01*
X130508433Y-132748828D01*
X130735669Y-132654704D01*
X130735673Y-132654702D01*
X130740243Y-132652809D01*
X130958399Y-132519123D01*
X131152956Y-132352956D01*
X131319123Y-132158399D01*
X131452809Y-131940243D01*
X131550722Y-131703860D01*
X131607399Y-131467788D01*
X131609297Y-131459883D01*
X131609298Y-131459877D01*
X131610452Y-131455070D01*
X131625500Y-131263863D01*
X131630526Y-131200000D01*
X131625888Y-131141067D01*
X131625500Y-131131181D01*
X131625500Y-123068819D01*
X131625888Y-123058933D01*
X131630138Y-123004930D01*
X131630526Y-123000000D01*
X131625888Y-122941067D01*
X131625500Y-122931181D01*
X131625500Y-115016137D01*
X131622803Y-114981860D01*
X131610840Y-114829864D01*
X131610452Y-114824930D01*
X131609298Y-114820123D01*
X131609297Y-114820117D01*
X131581608Y-114704787D01*
X131585155Y-114633879D01*
X131626475Y-114576145D01*
X131692448Y-114549915D01*
X131704252Y-114549373D01*
X133776606Y-114551432D01*
X135188203Y-114552835D01*
X135244886Y-114549703D01*
X135258251Y-114548208D01*
X135271213Y-114546759D01*
X135271219Y-114546758D01*
X135272964Y-114546563D01*
X135328936Y-114537097D01*
X135425004Y-114500219D01*
X135459055Y-114487148D01*
X135459057Y-114487147D01*
X135463259Y-114485534D01*
X135480567Y-114475868D01*
X135549793Y-114460115D01*
X135616547Y-114484290D01*
X135647676Y-114517249D01*
X135686980Y-114577772D01*
X135752124Y-114678084D01*
X135996219Y-114979516D01*
X136270484Y-115253781D01*
X136571916Y-115497876D01*
X136897211Y-115709125D01*
X137242806Y-115885214D01*
X137604913Y-116024214D01*
X137979567Y-116124602D01*
X138183201Y-116156854D01*
X138359414Y-116184764D01*
X138359422Y-116184765D01*
X138362662Y-116185278D01*
X138750000Y-116205578D01*
X139137338Y-116185278D01*
X139140578Y-116184765D01*
X139140586Y-116184764D01*
X139316799Y-116156854D01*
X139520433Y-116124602D01*
X139895087Y-116024214D01*
X140257194Y-115885214D01*
X140602789Y-115709125D01*
X140928084Y-115497876D01*
X141229516Y-115253781D01*
X141503781Y-114979516D01*
X141747876Y-114678084D01*
X141848256Y-114523513D01*
X141902131Y-114477278D01*
X141972452Y-114467508D01*
X142006383Y-114477577D01*
X142097330Y-114519221D01*
X142165431Y-114539291D01*
X142169875Y-114539934D01*
X142169882Y-114539936D01*
X142277916Y-114555578D01*
X142307828Y-114559909D01*
X153290851Y-114570822D01*
X153358950Y-114590892D01*
X153405390Y-114644594D01*
X153415424Y-114714878D01*
X153413242Y-114726237D01*
X153390705Y-114820108D01*
X153390704Y-114820116D01*
X153389548Y-114824930D01*
X153389160Y-114829864D01*
X153377198Y-114981860D01*
X153374500Y-115016137D01*
X153374500Y-121248500D01*
X153354498Y-121316621D01*
X153300842Y-121363114D01*
X153248500Y-121374500D01*
X150068819Y-121374500D01*
X150058933Y-121374112D01*
X150004930Y-121369862D01*
X150000000Y-121369474D01*
X149936137Y-121374500D01*
X149744930Y-121389548D01*
X149740123Y-121390702D01*
X149740117Y-121390703D01*
X149584157Y-121428147D01*
X149496140Y-121449278D01*
X149491569Y-121451171D01*
X149491567Y-121451172D01*
X149337691Y-121514910D01*
X149289473Y-121524501D01*
X148977624Y-121524501D01*
X148974230Y-121524870D01*
X148974224Y-121524870D01*
X148924278Y-121530295D01*
X148924274Y-121530296D01*
X148916420Y-121531149D01*
X148782176Y-121581474D01*
X148774997Y-121586854D01*
X148774994Y-121586856D01*
X148674635Y-121662072D01*
X148667454Y-121667454D01*
X148662072Y-121674635D01*
X148586856Y-121774994D01*
X148586854Y-121774997D01*
X148581474Y-121782176D01*
X148531149Y-121916420D01*
X148524500Y-121977623D01*
X148524500Y-122289475D01*
X148514909Y-122337692D01*
X148449278Y-122496140D01*
X148448123Y-122500952D01*
X148390703Y-122740117D01*
X148390702Y-122740123D01*
X148389548Y-122744930D01*
X148369474Y-123000000D01*
X148369862Y-123004930D01*
X148374112Y-123058933D01*
X148374500Y-123068819D01*
X148374500Y-131131181D01*
X148374112Y-131141067D01*
X148369474Y-131200000D01*
X148374500Y-131263863D01*
X148389548Y-131455070D01*
X148390702Y-131459877D01*
X148390703Y-131459883D01*
X148392601Y-131467788D01*
X148449278Y-131703860D01*
X148547191Y-131940243D01*
X148680877Y-132158399D01*
X148847044Y-132352956D01*
X149041601Y-132519123D01*
X149259757Y-132652809D01*
X149264327Y-132654702D01*
X149264331Y-132654704D01*
X149491567Y-132748828D01*
X149496140Y-132750722D01*
X149584157Y-132771853D01*
X149740117Y-132809297D01*
X149740123Y-132809298D01*
X149744930Y-132810452D01*
X150000000Y-132830526D01*
X150004930Y-132830138D01*
X150058933Y-132825888D01*
X150068819Y-132825500D01*
X154931181Y-132825500D01*
X154941067Y-132825888D01*
X155000000Y-132830526D01*
X155255070Y-132810452D01*
X155259877Y-132809298D01*
X155259883Y-132809297D01*
X155415843Y-132771853D01*
X155503860Y-132750722D01*
X155508433Y-132748828D01*
X155735669Y-132654704D01*
X155735673Y-132654702D01*
X155740243Y-132652809D01*
X155958399Y-132519123D01*
X156152956Y-132352956D01*
X156280404Y-132203733D01*
X162567700Y-132203733D01*
X162574034Y-132214824D01*
X164987188Y-134627978D01*
X165001132Y-134635592D01*
X165002965Y-134635461D01*
X165009580Y-134631210D01*
X167425100Y-132215690D01*
X167432241Y-132202614D01*
X167424784Y-132192247D01*
X167185065Y-131998126D01*
X167179728Y-131994249D01*
X166859315Y-131786170D01*
X166853606Y-131782873D01*
X166513189Y-131609422D01*
X166507164Y-131606740D01*
X166150498Y-131469829D01*
X166144216Y-131467788D01*
X165775184Y-131368906D01*
X165768734Y-131367535D01*
X165391371Y-131307766D01*
X165384833Y-131307080D01*
X165003301Y-131287084D01*
X164996699Y-131287084D01*
X164615167Y-131307080D01*
X164608629Y-131307766D01*
X164231266Y-131367535D01*
X164224816Y-131368906D01*
X163855784Y-131467788D01*
X163849502Y-131469829D01*
X163492836Y-131606740D01*
X163486811Y-131609422D01*
X163146397Y-131782872D01*
X163140687Y-131786169D01*
X162820265Y-131994253D01*
X162814939Y-131998123D01*
X162576165Y-132191478D01*
X162567700Y-132203733D01*
X156280404Y-132203733D01*
X156319123Y-132158399D01*
X156452809Y-131940243D01*
X156550722Y-131703860D01*
X156607399Y-131467788D01*
X156609297Y-131459883D01*
X156609298Y-131459877D01*
X156610452Y-131455070D01*
X156625500Y-131263863D01*
X156630526Y-131200000D01*
X156625888Y-131141067D01*
X156625500Y-131131181D01*
X156625500Y-123068819D01*
X156625888Y-123058933D01*
X156630138Y-123004930D01*
X156630526Y-123000000D01*
X156625888Y-122941067D01*
X156625500Y-122931181D01*
X156625500Y-115016137D01*
X156622803Y-114981860D01*
X156610840Y-114829864D01*
X156610452Y-114824930D01*
X156609296Y-114820116D01*
X156609295Y-114820108D01*
X156587574Y-114729635D01*
X156591120Y-114658727D01*
X156632439Y-114600993D01*
X156698413Y-114574762D01*
X156710209Y-114574220D01*
X158516593Y-114576016D01*
X160280364Y-114577769D01*
X160280371Y-114577769D01*
X160283749Y-114577772D01*
X160391527Y-114566258D01*
X160444022Y-114554858D01*
X160447238Y-114553788D01*
X160447241Y-114553787D01*
X160539367Y-114523130D01*
X160539370Y-114523128D01*
X160546857Y-114520637D01*
X160553496Y-114516368D01*
X160553498Y-114516367D01*
X160601629Y-114485417D01*
X160667877Y-114442818D01*
X160671278Y-114439870D01*
X160671284Y-114439865D01*
X160718118Y-114399261D01*
X160721521Y-114396311D01*
X160740439Y-114374467D01*
X160809818Y-114294357D01*
X160809820Y-114294354D01*
X160815716Y-114287546D01*
X160875451Y-114156652D01*
X160895435Y-114088526D01*
X160915874Y-113946107D01*
X160915598Y-112890586D01*
X160912469Y-100954717D01*
X160912469Y-100954715D01*
X160912468Y-100951335D01*
X160900902Y-100843953D01*
X160889516Y-100791644D01*
X160855401Y-100689167D01*
X160777614Y-100568127D01*
X160757023Y-100544363D01*
X160734061Y-100517864D01*
X160731121Y-100514471D01*
X160706716Y-100493324D01*
X160629194Y-100426150D01*
X160629191Y-100426148D01*
X160622382Y-100420248D01*
X160491504Y-100360478D01*
X160423383Y-100340476D01*
X160347175Y-100329519D01*
X160318659Y-100325419D01*
X160254078Y-100295926D01*
X160215694Y-100236200D01*
X160215694Y-100165203D01*
X160254077Y-100105477D01*
X160323113Y-100075424D01*
X160384726Y-100068796D01*
X160384728Y-100068796D01*
X160388090Y-100068434D01*
X160391388Y-100067716D01*
X160391395Y-100067715D01*
X160424236Y-100060566D01*
X160440462Y-100057034D01*
X160443657Y-100055970D01*
X160443664Y-100055968D01*
X160506534Y-100035029D01*
X160543057Y-100022865D01*
X160664077Y-99945046D01*
X160667478Y-99942098D01*
X160667484Y-99942093D01*
X160714318Y-99901489D01*
X160717721Y-99898539D01*
X160720671Y-99895133D01*
X160806018Y-99796585D01*
X160806020Y-99796582D01*
X160811916Y-99789774D01*
X160871651Y-99658880D01*
X160891635Y-99590754D01*
X160901544Y-99521712D01*
X160911435Y-99452788D01*
X160911435Y-99452787D01*
X160912074Y-99448335D01*
X160912066Y-99415252D01*
X160905963Y-76128980D01*
X160905963Y-76128978D01*
X160905962Y-76125600D01*
X160905544Y-76121713D01*
X160894757Y-76021569D01*
X160894756Y-76021563D01*
X160894395Y-76018211D01*
X160893678Y-76014916D01*
X160883727Y-75969202D01*
X160883725Y-75969194D01*
X160883008Y-75965901D01*
X160848892Y-75863426D01*
X160771104Y-75742387D01*
X160768165Y-75738995D01*
X160768161Y-75738990D01*
X160727552Y-75692126D01*
X160724611Y-75688732D01*
X160706468Y-75673011D01*
X160622688Y-75600415D01*
X160622685Y-75600413D01*
X160615877Y-75594514D01*
X160607683Y-75590772D01*
X160607680Y-75590770D01*
X160489260Y-75536690D01*
X160484999Y-75534744D01*
X160454294Y-75525728D01*
X160421195Y-75516009D01*
X160421191Y-75516008D01*
X160416879Y-75514742D01*
X160412427Y-75514102D01*
X160412423Y-75514101D01*
X160344985Y-75504405D01*
X160274460Y-75494265D01*
X160269954Y-75494265D01*
X159954861Y-75494266D01*
X159829248Y-75494267D01*
X159825390Y-75494483D01*
X159774581Y-75497327D01*
X159774564Y-75497328D01*
X159772821Y-75497426D01*
X159764677Y-75498341D01*
X159746626Y-75500368D01*
X159746608Y-75500371D01*
X159744868Y-75500566D01*
X159743135Y-75500860D01*
X159743132Y-75500860D01*
X159742111Y-75501033D01*
X159689148Y-75510005D01*
X159683295Y-75512252D01*
X159683294Y-75512252D01*
X159619785Y-75536631D01*
X159554824Y-75561567D01*
X159550903Y-75563757D01*
X159550896Y-75563760D01*
X159546695Y-75566107D01*
X159477468Y-75581861D01*
X159410714Y-75557688D01*
X159379583Y-75524727D01*
X159373971Y-75516084D01*
X159247876Y-75321916D01*
X159003781Y-75020484D01*
X158729516Y-74746219D01*
X158428084Y-74502124D01*
X158102789Y-74290875D01*
X157757194Y-74114786D01*
X157395087Y-73975786D01*
X157020433Y-73875398D01*
X156816799Y-73843146D01*
X156640586Y-73815236D01*
X156640578Y-73815235D01*
X156637338Y-73814722D01*
X156250000Y-73794422D01*
X155862662Y-73814722D01*
X155859422Y-73815235D01*
X155859414Y-73815236D01*
X155683201Y-73843146D01*
X155479567Y-73875398D01*
X155104913Y-73975786D01*
X154742806Y-74114786D01*
X154397211Y-74290875D01*
X154071916Y-74502124D01*
X153770484Y-74746219D01*
X153496219Y-75020484D01*
X153252124Y-75321916D01*
X153138147Y-75497426D01*
X153119870Y-75525570D01*
X153065993Y-75571807D01*
X152995672Y-75581577D01*
X152961855Y-75571560D01*
X152950267Y-75566268D01*
X152881279Y-75534762D01*
X152876961Y-75533494D01*
X152817475Y-75516027D01*
X152817471Y-75516026D01*
X152813159Y-75514760D01*
X152808707Y-75514120D01*
X152808703Y-75514119D01*
X152717687Y-75501033D01*
X152670741Y-75494283D01*
X152666236Y-75494283D01*
X152386336Y-75494284D01*
X141693639Y-75494309D01*
X141625520Y-75474307D01*
X141579026Y-75420652D01*
X141568922Y-75350378D01*
X141571121Y-75338895D01*
X141609297Y-75179883D01*
X141609298Y-75179877D01*
X141610452Y-75175070D01*
X141617428Y-75086431D01*
X141625307Y-74986320D01*
X141625307Y-74986311D01*
X141625500Y-74983863D01*
X141625500Y-68751500D01*
X141645502Y-68683379D01*
X141699158Y-68636886D01*
X141751500Y-68625500D01*
X144931181Y-68625500D01*
X144941067Y-68625888D01*
X145000000Y-68630526D01*
X145255070Y-68610452D01*
X145259877Y-68609298D01*
X145259883Y-68609297D01*
X145415843Y-68571853D01*
X145503860Y-68550722D01*
X145662310Y-68485090D01*
X145710527Y-68475499D01*
X146022376Y-68475499D01*
X146025770Y-68475130D01*
X146025776Y-68475130D01*
X146075722Y-68469705D01*
X146075726Y-68469704D01*
X146083580Y-68468851D01*
X146217824Y-68418526D01*
X146225003Y-68413146D01*
X146225006Y-68413144D01*
X146325365Y-68337928D01*
X146332546Y-68332546D01*
X146337928Y-68325365D01*
X146413144Y-68225006D01*
X146413146Y-68225003D01*
X146418526Y-68217824D01*
X146468851Y-68083580D01*
X146475500Y-68022377D01*
X146475500Y-67710525D01*
X146485091Y-67662307D01*
X146548828Y-67508433D01*
X146548829Y-67508431D01*
X146550722Y-67503860D01*
X146571853Y-67415843D01*
X146609297Y-67259883D01*
X146609298Y-67259877D01*
X146610452Y-67255070D01*
X146625500Y-67063863D01*
X146630526Y-67000000D01*
X146625888Y-66941067D01*
X146625500Y-66931181D01*
X146625500Y-58868819D01*
X146625888Y-58858933D01*
X146630138Y-58804930D01*
X146630526Y-58800000D01*
X146610452Y-58544930D01*
X146609298Y-58540123D01*
X146609297Y-58540117D01*
X146551877Y-58300952D01*
X146550722Y-58296140D01*
X146452809Y-58059757D01*
X146319123Y-57841601D01*
X146281360Y-57797386D01*
X162567759Y-57797386D01*
X162575216Y-57807753D01*
X162814935Y-58001874D01*
X162820272Y-58005751D01*
X163140685Y-58213830D01*
X163146394Y-58217127D01*
X163486811Y-58390578D01*
X163492836Y-58393260D01*
X163849502Y-58530171D01*
X163855784Y-58532212D01*
X164224816Y-58631094D01*
X164231266Y-58632465D01*
X164608629Y-58692234D01*
X164615167Y-58692920D01*
X164996699Y-58712916D01*
X165003301Y-58712916D01*
X165384833Y-58692920D01*
X165391371Y-58692234D01*
X165768734Y-58632465D01*
X165775184Y-58631094D01*
X166144216Y-58532212D01*
X166150498Y-58530171D01*
X166507164Y-58393260D01*
X166513189Y-58390578D01*
X166853606Y-58217127D01*
X166859315Y-58213830D01*
X167179728Y-58005751D01*
X167185065Y-58001874D01*
X167423835Y-57808522D01*
X167432300Y-57796267D01*
X167425966Y-57785176D01*
X165012812Y-55372022D01*
X164998868Y-55364408D01*
X164997035Y-55364539D01*
X164990420Y-55368790D01*
X162574900Y-57784310D01*
X162567759Y-57797386D01*
X146281360Y-57797386D01*
X146152956Y-57647044D01*
X145958399Y-57480877D01*
X145740243Y-57347191D01*
X145735673Y-57345298D01*
X145735669Y-57345296D01*
X145508433Y-57251172D01*
X145508431Y-57251171D01*
X145503860Y-57249278D01*
X145415843Y-57228147D01*
X145259883Y-57190703D01*
X145259877Y-57190702D01*
X145255070Y-57189548D01*
X145063863Y-57174500D01*
X145000000Y-57169474D01*
X144995070Y-57169862D01*
X144941067Y-57174112D01*
X144931181Y-57174500D01*
X140068819Y-57174500D01*
X140058933Y-57174112D01*
X140004930Y-57169862D01*
X140000000Y-57169474D01*
X139936137Y-57174500D01*
X139744930Y-57189548D01*
X139740123Y-57190702D01*
X139740117Y-57190703D01*
X139584157Y-57228147D01*
X139496140Y-57249278D01*
X139491569Y-57251171D01*
X139491567Y-57251172D01*
X139264331Y-57345296D01*
X139264327Y-57345298D01*
X139259757Y-57347191D01*
X139041601Y-57480877D01*
X138847044Y-57647044D01*
X138680877Y-57841601D01*
X138547191Y-58059757D01*
X138449278Y-58296140D01*
X138448123Y-58300952D01*
X138390703Y-58540117D01*
X138390702Y-58540123D01*
X138389548Y-58544930D01*
X138369474Y-58800000D01*
X138369862Y-58804930D01*
X138374112Y-58858933D01*
X138374500Y-58868819D01*
X138374500Y-66931181D01*
X138374112Y-66941067D01*
X138369474Y-67000000D01*
X138369862Y-67004930D01*
X138374112Y-67058933D01*
X138374500Y-67068819D01*
X138374500Y-74983863D01*
X138374693Y-74986311D01*
X138374693Y-74986320D01*
X138382572Y-75086431D01*
X138389548Y-75175070D01*
X138390702Y-75179877D01*
X138390703Y-75179883D01*
X138428881Y-75338903D01*
X138425334Y-75409811D01*
X138384014Y-75467545D01*
X138318041Y-75493775D01*
X138306362Y-75494317D01*
X135483715Y-75494323D01*
X134829271Y-75494325D01*
X134772846Y-75497484D01*
X134771096Y-75497681D01*
X134771091Y-75497681D01*
X134747171Y-75500368D01*
X134744892Y-75500624D01*
X134743174Y-75500915D01*
X134743167Y-75500916D01*
X134729607Y-75503213D01*
X134689170Y-75510063D01*
X134683325Y-75512307D01*
X134683320Y-75512308D01*
X134619499Y-75536807D01*
X134554846Y-75561625D01*
X134550914Y-75563821D01*
X134546719Y-75566163D01*
X134477491Y-75581912D01*
X134410739Y-75557733D01*
X134379617Y-75524779D01*
X134258940Y-75338953D01*
X134249673Y-75324683D01*
X134249672Y-75324682D01*
X134247876Y-75321916D01*
X134003781Y-75020484D01*
X133729516Y-74746219D01*
X133428084Y-74502124D01*
X133102789Y-74290875D01*
X132757194Y-74114786D01*
X132395087Y-73975786D01*
X132020433Y-73875398D01*
X131816799Y-73843146D01*
X131640586Y-73815236D01*
X131640578Y-73815235D01*
X131637338Y-73814722D01*
X131250000Y-73794422D01*
X130862662Y-73814722D01*
X130859422Y-73815235D01*
X130859414Y-73815236D01*
X130683201Y-73843146D01*
X130479567Y-73875398D01*
X130104913Y-73975786D01*
X129742806Y-74114786D01*
X129397211Y-74290875D01*
X129071916Y-74502124D01*
X128770484Y-74746219D01*
X128496219Y-75020484D01*
X128252124Y-75321916D01*
X128126814Y-75514877D01*
X128119835Y-75525623D01*
X128065959Y-75571860D01*
X127995638Y-75581629D01*
X127961822Y-75571612D01*
X127885352Y-75536690D01*
X127885346Y-75536688D01*
X127881254Y-75534819D01*
X127825785Y-75518532D01*
X127817448Y-75516084D01*
X127817447Y-75516084D01*
X127813136Y-75514818D01*
X127808696Y-75514180D01*
X127808693Y-75514179D01*
X127675167Y-75494981D01*
X127675164Y-75494981D01*
X127670721Y-75494342D01*
X127666226Y-75494342D01*
X127386947Y-75494343D01*
X116693624Y-75494368D01*
X116625505Y-75474366D01*
X116579011Y-75420711D01*
X116568907Y-75350437D01*
X116571107Y-75338953D01*
X116609295Y-75179892D01*
X116609296Y-75179883D01*
X116610452Y-75175070D01*
X116617428Y-75086431D01*
X116625307Y-74986320D01*
X116625307Y-74986311D01*
X116625500Y-74983863D01*
X116625500Y-68751500D01*
X116645502Y-68683379D01*
X116699158Y-68636886D01*
X116751500Y-68625500D01*
X119931181Y-68625500D01*
X119941067Y-68625888D01*
X120000000Y-68630526D01*
X120255070Y-68610452D01*
X120259877Y-68609298D01*
X120259883Y-68609297D01*
X120415843Y-68571853D01*
X120503860Y-68550722D01*
X120662310Y-68485090D01*
X120710527Y-68475499D01*
X121022376Y-68475499D01*
X121025770Y-68475130D01*
X121025776Y-68475130D01*
X121075722Y-68469705D01*
X121075726Y-68469704D01*
X121083580Y-68468851D01*
X121217824Y-68418526D01*
X121225003Y-68413146D01*
X121225006Y-68413144D01*
X121325365Y-68337928D01*
X121332546Y-68332546D01*
X121337928Y-68325365D01*
X121413144Y-68225006D01*
X121413146Y-68225003D01*
X121418526Y-68217824D01*
X121468851Y-68083580D01*
X121475500Y-68022377D01*
X121475500Y-67710525D01*
X121485091Y-67662307D01*
X121548828Y-67508433D01*
X121548829Y-67508431D01*
X121550722Y-67503860D01*
X121571853Y-67415843D01*
X121609297Y-67259883D01*
X121609298Y-67259877D01*
X121610452Y-67255070D01*
X121625500Y-67063863D01*
X121630526Y-67000000D01*
X121625888Y-66941067D01*
X121625500Y-66931181D01*
X121625500Y-58868819D01*
X121625888Y-58858933D01*
X121630138Y-58804930D01*
X121630526Y-58800000D01*
X121610452Y-58544930D01*
X121609298Y-58540123D01*
X121609297Y-58540117D01*
X121551877Y-58300952D01*
X121550722Y-58296140D01*
X121452809Y-58059757D01*
X121319123Y-57841601D01*
X121152956Y-57647044D01*
X120958399Y-57480877D01*
X120740243Y-57347191D01*
X120735673Y-57345298D01*
X120735669Y-57345296D01*
X120508433Y-57251172D01*
X120508431Y-57251171D01*
X120503860Y-57249278D01*
X120415843Y-57228147D01*
X120259883Y-57190703D01*
X120259877Y-57190702D01*
X120255070Y-57189548D01*
X120063863Y-57174500D01*
X120000000Y-57169474D01*
X119995070Y-57169862D01*
X119941067Y-57174112D01*
X119931181Y-57174500D01*
X115068819Y-57174500D01*
X115058933Y-57174112D01*
X115004930Y-57169862D01*
X115000000Y-57169474D01*
X114936137Y-57174500D01*
X114744930Y-57189548D01*
X114740123Y-57190702D01*
X114740117Y-57190703D01*
X114584157Y-57228147D01*
X114496140Y-57249278D01*
X114491569Y-57251171D01*
X114491567Y-57251172D01*
X114264331Y-57345296D01*
X114264327Y-57345298D01*
X114259757Y-57347191D01*
X114041601Y-57480877D01*
X113847044Y-57647044D01*
X113680877Y-57841601D01*
X113547191Y-58059757D01*
X113449278Y-58296140D01*
X113448123Y-58300952D01*
X113390703Y-58540117D01*
X113390702Y-58540123D01*
X113389548Y-58544930D01*
X113369474Y-58800000D01*
X113369862Y-58804930D01*
X113374112Y-58858933D01*
X113374500Y-58868819D01*
X113374500Y-66931181D01*
X113374112Y-66941067D01*
X113369474Y-67000000D01*
X113369862Y-67004930D01*
X113374112Y-67058933D01*
X113374500Y-67068819D01*
X113374500Y-74983863D01*
X113374693Y-74986311D01*
X113374693Y-74986320D01*
X113382572Y-75086431D01*
X113389548Y-75175070D01*
X113390702Y-75179877D01*
X113390703Y-75179883D01*
X113428895Y-75338961D01*
X113425348Y-75409869D01*
X113384028Y-75467603D01*
X113318055Y-75493833D01*
X113306376Y-75494375D01*
X109866462Y-75494384D01*
X109829295Y-75494384D01*
X109772869Y-75497543D01*
X109771119Y-75497740D01*
X109771114Y-75497740D01*
X109747719Y-75500368D01*
X109744915Y-75500683D01*
X109743197Y-75500974D01*
X109743190Y-75500975D01*
X109729630Y-75503272D01*
X109689193Y-75510122D01*
X109683348Y-75512366D01*
X109683343Y-75512367D01*
X109569929Y-75555903D01*
X109554869Y-75561684D01*
X109550947Y-75563874D01*
X109550939Y-75563878D01*
X109546761Y-75566212D01*
X109477535Y-75581965D01*
X109410780Y-75557791D01*
X109379651Y-75524831D01*
X109249676Y-75324688D01*
X109247876Y-75321916D01*
X109003781Y-75020484D01*
X108729516Y-74746219D01*
X108428084Y-74502124D01*
X108102789Y-74290875D01*
X107757194Y-74114786D01*
X107395087Y-73975786D01*
X107020433Y-73875398D01*
X106816799Y-73843146D01*
X106640586Y-73815236D01*
X106640578Y-73815235D01*
X106637338Y-73814722D01*
X106250000Y-73794422D01*
X105862662Y-73814722D01*
X105859422Y-73815235D01*
X105859414Y-73815236D01*
X105683201Y-73843146D01*
X105479567Y-73875398D01*
X105104913Y-73975786D01*
X104742806Y-74114786D01*
X104397211Y-74290875D01*
X104071916Y-74502124D01*
X103770484Y-74746219D01*
X103496219Y-75020484D01*
X103252124Y-75321916D01*
X103250324Y-75324688D01*
X103119800Y-75525677D01*
X103065924Y-75571913D01*
X102995603Y-75581683D01*
X102961786Y-75571666D01*
X102949966Y-75566268D01*
X102881234Y-75534879D01*
X102876916Y-75533611D01*
X102817430Y-75516144D01*
X102817426Y-75516143D01*
X102813114Y-75514877D01*
X102808662Y-75514237D01*
X102808658Y-75514236D01*
X102741209Y-75504538D01*
X102670696Y-75494400D01*
X102666191Y-75494400D01*
X102386324Y-75494401D01*
X91693611Y-75494426D01*
X91625492Y-75474424D01*
X91578998Y-75420769D01*
X91568894Y-75350495D01*
X91571093Y-75339012D01*
X91609297Y-75179883D01*
X91609298Y-75179877D01*
X91610452Y-75175070D01*
X91617428Y-75086431D01*
X91625307Y-74986320D01*
X91625307Y-74986311D01*
X91625500Y-74983863D01*
X91625500Y-68751500D01*
X91645502Y-68683379D01*
X91699158Y-68636886D01*
X91751500Y-68625500D01*
X94931181Y-68625500D01*
X94941067Y-68625888D01*
X95000000Y-68630526D01*
X95255070Y-68610452D01*
X95259877Y-68609298D01*
X95259883Y-68609297D01*
X95415843Y-68571853D01*
X95503860Y-68550722D01*
X95662310Y-68485090D01*
X95710527Y-68475499D01*
X96022376Y-68475499D01*
X96025770Y-68475130D01*
X96025776Y-68475130D01*
X96075722Y-68469705D01*
X96075726Y-68469704D01*
X96083580Y-68468851D01*
X96217824Y-68418526D01*
X96225003Y-68413146D01*
X96225006Y-68413144D01*
X96325365Y-68337928D01*
X96332546Y-68332546D01*
X96337928Y-68325365D01*
X96413144Y-68225006D01*
X96413146Y-68225003D01*
X96418526Y-68217824D01*
X96468851Y-68083580D01*
X96475500Y-68022377D01*
X96475500Y-67710525D01*
X96485091Y-67662307D01*
X96548828Y-67508433D01*
X96548829Y-67508431D01*
X96550722Y-67503860D01*
X96571853Y-67415843D01*
X96609297Y-67259883D01*
X96609298Y-67259877D01*
X96610452Y-67255070D01*
X96625500Y-67063863D01*
X96630526Y-67000000D01*
X96625888Y-66941067D01*
X96625500Y-66931181D01*
X96625500Y-58868819D01*
X96625888Y-58858933D01*
X96630138Y-58804930D01*
X96630526Y-58800000D01*
X96610452Y-58544930D01*
X96609298Y-58540123D01*
X96609297Y-58540117D01*
X96551877Y-58300952D01*
X96550722Y-58296140D01*
X96452809Y-58059757D01*
X96319123Y-57841601D01*
X96152956Y-57647044D01*
X95958399Y-57480877D01*
X95740243Y-57347191D01*
X95735673Y-57345298D01*
X95735669Y-57345296D01*
X95508433Y-57251172D01*
X95508431Y-57251171D01*
X95503860Y-57249278D01*
X95415843Y-57228147D01*
X95259883Y-57190703D01*
X95259877Y-57190702D01*
X95255070Y-57189548D01*
X95063863Y-57174500D01*
X95000000Y-57169474D01*
X94995070Y-57169862D01*
X94941067Y-57174112D01*
X94931181Y-57174500D01*
X90068819Y-57174500D01*
X90058933Y-57174112D01*
X90004930Y-57169862D01*
X90000000Y-57169474D01*
X89936137Y-57174500D01*
X89744930Y-57189548D01*
X89740123Y-57190702D01*
X89740117Y-57190703D01*
X89584157Y-57228147D01*
X89496140Y-57249278D01*
X89491569Y-57251171D01*
X89491567Y-57251172D01*
X89264331Y-57345296D01*
X89264327Y-57345298D01*
X89259757Y-57347191D01*
X89041601Y-57480877D01*
X88847044Y-57647044D01*
X88680877Y-57841601D01*
X88547191Y-58059757D01*
X88449278Y-58296140D01*
X88448123Y-58300952D01*
X88390703Y-58540117D01*
X88390702Y-58540123D01*
X88389548Y-58544930D01*
X88369474Y-58800000D01*
X88369862Y-58804930D01*
X88374112Y-58858933D01*
X88374500Y-58868819D01*
X88374500Y-66931181D01*
X88374112Y-66941067D01*
X88369474Y-67000000D01*
X88369862Y-67004930D01*
X88374112Y-67058933D01*
X88374500Y-67068819D01*
X88374500Y-74983863D01*
X88374693Y-74986311D01*
X88374693Y-74986320D01*
X88382572Y-75086431D01*
X88389548Y-75175070D01*
X88390704Y-75179883D01*
X88390705Y-75179892D01*
X88428909Y-75339019D01*
X88425363Y-75409927D01*
X88384044Y-75467661D01*
X88318070Y-75493892D01*
X88306391Y-75494434D01*
X84866482Y-75494442D01*
X84829317Y-75494442D01*
X84772891Y-75497601D01*
X84771141Y-75497798D01*
X84771136Y-75497798D01*
X84747706Y-75500430D01*
X84744937Y-75500741D01*
X84743219Y-75501032D01*
X84743212Y-75501033D01*
X84729652Y-75503330D01*
X84689215Y-75510180D01*
X84683370Y-75512424D01*
X84683365Y-75512425D01*
X84570102Y-75555903D01*
X84554891Y-75561742D01*
X84548896Y-75565090D01*
X84546786Y-75566268D01*
X84477557Y-75582015D01*
X84410805Y-75557835D01*
X84379684Y-75524882D01*
X84258940Y-75338953D01*
X84247876Y-75321916D01*
X84003781Y-75020484D01*
X83729516Y-74746219D01*
X83428084Y-74502124D01*
X83102789Y-74290875D01*
X82757194Y-74114786D01*
X82395087Y-73975786D01*
X82020433Y-73875398D01*
X81816799Y-73843146D01*
X81640586Y-73815236D01*
X81640578Y-73815235D01*
X81637338Y-73814722D01*
X81250000Y-73794422D01*
X80862662Y-73814722D01*
X80859422Y-73815235D01*
X80859414Y-73815236D01*
X80683201Y-73843146D01*
X80479567Y-73875398D01*
X80104913Y-73975786D01*
X79742806Y-74114786D01*
X79397211Y-74290875D01*
X79071916Y-74502124D01*
X78770484Y-74746219D01*
X78496219Y-75020484D01*
X78252124Y-75321916D01*
X78250324Y-75324688D01*
X78250322Y-75324691D01*
X78119767Y-75525728D01*
X78065890Y-75571965D01*
X77995569Y-75581735D01*
X77961753Y-75571718D01*
X77885307Y-75536807D01*
X77885301Y-75536805D01*
X77881209Y-75534936D01*
X77840780Y-75523065D01*
X77817403Y-75516201D01*
X77817402Y-75516201D01*
X77813091Y-75514935D01*
X77808651Y-75514297D01*
X77808648Y-75514296D01*
X77675122Y-75495098D01*
X77675119Y-75495098D01*
X77670676Y-75494459D01*
X77666181Y-75494459D01*
X77386934Y-75494460D01*
X66693596Y-75494485D01*
X66625477Y-75474483D01*
X66578983Y-75420828D01*
X66568879Y-75350554D01*
X66571079Y-75339070D01*
X66609295Y-75179892D01*
X66609296Y-75179883D01*
X66610452Y-75175070D01*
X66617428Y-75086431D01*
X66625307Y-74986320D01*
X66625307Y-74986311D01*
X66625500Y-74983863D01*
X66625500Y-68751500D01*
X66645502Y-68683379D01*
X66699158Y-68636886D01*
X66751500Y-68625500D01*
X69931181Y-68625500D01*
X69941067Y-68625888D01*
X70000000Y-68630526D01*
X70255070Y-68610452D01*
X70259877Y-68609298D01*
X70259883Y-68609297D01*
X70415843Y-68571853D01*
X70503860Y-68550722D01*
X70662310Y-68485090D01*
X70710527Y-68475499D01*
X71022376Y-68475499D01*
X71025770Y-68475130D01*
X71025776Y-68475130D01*
X71075722Y-68469705D01*
X71075726Y-68469704D01*
X71083580Y-68468851D01*
X71217824Y-68418526D01*
X71225003Y-68413146D01*
X71225006Y-68413144D01*
X71325365Y-68337928D01*
X71332546Y-68332546D01*
X71337928Y-68325365D01*
X71413144Y-68225006D01*
X71413146Y-68225003D01*
X71418526Y-68217824D01*
X71468851Y-68083580D01*
X71475500Y-68022377D01*
X71475500Y-67710525D01*
X71485091Y-67662307D01*
X71548828Y-67508433D01*
X71548829Y-67508431D01*
X71550722Y-67503860D01*
X71571853Y-67415843D01*
X71609297Y-67259883D01*
X71609298Y-67259877D01*
X71610452Y-67255070D01*
X71625500Y-67063863D01*
X71630526Y-67000000D01*
X71625888Y-66941067D01*
X71625500Y-66931181D01*
X71625500Y-58868819D01*
X71625888Y-58858933D01*
X71630138Y-58804930D01*
X71630526Y-58800000D01*
X71610452Y-58544930D01*
X71609298Y-58540123D01*
X71609297Y-58540117D01*
X71551877Y-58300952D01*
X71550722Y-58296140D01*
X71452809Y-58059757D01*
X71319123Y-57841601D01*
X71152956Y-57647044D01*
X70958399Y-57480877D01*
X70740243Y-57347191D01*
X70735673Y-57345298D01*
X70735669Y-57345296D01*
X70508433Y-57251172D01*
X70508431Y-57251171D01*
X70503860Y-57249278D01*
X70415843Y-57228147D01*
X70259883Y-57190703D01*
X70259877Y-57190702D01*
X70255070Y-57189548D01*
X70063863Y-57174500D01*
X70000000Y-57169474D01*
X69995070Y-57169862D01*
X69941067Y-57174112D01*
X69931181Y-57174500D01*
X65068819Y-57174500D01*
X65058933Y-57174112D01*
X65004930Y-57169862D01*
X65000000Y-57169474D01*
X64936137Y-57174500D01*
X64744930Y-57189548D01*
X64740123Y-57190702D01*
X64740117Y-57190703D01*
X64584157Y-57228147D01*
X64496140Y-57249278D01*
X64491569Y-57251171D01*
X64491567Y-57251172D01*
X64264331Y-57345296D01*
X64264327Y-57345298D01*
X64259757Y-57347191D01*
X64041601Y-57480877D01*
X63847044Y-57647044D01*
X63680877Y-57841601D01*
X63547191Y-58059757D01*
X63449278Y-58296140D01*
X63448123Y-58300952D01*
X63390703Y-58540117D01*
X63390702Y-58540123D01*
X63389548Y-58544930D01*
X63369474Y-58800000D01*
X63369862Y-58804930D01*
X63374112Y-58858933D01*
X63374500Y-58868819D01*
X63374500Y-66931181D01*
X63374112Y-66941067D01*
X63369474Y-67000000D01*
X63369862Y-67004930D01*
X63374112Y-67058933D01*
X63374500Y-67068819D01*
X63374500Y-74983863D01*
X63374693Y-74986311D01*
X63374693Y-74986320D01*
X63382572Y-75086431D01*
X63389548Y-75175070D01*
X63390702Y-75179877D01*
X63390703Y-75179883D01*
X63428923Y-75339078D01*
X63425376Y-75409986D01*
X63384056Y-75467720D01*
X63318083Y-75493950D01*
X63306404Y-75494492D01*
X60190520Y-75494500D01*
X60126032Y-75494500D01*
X60122678Y-75494861D01*
X60122674Y-75494861D01*
X60021881Y-75505704D01*
X60021879Y-75505704D01*
X60018517Y-75506066D01*
X60015219Y-75506784D01*
X60015212Y-75506785D01*
X59986060Y-75513131D01*
X59966145Y-75517466D01*
X59962950Y-75518530D01*
X59962943Y-75518532D01*
X59908423Y-75536690D01*
X59863550Y-75551635D01*
X59742530Y-75629454D01*
X59739129Y-75632402D01*
X59739123Y-75632407D01*
X59704435Y-75662481D01*
X59688886Y-75675961D01*
X59685938Y-75679365D01*
X59685936Y-75679367D01*
X59600589Y-75777915D01*
X59600587Y-75777918D01*
X59594691Y-75784726D01*
X59534956Y-75915620D01*
X59533690Y-75919936D01*
X59520207Y-75965901D01*
X59514972Y-75983746D01*
X59514334Y-75988191D01*
X59514333Y-75988196D01*
X59510026Y-76018211D01*
X59494533Y-76126166D01*
X59494875Y-77429300D01*
X59495613Y-80237994D01*
X59497344Y-86823666D01*
X59497185Y-86823666D01*
X59481158Y-86891593D01*
X59430084Y-86940908D01*
X59382626Y-86954801D01*
X59369236Y-86955972D01*
X59278789Y-86963885D01*
X59278784Y-86963886D01*
X59273308Y-86964365D01*
X59267995Y-86965789D01*
X59267993Y-86965789D01*
X59058814Y-87021838D01*
X59058812Y-87021839D01*
X59053504Y-87023261D01*
X59048524Y-87025583D01*
X59048522Y-87025584D01*
X58852247Y-87117109D01*
X58852244Y-87117111D01*
X58847266Y-87119432D01*
X58660861Y-87249953D01*
X58499953Y-87410861D01*
X58369432Y-87597266D01*
X58273261Y-87803504D01*
X58214365Y-88023308D01*
X58194532Y-88250000D01*
X58214365Y-88476692D01*
X58273261Y-88696496D01*
X58369432Y-88902734D01*
X58499953Y-89089139D01*
X58660861Y-89250047D01*
X58847266Y-89380568D01*
X58852244Y-89382889D01*
X58852247Y-89382891D01*
X59048522Y-89474416D01*
X59053504Y-89476739D01*
X59058812Y-89478161D01*
X59058814Y-89478162D01*
X59267993Y-89534211D01*
X59267995Y-89534211D01*
X59273308Y-89535635D01*
X59278784Y-89536114D01*
X59278789Y-89536115D01*
X59354119Y-89542705D01*
X59383497Y-89545275D01*
X59449615Y-89571138D01*
X59491254Y-89628642D01*
X59497776Y-89676666D01*
X59498094Y-89676666D01*
X59498095Y-89681171D01*
X59498095Y-89681174D01*
X59498429Y-90952820D01*
X59478445Y-91020946D01*
X59424801Y-91067453D01*
X59372429Y-91078853D01*
X58680447Y-91078853D01*
X58680447Y-91078709D01*
X58672967Y-91079649D01*
X58616455Y-91077630D01*
X58607730Y-91079857D01*
X58607728Y-91079857D01*
X58481360Y-91112109D01*
X58477003Y-91113221D01*
X58438734Y-91129072D01*
X58435787Y-91130681D01*
X58435779Y-91130685D01*
X58356185Y-91174147D01*
X58343845Y-91180885D01*
X58338074Y-91186258D01*
X58245104Y-91272817D01*
X58245102Y-91272820D01*
X58238510Y-91278957D01*
X58165072Y-91402733D01*
X58153341Y-91431055D01*
X58153340Y-91431058D01*
X58149220Y-91441005D01*
X58118769Y-91544713D01*
X58115205Y-91644447D01*
X58110929Y-91644294D01*
X50500500Y-91644294D01*
X50500500Y-57797386D01*
X52567759Y-57797386D01*
X52575216Y-57807753D01*
X52814935Y-58001874D01*
X52820272Y-58005751D01*
X53140685Y-58213830D01*
X53146394Y-58217127D01*
X53486811Y-58390578D01*
X53492836Y-58393260D01*
X53849502Y-58530171D01*
X53855784Y-58532212D01*
X54224816Y-58631094D01*
X54231266Y-58632465D01*
X54608629Y-58692234D01*
X54615167Y-58692920D01*
X54996699Y-58712916D01*
X55003301Y-58712916D01*
X55384833Y-58692920D01*
X55391371Y-58692234D01*
X55768734Y-58632465D01*
X55775184Y-58631094D01*
X56144216Y-58532212D01*
X56150498Y-58530171D01*
X56507164Y-58393260D01*
X56513189Y-58390578D01*
X56853606Y-58217127D01*
X56859315Y-58213830D01*
X57179728Y-58005751D01*
X57185065Y-58001874D01*
X57423835Y-57808522D01*
X57432300Y-57796267D01*
X57425966Y-57785176D01*
X55012812Y-55372022D01*
X54998868Y-55364408D01*
X54997035Y-55364539D01*
X54990420Y-55368790D01*
X52574900Y-57784310D01*
X52567759Y-57797386D01*
X50500500Y-57797386D01*
X50500500Y-55003301D01*
X51287084Y-55003301D01*
X51307080Y-55384833D01*
X51307766Y-55391371D01*
X51367535Y-55768734D01*
X51368906Y-55775184D01*
X51467788Y-56144216D01*
X51469829Y-56150498D01*
X51606740Y-56507164D01*
X51609422Y-56513189D01*
X51782872Y-56853603D01*
X51786169Y-56859313D01*
X51994253Y-57179735D01*
X51998123Y-57185061D01*
X52191478Y-57423835D01*
X52203733Y-57432300D01*
X52214824Y-57425966D01*
X54627978Y-55012812D01*
X54634356Y-55001132D01*
X55364408Y-55001132D01*
X55364539Y-55002965D01*
X55368790Y-55009580D01*
X57784310Y-57425100D01*
X57797386Y-57432241D01*
X57807753Y-57424784D01*
X58001877Y-57185061D01*
X58005747Y-57179735D01*
X58213831Y-56859313D01*
X58217128Y-56853603D01*
X58390578Y-56513189D01*
X58393260Y-56507164D01*
X58530171Y-56150498D01*
X58532212Y-56144216D01*
X58631094Y-55775184D01*
X58632465Y-55768734D01*
X58692234Y-55391371D01*
X58692920Y-55384833D01*
X58712916Y-55003301D01*
X161287084Y-55003301D01*
X161307080Y-55384833D01*
X161307766Y-55391371D01*
X161367535Y-55768734D01*
X161368906Y-55775184D01*
X161467788Y-56144216D01*
X161469829Y-56150498D01*
X161606740Y-56507164D01*
X161609422Y-56513189D01*
X161782872Y-56853603D01*
X161786169Y-56859313D01*
X161994253Y-57179735D01*
X161998123Y-57185061D01*
X162191478Y-57423835D01*
X162203733Y-57432300D01*
X162214824Y-57425966D01*
X164627978Y-55012812D01*
X164634356Y-55001132D01*
X165364408Y-55001132D01*
X165364539Y-55002965D01*
X165368790Y-55009580D01*
X167784310Y-57425100D01*
X167797386Y-57432241D01*
X167807753Y-57424784D01*
X168001877Y-57185061D01*
X168005747Y-57179735D01*
X168213831Y-56859313D01*
X168217128Y-56853603D01*
X168390578Y-56513189D01*
X168393260Y-56507164D01*
X168530171Y-56150498D01*
X168532212Y-56144216D01*
X168631094Y-55775184D01*
X168632465Y-55768734D01*
X168692234Y-55391371D01*
X168692920Y-55384833D01*
X168712916Y-55003301D01*
X168712916Y-54996699D01*
X168692920Y-54615167D01*
X168692234Y-54608629D01*
X168632465Y-54231266D01*
X168631094Y-54224816D01*
X168532212Y-53855784D01*
X168530171Y-53849502D01*
X168393260Y-53492836D01*
X168390578Y-53486811D01*
X168217128Y-53146397D01*
X168213831Y-53140687D01*
X168005747Y-52820265D01*
X168001877Y-52814939D01*
X167808522Y-52576165D01*
X167796267Y-52567700D01*
X167785176Y-52574034D01*
X165372022Y-54987188D01*
X165364408Y-55001132D01*
X164634356Y-55001132D01*
X164635592Y-54998868D01*
X164635461Y-54997035D01*
X164631210Y-54990420D01*
X162215690Y-52574900D01*
X162202614Y-52567759D01*
X162192247Y-52575216D01*
X161998123Y-52814939D01*
X161994253Y-52820265D01*
X161786169Y-53140687D01*
X161782872Y-53146397D01*
X161609422Y-53486811D01*
X161606740Y-53492836D01*
X161469829Y-53849502D01*
X161467788Y-53855784D01*
X161368906Y-54224816D01*
X161367535Y-54231266D01*
X161307766Y-54608629D01*
X161307080Y-54615167D01*
X161287084Y-54996699D01*
X161287084Y-55003301D01*
X58712916Y-55003301D01*
X58712916Y-54996699D01*
X58692920Y-54615167D01*
X58692234Y-54608629D01*
X58632465Y-54231266D01*
X58631094Y-54224816D01*
X58532212Y-53855784D01*
X58530171Y-53849502D01*
X58393260Y-53492836D01*
X58390578Y-53486811D01*
X58217128Y-53146397D01*
X58213831Y-53140687D01*
X58005747Y-52820265D01*
X58001877Y-52814939D01*
X57808522Y-52576165D01*
X57796267Y-52567700D01*
X57785176Y-52574034D01*
X55372022Y-54987188D01*
X55364408Y-55001132D01*
X54634356Y-55001132D01*
X54635592Y-54998868D01*
X54635461Y-54997035D01*
X54631210Y-54990420D01*
X52215690Y-52574900D01*
X52202614Y-52567759D01*
X52192247Y-52575216D01*
X51998123Y-52814939D01*
X51994253Y-52820265D01*
X51786169Y-53140687D01*
X51782872Y-53146397D01*
X51609422Y-53486811D01*
X51606740Y-53492836D01*
X51469829Y-53849502D01*
X51467788Y-53855784D01*
X51368906Y-54224816D01*
X51367535Y-54231266D01*
X51307766Y-54608629D01*
X51307080Y-54615167D01*
X51287084Y-54996699D01*
X51287084Y-55003301D01*
X50500500Y-55003301D01*
X50500500Y-52203733D01*
X52567700Y-52203733D01*
X52574034Y-52214824D01*
X54987188Y-54627978D01*
X55001132Y-54635592D01*
X55002965Y-54635461D01*
X55009580Y-54631210D01*
X57425100Y-52215690D01*
X57431630Y-52203733D01*
X162567700Y-52203733D01*
X162574034Y-52214824D01*
X164987188Y-54627978D01*
X165001132Y-54635592D01*
X165002965Y-54635461D01*
X165009580Y-54631210D01*
X167425100Y-52215690D01*
X167432241Y-52202614D01*
X167424784Y-52192247D01*
X167185065Y-51998126D01*
X167179728Y-51994249D01*
X166859315Y-51786170D01*
X166853606Y-51782873D01*
X166513189Y-51609422D01*
X166507164Y-51606740D01*
X166150498Y-51469829D01*
X166144216Y-51467788D01*
X165775184Y-51368906D01*
X165768734Y-51367535D01*
X165391371Y-51307766D01*
X165384833Y-51307080D01*
X165003301Y-51287084D01*
X164996699Y-51287084D01*
X164615167Y-51307080D01*
X164608629Y-51307766D01*
X164231266Y-51367535D01*
X164224816Y-51368906D01*
X163855784Y-51467788D01*
X163849502Y-51469829D01*
X163492836Y-51606740D01*
X163486811Y-51609422D01*
X163146397Y-51782872D01*
X163140687Y-51786169D01*
X162820265Y-51994253D01*
X162814939Y-51998123D01*
X162576165Y-52191478D01*
X162567700Y-52203733D01*
X57431630Y-52203733D01*
X57432241Y-52202614D01*
X57424784Y-52192247D01*
X57185065Y-51998126D01*
X57179728Y-51994249D01*
X56859315Y-51786170D01*
X56853606Y-51782873D01*
X56513189Y-51609422D01*
X56507164Y-51606740D01*
X56150498Y-51469829D01*
X56144216Y-51467788D01*
X55775184Y-51368906D01*
X55768734Y-51367535D01*
X55391371Y-51307766D01*
X55384833Y-51307080D01*
X55003301Y-51287084D01*
X54996699Y-51287084D01*
X54615167Y-51307080D01*
X54608629Y-51307766D01*
X54231266Y-51367535D01*
X54224816Y-51368906D01*
X53855784Y-51467788D01*
X53849502Y-51469829D01*
X53492836Y-51606740D01*
X53486811Y-51609422D01*
X53146397Y-51782872D01*
X53140687Y-51786169D01*
X52820265Y-51994253D01*
X52814939Y-51998123D01*
X52576165Y-52191478D01*
X52567700Y-52203733D01*
X50500500Y-52203733D01*
X50500500Y-50626500D01*
X50520502Y-50558379D01*
X50574158Y-50511886D01*
X50626500Y-50500500D01*
X169373500Y-50500500D01*
X169441621Y-50520502D01*
G37*
G04 #@! TD.AperFunction*
G04 #@! TD*
M02*
