G04 #@! TF.GenerationSoftware,KiCad,Pcbnew,(6.0.5)*
G04 #@! TF.CreationDate,2022-06-25T18:23:24-07:00*
G04 #@! TF.ProjectId,solid_state_relays_24v,736f6c69-645f-4737-9461-74655f72656c,0.0.6*
G04 #@! TF.SameCoordinates,Original*
G04 #@! TF.FileFunction,Soldermask,Bot*
G04 #@! TF.FilePolarity,Negative*
%FSLAX46Y46*%
G04 Gerber Fmt 4.6, Leading zero omitted, Abs format (unit mm)*
G04 Created by KiCad (PCBNEW (6.0.5)) date 2022-06-25 18:23:24*
%MOMM*%
%LPD*%
G01*
G04 APERTURE LIST*
G04 Aperture macros list*
%AMRoundRect*
0 Rectangle with rounded corners*
0 $1 Rounding radius*
0 $2 $3 $4 $5 $6 $7 $8 $9 X,Y pos of 4 corners*
0 Add a 4 corners polygon primitive as box body*
4,1,4,$2,$3,$4,$5,$6,$7,$8,$9,$2,$3,0*
0 Add four circle primitives for the rounded corners*
1,1,$1+$1,$2,$3*
1,1,$1+$1,$4,$5*
1,1,$1+$1,$6,$7*
1,1,$1+$1,$8,$9*
0 Add four rect primitives between the rounded corners*
20,1,$1+$1,$2,$3,$4,$5,0*
20,1,$1+$1,$4,$5,$6,$7,0*
20,1,$1+$1,$6,$7,$8,$9,0*
20,1,$1+$1,$8,$9,$2,$3,0*%
%AMFreePoly0*
4,1,49,2.135355,7.464855,2.150000,7.429500,2.150000,3.175000,2.148124,3.170471,2.148343,3.170047,2.149457,3.156966,2.153880,3.144602,1.999446,0.007822,2.000000,0.000000,1.996053,-0.125581,1.958446,-0.405575,1.881762,-0.677476,1.767531,-0.935860,1.618034,-1.175571,1.436253,-1.391826,1.225814,-1.580310,0.990917,-1.737263,0.736249,-1.859553,0.466891,-1.944740,0.188217,-1.991124,
-0.094213,-1.997780,-0.374763,-1.964575,-0.647835,-1.892171,-0.907981,-1.782013,-1.150011,-1.636299,-1.369094,-1.457937,-1.560861,-1.250485,-1.721484,-1.018083,-1.847759,-0.765367,-1.937166,-0.497380,-1.987922,-0.219469,-1.999013,0.062822,-1.970219,0.343858,-1.902113,0.618034,-1.796055,0.879878,-1.775958,0.914478,-1.775454,0.916957,-1.768707,0.926961,-1.654161,1.124167,-1.526461,1.286153,
0.066046,3.647457,0.079502,3.656364,0.091689,3.666934,0.167860,3.692324,0.167860,7.429500,0.182505,7.464855,0.217860,7.479500,2.100000,7.479500,2.135355,7.464855,2.135355,7.464855,$1*%
%AMFreePoly1*
4,1,47,-0.199145,7.464855,-0.184500,7.429500,-0.184500,3.805567,-0.165806,3.789025,-0.162929,3.783124,-0.157457,3.779494,1.488463,1.333474,1.488900,1.331313,1.520812,1.298896,1.688656,1.071654,1.822807,0.823029,1.920587,0.557982,1.980047,0.281802,2.000000,0.000000,1.996053,-0.125581,1.958446,-0.405575,1.881762,-0.677476,1.767531,-0.935860,1.618034,-1.175571,1.436253,-1.391826,
1.225814,-1.580310,0.990917,-1.737263,0.736249,-1.859553,0.466891,-1.944740,0.188217,-1.991124,-0.094213,-1.997780,-0.374763,-1.964575,-0.647835,-1.892171,-0.907981,-1.782013,-1.150011,-1.636299,-1.369094,-1.457937,-1.560861,-1.250485,-1.721484,-1.018083,-1.847759,-0.765367,-1.937166,-0.497380,-1.987922,-0.219469,-1.990619,-0.150827,-1.995069,-0.146434,-1.995127,-0.137495,-1.998942,-0.129411,
-2.157387,3.152662,-2.166640,3.175000,-2.166640,7.429500,-2.151995,7.464855,-2.116640,7.479500,-0.234500,7.479500,-0.199145,7.464855,-0.199145,7.464855,$1*%
G04 Aperture macros list end*
%ADD10C,0.800000*%
%ADD11C,6.400000*%
%ADD12R,1.950000X1.950000*%
%ADD13C,1.950000*%
%ADD14RoundRect,0.250000X-0.600000X-0.600000X0.600000X-0.600000X0.600000X0.600000X-0.600000X0.600000X0*%
%ADD15C,1.700000*%
%ADD16O,2.800000X1.600000*%
%ADD17FreePoly0,90.000000*%
%ADD18C,2.200000*%
%ADD19FreePoly1,90.000000*%
%ADD20R,1.920000X1.920000*%
%ADD21C,1.920000*%
G04 APERTURE END LIST*
D10*
G04 #@! TO.C,H1*
X53302944Y-53302944D03*
D11*
X55000000Y-55000000D03*
D10*
X57400000Y-55000000D03*
X53302944Y-56697056D03*
X56697056Y-53302944D03*
X55000000Y-52600000D03*
X52600000Y-55000000D03*
X55000000Y-57400000D03*
X56697056Y-56697056D03*
G04 #@! TD*
G04 #@! TO.C,H4*
X53302944Y-133302944D03*
X56697056Y-136697056D03*
X56697056Y-133302944D03*
X57400000Y-135000000D03*
X53302944Y-136697056D03*
X52600000Y-135000000D03*
X55000000Y-137400000D03*
X55000000Y-132600000D03*
D11*
X55000000Y-135000000D03*
G04 #@! TD*
G04 #@! TO.C,HQ2*
X106250000Y-77500000D03*
D10*
X107947056Y-75802944D03*
X107947056Y-79197056D03*
X106250000Y-75100000D03*
X103850000Y-77500000D03*
X104552944Y-79197056D03*
X108650000Y-77500000D03*
X106250000Y-79900000D03*
X104552944Y-75802944D03*
G04 #@! TD*
G04 #@! TO.C,H2*
X163302944Y-56697056D03*
X165000000Y-52600000D03*
D11*
X165000000Y-55000000D03*
D10*
X162600000Y-55000000D03*
X165000000Y-57400000D03*
X166697056Y-53302944D03*
X163302944Y-53302944D03*
X167400000Y-55000000D03*
X166697056Y-56697056D03*
G04 #@! TD*
G04 #@! TO.C,HQ1*
X81250000Y-75100000D03*
X78850000Y-77500000D03*
D11*
X81250000Y-77500000D03*
D10*
X79552944Y-75802944D03*
X82947056Y-79197056D03*
X83650000Y-77500000D03*
X81250000Y-79900000D03*
X82947056Y-75802944D03*
X79552944Y-79197056D03*
G04 #@! TD*
D12*
G04 #@! TO.C,J2*
X95000000Y-67000000D03*
D13*
X95000000Y-58800000D03*
X90000000Y-67000000D03*
X90000000Y-58800000D03*
G04 #@! TD*
D11*
G04 #@! TO.C,H3*
X165000000Y-135000000D03*
D10*
X166697056Y-133302944D03*
X167400000Y-135000000D03*
X166697056Y-136697056D03*
X165000000Y-132600000D03*
X162600000Y-135000000D03*
X165000000Y-137400000D03*
X163302944Y-136697056D03*
X163302944Y-133302944D03*
G04 #@! TD*
D12*
G04 #@! TO.C,J1*
X70000000Y-67000000D03*
D13*
X70000000Y-58800000D03*
X65000000Y-67000000D03*
X65000000Y-58800000D03*
G04 #@! TD*
D10*
G04 #@! TO.C,HQ7*
X91150000Y-112500000D03*
X88750000Y-110100000D03*
D11*
X88750000Y-112500000D03*
D10*
X90447056Y-114197056D03*
X87052944Y-114197056D03*
X87052944Y-110802944D03*
X86350000Y-112500000D03*
X90447056Y-110802944D03*
X88750000Y-114900000D03*
G04 #@! TD*
D12*
G04 #@! TO.C,J6*
X125000000Y-123000000D03*
D13*
X125000000Y-131200000D03*
X130000000Y-123000000D03*
X130000000Y-131200000D03*
G04 #@! TD*
D12*
G04 #@! TO.C,J4*
X145000000Y-67000000D03*
D13*
X145000000Y-58800000D03*
X140000000Y-67000000D03*
X140000000Y-58800000D03*
G04 #@! TD*
D12*
G04 #@! TO.C,J3*
X120000000Y-67000000D03*
D13*
X120000000Y-58800000D03*
X115000000Y-67000000D03*
X115000000Y-58800000D03*
G04 #@! TD*
D14*
G04 #@! TO.C,JCNTL1*
X156200000Y-87500000D03*
D15*
X158740000Y-87500000D03*
X156200000Y-90040000D03*
X158740000Y-90040000D03*
X156200000Y-92580000D03*
X158740000Y-92580000D03*
X156200000Y-95120000D03*
X158740000Y-95120000D03*
X156200000Y-97660000D03*
X158740000Y-97660000D03*
X156200000Y-100200000D03*
X158740000Y-100200000D03*
G04 #@! TD*
D10*
G04 #@! TO.C,HQ6*
X112052944Y-114197056D03*
X115447056Y-110802944D03*
X111350000Y-112500000D03*
D11*
X113750000Y-112500000D03*
D10*
X113750000Y-110100000D03*
X113750000Y-114900000D03*
X116150000Y-112500000D03*
X115447056Y-114197056D03*
X112052944Y-110802944D03*
G04 #@! TD*
G04 #@! TO.C,HQ8*
X65447056Y-110802944D03*
X65447056Y-114197056D03*
X63750000Y-114900000D03*
D11*
X63750000Y-112500000D03*
D10*
X61350000Y-112500000D03*
X62052944Y-114197056D03*
X66150000Y-112500000D03*
X62052944Y-110802944D03*
X63750000Y-110100000D03*
G04 #@! TD*
D12*
G04 #@! TO.C,J8*
X75000000Y-123000000D03*
D13*
X75000000Y-131200000D03*
X80000000Y-123000000D03*
X80000000Y-131200000D03*
G04 #@! TD*
D16*
G04 #@! TO.C,JPWR1*
X60100000Y-88250000D03*
X60100000Y-101750000D03*
D17*
X66100000Y-98600000D03*
D18*
X62925000Y-97540000D03*
D19*
X66100000Y-91400000D03*
D18*
X62925000Y-92460000D03*
G04 #@! TD*
D10*
G04 #@! TO.C,HC1*
X108302944Y-96697056D03*
X111697056Y-96697056D03*
X108302944Y-93302944D03*
D11*
X110000000Y-95000000D03*
D10*
X110000000Y-97400000D03*
X112400000Y-95000000D03*
X107600000Y-95000000D03*
X110000000Y-92600000D03*
X111697056Y-93302944D03*
G04 #@! TD*
D12*
G04 #@! TO.C,J7*
X100000000Y-123000000D03*
D13*
X100000000Y-131200000D03*
X105000000Y-123000000D03*
X105000000Y-131200000D03*
G04 #@! TD*
D12*
G04 #@! TO.C,J5*
X150000000Y-123000000D03*
D13*
X150000000Y-131200000D03*
X155000000Y-123000000D03*
X155000000Y-131200000D03*
G04 #@! TD*
D11*
G04 #@! TO.C,HQ5*
X138750000Y-112500000D03*
D10*
X137052944Y-114197056D03*
X141150000Y-112500000D03*
X136350000Y-112500000D03*
X140447056Y-110802944D03*
X138750000Y-114900000D03*
X140447056Y-114197056D03*
X137052944Y-110802944D03*
X138750000Y-110100000D03*
G04 #@! TD*
G04 #@! TO.C,HQ4*
X154552944Y-79197056D03*
X156250000Y-75100000D03*
D11*
X156250000Y-77500000D03*
D10*
X158650000Y-77500000D03*
X157947056Y-79197056D03*
X154552944Y-75802944D03*
X156250000Y-79900000D03*
X157947056Y-75802944D03*
X153850000Y-77500000D03*
G04 #@! TD*
G04 #@! TO.C,HQ3*
X131250000Y-75100000D03*
X129552944Y-79197056D03*
X132947056Y-79197056D03*
X129552944Y-75802944D03*
D11*
X131250000Y-77500000D03*
D10*
X128850000Y-77500000D03*
X133650000Y-77500000D03*
X132947056Y-75802944D03*
X131250000Y-79900000D03*
G04 #@! TD*
D20*
G04 #@! TO.C,Q5*
X155000000Y-110000000D03*
D21*
X155000000Y-112540000D03*
X155000000Y-115080000D03*
G04 #@! TD*
D20*
G04 #@! TO.C,Q4*
X140000000Y-80000000D03*
D21*
X140000000Y-77460000D03*
X140000000Y-74920000D03*
G04 #@! TD*
D20*
G04 #@! TO.C,Q1*
X65000000Y-80000000D03*
D21*
X65000000Y-77460000D03*
X65000000Y-74920000D03*
G04 #@! TD*
D20*
G04 #@! TO.C,Q8*
X80000000Y-110000000D03*
D21*
X80000000Y-112540000D03*
X80000000Y-115080000D03*
G04 #@! TD*
D20*
G04 #@! TO.C,Q2*
X90000000Y-80000000D03*
D21*
X90000000Y-77460000D03*
X90000000Y-74920000D03*
G04 #@! TD*
D20*
G04 #@! TO.C,Q3*
X115000000Y-80000000D03*
D21*
X115000000Y-77460000D03*
X115000000Y-74920000D03*
G04 #@! TD*
D20*
G04 #@! TO.C,Q6*
X130000000Y-110000000D03*
D21*
X130000000Y-112540000D03*
X130000000Y-115080000D03*
G04 #@! TD*
D20*
G04 #@! TO.C,Q7*
X105000000Y-110000000D03*
D21*
X105000000Y-112540000D03*
X105000000Y-115080000D03*
G04 #@! TD*
M02*
