M48
INCH,TZ
T1C0.0157
T2C0.0197
T3C0.0315
T4C0.0394
T5C0.0433
T6C0.0504
T7C0.0512
T8C0.1063
T9C0.1260
%
G90
G05
T1
X21654Y-25591
X21654Y-29528
X21654Y-33465
X21654Y-37402
X21654Y-41339
X21654Y-45276
X21654Y-49213
X26969Y-43307
X27559Y-37402
X28150Y-21654
X28150Y-29134
X28937Y-45669
X28937Y-53150
X30118Y-31496
X31496Y-37402
X35433Y-37402
X36811Y-43307
X37992Y-21654
X37992Y-29134
X38780Y-45669
X38780Y-53150
X39370Y-37402
X39961Y-31496
X46654Y-43307
X47244Y-37402
X47835Y-21654
X47835Y-29134
X48622Y-45669
X48622Y-53150
X49803Y-31496
X51181Y-37402
X55118Y-37402
X56496Y-43307
X57677Y-21654
X57677Y-29134
X58465Y-45669
X58465Y-53150
X59055Y-37402
X59646Y-31496
X63563Y-39449
X64961Y-25591
X64961Y-29528
X64961Y-33465
X64961Y-37402
X64961Y-41339
X64961Y-45276
X64961Y-49213
T2
X20709Y-21654
X20709Y-53150
X20985Y-20985
X20985Y-22322
X20985Y-52481
X20985Y-53818
X21654Y-20709
X21654Y-22598
X21654Y-52205
X21654Y-54094
X22322Y-20985
X22322Y-22322
X22322Y-52481
X22322Y-53818
X22598Y-21654
X22598Y-53150
X24154Y-44291
X24430Y-43623
X24430Y-44959
X25098Y-43346
X25098Y-45236
X25767Y-43623
X25767Y-44959
X26043Y-44291
X31043Y-30512
X31320Y-29844
X31320Y-31180
X31988Y-29567
X31988Y-31457
X32656Y-29844
X32656Y-31180
X32933Y-30512
X33996Y-44291
X34273Y-43623
X34273Y-44959
X34941Y-43346
X34941Y-45236
X35609Y-43623
X35609Y-44959
X35886Y-44291
X40886Y-30512
X41163Y-29844
X41163Y-31180
X41831Y-29567
X41831Y-31457
X42362Y-37402
X42499Y-29844
X42499Y-31180
X42639Y-36733
X42639Y-38070
X42776Y-30512
X43307Y-36457
X43307Y-38346
X43839Y-44291
X43975Y-36733
X43975Y-38070
X44115Y-43623
X44115Y-44959
X44252Y-37402
X44783Y-43346
X44783Y-45236
X45452Y-43623
X45452Y-44959
X45728Y-44291
X50728Y-30512
X51005Y-29844
X51005Y-31180
X51673Y-29567
X51673Y-31457
X52341Y-29844
X52341Y-31180
X52618Y-30512
X53681Y-44291
X53958Y-43623
X53958Y-44959
X54626Y-43346
X54626Y-45236
X55294Y-43623
X55294Y-44959
X55571Y-44291
X60571Y-30512
X60848Y-29844
X60848Y-31180
X61516Y-29567
X61516Y-31457
X62184Y-29844
X62184Y-31180
X62461Y-30512
X64016Y-21654
X64016Y-53150
X64292Y-20985
X64292Y-22322
X64292Y-52481
X64292Y-53818
X64961Y-20709
X64961Y-22598
X64961Y-52205
X64961Y-54094
X65629Y-20985
X65629Y-22322
X65629Y-52481
X65629Y-53818
X65906Y-21654
X65906Y-53150
T4
X61496Y-34449
X61496Y-35449
X61496Y-36449
X61496Y-37449
X61496Y-38449
X61496Y-39449
X62496Y-34449
X62496Y-35449
X62496Y-36449
X62496Y-37449
X62496Y-38449
X62496Y-39449
T5
X24774Y-36402
X24774Y-38402
T6
X25591Y-29496
X25591Y-30496
X25591Y-31496
X31496Y-43307
X31496Y-44307
X31496Y-45307
X35433Y-29496
X35433Y-30496
X35433Y-31496
X41339Y-43307
X41339Y-44307
X41339Y-45307
X45276Y-29496
X45276Y-30496
X45276Y-31496
X51181Y-43307
X51181Y-44307
X51181Y-45307
X55118Y-29496
X55118Y-30496
X55118Y-31496
X61024Y-43307
X61024Y-44307
X61024Y-45307
T7
X25591Y-23150
X25591Y-26378
X27559Y-23150
X27559Y-26378
X29528Y-48425
X29528Y-51654
X31496Y-48425
X31496Y-51654
X35433Y-23150
X35433Y-26378
X37402Y-23150
X37402Y-26378
X39370Y-48425
X39370Y-51654
X41339Y-48425
X41339Y-51654
X45276Y-23150
X45276Y-26378
X47244Y-23150
X47244Y-26378
X49213Y-48425
X49213Y-51654
X51181Y-48425
X51181Y-51654
X55118Y-23150
X55118Y-26378
X57087Y-23150
X57087Y-26378
X59055Y-48425
X59055Y-51654
X61024Y-48425
X61024Y-51654
T8
X26024Y-35984
X26024Y-38819
T9
X21654Y-21654
X21654Y-53150
X25098Y-44291
X31988Y-30512
X34941Y-44291
X41831Y-30512
X43307Y-37402
X44783Y-44291
X51673Y-30512
X54626Y-44291
X61516Y-30512
X64961Y-21654
X64961Y-53150
T3
G00X23465Y-34744
M15
G01X23858Y-34744
M16
G05
G00X23465Y-40059
M15
G01X23858Y-40059
M16
G05
T0
M30
