0
SECTION
2
ENTITIES
0
CIRCLE
8
Cmts
62
1
10
55.0
20
-55.0
40
4.3
0
CIRCLE
8
FCrtYd
62
7
10
55.0
20
-55.0
40
4.55
0
LINE
8
FCrtYd
62
7
10
60.14
20
-95.27
11
56.44
21
-95.27
0
LINE
8
FCrtYd
62
7
10
56.44
20
-95.27
11
56.44
21
-92.97
0
LINE
8
FCrtYd
62
7
10
60.14
20
-92.97
11
60.14
21
-95.27
0
LINE
8
FCrtYd
62
7
10
56.44
20
-92.97
11
60.14
21
-92.97
0
LINE
8
FFab
62
5
10
57.29
20
-93.912
11
57.707
21
-93.495
0
LINE
8
FFab
62
5
10
57.29
20
-93.495
11
59.29
21
-93.495
0
LINE
8
FFab
62
5
10
57.29
20
-94.745
11
57.29
21
-93.495
0
LINE
8
FFab
62
5
10
59.29
20
-94.745
11
57.29
21
-94.745
0
LINE
8
FFab
62
5
10
59.29
20
-93.495
11
59.29
21
-94.745
0
LINE
8
FCrtYd
62
7
10
137.95
20
-79.32
11
137.95
21
-82.68
0
LINE
8
FCrtYd
62
7
10
136.05
20
-79.32
11
137.95
21
-79.32
0
LINE
8
FCrtYd
62
7
10
137.95
20
-82.68
11
136.05
21
-82.68
0
LINE
8
FCrtYd
62
7
10
136.05
20
-82.68
11
136.05
21
-79.32
0
LINE
8
FFab
62
5
10
137.625
20
-80.0
11
137.625
21
-82.0
0
LINE
8
FFab
62
5
10
136.375
20
-80.0
11
137.625
21
-80.0
0
LINE
8
FFab
62
5
10
136.375
20
-82.0
11
136.375
21
-80.0
0
LINE
8
FFab
62
5
10
137.625
20
-82.0
11
136.375
21
-82.0
0
LINE
8
FCrtYd
62
7
10
74.25
20
-63.35
11
78.75
21
-63.35
0
LINE
8
FCrtYd
62
7
10
78.75
20
-70.65
11
74.25
21
-70.65
0
LINE
8
FCrtYd
62
7
10
78.75
20
-63.35
11
78.75
21
-70.65
0
LINE
8
FCrtYd
62
7
10
74.25
20
-70.65
11
74.25
21
-63.35
0
LINE
8
FFab
62
5
10
74.5
20
-64.7
11
78.5
21
-64.7
0
LINE
8
FFab
62
5
10
76.50102
20
-67.64944
11
76.50102
21
-68.55114
0
LINE
8
FFab
62
5
10
75.70092
20
-67.64944
11
77.30112
21
-67.64944
0
LINE
8
FFab
62
5
10
78.5
20
-64.7
11
78.5
21
-69.3
0
LINE
8
FFab
62
5
10
76.50102
20
-67.64944
11
75.70092
21
-66.49882
0
LINE
8
FFab
62
5
10
77.25032
20
-66.49882
11
75.70092
21
-66.49882
0
LINE
8
FFab
62
5
10
76.50102
20
-67.64944
11
77.25032
21
-66.49882
0
LINE
8
FFab
62
5
10
78.5
20
-69.3
11
74.5
21
-69.3
0
LINE
8
FFab
62
5
10
74.5
20
-64.7
11
74.5
21
-69.3
0
LINE
8
FFab
62
5
10
76.50102
20
-66.49882
11
76.50102
21
-65.5006
0
LINE
8
FCrtYd
62
7
10
160.1
20
-128.725
11
168.7
21
-128.725
0
LINE
8
FCrtYd
62
7
10
168.7
20
-121.875
11
160.1
21
-121.875
0
LINE
8
FCrtYd
62
7
10
160.1
20
-128.725
11
160.1
21
-121.875
0
LINE
8
FCrtYd
62
7
10
168.7
20
-121.875
11
168.7
21
-128.725
0
LINE
8
FFab
62
5
10
168.2
20
-128.225
11
160.6
21
-128.225
0
LINE
8
FFab
62
5
10
168.2
20
-122.375
11
168.2
21
-128.225
0
LINE
8
FFab
62
5
10
160.6
20
-128.225
11
160.6
21
-122.375
0
LINE
8
FFab
62
5
10
166.9
20
-127.225
11
161.85
21
-127.225
0
LINE
8
FFab
62
5
10
166.9
20
-128.225
11
166.9
21
-127.225
0
LINE
8
FFab
62
5
10
160.6
20
-122.375
11
168.2
21
-122.375
0
LINE
8
FFab
62
5
10
161.85
20
-127.225
11
161.85
21
-128.225
0
CIRCLE
8
Cmts
62
1
10
55.0
20
-145.0
40
4.3
0
CIRCLE
8
FCrtYd
62
7
10
55.0
20
-145.0
40
4.55
0
LINE
8
FCrtYd
62
7
10
61.05
20
-79.32
11
62.95
21
-79.32
0
LINE
8
FCrtYd
62
7
10
61.05
20
-82.68
11
61.05
21
-79.32
0
LINE
8
FCrtYd
62
7
10
62.95
20
-79.32
11
62.95
21
-82.68
0
LINE
8
FCrtYd
62
7
10
62.95
20
-82.68
11
61.05
21
-82.68
0
LINE
8
FFab
62
5
10
62.625
20
-80.0
11
62.625
21
-82.0
0
LINE
8
FFab
62
5
10
62.625
20
-82.0
11
61.375
21
-82.0
0
LINE
8
FFab
62
5
10
61.375
20
-80.0
11
62.625
21
-80.0
0
LINE
8
FFab
62
5
10
61.375
20
-82.0
11
61.375
21
-80.0
0
LINE
8
FCrtYd
62
7
10
145.75
20
-129.35
11
145.75
21
-136.65
0
LINE
8
FCrtYd
62
7
10
141.25
20
-129.35
11
145.75
21
-129.35
0
LINE
8
FCrtYd
62
7
10
145.75
20
-136.65
11
141.25
21
-136.65
0
LINE
8
FCrtYd
62
7
10
141.25
20
-136.65
11
141.25
21
-129.35
0
LINE
8
FFab
62
5
10
143.49898
20
-132.35056
11
143.49898
21
-131.44886
0
LINE
8
FFab
62
5
10
143.49898
20
-132.35056
11
144.29908
21
-133.50118
0
LINE
8
FFab
62
5
10
145.5
20
-135.3
11
145.5
21
-130.7
0
LINE
8
FFab
62
5
10
141.5
20
-130.7
11
145.5
21
-130.7
0
LINE
8
FFab
62
5
10
142.74968
20
-133.50118
11
144.29908
21
-133.50118
0
LINE
8
FFab
62
5
10
144.29908
20
-132.35056
11
142.69888
21
-132.35056
0
LINE
8
FFab
62
5
10
141.5
20
-135.3
11
141.5
21
-130.7
0
LINE
8
FFab
62
5
10
143.49898
20
-133.50118
11
143.49898
21
-134.4994
0
LINE
8
FFab
62
5
10
143.49898
20
-132.35056
11
142.74968
21
-133.50118
0
LINE
8
FFab
62
5
10
145.5
20
-135.3
11
141.5
21
-135.3
0
LINE
8
FCrtYd
62
7
10
157.05
20
-117.32
11
158.95
21
-117.32
0
LINE
8
FCrtYd
62
7
10
157.05
20
-120.68
11
157.05
21
-117.32
0
LINE
8
FCrtYd
62
7
10
158.95
20
-117.32
11
158.95
21
-120.68
0
LINE
8
FCrtYd
62
7
10
158.95
20
-120.68
11
157.05
21
-120.68
0
LINE
8
FFab
62
5
10
158.625
20
-120.0
11
157.375
21
-120.0
0
LINE
8
FFab
62
5
10
157.375
20
-118.0
11
158.625
21
-118.0
0
LINE
8
FFab
62
5
10
158.625
20
-118.0
11
158.625
21
-120.0
0
LINE
8
FFab
62
5
10
157.375
20
-120.0
11
157.375
21
-118.0
0
CIRCLE
8
Cmts
62
1
10
106.25
20
-77.5
40
3.2
0
CIRCLE
8
FCrtYd
62
7
10
106.25
20
-77.5
40
3.45
0
LINE
8
FCrtYd
62
7
10
99.25
20
-63.35
11
103.75
21
-63.35
0
LINE
8
FCrtYd
62
7
10
99.25
20
-70.65
11
99.25
21
-63.35
0
LINE
8
FCrtYd
62
7
10
103.75
20
-70.65
11
99.25
21
-70.65
0
LINE
8
FCrtYd
62
7
10
103.75
20
-63.35
11
103.75
21
-70.65
0
LINE
8
FFab
62
5
10
103.5
20
-69.3
11
99.5
21
-69.3
0
LINE
8
FFab
62
5
10
99.5
20
-64.7
11
103.5
21
-64.7
0
LINE
8
FFab
62
5
10
101.50102
20
-67.64944
11
100.70092
21
-66.49882
0
LINE
8
FFab
62
5
10
99.5
20
-64.7
11
99.5
21
-69.3
0
LINE
8
FFab
62
5
10
103.5
20
-64.7
11
103.5
21
-69.3
0
LINE
8
FFab
62
5
10
102.25032
20
-66.49882
11
100.70092
21
-66.49882
0
LINE
8
FFab
62
5
10
101.50102
20
-67.64944
11
102.25032
21
-66.49882
0
LINE
8
FFab
62
5
10
100.70092
20
-67.64944
11
102.30112
21
-67.64944
0
LINE
8
FFab
62
5
10
101.50102
20
-66.49882
11
101.50102
21
-65.5006
0
LINE
8
FFab
62
5
10
101.50102
20
-67.64944
11
101.50102
21
-68.55114
0
LINE
8
FCrtYd
62
7
10
132.05
20
-117.32
11
133.95
21
-117.32
0
LINE
8
FCrtYd
62
7
10
133.95
20
-117.32
11
133.95
21
-120.68
0
LINE
8
FCrtYd
62
7
10
132.05
20
-120.68
11
132.05
21
-117.32
0
LINE
8
FCrtYd
62
7
10
133.95
20
-120.68
11
132.05
21
-120.68
0
LINE
8
FFab
62
5
10
133.625
20
-120.0
11
132.375
21
-120.0
0
LINE
8
FFab
62
5
10
133.625
20
-118.0
11
133.625
21
-120.0
0
LINE
8
FFab
62
5
10
132.375
20
-118.0
11
133.625
21
-118.0
0
LINE
8
FFab
62
5
10
132.375
20
-120.0
11
132.375
21
-118.0
0
CIRCLE
8
Cmts
62
1
10
165.0
20
-55.0
40
4.3
0
CIRCLE
8
FCrtYd
62
7
10
165.0
20
-55.0
40
4.55
0
CIRCLE
8
Cmts
62
1
10
81.25
20
-77.5
40
3.2
0
CIRCLE
8
FCrtYd
62
7
10
81.25
20
-77.5
40
3.45
0
LINE
8
FCrtYd
62
7
10
86.05
20
-82.68
11
86.05
21
-79.32
0
LINE
8
FCrtYd
62
7
10
86.05
20
-79.32
11
87.95
21
-79.32
0
LINE
8
FCrtYd
62
7
10
87.95
20
-82.68
11
86.05
21
-82.68
0
LINE
8
FCrtYd
62
7
10
87.95
20
-79.32
11
87.95
21
-82.68
0
LINE
8
FFab
62
5
10
87.625
20
-80.0
11
87.625
21
-82.0
0
LINE
8
FFab
62
5
10
86.375
20
-82.0
11
86.375
21
-80.0
0
LINE
8
FFab
62
5
10
86.375
20
-80.0
11
87.625
21
-80.0
0
LINE
8
FFab
62
5
10
87.625
20
-82.0
11
86.375
21
-82.0
0
LINE
8
FCrtYd
62
7
10
70.75
20
-136.65
11
66.25
21
-136.65
0
LINE
8
FCrtYd
62
7
10
70.75
20
-129.35
11
70.75
21
-136.65
0
LINE
8
FCrtYd
62
7
10
66.25
20
-136.65
11
66.25
21
-129.35
0
LINE
8
FCrtYd
62
7
10
66.25
20
-129.35
11
70.75
21
-129.35
0
LINE
8
FFab
62
5
10
70.5
20
-135.3
11
70.5
21
-130.7
0
LINE
8
FFab
62
5
10
69.29908
20
-132.35056
11
67.69888
21
-132.35056
0
LINE
8
FFab
62
5
10
68.49898
20
-132.35056
11
68.49898
21
-131.44886
0
LINE
8
FFab
62
5
10
70.5
20
-135.3
11
66.5
21
-135.3
0
LINE
8
FFab
62
5
10
68.49898
20
-133.50118
11
68.49898
21
-134.4994
0
LINE
8
FFab
62
5
10
68.49898
20
-132.35056
11
69.29908
21
-133.50118
0
LINE
8
FFab
62
5
10
68.49898
20
-132.35056
11
67.74968
21
-133.50118
0
LINE
8
FFab
62
5
10
67.74968
20
-133.50118
11
69.29908
21
-133.50118
0
LINE
8
FFab
62
5
10
66.5
20
-135.3
11
66.5
21
-130.7
0
LINE
8
FFab
62
5
10
66.5
20
-130.7
11
70.5
21
-130.7
0
LINE
8
FCrtYd
62
7
10
117.55
20
-144.18
11
117.55
21
-140.82
0
LINE
8
FCrtYd
62
7
10
117.55
20
-140.82
11
119.45
21
-140.82
0
LINE
8
FCrtYd
62
7
10
119.45
20
-140.82
11
119.45
21
-144.18
0
LINE
8
FCrtYd
62
7
10
119.45
20
-144.18
11
117.55
21
-144.18
0
LINE
8
FFab
62
5
10
117.875
20
-143.5
11
117.875
21
-141.5
0
LINE
8
FFab
62
5
10
119.125
20
-143.5
11
117.875
21
-143.5
0
LINE
8
FFab
62
5
10
119.125
20
-141.5
11
119.125
21
-143.5
0
LINE
8
FFab
62
5
10
117.875
20
-141.5
11
119.125
21
-141.5
0
LINE
8
FCrtYd
62
7
10
91.17
20
-82.9
11
91.17
21
-63.1
0
LINE
8
FCrtYd
62
7
10
104.67
20
-82.9
11
91.17
21
-82.9
0
LINE
8
FCrtYd
62
7
10
104.67
20
-63.1
11
104.67
21
-82.9
0
LINE
8
FCrtYd
62
7
10
91.17
20
-63.1
11
104.67
21
-63.1
0
LINE
8
FFab
62
5
10
92.17
20
-81.9
11
92.17
21
-64.1
0
LINE
8
FFab
62
5
10
103.67
20
-81.9
11
92.17
21
-81.9
0
LINE
8
FFab
62
5
10
103.67
20
-64.1
11
103.67
21
-81.9
0
LINE
8
FFab
62
5
10
92.17
20
-64.1
11
103.67
21
-64.1
0
LINE
8
FCrtYd
62
7
10
124.25
20
-70.65
11
124.25
21
-63.35
0
LINE
8
FCrtYd
62
7
10
124.25
20
-63.35
11
128.75
21
-63.35
0
LINE
8
FCrtYd
62
7
10
128.75
20
-63.35
11
128.75
21
-70.65
0
LINE
8
FCrtYd
62
7
10
128.75
20
-70.65
11
124.25
21
-70.65
0
LINE
8
FFab
62
5
10
128.5
20
-69.3
11
124.5
21
-69.3
0
LINE
8
FFab
62
5
10
126.50102
20
-66.49882
11
126.50102
21
-65.5006
0
LINE
8
FFab
62
5
10
126.50102
20
-67.64944
11
125.70092
21
-66.49882
0
LINE
8
FFab
62
5
10
124.5
20
-64.7
11
124.5
21
-69.3
0
LINE
8
FFab
62
5
10
126.50102
20
-67.64944
11
126.50102
21
-68.55114
0
LINE
8
FFab
62
5
10
124.5
20
-64.7
11
128.5
21
-64.7
0
LINE
8
FFab
62
5
10
128.5
20
-64.7
11
128.5
21
-69.3
0
LINE
8
FFab
62
5
10
125.70092
20
-67.64944
11
127.30112
21
-67.64944
0
LINE
8
FFab
62
5
10
126.50102
20
-67.64944
11
127.25032
21
-66.49882
0
LINE
8
FFab
62
5
10
127.25032
20
-66.49882
11
125.70092
21
-66.49882
0
LINE
8
FCrtYd
62
7
10
92.35
20
-145.15
11
94.65
21
-145.15
0
LINE
8
FCrtYd
62
7
10
92.35
20
-148.85
11
92.35
21
-145.15
0
LINE
8
FCrtYd
62
7
10
94.65
20
-148.85
11
92.35
21
-148.85
0
LINE
8
FCrtYd
62
7
10
94.65
20
-145.15
11
94.65
21
-148.85
0
LINE
8
FFab
62
5
10
94.125
20
-146.0
11
94.125
21
-148.0
0
LINE
8
FFab
62
5
10
94.125
20
-148.0
11
92.875
21
-148.0
0
LINE
8
FFab
62
5
10
93.292
20
-148.0
11
92.875
21
-147.583
0
LINE
8
FFab
62
5
10
92.875
20
-146.0
11
94.125
21
-146.0
0
LINE
8
FFab
62
5
10
92.875
20
-148.0
11
92.875
21
-146.0
0
CIRCLE
8
Cmts
62
1
10
165.0
20
-145.0
40
4.3
0
CIRCLE
8
FCrtYd
62
7
10
165.0
20
-145.0
40
4.55
0
LINE
8
FCrtYd
62
7
10
66.17
20
-63.1
11
79.67
21
-63.1
0
LINE
8
FCrtYd
62
7
10
79.67
20
-82.9
11
66.17
21
-82.9
0
LINE
8
FCrtYd
62
7
10
79.67
20
-63.1
11
79.67
21
-82.9
0
LINE
8
FCrtYd
62
7
10
66.17
20
-82.9
11
66.17
21
-63.1
0
LINE
8
FFab
62
5
10
78.67
20
-64.1
11
78.67
21
-81.9
0
LINE
8
FFab
62
5
10
67.17
20
-81.9
11
67.17
21
-64.1
0
LINE
8
FFab
62
5
10
67.17
20
-64.1
11
78.67
21
-64.1
0
LINE
8
FFab
62
5
10
78.67
20
-81.9
11
67.17
21
-81.9
0
LINE
8
FCrtYd
62
7
10
150.55
20
-55.82
11
152.45
21
-55.82
0
LINE
8
FCrtYd
62
7
10
152.45
20
-55.82
11
152.45
21
-59.18
0
LINE
8
FCrtYd
62
7
10
152.45
20
-59.18
11
150.55
21
-59.18
0
LINE
8
FCrtYd
62
7
10
150.55
20
-59.18
11
150.55
21
-55.82
0
LINE
8
FFab
62
5
10
150.875
20
-58.5
11
150.875
21
-56.5
0
LINE
8
FFab
62
5
10
150.875
20
-56.5
11
152.125
21
-56.5
0
LINE
8
FFab
62
5
10
152.125
20
-56.5
11
152.125
21
-58.5
0
LINE
8
FFab
62
5
10
152.125
20
-58.5
11
150.875
21
-58.5
0
CIRCLE
8
Cmts
62
1
10
88.75
20
-122.5
40
3.2
0
CIRCLE
8
FCrtYd
62
7
10
88.75
20
-122.5
40
3.45
0
LINE
8
FCrtYd
62
7
10
134.67
20
-148.9
11
121.17
21
-148.9
0
LINE
8
FCrtYd
62
7
10
121.17
20
-148.9
11
121.17
21
-129.1
0
LINE
8
FCrtYd
62
7
10
134.67
20
-129.1
11
134.67
21
-148.9
0
LINE
8
FCrtYd
62
7
10
121.17
20
-129.1
11
134.67
21
-129.1
0
LINE
8
FFab
62
5
10
122.17
20
-147.9
11
122.17
21
-130.1
0
LINE
8
FFab
62
5
10
122.17
20
-130.1
11
133.67
21
-130.1
0
LINE
8
FFab
62
5
10
133.67
20
-147.9
11
122.17
21
-147.9
0
LINE
8
FFab
62
5
10
133.67
20
-130.1
11
133.67
21
-147.9
0
LINE
8
FCrtYd
62
7
10
92.55
20
-140.82
11
94.45
21
-140.82
0
LINE
8
FCrtYd
62
7
10
92.55
20
-144.18
11
92.55
21
-140.82
0
LINE
8
FCrtYd
62
7
10
94.45
20
-140.82
11
94.45
21
-144.18
0
LINE
8
FCrtYd
62
7
10
94.45
20
-144.18
11
92.55
21
-144.18
0
LINE
8
FFab
62
5
10
92.875
20
-141.5
11
94.125
21
-141.5
0
LINE
8
FFab
62
5
10
94.125
20
-141.5
11
94.125
21
-143.5
0
LINE
8
FFab
62
5
10
94.125
20
-143.5
11
92.875
21
-143.5
0
LINE
8
FFab
62
5
10
92.875
20
-143.5
11
92.875
21
-141.5
0
LINE
8
FCrtYd
62
7
10
116.25
20
-129.35
11
120.75
21
-129.35
0
LINE
8
FCrtYd
62
7
10
120.75
20
-136.65
11
116.25
21
-136.65
0
LINE
8
FCrtYd
62
7
10
120.75
20
-129.35
11
120.75
21
-136.65
0
LINE
8
FCrtYd
62
7
10
116.25
20
-136.65
11
116.25
21
-129.35
0
LINE
8
FFab
62
5
10
116.5
20
-135.3
11
116.5
21
-130.7
0
LINE
8
FFab
62
5
10
120.5
20
-135.3
11
116.5
21
-135.3
0
LINE
8
FFab
62
5
10
116.5
20
-130.7
11
120.5
21
-130.7
0
LINE
8
FFab
62
5
10
118.49898
20
-132.35056
11
119.29908
21
-133.50118
0
LINE
8
FFab
62
5
10
120.5
20
-135.3
11
120.5
21
-130.7
0
LINE
8
FFab
62
5
10
118.49898
20
-132.35056
11
117.74968
21
-133.50118
0
LINE
8
FFab
62
5
10
117.74968
20
-133.50118
11
119.29908
21
-133.50118
0
LINE
8
FFab
62
5
10
118.49898
20
-132.35056
11
118.49898
21
-131.44886
0
LINE
8
FFab
62
5
10
118.49898
20
-133.50118
11
118.49898
21
-134.4994
0
LINE
8
FFab
62
5
10
119.29908
20
-132.35056
11
117.69888
21
-132.35056
0
LINE
8
FCrtYd
62
7
10
142.55
20
-144.18
11
142.55
21
-140.82
0
LINE
8
FCrtYd
62
7
10
144.45
20
-144.18
11
142.55
21
-144.18
0
LINE
8
FCrtYd
62
7
10
144.45
20
-140.82
11
144.45
21
-144.18
0
LINE
8
FCrtYd
62
7
10
142.55
20
-140.82
11
144.45
21
-140.82
0
LINE
8
FFab
62
5
10
142.875
20
-141.5
11
144.125
21
-141.5
0
LINE
8
FFab
62
5
10
144.125
20
-141.5
11
144.125
21
-143.5
0
LINE
8
FFab
62
5
10
142.875
20
-143.5
11
142.875
21
-141.5
0
LINE
8
FFab
62
5
10
144.125
20
-143.5
11
142.875
21
-143.5
0
LINE
8
FCrtYd
62
7
10
127.65
20
-54.85
11
125.35
21
-54.85
0
LINE
8
FCrtYd
62
7
10
125.35
20
-51.15
11
127.65
21
-51.15
0
LINE
8
FCrtYd
62
7
10
125.35
20
-54.85
11
125.35
21
-51.15
0
LINE
8
FCrtYd
62
7
10
127.65
20
-51.15
11
127.65
21
-54.85
0
LINE
8
FFab
62
5
10
125.875
20
-54.0
11
125.875
21
-52.0
0
LINE
8
FFab
62
5
10
127.125
20
-54.0
11
125.875
21
-54.0
0
LINE
8
FFab
62
5
10
127.125
20
-52.0
11
127.125
21
-54.0
0
LINE
8
FFab
62
5
10
125.875
20
-52.0
11
127.125
21
-52.0
0
LINE
8
FFab
62
5
10
126.708
20
-52.0
11
127.125
21
-52.417
0
LINE
8
FCrtYd
62
7
10
142.35
20
-148.85
11
142.35
21
-145.15
0
LINE
8
FCrtYd
62
7
10
142.35
20
-145.15
11
144.65
21
-145.15
0
LINE
8
FCrtYd
62
7
10
144.65
20
-145.15
11
144.65
21
-148.85
0
LINE
8
FCrtYd
62
7
10
144.65
20
-148.85
11
142.35
21
-148.85
0
LINE
8
FFab
62
5
10
144.125
20
-148.0
11
142.875
21
-148.0
0
LINE
8
FFab
62
5
10
142.875
20
-148.0
11
142.875
21
-146.0
0
LINE
8
FFab
62
5
10
142.875
20
-146.0
11
144.125
21
-146.0
0
LINE
8
FFab
62
5
10
143.292
20
-148.0
11
142.875
21
-147.583
0
LINE
8
FFab
62
5
10
144.125
20
-146.0
11
144.125
21
-148.0
0
LINE
8
FCrtYd
62
7
10
141.17
20
-82.9
11
141.17
21
-63.1
0
LINE
8
FCrtYd
62
7
10
154.67
20
-63.1
11
154.67
21
-82.9
0
LINE
8
FCrtYd
62
7
10
141.17
20
-63.1
11
154.67
21
-63.1
0
LINE
8
FCrtYd
62
7
10
154.67
20
-82.9
11
141.17
21
-82.9
0
LINE
8
FFab
62
5
10
142.17
20
-81.9
11
142.17
21
-64.1
0
LINE
8
FFab
62
5
10
142.17
20
-64.1
11
153.67
21
-64.1
0
LINE
8
FFab
62
5
10
153.67
20
-81.9
11
142.17
21
-81.9
0
LINE
8
FFab
62
5
10
153.67
20
-64.1
11
153.67
21
-81.9
0
LINE
8
FCrtYd
62
7
10
112.95
20
-82.68
11
111.05
21
-82.68
0
LINE
8
FCrtYd
62
7
10
112.95
20
-79.32
11
112.95
21
-82.68
0
LINE
8
FCrtYd
62
7
10
111.05
20
-79.32
11
112.95
21
-79.32
0
LINE
8
FCrtYd
62
7
10
111.05
20
-82.68
11
111.05
21
-79.32
0
LINE
8
FFab
62
5
10
111.375
20
-80.0
11
112.625
21
-80.0
0
LINE
8
FFab
62
5
10
112.625
20
-82.0
11
111.375
21
-82.0
0
LINE
8
FFab
62
5
10
111.375
20
-82.0
11
111.375
21
-80.0
0
LINE
8
FFab
62
5
10
112.625
20
-80.0
11
112.625
21
-82.0
0
LINE
8
FCrtYd
62
7
10
116.17
20
-82.9
11
116.17
21
-63.1
0
LINE
8
FCrtYd
62
7
10
129.67
20
-82.9
11
116.17
21
-82.9
0
LINE
8
FCrtYd
62
7
10
116.17
20
-63.1
11
129.67
21
-63.1
0
LINE
8
FCrtYd
62
7
10
129.67
20
-63.1
11
129.67
21
-82.9
0
LINE
8
FFab
62
5
10
117.17
20
-81.9
11
117.17
21
-64.1
0
LINE
8
FFab
62
5
10
128.67
20
-81.9
11
117.17
21
-81.9
0
LINE
8
FFab
62
5
10
128.67
20
-64.1
11
128.67
21
-81.9
0
LINE
8
FFab
62
5
10
117.17
20
-64.1
11
128.67
21
-64.1
0
LINE
8
FCrtYd
62
7
10
107.05
20
-117.32
11
108.95
21
-117.32
0
LINE
8
FCrtYd
62
7
10
107.05
20
-120.68
11
107.05
21
-117.32
0
LINE
8
FCrtYd
62
7
10
108.95
20
-120.68
11
107.05
21
-120.68
0
LINE
8
FCrtYd
62
7
10
108.95
20
-117.32
11
108.95
21
-120.68
0
LINE
8
FFab
62
5
10
108.625
20
-118.0
11
108.625
21
-120.0
0
LINE
8
FFab
62
5
10
108.625
20
-120.0
11
107.375
21
-120.0
0
LINE
8
FFab
62
5
10
107.375
20
-120.0
11
107.375
21
-118.0
0
LINE
8
FFab
62
5
10
107.375
20
-118.0
11
108.625
21
-118.0
0
LINE
8
FCrtYd
62
7
10
168.78
20
-111.95
11
168.78
21
-88.05
0
LINE
8
FCrtYd
62
7
10
153.65
20
-111.95
11
168.78
21
-111.95
0
LINE
8
FCrtYd
62
7
10
168.78
20
-88.05
11
153.65
21
-88.05
0
LINE
8
FCrtYd
62
7
10
153.65
20
-88.05
11
153.65
21
-111.95
0
LINE
8
FFab
62
5
10
159.38
20
-95.87
11
154.68
21
-95.87
0
LINE
8
FFab
62
5
10
154.68
20
-93.33
11
154.68
21
-93.97
0
LINE
8
FFab
62
5
10
154.68
20
-93.97
11
159.38
21
-93.97
0
LINE
8
FFab
62
5
10
154.68
20
-103.49
11
154.68
21
-104.13
0
LINE
8
FFab
62
5
10
154.68
20
-101.59
11
159.38
21
-101.59
0
LINE
8
FFab
62
5
10
154.68
20
-106.03
11
154.68
21
-106.67
0
LINE
8
FFab
62
5
10
154.68
20
-95.87
11
154.68
21
-96.51
0
LINE
8
FFab
62
5
10
159.38
20
-111.45
11
159.38
21
-89.55
0
LINE
8
FFab
62
5
10
159.38
20
-106.03
11
154.68
21
-106.03
0
LINE
8
FFab
62
5
10
159.38
20
-103.49
11
154.68
21
-103.49
0
LINE
8
FFab
62
5
10
159.38
20
-98.41
11
154.68
21
-98.41
0
LINE
8
FFab
62
5
10
154.68
20
-99.05
11
159.38
21
-99.05
0
LINE
8
FFab
62
5
10
168.28
20
-88.55
11
168.28
21
-111.45
0
LINE
8
FFab
62
5
10
154.68
20
-96.51
11
159.38
21
-96.51
0
LINE
8
FFab
62
5
10
159.38
20
-100.95
11
154.68
21
-100.95
0
LINE
8
FFab
62
5
10
159.38
20
-97.95
11
168.28
21
-97.95
0
LINE
8
FFab
62
5
10
159.38
20
-102.05
11
168.28
21
-102.05
0
LINE
8
FFab
62
5
10
159.38
20
-93.33
11
154.68
21
-93.33
0
LINE
8
FFab
62
5
10
159.38
20
-89.55
11
160.38
21
-88.55
0
LINE
8
FFab
62
5
10
154.68
20
-104.13
11
159.38
21
-104.13
0
LINE
8
FFab
62
5
10
168.28
20
-111.45
11
159.38
21
-111.45
0
LINE
8
FFab
62
5
10
154.68
20
-106.67
11
159.38
21
-106.67
0
LINE
8
FFab
62
5
10
154.68
20
-100.95
11
154.68
21
-101.59
0
LINE
8
FFab
62
5
10
160.38
20
-88.55
11
168.28
21
-88.55
0
LINE
8
FFab
62
5
10
154.68
20
-98.41
11
154.68
21
-99.05
0
CIRCLE
8
Cmts
62
1
10
113.75
20
-122.5
40
3.2
0
CIRCLE
8
FCrtYd
62
7
10
113.75
20
-122.5
40
3.45
0
CIRCLE
8
Cmts
62
1
10
63.75
20
-122.5
40
3.2
0
CIRCLE
8
FCrtYd
62
7
10
63.75
20
-122.5
40
3.45
0
LINE
8
FCrtYd
62
7
10
69.45
20
-140.82
11
69.45
21
-144.18
0
LINE
8
FCrtYd
62
7
10
67.55
20
-140.82
11
69.45
21
-140.82
0
LINE
8
FCrtYd
62
7
10
67.55
20
-144.18
11
67.55
21
-140.82
0
LINE
8
FCrtYd
62
7
10
69.45
20
-144.18
11
67.55
21
-144.18
0
LINE
8
FFab
62
5
10
67.875
20
-141.5
11
69.125
21
-141.5
0
LINE
8
FFab
62
5
10
67.875
20
-143.5
11
67.875
21
-141.5
0
LINE
8
FFab
62
5
10
69.125
20
-141.5
11
69.125
21
-143.5
0
LINE
8
FFab
62
5
10
69.125
20
-143.5
11
67.875
21
-143.5
0
LINE
8
FCrtYd
62
7
10
84.67
20
-129.1
11
84.67
21
-148.9
0
LINE
8
FCrtYd
62
7
10
84.67
20
-148.9
11
71.17
21
-148.9
0
LINE
8
FCrtYd
62
7
10
71.17
20
-148.9
11
71.17
21
-129.1
0
LINE
8
FCrtYd
62
7
10
71.17
20
-129.1
11
84.67
21
-129.1
0
LINE
8
FFab
62
5
10
83.67
20
-147.9
11
72.17
21
-147.9
0
LINE
8
FFab
62
5
10
83.67
20
-130.1
11
83.67
21
-147.9
0
LINE
8
FFab
62
5
10
72.17
20
-130.1
11
83.67
21
-130.1
0
LINE
8
FFab
62
5
10
72.17
20
-147.9
11
72.17
21
-130.1
0
LINE
8
FCrtYd
62
7
10
66.5
20
-104.3
11
50.5
21
-104.3
0
LINE
8
FCrtYd
62
7
10
66.5
20
-95.7
11
66.5
21
-104.3
0
LINE
8
FCrtYd
62
7
10
50.5
20
-95.7
11
66.5
21
-95.7
0
LINE
8
FCrtYd
62
7
10
50.5
20
-104.3
11
50.5
21
-95.7
0
LINE
8
FFab
62
5
10
66.25
20
-104.05
11
53.75
21
-104.05
0
LINE
8
FFab
62
5
10
53.75
20
-95.95
11
66.25
21
-95.95
0
LINE
8
FFab
62
5
10
66.25
20
-95.95
11
66.25
21
-104.05
0
LINE
8
FFab
62
5
10
53.75
20
-104.05
11
50.75
21
-101.4
0
LINE
8
FFab
62
5
10
53.75
20
-95.95
11
50.75
21
-98.6
0
LINE
8
FFab
62
5
10
50.75
20
-101.4
11
50.75
21
-98.6
0
LINE
8
FCrtYd
62
7
10
153.75
20
-70.65
11
149.25
21
-70.65
0
LINE
8
FCrtYd
62
7
10
149.25
20
-63.35
11
153.75
21
-63.35
0
LINE
8
FCrtYd
62
7
10
149.25
20
-70.65
11
149.25
21
-63.35
0
LINE
8
FCrtYd
62
7
10
153.75
20
-63.35
11
153.75
21
-70.65
0
LINE
8
FFab
62
5
10
151.50102
20
-67.64944
11
152.25032
21
-66.49882
0
LINE
8
FFab
62
5
10
151.50102
20
-67.64944
11
150.70092
21
-66.49882
0
LINE
8
FFab
62
5
10
153.5
20
-64.7
11
153.5
21
-69.3
0
LINE
8
FFab
62
5
10
149.5
20
-64.7
11
149.5
21
-69.3
0
LINE
8
FFab
62
5
10
151.50102
20
-67.64944
11
151.50102
21
-68.55114
0
LINE
8
FFab
62
5
10
151.50102
20
-66.49882
11
151.50102
21
-65.5006
0
LINE
8
FFab
62
5
10
153.5
20
-69.3
11
149.5
21
-69.3
0
LINE
8
FFab
62
5
10
150.70092
20
-67.64944
11
152.30112
21
-67.64944
0
LINE
8
FFab
62
5
10
152.25032
20
-66.49882
11
150.70092
21
-66.49882
0
LINE
8
FFab
62
5
10
149.5
20
-64.7
11
153.5
21
-64.7
0
LINE
8
FCrtYd
62
7
10
75.35
20
-54.85
11
75.35
21
-51.15
0
LINE
8
FCrtYd
62
7
10
77.65
20
-51.15
11
77.65
21
-54.85
0
LINE
8
FCrtYd
62
7
10
75.35
20
-51.15
11
77.65
21
-51.15
0
LINE
8
FCrtYd
62
7
10
77.65
20
-54.85
11
75.35
21
-54.85
0
LINE
8
FFab
62
5
10
76.708
20
-52.0
11
77.125
21
-52.417
0
LINE
8
FFab
62
5
10
75.875
20
-54.0
11
75.875
21
-52.0
0
LINE
8
FFab
62
5
10
77.125
20
-54.0
11
75.875
21
-54.0
0
LINE
8
FFab
62
5
10
75.875
20
-52.0
11
77.125
21
-52.0
0
LINE
8
FFab
62
5
10
77.125
20
-52.0
11
77.125
21
-54.0
0
CIRCLE
8
Cmts
62
1
10
109.05
20
-100.0
40
4.3
0
CIRCLE
8
Cmts
62
1
10
110.95
20
-100.0
40
4.3
0
LINE
8
FCrtYd
62
7
10
109.05
20
-95.45
11
110.95
21
-95.45
0
LINE
8
FCrtYd
62
7
10
110.95
20
-104.55
11
109.05
21
-104.55
0
ARC
8
FCrtYd
62
7
10
110.95
20
-95.45
30
0
40
6.434672
50
-45.95
51
-45.0
0
ARC
8
FCrtYd
62
7
10
109.05
20
-104.55
30
0
40
6.434672
50
135.0
51
135.95
0
LINE
8
FCrtYd
62
7
10
100.55
20
-59.18
11
100.55
21
-55.82
0
LINE
8
FCrtYd
62
7
10
100.55
20
-55.82
11
102.45
21
-55.82
0
LINE
8
FCrtYd
62
7
10
102.45
20
-55.82
11
102.45
21
-59.18
0
LINE
8
FCrtYd
62
7
10
102.45
20
-59.18
11
100.55
21
-59.18
0
LINE
8
FFab
62
5
10
100.875
20
-56.5
11
102.125
21
-56.5
0
LINE
8
FFab
62
5
10
102.125
20
-58.5
11
100.875
21
-58.5
0
LINE
8
FFab
62
5
10
100.875
20
-58.5
11
100.875
21
-56.5
0
LINE
8
FFab
62
5
10
102.125
20
-56.5
11
102.125
21
-58.5
0
LINE
8
FCrtYd
62
7
10
82.05
20
-120.68
11
82.05
21
-117.32
0
LINE
8
FCrtYd
62
7
10
82.05
20
-117.32
11
83.95
21
-117.32
0
LINE
8
FCrtYd
62
7
10
83.95
20
-117.32
11
83.95
21
-120.68
0
LINE
8
FCrtYd
62
7
10
83.95
20
-120.68
11
82.05
21
-120.68
0
LINE
8
FFab
62
5
10
83.625
20
-120.0
11
82.375
21
-120.0
0
LINE
8
FFab
62
5
10
83.625
20
-118.0
11
83.625
21
-120.0
0
LINE
8
FFab
62
5
10
82.375
20
-118.0
11
83.625
21
-118.0
0
LINE
8
FFab
62
5
10
82.375
20
-120.0
11
82.375
21
-118.0
0
LINE
8
FCrtYd
62
7
10
102.65
20
-51.15
11
102.65
21
-54.85
0
LINE
8
FCrtYd
62
7
10
100.35
20
-51.15
11
102.65
21
-51.15
0
LINE
8
FCrtYd
62
7
10
100.35
20
-54.85
11
100.35
21
-51.15
0
LINE
8
FCrtYd
62
7
10
102.65
20
-54.85
11
100.35
21
-54.85
0
LINE
8
FFab
62
5
10
102.125
20
-54.0
11
100.875
21
-54.0
0
LINE
8
FFab
62
5
10
100.875
20
-54.0
11
100.875
21
-52.0
0
LINE
8
FFab
62
5
10
101.708
20
-52.0
11
102.125
21
-52.417
0
LINE
8
FFab
62
5
10
102.125
20
-52.0
11
102.125
21
-54.0
0
LINE
8
FFab
62
5
10
100.875
20
-52.0
11
102.125
21
-52.0
0
LINE
8
FCrtYd
62
7
10
75.55
20
-55.82
11
77.45
21
-55.82
0
LINE
8
FCrtYd
62
7
10
77.45
20
-59.18
11
75.55
21
-59.18
0
LINE
8
FCrtYd
62
7
10
75.55
20
-59.18
11
75.55
21
-55.82
0
LINE
8
FCrtYd
62
7
10
77.45
20
-55.82
11
77.45
21
-59.18
0
LINE
8
FFab
62
5
10
75.875
20
-56.5
11
77.125
21
-56.5
0
LINE
8
FFab
62
5
10
77.125
20
-58.5
11
75.875
21
-58.5
0
LINE
8
FFab
62
5
10
75.875
20
-58.5
11
75.875
21
-56.5
0
LINE
8
FFab
62
5
10
77.125
20
-56.5
11
77.125
21
-58.5
0
LINE
8
FCrtYd
62
7
10
152.65
20
-54.85
11
150.35
21
-54.85
0
LINE
8
FCrtYd
62
7
10
150.35
20
-54.85
11
150.35
21
-51.15
0
LINE
8
FCrtYd
62
7
10
152.65
20
-51.15
11
152.65
21
-54.85
0
LINE
8
FCrtYd
62
7
10
150.35
20
-51.15
11
152.65
21
-51.15
0
LINE
8
FFab
62
5
10
150.875
20
-52.0
11
152.125
21
-52.0
0
LINE
8
FFab
62
5
10
151.708
20
-52.0
11
152.125
21
-52.417
0
LINE
8
FFab
62
5
10
152.125
20
-54.0
11
150.875
21
-54.0
0
LINE
8
FFab
62
5
10
152.125
20
-52.0
11
152.125
21
-54.0
0
LINE
8
FFab
62
5
10
150.875
20
-54.0
11
150.875
21
-52.0
0
LINE
8
FCrtYd
62
7
10
109.67
20
-129.1
11
109.67
21
-148.9
0
LINE
8
FCrtYd
62
7
10
96.17
20
-129.1
11
109.67
21
-129.1
0
LINE
8
FCrtYd
62
7
10
96.17
20
-148.9
11
96.17
21
-129.1
0
LINE
8
FCrtYd
62
7
10
109.67
20
-148.9
11
96.17
21
-148.9
0
LINE
8
FFab
62
5
10
97.17
20
-147.9
11
97.17
21
-130.1
0
LINE
8
FFab
62
5
10
108.67
20
-147.9
11
97.17
21
-147.9
0
LINE
8
FFab
62
5
10
108.67
20
-130.1
11
108.67
21
-147.9
0
LINE
8
FFab
62
5
10
97.17
20
-130.1
11
108.67
21
-130.1
0
LINE
8
FCrtYd
62
7
10
60.63
20
-87.19
11
60.63
21
-90.55
0
LINE
8
FCrtYd
62
7
10
58.73
20
-90.55
11
58.73
21
-87.19
0
LINE
8
FCrtYd
62
7
10
58.73
20
-87.19
11
60.63
21
-87.19
0
LINE
8
FCrtYd
62
7
10
60.63
20
-90.55
11
58.73
21
-90.55
0
LINE
8
FFab
62
5
10
60.305
20
-87.87
11
60.305
21
-89.87
0
LINE
8
FFab
62
5
10
59.055
20
-87.87
11
60.305
21
-87.87
0
LINE
8
FFab
62
5
10
59.055
20
-89.87
11
59.055
21
-87.87
0
LINE
8
FFab
62
5
10
60.305
20
-89.87
11
59.055
21
-89.87
0
LINE
8
FCrtYd
62
7
10
159.67
20
-129.1
11
159.67
21
-148.9
0
LINE
8
FCrtYd
62
7
10
159.67
20
-148.9
11
146.17
21
-148.9
0
LINE
8
FCrtYd
62
7
10
146.17
20
-148.9
11
146.17
21
-129.1
0
LINE
8
FCrtYd
62
7
10
146.17
20
-129.1
11
159.67
21
-129.1
0
LINE
8
FFab
62
5
10
147.17
20
-130.1
11
158.67
21
-130.1
0
LINE
8
FFab
62
5
10
158.67
20
-147.9
11
147.17
21
-147.9
0
LINE
8
FFab
62
5
10
158.67
20
-130.1
11
158.67
21
-147.9
0
LINE
8
FFab
62
5
10
147.17
20
-147.9
11
147.17
21
-130.1
0
CIRCLE
8
Cmts
62
1
10
138.75
20
-122.5
40
3.2
0
CIRCLE
8
FCrtYd
62
7
10
138.75
20
-122.5
40
3.45
0
LINE
8
FCrtYd
62
7
10
117.35
20
-145.15
11
119.65
21
-145.15
0
LINE
8
FCrtYd
62
7
10
117.35
20
-148.85
11
117.35
21
-145.15
0
LINE
8
FCrtYd
62
7
10
119.65
20
-148.85
11
117.35
21
-148.85
0
LINE
8
FCrtYd
62
7
10
119.65
20
-145.15
11
119.65
21
-148.85
0
LINE
8
FFab
62
5
10
119.125
20
-146.0
11
119.125
21
-148.0
0
LINE
8
FFab
62
5
10
117.875
20
-148.0
11
117.875
21
-146.0
0
LINE
8
FFab
62
5
10
118.292
20
-148.0
11
117.875
21
-147.583
0
LINE
8
FFab
62
5
10
117.875
20
-146.0
11
119.125
21
-146.0
0
LINE
8
FFab
62
5
10
119.125
20
-148.0
11
117.875
21
-148.0
0
LINE
8
FCrtYd
62
7
10
91.25
20
-129.35
11
95.75
21
-129.35
0
LINE
8
FCrtYd
62
7
10
95.75
20
-129.35
11
95.75
21
-136.65
0
LINE
8
FCrtYd
62
7
10
91.25
20
-136.65
11
91.25
21
-129.35
0
LINE
8
FCrtYd
62
7
10
95.75
20
-136.65
11
91.25
21
-136.65
0
LINE
8
FFab
62
5
10
91.5
20
-135.3
11
91.5
21
-130.7
0
LINE
8
FFab
62
5
10
93.49898
20
-133.50118
11
93.49898
21
-134.4994
0
LINE
8
FFab
62
5
10
93.49898
20
-132.35056
11
92.74968
21
-133.50118
0
LINE
8
FFab
62
5
10
92.74968
20
-133.50118
11
94.29908
21
-133.50118
0
LINE
8
FFab
62
5
10
93.49898
20
-132.35056
11
93.49898
21
-131.44886
0
LINE
8
FFab
62
5
10
91.5
20
-130.7
11
95.5
21
-130.7
0
LINE
8
FFab
62
5
10
95.5
20
-135.3
11
95.5
21
-130.7
0
LINE
8
FFab
62
5
10
95.5
20
-135.3
11
91.5
21
-135.3
0
LINE
8
FFab
62
5
10
93.49898
20
-132.35056
11
94.29908
21
-133.50118
0
LINE
8
FFab
62
5
10
94.29908
20
-132.35056
11
92.69888
21
-132.35056
0
CIRCLE
8
Cmts
62
1
10
156.25
20
-77.5
40
3.2
0
CIRCLE
8
FCrtYd
62
7
10
156.25
20
-77.5
40
3.45
0
LINE
8
FCrtYd
62
7
10
67.35
20
-145.15
11
69.65
21
-145.15
0
LINE
8
FCrtYd
62
7
10
69.65
20
-148.85
11
67.35
21
-148.85
0
LINE
8
FCrtYd
62
7
10
69.65
20
-145.15
11
69.65
21
-148.85
0
LINE
8
FCrtYd
62
7
10
67.35
20
-148.85
11
67.35
21
-145.15
0
LINE
8
FFab
62
5
10
68.292
20
-148.0
11
67.875
21
-147.583
0
LINE
8
FFab
62
5
10
67.875
20
-146.0
11
69.125
21
-146.0
0
LINE
8
FFab
62
5
10
67.875
20
-148.0
11
67.875
21
-146.0
0
LINE
8
FFab
62
5
10
69.125
20
-146.0
11
69.125
21
-148.0
0
LINE
8
FFab
62
5
10
69.125
20
-148.0
11
67.875
21
-148.0
0
LINE
8
FCrtYd
62
7
10
125.55
20
-55.82
11
127.45
21
-55.82
0
LINE
8
FCrtYd
62
7
10
127.45
20
-55.82
11
127.45
21
-59.18
0
LINE
8
FCrtYd
62
7
10
125.55
20
-59.18
11
125.55
21
-55.82
0
LINE
8
FCrtYd
62
7
10
127.45
20
-59.18
11
125.55
21
-59.18
0
LINE
8
FFab
62
5
10
127.125
20
-58.5
11
125.875
21
-58.5
0
LINE
8
FFab
62
5
10
125.875
20
-58.5
11
125.875
21
-56.5
0
LINE
8
FFab
62
5
10
127.125
20
-56.5
11
127.125
21
-58.5
0
LINE
8
FFab
62
5
10
125.875
20
-56.5
11
127.125
21
-56.5
0
CIRCLE
8
Cmts
62
1
10
131.25
20
-77.5
40
3.2
0
CIRCLE
8
FCrtYd
62
7
10
131.25
20
-77.5
40
3.45
0
LINE
8
BCrtYd
62
8
10
156.745
20
-117.02
11
151.555
21
-117.02
0
LINE
8
BCrtYd
62
8
10
151.555
20
-128.06
11
156.745
21
-128.06
0
LINE
8
BCrtYd
62
8
10
156.745
20
-128.06
11
156.745
21
-117.02
0
LINE
8
BCrtYd
62
8
10
151.555
20
-117.02
11
151.555
21
-128.06
0
LINE
8
BFab
62
6
10
151.805
20
-117.27
11
151.805
21
-127.81
0
LINE
8
BFab
62
6
10
151.805
20
-127.81
11
156.495
21
-127.81
0
LINE
8
BFab
62
6
10
156.495
20
-117.27
11
151.805
21
-117.27
0
LINE
8
BFab
62
6
10
153.075
20
-117.27
11
151.805
21
-118.54
0
LINE
8
BFab
62
6
10
156.495
20
-127.81
11
156.495
21
-117.27
0
LINE
8
BCrtYd
62
8
10
143.445
20
-71.94
11
138.255
21
-71.94
0
LINE
8
BCrtYd
62
8
10
138.255
20
-82.98
11
143.445
21
-82.98
0
LINE
8
BCrtYd
62
8
10
143.445
20
-82.98
11
143.445
21
-71.94
0
LINE
8
BCrtYd
62
8
10
138.255
20
-71.94
11
138.255
21
-82.98
0
LINE
8
BFab
62
6
10
141.925
20
-82.73
11
143.195
21
-81.46
0
LINE
8
BFab
62
6
10
143.195
20
-72.19
11
138.505
21
-72.19
0
LINE
8
BFab
62
6
10
143.195
20
-82.73
11
143.195
21
-72.19
0
LINE
8
BFab
62
6
10
138.505
20
-82.73
11
143.195
21
-82.73
0
LINE
8
BFab
62
6
10
138.505
20
-72.19
11
138.505
21
-82.73
0
LINE
8
BCrtYd
62
8
10
63.255
20
-82.98
11
68.445
21
-82.98
0
LINE
8
BCrtYd
62
8
10
63.255
20
-71.94
11
63.255
21
-82.98
0
LINE
8
BCrtYd
62
8
10
68.445
20
-82.98
11
68.445
21
-71.94
0
LINE
8
BCrtYd
62
8
10
68.445
20
-71.94
11
63.255
21
-71.94
0
LINE
8
BFab
62
6
10
68.195
20
-82.73
11
68.195
21
-72.19
0
LINE
8
BFab
62
6
10
63.505
20
-72.19
11
63.505
21
-82.73
0
LINE
8
BFab
62
6
10
63.505
20
-82.73
11
68.195
21
-82.73
0
LINE
8
BFab
62
6
10
68.195
20
-72.19
11
63.505
21
-72.19
0
LINE
8
BFab
62
6
10
66.925
20
-82.73
11
68.195
21
-81.46
0
LINE
8
BCrtYd
62
8
10
81.745
20
-117.02
11
76.555
21
-117.02
0
LINE
8
BCrtYd
62
8
10
81.745
20
-128.06
11
81.745
21
-117.02
0
LINE
8
BCrtYd
62
8
10
76.555
20
-117.02
11
76.555
21
-128.06
0
LINE
8
BCrtYd
62
8
10
76.555
20
-128.06
11
81.745
21
-128.06
0
LINE
8
BFab
62
6
10
76.805
20
-127.81
11
81.495
21
-127.81
0
LINE
8
BFab
62
6
10
81.495
20
-127.81
11
81.495
21
-117.27
0
LINE
8
BFab
62
6
10
81.495
20
-117.27
11
76.805
21
-117.27
0
LINE
8
BFab
62
6
10
76.805
20
-117.27
11
76.805
21
-127.81
0
LINE
8
BFab
62
6
10
78.075
20
-117.27
11
76.805
21
-118.54
0
LINE
8
BCrtYd
62
8
10
88.255
20
-82.98
11
93.445
21
-82.98
0
LINE
8
BCrtYd
62
8
10
93.445
20
-82.98
11
93.445
21
-71.94
0
LINE
8
BCrtYd
62
8
10
88.255
20
-71.94
11
88.255
21
-82.98
0
LINE
8
BCrtYd
62
8
10
93.445
20
-71.94
11
88.255
21
-71.94
0
LINE
8
BFab
62
6
10
93.195
20
-72.19
11
88.505
21
-72.19
0
LINE
8
BFab
62
6
10
88.505
20
-82.73
11
93.195
21
-82.73
0
LINE
8
BFab
62
6
10
91.925
20
-82.73
11
93.195
21
-81.46
0
LINE
8
BFab
62
6
10
93.195
20
-82.73
11
93.195
21
-72.19
0
LINE
8
BFab
62
6
10
88.505
20
-72.19
11
88.505
21
-82.73
0
LINE
8
BCrtYd
62
8
10
113.255
20
-71.94
11
113.255
21
-82.98
0
LINE
8
BCrtYd
62
8
10
118.445
20
-71.94
11
113.255
21
-71.94
0
LINE
8
BCrtYd
62
8
10
118.445
20
-82.98
11
118.445
21
-71.94
0
LINE
8
BCrtYd
62
8
10
113.255
20
-82.98
11
118.445
21
-82.98
0
LINE
8
BFab
62
6
10
118.195
20
-72.19
11
113.505
21
-72.19
0
LINE
8
BFab
62
6
10
116.925
20
-82.73
11
118.195
21
-81.46
0
LINE
8
BFab
62
6
10
118.195
20
-82.73
11
118.195
21
-72.19
0
LINE
8
BFab
62
6
10
113.505
20
-72.19
11
113.505
21
-82.73
0
LINE
8
BFab
62
6
10
113.505
20
-82.73
11
118.195
21
-82.73
0
LINE
8
BCrtYd
62
8
10
131.745
20
-117.02
11
126.555
21
-117.02
0
LINE
8
BCrtYd
62
8
10
126.555
20
-117.02
11
126.555
21
-128.06
0
LINE
8
BCrtYd
62
8
10
126.555
20
-128.06
11
131.745
21
-128.06
0
LINE
8
BCrtYd
62
8
10
131.745
20
-128.06
11
131.745
21
-117.02
0
LINE
8
BFab
62
6
10
128.075
20
-117.27
11
126.805
21
-118.54
0
LINE
8
BFab
62
6
10
126.805
20
-117.27
11
126.805
21
-127.81
0
LINE
8
BFab
62
6
10
131.495
20
-127.81
11
131.495
21
-117.27
0
LINE
8
BFab
62
6
10
131.495
20
-117.27
11
126.805
21
-117.27
0
LINE
8
BFab
62
6
10
126.805
20
-127.81
11
131.495
21
-127.81
0
LINE
8
BCrtYd
62
8
10
106.745
20
-128.06
11
106.745
21
-117.02
0
LINE
8
BCrtYd
62
8
10
101.555
20
-117.02
11
101.555
21
-128.06
0
LINE
8
BCrtYd
62
8
10
106.745
20
-117.02
11
101.555
21
-117.02
0
LINE
8
BCrtYd
62
8
10
101.555
20
-128.06
11
106.745
21
-128.06
0
LINE
8
BFab
62
6
10
103.075
20
-117.27
11
101.805
21
-118.54
0
LINE
8
BFab
62
6
10
106.495
20
-127.81
11
106.495
21
-117.27
0
LINE
8
BFab
62
6
10
101.805
20
-127.81
11
106.495
21
-127.81
0
LINE
8
BFab
62
6
10
101.805
20
-117.27
11
101.805
21
-127.81
0
LINE
8
BFab
62
6
10
106.495
20
-117.27
11
101.805
21
-117.27
0
ENDSEC
0
EOF
