G04 #@! TF.GenerationSoftware,KiCad,Pcbnew,(6.0.5)*
G04 #@! TF.CreationDate,2022-07-13T14:18:21-07:00*
G04 #@! TF.ProjectId,solid_state_relays_24v,736f6c69-645f-4737-9461-74655f72656c,0.0.10*
G04 #@! TF.SameCoordinates,PX2faf080PY8583b00*
G04 #@! TF.FileFunction,Soldermask,Bot*
G04 #@! TF.FilePolarity,Negative*
%FSLAX46Y46*%
G04 Gerber Fmt 4.6, Leading zero omitted, Abs format (unit mm)*
G04 Created by KiCad (PCBNEW (6.0.5)) date 2022-07-13 14:18:21*
%MOMM*%
%LPD*%
G01*
G04 APERTURE LIST*
G04 Aperture macros list*
%AMRoundRect*
0 Rectangle with rounded corners*
0 $1 Rounding radius*
0 $2 $3 $4 $5 $6 $7 $8 $9 X,Y pos of 4 corners*
0 Add a 4 corners polygon primitive as box body*
4,1,4,$2,$3,$4,$5,$6,$7,$8,$9,$2,$3,0*
0 Add four circle primitives for the rounded corners*
1,1,$1+$1,$2,$3*
1,1,$1+$1,$4,$5*
1,1,$1+$1,$6,$7*
1,1,$1+$1,$8,$9*
0 Add four rect primitives between the rounded corners*
20,1,$1+$1,$2,$3,$4,$5,0*
20,1,$1+$1,$4,$5,$6,$7,0*
20,1,$1+$1,$6,$7,$8,$9,0*
20,1,$1+$1,$8,$9,$2,$3,0*%
G04 Aperture macros list end*
%ADD10C,0.800000*%
%ADD11C,6.400000*%
%ADD12R,1.950000X1.950000*%
%ADD13C,1.950000*%
%ADD14RoundRect,0.250000X-0.600000X-0.600000X0.600000X-0.600000X0.600000X0.600000X-0.600000X0.600000X0*%
%ADD15C,1.700000*%
%ADD16O,2.800000X1.600000*%
%ADD17R,4.050000X4.050000*%
%ADD18C,4.050000*%
%ADD19R,1.920000X1.920000*%
%ADD20C,1.920000*%
G04 APERTURE END LIST*
D10*
G04 #@! TO.C,H1*
X3302944Y86697056D03*
D11*
X5000000Y85000000D03*
D10*
X7400000Y85000000D03*
X3302944Y83302944D03*
X6697056Y86697056D03*
X5000000Y87400000D03*
X2600000Y85000000D03*
X5000000Y82600000D03*
X6697056Y83302944D03*
G04 #@! TD*
G04 #@! TO.C,H4*
X3302944Y6697056D03*
X6697056Y3302944D03*
X6697056Y6697056D03*
X7400000Y5000000D03*
X3302944Y3302944D03*
X2600000Y5000000D03*
X5000000Y2600000D03*
X5000000Y7400000D03*
D11*
X5000000Y5000000D03*
G04 #@! TD*
G04 #@! TO.C,HQ2*
X35250000Y62540000D03*
D10*
X36947056Y64237056D03*
X36947056Y60842944D03*
X35250000Y64940000D03*
X32850000Y62540000D03*
X33552944Y60842944D03*
X37650000Y62540000D03*
X35250000Y60140000D03*
X33552944Y64237056D03*
G04 #@! TD*
G04 #@! TO.C,H2*
X113302944Y83302944D03*
X115000000Y87400000D03*
D11*
X115000000Y85000000D03*
D10*
X112600000Y85000000D03*
X115000000Y82600000D03*
X116697056Y86697056D03*
X113302944Y86697056D03*
X117400000Y85000000D03*
X116697056Y83302944D03*
G04 #@! TD*
G04 #@! TO.C,HQ1*
X10250000Y64940000D03*
X7850000Y62540000D03*
D11*
X10250000Y62540000D03*
D10*
X8552944Y64237056D03*
X11947056Y60842944D03*
X12650000Y62540000D03*
X10250000Y60140000D03*
X11947056Y64237056D03*
X8552944Y60842944D03*
G04 #@! TD*
D12*
G04 #@! TO.C,J2*
X51500000Y74000000D03*
D13*
X51500000Y82200000D03*
X46500000Y74000000D03*
X46500000Y82200000D03*
G04 #@! TD*
D11*
G04 #@! TO.C,H3*
X115000000Y5000000D03*
D10*
X116697056Y6697056D03*
X117400000Y5000000D03*
X116697056Y3302944D03*
X115000000Y7400000D03*
X112600000Y5000000D03*
X115000000Y2600000D03*
X113302944Y3302944D03*
X113302944Y6697056D03*
G04 #@! TD*
D12*
G04 #@! TO.C,J1*
X26500000Y74000000D03*
D13*
X26500000Y82200000D03*
X21500000Y74000000D03*
X21500000Y82200000D03*
G04 #@! TD*
D10*
G04 #@! TO.C,HQ7*
X62150000Y27460000D03*
X59750000Y29860000D03*
D11*
X59750000Y27460000D03*
D10*
X61447056Y25762944D03*
X58052944Y25762944D03*
X58052944Y29157056D03*
X57350000Y27460000D03*
X61447056Y29157056D03*
X59750000Y25060000D03*
G04 #@! TD*
D12*
G04 #@! TO.C,J6*
X68500000Y16000000D03*
D13*
X68500000Y7800000D03*
X73500000Y16000000D03*
X73500000Y7800000D03*
G04 #@! TD*
D12*
G04 #@! TO.C,J4*
X101500000Y74000000D03*
D13*
X101500000Y82200000D03*
X96500000Y74000000D03*
X96500000Y82200000D03*
G04 #@! TD*
D12*
G04 #@! TO.C,J3*
X76500000Y74000000D03*
D13*
X76500000Y82200000D03*
X71500000Y74000000D03*
X71500000Y82200000D03*
G04 #@! TD*
D14*
G04 #@! TO.C,JCNTL1*
X106200000Y51400000D03*
D15*
X108740000Y51400000D03*
X106200000Y48860000D03*
X108740000Y48860000D03*
X106200000Y46320000D03*
X108740000Y46320000D03*
X106200000Y43780000D03*
X108740000Y43780000D03*
X106200000Y41240000D03*
X108740000Y41240000D03*
X106200000Y38700000D03*
X108740000Y38700000D03*
G04 #@! TD*
D10*
G04 #@! TO.C,HQ6*
X83052944Y25762944D03*
X86447056Y29157056D03*
X82350000Y27460000D03*
D11*
X84750000Y27460000D03*
D10*
X84750000Y29860000D03*
X84750000Y25060000D03*
X87150000Y27460000D03*
X86447056Y25762944D03*
X83052944Y29157056D03*
G04 #@! TD*
G04 #@! TO.C,HQ8*
X36447056Y29157056D03*
X36447056Y25762944D03*
X34750000Y25060000D03*
D11*
X34750000Y27460000D03*
D10*
X32350000Y27460000D03*
X33052944Y25762944D03*
X37150000Y27460000D03*
X33052944Y29157056D03*
X34750000Y29860000D03*
G04 #@! TD*
D12*
G04 #@! TO.C,J8*
X18500000Y16000000D03*
D13*
X18500000Y7800000D03*
X23500000Y16000000D03*
X23500000Y7800000D03*
G04 #@! TD*
D16*
G04 #@! TO.C,JPWR1*
X10600000Y51750000D03*
X10600000Y38250000D03*
D17*
X16600000Y41400000D03*
D18*
X16600000Y48600000D03*
G04 #@! TD*
D10*
G04 #@! TO.C,HC1*
X58302944Y43302944D03*
X61697056Y43302944D03*
X58302944Y46697056D03*
D11*
X60000000Y45000000D03*
D10*
X60000000Y42600000D03*
X62400000Y45000000D03*
X57600000Y45000000D03*
X60000000Y47400000D03*
X61697056Y46697056D03*
G04 #@! TD*
D12*
G04 #@! TO.C,J7*
X43500000Y16000000D03*
D13*
X43500000Y7800000D03*
X48500000Y16000000D03*
X48500000Y7800000D03*
G04 #@! TD*
D12*
G04 #@! TO.C,J5*
X93500000Y16000000D03*
D13*
X93500000Y7800000D03*
X98500000Y16000000D03*
X98500000Y7800000D03*
G04 #@! TD*
D11*
G04 #@! TO.C,HQ5*
X109750000Y27460000D03*
D10*
X108052944Y25762944D03*
X112150000Y27460000D03*
X107350000Y27460000D03*
X111447056Y29157056D03*
X109750000Y25060000D03*
X111447056Y25762944D03*
X108052944Y29157056D03*
X109750000Y29860000D03*
G04 #@! TD*
G04 #@! TO.C,HQ4*
X83552944Y60842944D03*
X85250000Y64940000D03*
D11*
X85250000Y62540000D03*
D10*
X87650000Y62540000D03*
X86947056Y60842944D03*
X83552944Y64237056D03*
X85250000Y60140000D03*
X86947056Y64237056D03*
X82850000Y62540000D03*
G04 #@! TD*
G04 #@! TO.C,HQ3*
X60250000Y64940000D03*
X58552944Y60842944D03*
X61947056Y60842944D03*
X58552944Y64237056D03*
D11*
X60250000Y62540000D03*
D10*
X57850000Y62540000D03*
X62650000Y62540000D03*
X61947056Y64237056D03*
X60250000Y60140000D03*
G04 #@! TD*
D19*
G04 #@! TO.C,Q5*
X93500000Y30000000D03*
D20*
X93500000Y27460000D03*
X93500000Y24920000D03*
G04 #@! TD*
D19*
G04 #@! TO.C,Q4*
X101500000Y60000000D03*
D20*
X101500000Y62500000D03*
X101500000Y65080000D03*
G04 #@! TD*
D19*
G04 #@! TO.C,Q1*
X26500000Y60000000D03*
D20*
X26500000Y62540000D03*
X26500000Y65080000D03*
G04 #@! TD*
D19*
G04 #@! TO.C,Q8*
X18500000Y30000000D03*
D20*
X18500000Y27460000D03*
X18500000Y24920000D03*
G04 #@! TD*
D19*
G04 #@! TO.C,Q2*
X51500000Y60000000D03*
D20*
X51500000Y62540000D03*
X51500000Y65080000D03*
G04 #@! TD*
D19*
G04 #@! TO.C,Q3*
X76500000Y60000000D03*
D20*
X76500000Y62540000D03*
X76500000Y65080000D03*
G04 #@! TD*
D19*
G04 #@! TO.C,Q6*
X68500000Y30000000D03*
D20*
X68500000Y27460000D03*
X68500000Y24920000D03*
G04 #@! TD*
D19*
G04 #@! TO.C,Q7*
X43500000Y30000000D03*
D20*
X43500000Y27460000D03*
X43500000Y24920000D03*
G04 #@! TD*
M02*
