%FSLAX45Y45*%
G04 Gerber Fmt 4.5, Leading zero omitted, Abs format (unit mm)*
G04 Created by KiCad (PCBNEW (6.0.5)) date 2022-07-13 14:16:42*
%MOMM*%
%LPD*%
G01*
G04 APERTURE LIST*
%TA.AperFunction,Profile*%
%ADD10C,0.001000*%
%TD*%
%ADD11C,0.200000*%
%ADD12C,0.040000*%
%ADD13C,0.050000*%
%ADD14C,0.100000*%
%ADD15C,0.128000*%
%ADD16C,0.130000*%
%ADD17C,0.270000*%
%ADD18C,0.320000*%
G04 APERTURE END LIST*
D10*
X0Y9000000D02*
X12000000Y9000000D01*
X12000000Y9000000D02*
X12000000Y0D01*
X12000000Y0D02*
X0Y0D01*
X0Y0D02*
X0Y9000000D01*
D11*
D12*
X110000Y5690000D02*
X150000Y5650000D01*
X150000Y5690000D02*
X110000Y5650000D01*
X180000Y5865000D02*
X220000Y5825000D01*
X220000Y5865000D02*
X180000Y5825000D01*
X180000Y5515000D02*
X220000Y5475000D01*
X220000Y5515000D02*
X180000Y5475000D01*
X360000Y3355000D02*
X400000Y3315000D01*
X400000Y3355000D02*
X360000Y3315000D01*
X430000Y3530000D02*
X470000Y3490000D01*
X470000Y3530000D02*
X430000Y3490000D01*
X430000Y3180000D02*
X470000Y3140000D01*
X470000Y3180000D02*
X430000Y3140000D01*
X515000Y7620000D02*
X555000Y7580000D01*
X555000Y7620000D02*
X515000Y7580000D01*
X830000Y5865000D02*
X870000Y5825000D01*
X870000Y5865000D02*
X830000Y5825000D01*
X830000Y5515000D02*
X870000Y5475000D01*
X870000Y5515000D02*
X830000Y5475000D01*
X900000Y5690000D02*
X940000Y5650000D01*
X940000Y5690000D02*
X900000Y5650000D01*
X1005000Y2160000D02*
X1045000Y2120000D01*
X1045000Y2160000D02*
X1005000Y2120000D01*
X1080000Y3530000D02*
X1120000Y3490000D01*
X1120000Y3530000D02*
X1080000Y3490000D01*
X1080000Y3180000D02*
X1120000Y3140000D01*
X1120000Y3180000D02*
X1080000Y3140000D01*
X1150000Y3355000D02*
X1190000Y3315000D01*
X1190000Y3355000D02*
X1150000Y3315000D01*
X1180000Y2230000D02*
X1220000Y2190000D01*
X1220000Y2230000D02*
X1180000Y2190000D01*
X1220000Y8670000D02*
X1260000Y8630000D01*
X1260000Y8670000D02*
X1220000Y8630000D01*
X1240000Y5280000D02*
X1280000Y5240000D01*
X1280000Y5280000D02*
X1240000Y5240000D01*
X1240000Y5080000D02*
X1280000Y5040000D01*
X1280000Y5080000D02*
X1240000Y5040000D01*
X1240000Y4880000D02*
X1280000Y4840000D01*
X1280000Y4880000D02*
X1240000Y4840000D01*
X1240000Y4680000D02*
X1280000Y4640000D01*
X1280000Y4680000D02*
X1240000Y4640000D01*
X1240000Y4360000D02*
X1280000Y4320000D01*
X1280000Y4360000D02*
X1240000Y4320000D01*
X1240000Y4160000D02*
X1280000Y4120000D01*
X1280000Y4160000D02*
X1240000Y4120000D01*
X1240000Y3960000D02*
X1280000Y3920000D01*
X1280000Y3960000D02*
X1240000Y3920000D01*
X1240000Y3760000D02*
X1280000Y3720000D01*
X1280000Y3760000D02*
X1240000Y3720000D01*
X1340000Y5180000D02*
X1380000Y5140000D01*
X1380000Y5180000D02*
X1340000Y5140000D01*
X1340000Y4980000D02*
X1380000Y4940000D01*
X1380000Y4980000D02*
X1340000Y4940000D01*
X1340000Y4780000D02*
X1380000Y4740000D01*
X1380000Y4780000D02*
X1340000Y4740000D01*
X1340000Y4580000D02*
X1380000Y4540000D01*
X1380000Y4580000D02*
X1340000Y4540000D01*
X1340000Y4460000D02*
X1380000Y4420000D01*
X1380000Y4460000D02*
X1340000Y4420000D01*
X1340000Y4260000D02*
X1380000Y4220000D01*
X1380000Y4260000D02*
X1340000Y4220000D01*
X1340000Y4060000D02*
X1380000Y4020000D01*
X1380000Y4060000D02*
X1340000Y4020000D01*
X1340000Y3860000D02*
X1380000Y3820000D01*
X1380000Y3860000D02*
X1340000Y3820000D01*
X1355000Y2160000D02*
X1395000Y2120000D01*
X1395000Y2160000D02*
X1355000Y2120000D01*
X1440000Y5280000D02*
X1480000Y5240000D01*
X1480000Y5280000D02*
X1440000Y5240000D01*
X1440000Y5080000D02*
X1480000Y5040000D01*
X1480000Y5080000D02*
X1440000Y5040000D01*
X1440000Y4680000D02*
X1480000Y4640000D01*
X1480000Y4680000D02*
X1440000Y4640000D01*
X1440000Y3760000D02*
X1480000Y3720000D01*
X1480000Y3760000D02*
X1440000Y3720000D01*
X1520000Y3420000D02*
X1560000Y3380000D01*
X1560000Y3420000D02*
X1520000Y3380000D01*
X1540000Y5180000D02*
X1580000Y5140000D01*
X1580000Y5180000D02*
X1540000Y5140000D01*
X1540000Y4580000D02*
X1580000Y4540000D01*
X1580000Y4580000D02*
X1540000Y4540000D01*
X1540000Y4460000D02*
X1580000Y4420000D01*
X1580000Y4460000D02*
X1540000Y4420000D01*
X1540000Y3860000D02*
X1580000Y3820000D01*
X1580000Y3860000D02*
X1540000Y3820000D01*
X1640000Y5280000D02*
X1680000Y5240000D01*
X1680000Y5280000D02*
X1640000Y5240000D01*
X1640000Y3760000D02*
X1680000Y3720000D01*
X1680000Y3760000D02*
X1640000Y3720000D01*
X1700000Y2865000D02*
X1740000Y2825000D01*
X1740000Y2865000D02*
X1700000Y2825000D01*
X1700000Y2665000D02*
X1740000Y2625000D01*
X1740000Y2665000D02*
X1700000Y2625000D01*
X1740000Y5180000D02*
X1780000Y5140000D01*
X1780000Y5180000D02*
X1740000Y5140000D01*
X1740000Y4580000D02*
X1780000Y4540000D01*
X1780000Y4580000D02*
X1740000Y4540000D01*
X1740000Y4460000D02*
X1780000Y4420000D01*
X1780000Y4460000D02*
X1740000Y4420000D01*
X1740000Y3860000D02*
X1780000Y3820000D01*
X1780000Y3860000D02*
X1740000Y3820000D01*
X1830000Y2270000D02*
X1870000Y2230000D01*
X1870000Y2270000D02*
X1830000Y2230000D01*
X1830000Y2070000D02*
X1870000Y2030000D01*
X1870000Y2070000D02*
X1830000Y2030000D01*
X1830000Y1870000D02*
X1870000Y1830000D01*
X1870000Y1870000D02*
X1830000Y1830000D01*
X1830000Y1410000D02*
X1870000Y1370000D01*
X1870000Y1410000D02*
X1830000Y1370000D01*
X1830000Y1205000D02*
X1870000Y1165000D01*
X1870000Y1205000D02*
X1830000Y1165000D01*
X1830000Y1010000D02*
X1870000Y970000D01*
X1870000Y1010000D02*
X1830000Y970000D01*
X1840000Y5280000D02*
X1880000Y5240000D01*
X1880000Y5280000D02*
X1840000Y5240000D01*
X1840000Y5080000D02*
X1880000Y5040000D01*
X1880000Y5080000D02*
X1840000Y5040000D01*
X1840000Y4680000D02*
X1880000Y4640000D01*
X1880000Y4680000D02*
X1840000Y4640000D01*
X1840000Y3760000D02*
X1880000Y3720000D01*
X1880000Y3760000D02*
X1840000Y3720000D01*
X1940000Y5180000D02*
X1980000Y5140000D01*
X1980000Y5180000D02*
X1940000Y5140000D01*
X1940000Y4980000D02*
X1980000Y4940000D01*
X1980000Y4980000D02*
X1940000Y4940000D01*
X1940000Y4780000D02*
X1980000Y4740000D01*
X1980000Y4780000D02*
X1940000Y4740000D01*
X1940000Y4580000D02*
X1980000Y4540000D01*
X1980000Y4580000D02*
X1940000Y4540000D01*
X1940000Y4460000D02*
X1980000Y4420000D01*
X1980000Y4460000D02*
X1940000Y4420000D01*
X1940000Y4260000D02*
X1980000Y4220000D01*
X1980000Y4260000D02*
X1940000Y4220000D01*
X1940000Y4060000D02*
X1980000Y4020000D01*
X1980000Y4060000D02*
X1940000Y4020000D01*
X1940000Y3860000D02*
X1980000Y3820000D01*
X1980000Y3860000D02*
X1940000Y3820000D01*
X1960000Y2865000D02*
X2000000Y2825000D01*
X2000000Y2865000D02*
X1960000Y2825000D01*
X1960000Y2665000D02*
X2000000Y2625000D01*
X2000000Y2665000D02*
X1960000Y2625000D01*
X2040000Y5280000D02*
X2080000Y5240000D01*
X2080000Y5280000D02*
X2040000Y5240000D01*
X2040000Y5080000D02*
X2080000Y5040000D01*
X2080000Y5080000D02*
X2040000Y5040000D01*
X2040000Y4880000D02*
X2080000Y4840000D01*
X2080000Y4880000D02*
X2040000Y4840000D01*
X2040000Y4680000D02*
X2080000Y4640000D01*
X2080000Y4680000D02*
X2040000Y4640000D01*
X2040000Y4360000D02*
X2080000Y4320000D01*
X2080000Y4360000D02*
X2040000Y4320000D01*
X2040000Y4160000D02*
X2080000Y4120000D01*
X2080000Y4160000D02*
X2040000Y4120000D01*
X2040000Y3960000D02*
X2080000Y3920000D01*
X2080000Y3960000D02*
X2040000Y3920000D01*
X2040000Y3760000D02*
X2080000Y3720000D01*
X2080000Y3760000D02*
X2040000Y3720000D01*
X2080000Y1620000D02*
X2120000Y1580000D01*
X2120000Y1620000D02*
X2080000Y1580000D01*
X2320000Y5620000D02*
X2360000Y5580000D01*
X2360000Y5620000D02*
X2320000Y5580000D01*
X2380000Y7420000D02*
X2420000Y7380000D01*
X2420000Y7420000D02*
X2380000Y7380000D01*
X2500000Y6370000D02*
X2540000Y6330000D01*
X2540000Y6370000D02*
X2500000Y6330000D01*
X2500000Y6170000D02*
X2540000Y6130000D01*
X2540000Y6170000D02*
X2500000Y6130000D01*
X2630000Y8030000D02*
X2670000Y7990000D01*
X2670000Y8030000D02*
X2630000Y7990000D01*
X2630000Y7835000D02*
X2670000Y7795000D01*
X2670000Y7835000D02*
X2630000Y7795000D01*
X2630000Y7630000D02*
X2670000Y7590000D01*
X2670000Y7630000D02*
X2630000Y7590000D01*
X2630000Y7170000D02*
X2670000Y7130000D01*
X2670000Y7170000D02*
X2630000Y7130000D01*
X2630000Y6970000D02*
X2670000Y6930000D01*
X2670000Y6970000D02*
X2630000Y6930000D01*
X2630000Y6770000D02*
X2670000Y6730000D01*
X2670000Y6770000D02*
X2630000Y6730000D01*
X2760000Y6370000D02*
X2800000Y6330000D01*
X2800000Y6370000D02*
X2760000Y6330000D01*
X2760000Y6170000D02*
X2800000Y6130000D01*
X2800000Y6170000D02*
X2760000Y6130000D01*
X3105000Y6880000D02*
X3145000Y6840000D01*
X3145000Y6880000D02*
X3105000Y6840000D01*
X3240000Y340000D02*
X3280000Y300000D01*
X3280000Y340000D02*
X3240000Y300000D01*
X3280000Y6810000D02*
X3320000Y6770000D01*
X3320000Y6810000D02*
X3280000Y6770000D01*
X3455000Y6880000D02*
X3495000Y6840000D01*
X3495000Y6880000D02*
X3455000Y6840000D01*
X3505000Y2160000D02*
X3545000Y2120000D01*
X3545000Y2160000D02*
X3505000Y2120000D01*
X3680000Y2230000D02*
X3720000Y2190000D01*
X3720000Y2230000D02*
X3680000Y2190000D01*
X3720000Y8670000D02*
X3760000Y8630000D01*
X3760000Y8670000D02*
X3720000Y8630000D01*
X3855000Y2160000D02*
X3895000Y2120000D01*
X3895000Y2160000D02*
X3855000Y2120000D01*
X3880000Y5340000D02*
X3920000Y5300000D01*
X3920000Y5340000D02*
X3880000Y5300000D01*
X3880000Y3695000D02*
X3920000Y3655000D01*
X3920000Y3695000D02*
X3880000Y3655000D01*
X4020000Y3420000D02*
X4060000Y3380000D01*
X4060000Y3420000D02*
X4020000Y3380000D01*
X4180000Y5340000D02*
X4220000Y5300000D01*
X4220000Y5340000D02*
X4180000Y5300000D01*
X4180000Y3695000D02*
X4220000Y3655000D01*
X4220000Y3695000D02*
X4180000Y3655000D01*
X4200000Y2865000D02*
X4240000Y2825000D01*
X4240000Y2865000D02*
X4200000Y2825000D01*
X4200000Y2665000D02*
X4240000Y2625000D01*
X4240000Y2665000D02*
X4200000Y2625000D01*
X4330000Y2270000D02*
X4370000Y2230000D01*
X4370000Y2270000D02*
X4330000Y2230000D01*
X4330000Y2070000D02*
X4370000Y2030000D01*
X4370000Y2070000D02*
X4330000Y2030000D01*
X4330000Y1870000D02*
X4370000Y1830000D01*
X4370000Y1870000D02*
X4330000Y1830000D01*
X4330000Y1410000D02*
X4370000Y1370000D01*
X4370000Y1410000D02*
X4330000Y1370000D01*
X4330000Y1205000D02*
X4370000Y1165000D01*
X4370000Y1205000D02*
X4330000Y1165000D01*
X4330000Y1010000D02*
X4370000Y970000D01*
X4370000Y1010000D02*
X4330000Y970000D01*
X4460000Y2865000D02*
X4500000Y2825000D01*
X4500000Y2865000D02*
X4460000Y2825000D01*
X4460000Y2665000D02*
X4500000Y2625000D01*
X4500000Y2665000D02*
X4460000Y2625000D01*
X4480000Y5340000D02*
X4520000Y5300000D01*
X4520000Y5340000D02*
X4480000Y5300000D01*
X4480000Y3695000D02*
X4520000Y3655000D01*
X4520000Y3695000D02*
X4480000Y3655000D01*
X4580000Y1620000D02*
X4620000Y1580000D01*
X4620000Y1620000D02*
X4580000Y1580000D01*
X4780000Y5340000D02*
X4820000Y5300000D01*
X4820000Y5340000D02*
X4780000Y5300000D01*
X4780000Y3695000D02*
X4820000Y3655000D01*
X4820000Y3695000D02*
X4780000Y3655000D01*
X4820000Y5620000D02*
X4860000Y5580000D01*
X4860000Y5620000D02*
X4820000Y5580000D01*
X4880000Y7420000D02*
X4920000Y7380000D01*
X4920000Y7420000D02*
X4880000Y7380000D01*
X5000000Y6370000D02*
X5040000Y6330000D01*
X5040000Y6370000D02*
X5000000Y6330000D01*
X5000000Y6170000D02*
X5040000Y6130000D01*
X5040000Y6170000D02*
X5000000Y6130000D01*
X5080000Y5340000D02*
X5120000Y5300000D01*
X5120000Y5340000D02*
X5080000Y5300000D01*
X5080000Y3695000D02*
X5120000Y3655000D01*
X5120000Y3695000D02*
X5080000Y3655000D01*
X5130000Y8030000D02*
X5170000Y7990000D01*
X5170000Y8030000D02*
X5130000Y7990000D01*
X5130000Y7835000D02*
X5170000Y7795000D01*
X5170000Y7835000D02*
X5130000Y7795000D01*
X5130000Y7630000D02*
X5170000Y7590000D01*
X5170000Y7630000D02*
X5130000Y7590000D01*
X5130000Y7170000D02*
X5170000Y7130000D01*
X5170000Y7170000D02*
X5130000Y7130000D01*
X5130000Y6970000D02*
X5170000Y6930000D01*
X5170000Y6970000D02*
X5130000Y6930000D01*
X5130000Y6770000D02*
X5170000Y6730000D01*
X5170000Y6770000D02*
X5130000Y6730000D01*
X5260000Y6370000D02*
X5300000Y6330000D01*
X5300000Y6370000D02*
X5260000Y6330000D01*
X5260000Y6170000D02*
X5300000Y6130000D01*
X5300000Y6170000D02*
X5260000Y6130000D01*
X5380000Y5340000D02*
X5420000Y5300000D01*
X5420000Y5340000D02*
X5380000Y5300000D01*
X5380000Y3695000D02*
X5420000Y3655000D01*
X5420000Y3695000D02*
X5380000Y3655000D01*
X5605000Y6880000D02*
X5645000Y6840000D01*
X5645000Y6880000D02*
X5605000Y6840000D01*
X5680000Y5340000D02*
X5720000Y5300000D01*
X5720000Y5340000D02*
X5680000Y5300000D01*
X5680000Y3695000D02*
X5720000Y3655000D01*
X5720000Y3695000D02*
X5680000Y3655000D01*
X5740000Y340000D02*
X5780000Y300000D01*
X5780000Y340000D02*
X5740000Y300000D01*
X5780000Y6810000D02*
X5820000Y6770000D01*
X5820000Y6810000D02*
X5780000Y6770000D01*
X5955000Y6880000D02*
X5995000Y6840000D01*
X5995000Y6880000D02*
X5955000Y6840000D01*
X5980000Y5340000D02*
X6020000Y5300000D01*
X6020000Y5340000D02*
X5980000Y5300000D01*
X5980000Y3695000D02*
X6020000Y3655000D01*
X6020000Y3695000D02*
X5980000Y3655000D01*
X6005000Y2160000D02*
X6045000Y2120000D01*
X6045000Y2160000D02*
X6005000Y2120000D01*
X6180000Y2230000D02*
X6220000Y2190000D01*
X6220000Y2230000D02*
X6180000Y2190000D01*
X6220000Y8670000D02*
X6260000Y8630000D01*
X6260000Y8670000D02*
X6220000Y8630000D01*
X6280000Y5340000D02*
X6320000Y5300000D01*
X6320000Y5340000D02*
X6280000Y5300000D01*
X6280000Y3695000D02*
X6320000Y3655000D01*
X6320000Y3695000D02*
X6280000Y3655000D01*
X6355000Y2160000D02*
X6395000Y2120000D01*
X6395000Y2160000D02*
X6355000Y2120000D01*
X6520000Y3420000D02*
X6560000Y3380000D01*
X6560000Y3420000D02*
X6520000Y3380000D01*
X6580000Y5340000D02*
X6620000Y5300000D01*
X6620000Y5340000D02*
X6580000Y5300000D01*
X6580000Y3695000D02*
X6620000Y3655000D01*
X6620000Y3695000D02*
X6580000Y3655000D01*
X6700000Y2865000D02*
X6740000Y2825000D01*
X6740000Y2865000D02*
X6700000Y2825000D01*
X6700000Y2665000D02*
X6740000Y2625000D01*
X6740000Y2665000D02*
X6700000Y2625000D01*
X6830000Y2270000D02*
X6870000Y2230000D01*
X6870000Y2270000D02*
X6830000Y2230000D01*
X6830000Y2070000D02*
X6870000Y2030000D01*
X6870000Y2070000D02*
X6830000Y2030000D01*
X6830000Y1870000D02*
X6870000Y1830000D01*
X6870000Y1870000D02*
X6830000Y1830000D01*
X6830000Y1410000D02*
X6870000Y1370000D01*
X6870000Y1410000D02*
X6830000Y1370000D01*
X6830000Y1205000D02*
X6870000Y1165000D01*
X6870000Y1205000D02*
X6830000Y1165000D01*
X6830000Y1010000D02*
X6870000Y970000D01*
X6870000Y1010000D02*
X6830000Y970000D01*
X6880000Y5340000D02*
X6920000Y5300000D01*
X6920000Y5340000D02*
X6880000Y5300000D01*
X6880000Y3695000D02*
X6920000Y3655000D01*
X6920000Y3695000D02*
X6880000Y3655000D01*
X6960000Y2865000D02*
X7000000Y2825000D01*
X7000000Y2865000D02*
X6960000Y2825000D01*
X6960000Y2665000D02*
X7000000Y2625000D01*
X7000000Y2665000D02*
X6960000Y2625000D01*
X7080000Y1620000D02*
X7120000Y1580000D01*
X7120000Y1620000D02*
X7080000Y1580000D01*
X7180000Y5340000D02*
X7220000Y5300000D01*
X7220000Y5340000D02*
X7180000Y5300000D01*
X7180000Y3695000D02*
X7220000Y3655000D01*
X7220000Y3695000D02*
X7180000Y3655000D01*
X7320000Y5620000D02*
X7360000Y5580000D01*
X7360000Y5620000D02*
X7320000Y5580000D01*
X7380000Y7420000D02*
X7420000Y7380000D01*
X7420000Y7420000D02*
X7380000Y7380000D01*
X7480000Y5340000D02*
X7520000Y5300000D01*
X7520000Y5340000D02*
X7480000Y5300000D01*
X7480000Y3695000D02*
X7520000Y3655000D01*
X7520000Y3695000D02*
X7480000Y3655000D01*
X7500000Y6370000D02*
X7540000Y6330000D01*
X7540000Y6370000D02*
X7500000Y6330000D01*
X7500000Y6170000D02*
X7540000Y6130000D01*
X7540000Y6170000D02*
X7500000Y6130000D01*
X7630000Y8030000D02*
X7670000Y7990000D01*
X7670000Y8030000D02*
X7630000Y7990000D01*
X7630000Y7835000D02*
X7670000Y7795000D01*
X7670000Y7835000D02*
X7630000Y7795000D01*
X7630000Y7630000D02*
X7670000Y7590000D01*
X7670000Y7630000D02*
X7630000Y7590000D01*
X7630000Y7170000D02*
X7670000Y7130000D01*
X7670000Y7170000D02*
X7630000Y7130000D01*
X7630000Y6970000D02*
X7670000Y6930000D01*
X7670000Y6970000D02*
X7630000Y6930000D01*
X7630000Y6770000D02*
X7670000Y6730000D01*
X7670000Y6770000D02*
X7630000Y6730000D01*
X7760000Y6370000D02*
X7800000Y6330000D01*
X7800000Y6370000D02*
X7760000Y6330000D01*
X7760000Y6170000D02*
X7800000Y6130000D01*
X7800000Y6170000D02*
X7760000Y6130000D01*
X7780000Y5340000D02*
X7820000Y5300000D01*
X7820000Y5340000D02*
X7780000Y5300000D01*
X7780000Y3695000D02*
X7820000Y3655000D01*
X7820000Y3695000D02*
X7780000Y3655000D01*
X8080000Y5340000D02*
X8120000Y5300000D01*
X8120000Y5340000D02*
X8080000Y5300000D01*
X8080000Y3695000D02*
X8120000Y3655000D01*
X8120000Y3695000D02*
X8080000Y3655000D01*
X8105000Y6880000D02*
X8145000Y6840000D01*
X8145000Y6880000D02*
X8105000Y6840000D01*
X8240000Y340000D02*
X8280000Y300000D01*
X8280000Y340000D02*
X8240000Y300000D01*
X8280000Y6810000D02*
X8320000Y6770000D01*
X8320000Y6810000D02*
X8280000Y6770000D01*
X8380000Y5340000D02*
X8420000Y5300000D01*
X8420000Y5340000D02*
X8380000Y5300000D01*
X8380000Y3695000D02*
X8420000Y3655000D01*
X8420000Y3695000D02*
X8380000Y3655000D01*
X8455000Y6880000D02*
X8495000Y6840000D01*
X8495000Y6880000D02*
X8455000Y6840000D01*
X8505000Y2160000D02*
X8545000Y2120000D01*
X8545000Y2160000D02*
X8505000Y2120000D01*
X8680000Y5340000D02*
X8720000Y5300000D01*
X8720000Y5340000D02*
X8680000Y5300000D01*
X8680000Y3695000D02*
X8720000Y3655000D01*
X8720000Y3695000D02*
X8680000Y3655000D01*
X8680000Y2230000D02*
X8720000Y2190000D01*
X8720000Y2230000D02*
X8680000Y2190000D01*
X8720000Y8670000D02*
X8760000Y8630000D01*
X8760000Y8670000D02*
X8720000Y8630000D01*
X8855000Y2160000D02*
X8895000Y2120000D01*
X8895000Y2160000D02*
X8855000Y2120000D01*
X8980000Y5340000D02*
X9020000Y5300000D01*
X9020000Y5340000D02*
X8980000Y5300000D01*
X8980000Y3695000D02*
X9020000Y3655000D01*
X9020000Y3695000D02*
X8980000Y3655000D01*
X9020000Y3420000D02*
X9060000Y3380000D01*
X9060000Y3420000D02*
X9020000Y3380000D01*
X9200000Y2865000D02*
X9240000Y2825000D01*
X9240000Y2865000D02*
X9200000Y2825000D01*
X9200000Y2665000D02*
X9240000Y2625000D01*
X9240000Y2665000D02*
X9200000Y2625000D01*
X9280000Y5340000D02*
X9320000Y5300000D01*
X9320000Y5340000D02*
X9280000Y5300000D01*
X9280000Y3695000D02*
X9320000Y3655000D01*
X9320000Y3695000D02*
X9280000Y3655000D01*
X9330000Y2270000D02*
X9370000Y2230000D01*
X9370000Y2270000D02*
X9330000Y2230000D01*
X9330000Y2070000D02*
X9370000Y2030000D01*
X9370000Y2070000D02*
X9330000Y2030000D01*
X9330000Y1870000D02*
X9370000Y1830000D01*
X9370000Y1870000D02*
X9330000Y1830000D01*
X9330000Y1410000D02*
X9370000Y1370000D01*
X9370000Y1410000D02*
X9330000Y1370000D01*
X9330000Y1205000D02*
X9370000Y1165000D01*
X9370000Y1205000D02*
X9330000Y1165000D01*
X9330000Y1010000D02*
X9370000Y970000D01*
X9370000Y1010000D02*
X9330000Y970000D01*
X9460000Y2865000D02*
X9500000Y2825000D01*
X9500000Y2865000D02*
X9460000Y2825000D01*
X9460000Y2665000D02*
X9500000Y2625000D01*
X9500000Y2665000D02*
X9460000Y2625000D01*
X9580000Y5340000D02*
X9620000Y5300000D01*
X9620000Y5340000D02*
X9580000Y5300000D01*
X9580000Y3695000D02*
X9620000Y3655000D01*
X9620000Y3695000D02*
X9580000Y3655000D01*
X9580000Y1620000D02*
X9620000Y1580000D01*
X9620000Y1620000D02*
X9580000Y1580000D01*
X9820000Y5620000D02*
X9860000Y5580000D01*
X9860000Y5620000D02*
X9820000Y5580000D01*
X9880000Y7420000D02*
X9920000Y7380000D01*
X9920000Y7420000D02*
X9880000Y7380000D01*
X10000000Y6370000D02*
X10040000Y6330000D01*
X10040000Y6370000D02*
X10000000Y6330000D01*
X10000000Y6170000D02*
X10040000Y6130000D01*
X10040000Y6170000D02*
X10000000Y6130000D01*
X10130000Y8030000D02*
X10170000Y7990000D01*
X10170000Y8030000D02*
X10130000Y7990000D01*
X10130000Y7835000D02*
X10170000Y7795000D01*
X10170000Y7835000D02*
X10130000Y7795000D01*
X10130000Y7630000D02*
X10170000Y7590000D01*
X10170000Y7630000D02*
X10130000Y7590000D01*
X10130000Y7170000D02*
X10170000Y7130000D01*
X10170000Y7170000D02*
X10130000Y7130000D01*
X10130000Y6970000D02*
X10170000Y6930000D01*
X10170000Y6970000D02*
X10130000Y6930000D01*
X10130000Y6770000D02*
X10170000Y6730000D01*
X10170000Y6770000D02*
X10130000Y6730000D01*
X10260000Y6370000D02*
X10300000Y6330000D01*
X10300000Y6370000D02*
X10260000Y6330000D01*
X10260000Y6170000D02*
X10300000Y6130000D01*
X10300000Y6170000D02*
X10260000Y6130000D01*
X10595000Y5620000D02*
X10635000Y5580000D01*
X10635000Y5620000D02*
X10595000Y5580000D01*
X10605000Y6880000D02*
X10645000Y6840000D01*
X10645000Y6880000D02*
X10605000Y6840000D01*
X10740000Y340000D02*
X10780000Y300000D01*
X10780000Y340000D02*
X10740000Y300000D01*
X10780000Y6810000D02*
X10820000Y6770000D01*
X10820000Y6810000D02*
X10780000Y6770000D01*
X10850000Y5620000D02*
X10890000Y5580000D01*
X10890000Y5620000D02*
X10850000Y5580000D01*
X10955000Y6880000D02*
X10995000Y6840000D01*
X10995000Y6880000D02*
X10955000Y6840000D01*
X11280000Y4720000D02*
X11320000Y4680000D01*
X11320000Y4720000D02*
X11280000Y4680000D01*
X11280000Y4520000D02*
X11320000Y4480000D01*
X11320000Y4520000D02*
X11280000Y4480000D01*
X11280000Y4320000D02*
X11320000Y4280000D01*
X11320000Y4320000D02*
X11280000Y4280000D01*
X11480000Y4720000D02*
X11520000Y4680000D01*
X11520000Y4720000D02*
X11480000Y4680000D01*
X11480000Y4520000D02*
X11520000Y4480000D01*
X11520000Y4520000D02*
X11480000Y4480000D01*
X11480000Y4320000D02*
X11520000Y4280000D01*
X11520000Y4320000D02*
X11480000Y4280000D01*
X11680000Y4720000D02*
X11720000Y4680000D01*
X11720000Y4720000D02*
X11680000Y4680000D01*
X11680000Y4520000D02*
X11720000Y4480000D01*
X11720000Y4520000D02*
X11680000Y4480000D01*
X11680000Y4320000D02*
X11720000Y4280000D01*
X11720000Y4320000D02*
X11680000Y4280000D01*
D13*
X285000Y8500000D02*
G75*
G03*
X285000Y8500000I-25000J0D01*
G01*
X285000Y500000D02*
G75*
G03*
X285000Y500000I-25000J0D01*
G01*
X355294Y8669706D02*
G75*
G03*
X355294Y8669706I-25000J0D01*
G01*
X355294Y8330294D02*
G75*
G03*
X355294Y8330294I-25000J0D01*
G01*
X355294Y669706D02*
G75*
G03*
X355294Y669706I-25000J0D01*
G01*
X355294Y330294D02*
G75*
G03*
X355294Y330294I-25000J0D01*
G01*
X525000Y8740000D02*
G75*
G03*
X525000Y8740000I-25000J0D01*
G01*
X525000Y8260000D02*
G75*
G03*
X525000Y8260000I-25000J0D01*
G01*
X525000Y740000D02*
G75*
G03*
X525000Y740000I-25000J0D01*
G01*
X525000Y260000D02*
G75*
G03*
X525000Y260000I-25000J0D01*
G01*
X694706Y8669706D02*
G75*
G03*
X694706Y8669706I-25000J0D01*
G01*
X694706Y8330294D02*
G75*
G03*
X694706Y8330294I-25000J0D01*
G01*
X694706Y669706D02*
G75*
G03*
X694706Y669706I-25000J0D01*
G01*
X694706Y330294D02*
G75*
G03*
X694706Y330294I-25000J0D01*
G01*
X765000Y8500000D02*
G75*
G03*
X765000Y8500000I-25000J0D01*
G01*
X765000Y500000D02*
G75*
G03*
X765000Y500000I-25000J0D01*
G01*
X810000Y6254000D02*
G75*
G03*
X810000Y6254000I-25000J0D01*
G01*
X880294Y6423706D02*
G75*
G03*
X880294Y6423706I-25000J0D01*
G01*
X880294Y6084294D02*
G75*
G03*
X880294Y6084294I-25000J0D01*
G01*
X1050000Y6494000D02*
G75*
G03*
X1050000Y6494000I-25000J0D01*
G01*
X1050000Y6014000D02*
G75*
G03*
X1050000Y6014000I-25000J0D01*
G01*
X1219706Y6423706D02*
G75*
G03*
X1219706Y6423706I-25000J0D01*
G01*
X1219706Y6084294D02*
G75*
G03*
X1219706Y6084294I-25000J0D01*
G01*
X1290000Y6254000D02*
G75*
G03*
X1290000Y6254000I-25000J0D01*
G01*
X3260000Y2746000D02*
G75*
G03*
X3260000Y2746000I-25000J0D01*
G01*
X3310000Y6254000D02*
G75*
G03*
X3310000Y6254000I-25000J0D01*
G01*
X3330294Y2915706D02*
G75*
G03*
X3330294Y2915706I-25000J0D01*
G01*
X3330294Y2576294D02*
G75*
G03*
X3330294Y2576294I-25000J0D01*
G01*
X3380294Y6423706D02*
G75*
G03*
X3380294Y6423706I-25000J0D01*
G01*
X3380294Y6084294D02*
G75*
G03*
X3380294Y6084294I-25000J0D01*
G01*
X3500000Y2986000D02*
G75*
G03*
X3500000Y2986000I-25000J0D01*
G01*
X3500000Y2506000D02*
G75*
G03*
X3500000Y2506000I-25000J0D01*
G01*
X3550000Y6494000D02*
G75*
G03*
X3550000Y6494000I-25000J0D01*
G01*
X3550000Y6014000D02*
G75*
G03*
X3550000Y6014000I-25000J0D01*
G01*
X3669706Y2915706D02*
G75*
G03*
X3669706Y2915706I-25000J0D01*
G01*
X3669706Y2576294D02*
G75*
G03*
X3669706Y2576294I-25000J0D01*
G01*
X3719706Y6423706D02*
G75*
G03*
X3719706Y6423706I-25000J0D01*
G01*
X3719706Y6084294D02*
G75*
G03*
X3719706Y6084294I-25000J0D01*
G01*
X3740000Y2746000D02*
G75*
G03*
X3740000Y2746000I-25000J0D01*
G01*
X3790000Y6254000D02*
G75*
G03*
X3790000Y6254000I-25000J0D01*
G01*
X5760000Y2746000D02*
G75*
G03*
X5760000Y2746000I-25000J0D01*
G01*
X5785000Y4500000D02*
G75*
G03*
X5785000Y4500000I-25000J0D01*
G01*
X5810000Y6254000D02*
G75*
G03*
X5810000Y6254000I-25000J0D01*
G01*
X5830294Y2915706D02*
G75*
G03*
X5830294Y2915706I-25000J0D01*
G01*
X5830294Y2576294D02*
G75*
G03*
X5830294Y2576294I-25000J0D01*
G01*
X5855294Y4669706D02*
G75*
G03*
X5855294Y4669706I-25000J0D01*
G01*
X5855294Y4330294D02*
G75*
G03*
X5855294Y4330294I-25000J0D01*
G01*
X5880294Y6423706D02*
G75*
G03*
X5880294Y6423706I-25000J0D01*
G01*
X5880294Y6084294D02*
G75*
G03*
X5880294Y6084294I-25000J0D01*
G01*
X6000000Y2986000D02*
G75*
G03*
X6000000Y2986000I-25000J0D01*
G01*
X6000000Y2506000D02*
G75*
G03*
X6000000Y2506000I-25000J0D01*
G01*
X6025000Y4740000D02*
G75*
G03*
X6025000Y4740000I-25000J0D01*
G01*
X6025000Y4260000D02*
G75*
G03*
X6025000Y4260000I-25000J0D01*
G01*
X6050000Y6494000D02*
G75*
G03*
X6050000Y6494000I-25000J0D01*
G01*
X6050000Y6014000D02*
G75*
G03*
X6050000Y6014000I-25000J0D01*
G01*
X6169706Y2915706D02*
G75*
G03*
X6169706Y2915706I-25000J0D01*
G01*
X6169706Y2576294D02*
G75*
G03*
X6169706Y2576294I-25000J0D01*
G01*
X6194706Y4669706D02*
G75*
G03*
X6194706Y4669706I-25000J0D01*
G01*
X6194706Y4330294D02*
G75*
G03*
X6194706Y4330294I-25000J0D01*
G01*
X6219706Y6423706D02*
G75*
G03*
X6219706Y6423706I-25000J0D01*
G01*
X6219706Y6084294D02*
G75*
G03*
X6219706Y6084294I-25000J0D01*
G01*
X6240000Y2746000D02*
G75*
G03*
X6240000Y2746000I-25000J0D01*
G01*
X6265000Y4500000D02*
G75*
G03*
X6265000Y4500000I-25000J0D01*
G01*
X6290000Y6254000D02*
G75*
G03*
X6290000Y6254000I-25000J0D01*
G01*
X8260000Y2746000D02*
G75*
G03*
X8260000Y2746000I-25000J0D01*
G01*
X8310000Y6254000D02*
G75*
G03*
X8310000Y6254000I-25000J0D01*
G01*
X8330294Y2915706D02*
G75*
G03*
X8330294Y2915706I-25000J0D01*
G01*
X8330294Y2576294D02*
G75*
G03*
X8330294Y2576294I-25000J0D01*
G01*
X8380294Y6423706D02*
G75*
G03*
X8380294Y6423706I-25000J0D01*
G01*
X8380294Y6084294D02*
G75*
G03*
X8380294Y6084294I-25000J0D01*
G01*
X8500000Y2986000D02*
G75*
G03*
X8500000Y2986000I-25000J0D01*
G01*
X8500000Y2506000D02*
G75*
G03*
X8500000Y2506000I-25000J0D01*
G01*
X8550000Y6494000D02*
G75*
G03*
X8550000Y6494000I-25000J0D01*
G01*
X8550000Y6014000D02*
G75*
G03*
X8550000Y6014000I-25000J0D01*
G01*
X8669706Y2915706D02*
G75*
G03*
X8669706Y2915706I-25000J0D01*
G01*
X8669706Y2576294D02*
G75*
G03*
X8669706Y2576294I-25000J0D01*
G01*
X8719706Y6423706D02*
G75*
G03*
X8719706Y6423706I-25000J0D01*
G01*
X8719706Y6084294D02*
G75*
G03*
X8719706Y6084294I-25000J0D01*
G01*
X8740000Y2746000D02*
G75*
G03*
X8740000Y2746000I-25000J0D01*
G01*
X8790000Y6254000D02*
G75*
G03*
X8790000Y6254000I-25000J0D01*
G01*
X10760000Y2746000D02*
G75*
G03*
X10760000Y2746000I-25000J0D01*
G01*
X10830294Y2915706D02*
G75*
G03*
X10830294Y2915706I-25000J0D01*
G01*
X10830294Y2576294D02*
G75*
G03*
X10830294Y2576294I-25000J0D01*
G01*
X11000000Y2986000D02*
G75*
G03*
X11000000Y2986000I-25000J0D01*
G01*
X11000000Y2506000D02*
G75*
G03*
X11000000Y2506000I-25000J0D01*
G01*
X11169706Y2915706D02*
G75*
G03*
X11169706Y2915706I-25000J0D01*
G01*
X11169706Y2576294D02*
G75*
G03*
X11169706Y2576294I-25000J0D01*
G01*
X11240000Y2746000D02*
G75*
G03*
X11240000Y2746000I-25000J0D01*
G01*
X11285000Y8500000D02*
G75*
G03*
X11285000Y8500000I-25000J0D01*
G01*
X11285000Y500000D02*
G75*
G03*
X11285000Y500000I-25000J0D01*
G01*
X11355294Y8669706D02*
G75*
G03*
X11355294Y8669706I-25000J0D01*
G01*
X11355294Y8330294D02*
G75*
G03*
X11355294Y8330294I-25000J0D01*
G01*
X11355294Y669706D02*
G75*
G03*
X11355294Y669706I-25000J0D01*
G01*
X11355294Y330294D02*
G75*
G03*
X11355294Y330294I-25000J0D01*
G01*
X11525000Y8740000D02*
G75*
G03*
X11525000Y8740000I-25000J0D01*
G01*
X11525000Y8260000D02*
G75*
G03*
X11525000Y8260000I-25000J0D01*
G01*
X11525000Y740000D02*
G75*
G03*
X11525000Y740000I-25000J0D01*
G01*
X11525000Y260000D02*
G75*
G03*
X11525000Y260000I-25000J0D01*
G01*
X11694706Y8669706D02*
G75*
G03*
X11694706Y8669706I-25000J0D01*
G01*
X11694706Y8330294D02*
G75*
G03*
X11694706Y8330294I-25000J0D01*
G01*
X11694706Y669706D02*
G75*
G03*
X11694706Y669706I-25000J0D01*
G01*
X11694706Y330294D02*
G75*
G03*
X11694706Y330294I-25000J0D01*
G01*
X11765000Y8500000D02*
G75*
G03*
X11765000Y8500000I-25000J0D01*
G01*
X11765000Y500000D02*
G75*
G03*
X11765000Y500000I-25000J0D01*
G01*
D14*
X10620000Y5190000D02*
X10620000Y5090000D01*
X10570000Y5140000D02*
X10670000Y5140000D01*
X10620000Y4936000D02*
X10620000Y4836000D01*
X10570000Y4886000D02*
X10670000Y4886000D01*
X10620000Y4682000D02*
X10620000Y4582000D01*
X10570000Y4632000D02*
X10670000Y4632000D01*
X10620000Y4428000D02*
X10620000Y4328000D01*
X10570000Y4378000D02*
X10670000Y4378000D01*
X10620000Y4174000D02*
X10620000Y4074000D01*
X10570000Y4124000D02*
X10670000Y4124000D01*
X10620000Y3920000D02*
X10620000Y3820000D01*
X10570000Y3870000D02*
X10670000Y3870000D01*
X10874000Y5190000D02*
X10874000Y5090000D01*
X10824000Y5140000D02*
X10924000Y5140000D01*
X10874000Y4936000D02*
X10874000Y4836000D01*
X10824000Y4886000D02*
X10924000Y4886000D01*
X10874000Y4682000D02*
X10874000Y4582000D01*
X10824000Y4632000D02*
X10924000Y4632000D01*
X10874000Y4428000D02*
X10874000Y4328000D01*
X10824000Y4378000D02*
X10924000Y4378000D01*
X10874000Y4174000D02*
X10874000Y4074000D01*
X10824000Y4124000D02*
X10924000Y4124000D01*
X10874000Y3920000D02*
X10874000Y3820000D01*
X10824000Y3870000D02*
X10924000Y3870000D01*
D15*
X1895255Y2954745D02*
X1895255Y3045255D01*
X1804745Y3045255D01*
X1804745Y2954745D01*
X1895255Y2954745D01*
X1895255Y2700745D02*
X1895255Y2791255D01*
X1804745Y2791255D01*
X1804745Y2700745D01*
X1895255Y2700745D01*
X1895255Y2446745D02*
X1895255Y2537255D01*
X1804745Y2537255D01*
X1804745Y2446745D01*
X1895255Y2446745D01*
X2695255Y6462745D02*
X2695255Y6553255D01*
X2604745Y6553255D01*
X2604745Y6462745D01*
X2695255Y6462745D01*
X2695255Y6208745D02*
X2695255Y6299255D01*
X2604745Y6299255D01*
X2604745Y6208745D01*
X2695255Y6208745D01*
X2695255Y5954745D02*
X2695255Y6045255D01*
X2604745Y6045255D01*
X2604745Y5954745D01*
X2695255Y5954745D01*
X4395255Y2954745D02*
X4395255Y3045255D01*
X4304745Y3045255D01*
X4304745Y2954745D01*
X4395255Y2954745D01*
X4395255Y2700745D02*
X4395255Y2791255D01*
X4304745Y2791255D01*
X4304745Y2700745D01*
X4395255Y2700745D01*
X4395255Y2446745D02*
X4395255Y2537255D01*
X4304745Y2537255D01*
X4304745Y2446745D01*
X4395255Y2446745D01*
X5195255Y6462745D02*
X5195255Y6553255D01*
X5104745Y6553255D01*
X5104745Y6462745D01*
X5195255Y6462745D01*
X5195255Y6208745D02*
X5195255Y6299255D01*
X5104745Y6299255D01*
X5104745Y6208745D01*
X5195255Y6208745D01*
X5195255Y5954745D02*
X5195255Y6045255D01*
X5104745Y6045255D01*
X5104745Y5954745D01*
X5195255Y5954745D01*
X6895255Y2954745D02*
X6895255Y3045255D01*
X6804745Y3045255D01*
X6804745Y2954745D01*
X6895255Y2954745D01*
X6895255Y2700745D02*
X6895255Y2791255D01*
X6804745Y2791255D01*
X6804745Y2700745D01*
X6895255Y2700745D01*
X6895255Y2446745D02*
X6895255Y2537255D01*
X6804745Y2537255D01*
X6804745Y2446745D01*
X6895255Y2446745D01*
X7695255Y6462745D02*
X7695255Y6553255D01*
X7604745Y6553255D01*
X7604745Y6462745D01*
X7695255Y6462745D01*
X7695255Y6208745D02*
X7695255Y6299255D01*
X7604745Y6299255D01*
X7604745Y6208745D01*
X7695255Y6208745D01*
X7695255Y5954745D02*
X7695255Y6045255D01*
X7604745Y6045255D01*
X7604745Y5954745D01*
X7695255Y5954745D01*
X9395255Y2954745D02*
X9395255Y3045255D01*
X9304745Y3045255D01*
X9304745Y2954745D01*
X9395255Y2954745D01*
X9395255Y2700745D02*
X9395255Y2791255D01*
X9304745Y2791255D01*
X9304745Y2700745D01*
X9395255Y2700745D01*
X9395255Y2446745D02*
X9395255Y2537255D01*
X9304745Y2537255D01*
X9304745Y2446745D01*
X9395255Y2446745D01*
X10195255Y6462745D02*
X10195255Y6553255D01*
X10104745Y6553255D01*
X10104745Y6462745D01*
X10195255Y6462745D01*
X10195255Y6204745D02*
X10195255Y6295255D01*
X10104745Y6295255D01*
X10104745Y6204745D01*
X10195255Y6204745D01*
X10195255Y5954745D02*
X10195255Y6045255D01*
X10104745Y6045255D01*
X10104745Y5954745D01*
X10195255Y5954745D01*
D16*
X1850000Y1535000D02*
X1915000Y1600000D01*
X1850000Y1665000D01*
X1785000Y1600000D01*
X1850000Y1535000D01*
X1850000Y715000D02*
X1915000Y780000D01*
X1850000Y845000D01*
X1785000Y780000D01*
X1850000Y715000D01*
X2150000Y8155000D02*
X2215000Y8220000D01*
X2150000Y8285000D01*
X2085000Y8220000D01*
X2150000Y8155000D01*
X2150000Y7335000D02*
X2215000Y7400000D01*
X2150000Y7465000D01*
X2085000Y7400000D01*
X2150000Y7335000D01*
X2350000Y1535000D02*
X2415000Y1600000D01*
X2350000Y1665000D01*
X2285000Y1600000D01*
X2350000Y1535000D01*
X2350000Y715000D02*
X2415000Y780000D01*
X2350000Y845000D01*
X2285000Y780000D01*
X2350000Y715000D01*
X2650000Y8155000D02*
X2715000Y8220000D01*
X2650000Y8285000D01*
X2585000Y8220000D01*
X2650000Y8155000D01*
X2650000Y7335000D02*
X2715000Y7400000D01*
X2650000Y7465000D01*
X2585000Y7400000D01*
X2650000Y7335000D01*
X4350000Y1535000D02*
X4415000Y1600000D01*
X4350000Y1665000D01*
X4285000Y1600000D01*
X4350000Y1535000D01*
X4350000Y715000D02*
X4415000Y780000D01*
X4350000Y845000D01*
X4285000Y780000D01*
X4350000Y715000D01*
X4650000Y8155000D02*
X4715000Y8220000D01*
X4650000Y8285000D01*
X4585000Y8220000D01*
X4650000Y8155000D01*
X4650000Y7335000D02*
X4715000Y7400000D01*
X4650000Y7465000D01*
X4585000Y7400000D01*
X4650000Y7335000D01*
X4850000Y1535000D02*
X4915000Y1600000D01*
X4850000Y1665000D01*
X4785000Y1600000D01*
X4850000Y1535000D01*
X4850000Y715000D02*
X4915000Y780000D01*
X4850000Y845000D01*
X4785000Y780000D01*
X4850000Y715000D01*
X5150000Y8155000D02*
X5215000Y8220000D01*
X5150000Y8285000D01*
X5085000Y8220000D01*
X5150000Y8155000D01*
X5150000Y7335000D02*
X5215000Y7400000D01*
X5150000Y7465000D01*
X5085000Y7400000D01*
X5150000Y7335000D01*
X6850000Y1535000D02*
X6915000Y1600000D01*
X6850000Y1665000D01*
X6785000Y1600000D01*
X6850000Y1535000D01*
X6850000Y715000D02*
X6915000Y780000D01*
X6850000Y845000D01*
X6785000Y780000D01*
X6850000Y715000D01*
X7150000Y8155000D02*
X7215000Y8220000D01*
X7150000Y8285000D01*
X7085000Y8220000D01*
X7150000Y8155000D01*
X7150000Y7335000D02*
X7215000Y7400000D01*
X7150000Y7465000D01*
X7085000Y7400000D01*
X7150000Y7335000D01*
X7350000Y1535000D02*
X7415000Y1600000D01*
X7350000Y1665000D01*
X7285000Y1600000D01*
X7350000Y1535000D01*
X7350000Y715000D02*
X7415000Y780000D01*
X7350000Y845000D01*
X7285000Y780000D01*
X7350000Y715000D01*
X7650000Y8155000D02*
X7715000Y8220000D01*
X7650000Y8285000D01*
X7585000Y8220000D01*
X7650000Y8155000D01*
X7650000Y7335000D02*
X7715000Y7400000D01*
X7650000Y7465000D01*
X7585000Y7400000D01*
X7650000Y7335000D01*
X9350000Y1535000D02*
X9415000Y1600000D01*
X9350000Y1665000D01*
X9285000Y1600000D01*
X9350000Y1535000D01*
X9350000Y715000D02*
X9415000Y780000D01*
X9350000Y845000D01*
X9285000Y780000D01*
X9350000Y715000D01*
X9650000Y8155000D02*
X9715000Y8220000D01*
X9650000Y8285000D01*
X9585000Y8220000D01*
X9650000Y8155000D01*
X9650000Y7335000D02*
X9715000Y7400000D01*
X9650000Y7465000D01*
X9585000Y7400000D01*
X9650000Y7335000D01*
X9850000Y1535000D02*
X9915000Y1600000D01*
X9850000Y1665000D01*
X9785000Y1600000D01*
X9850000Y1535000D01*
X9850000Y715000D02*
X9915000Y780000D01*
X9850000Y845000D01*
X9785000Y780000D01*
X9850000Y715000D01*
X10150000Y8155000D02*
X10215000Y8220000D01*
X10150000Y8285000D01*
X10085000Y8220000D01*
X10150000Y8155000D01*
X10150000Y7335000D02*
X10215000Y7400000D01*
X10150000Y7465000D01*
X10085000Y7400000D01*
X10150000Y7335000D01*
D17*
X1525000Y4995000D02*
X1795000Y4725000D01*
X1795000Y4995000D02*
X1525000Y4725000D01*
X1795000Y4860000D02*
G75*
G03*
X1795000Y4860000I-135000J0D01*
G01*
X1525000Y4275000D02*
X1795000Y4005000D01*
X1795000Y4275000D02*
X1525000Y4005000D01*
X1795000Y4140000D02*
G75*
G03*
X1795000Y4140000I-135000J0D01*
G01*
D18*
X340000Y8660000D02*
X660000Y8340000D01*
X660000Y8660000D02*
X340000Y8340000D01*
X500000Y8660000D02*
X500000Y8340000D01*
X340000Y8500000D02*
X660000Y8500000D01*
X340000Y660000D02*
X660000Y340000D01*
X660000Y660000D02*
X340000Y340000D01*
X500000Y660000D02*
X500000Y340000D01*
X340000Y500000D02*
X660000Y500000D01*
X865000Y6414000D02*
X1185000Y6094000D01*
X1185000Y6414000D02*
X865000Y6094000D01*
X1025000Y6414000D02*
X1025000Y6094000D01*
X865000Y6254000D02*
X1185000Y6254000D01*
X3315000Y2906000D02*
X3635000Y2586000D01*
X3635000Y2906000D02*
X3315000Y2586000D01*
X3475000Y2906000D02*
X3475000Y2586000D01*
X3315000Y2746000D02*
X3635000Y2746000D01*
X3365000Y6414000D02*
X3685000Y6094000D01*
X3685000Y6414000D02*
X3365000Y6094000D01*
X3525000Y6414000D02*
X3525000Y6094000D01*
X3365000Y6254000D02*
X3685000Y6254000D01*
X5815000Y2906000D02*
X6135000Y2586000D01*
X6135000Y2906000D02*
X5815000Y2586000D01*
X5975000Y2906000D02*
X5975000Y2586000D01*
X5815000Y2746000D02*
X6135000Y2746000D01*
X5840000Y4660000D02*
X6160000Y4340000D01*
X6160000Y4660000D02*
X5840000Y4340000D01*
X6000000Y4660000D02*
X6000000Y4340000D01*
X5840000Y4500000D02*
X6160000Y4500000D01*
X5865000Y6414000D02*
X6185000Y6094000D01*
X6185000Y6414000D02*
X5865000Y6094000D01*
X6025000Y6414000D02*
X6025000Y6094000D01*
X5865000Y6254000D02*
X6185000Y6254000D01*
X8315000Y2906000D02*
X8635000Y2586000D01*
X8635000Y2906000D02*
X8315000Y2586000D01*
X8475000Y2906000D02*
X8475000Y2586000D01*
X8315000Y2746000D02*
X8635000Y2746000D01*
X8365000Y6414000D02*
X8685000Y6094000D01*
X8685000Y6414000D02*
X8365000Y6094000D01*
X8525000Y6414000D02*
X8525000Y6094000D01*
X8365000Y6254000D02*
X8685000Y6254000D01*
X10815000Y2906000D02*
X11135000Y2586000D01*
X11135000Y2906000D02*
X10815000Y2586000D01*
X10975000Y2906000D02*
X10975000Y2586000D01*
X10815000Y2746000D02*
X11135000Y2746000D01*
X11340000Y8660000D02*
X11660000Y8340000D01*
X11660000Y8660000D02*
X11340000Y8340000D01*
X11500000Y8660000D02*
X11500000Y8340000D01*
X11340000Y8500000D02*
X11660000Y8500000D01*
X11340000Y660000D02*
X11660000Y340000D01*
X11660000Y660000D02*
X11340000Y340000D01*
X11500000Y660000D02*
X11500000Y340000D01*
X11340000Y500000D02*
X11660000Y500000D01*
D11*
X257569Y-310526D02*
X257569Y-110526D01*
X305188Y-110526D01*
X333760Y-120050D01*
X352807Y-139098D01*
X362331Y-158145D01*
X371855Y-196240D01*
X371855Y-224812D01*
X362331Y-262907D01*
X352807Y-281955D01*
X333760Y-301002D01*
X305188Y-310526D01*
X257569Y-310526D01*
X457569Y-310526D02*
X457569Y-177193D01*
X457569Y-215288D02*
X467093Y-196240D01*
X476617Y-186717D01*
X495664Y-177193D01*
X514712Y-177193D01*
X581379Y-310526D02*
X581379Y-177193D01*
X581379Y-110526D02*
X571855Y-120050D01*
X581379Y-129574D01*
X590902Y-120050D01*
X581379Y-110526D01*
X581379Y-129574D01*
X705188Y-310526D02*
X686140Y-301002D01*
X676617Y-281955D01*
X676617Y-110526D01*
X809950Y-310526D02*
X790902Y-301002D01*
X781378Y-281955D01*
X781378Y-110526D01*
X1038521Y-310526D02*
X1038521Y-110526D01*
X1105188Y-253383D01*
X1171855Y-110526D01*
X1171855Y-310526D01*
X1352807Y-310526D02*
X1352807Y-205764D01*
X1343283Y-186717D01*
X1324236Y-177193D01*
X1286140Y-177193D01*
X1267093Y-186717D01*
X1352807Y-301002D02*
X1333760Y-310526D01*
X1286140Y-310526D01*
X1267093Y-301002D01*
X1257569Y-281955D01*
X1257569Y-262907D01*
X1267093Y-243859D01*
X1286140Y-234336D01*
X1333760Y-234336D01*
X1352807Y-224812D01*
X1448045Y-177193D02*
X1448045Y-377193D01*
X1448045Y-186717D02*
X1467093Y-177193D01*
X1505188Y-177193D01*
X1524236Y-186717D01*
X1533759Y-196240D01*
X1543283Y-215288D01*
X1543283Y-272431D01*
X1533759Y-291479D01*
X1524236Y-301002D01*
X1505188Y-310526D01*
X1467093Y-310526D01*
X1448045Y-301002D01*
X1628998Y-291479D02*
X1638521Y-301002D01*
X1628998Y-310526D01*
X1619474Y-301002D01*
X1628998Y-291479D01*
X1628998Y-310526D01*
X1628998Y-186717D02*
X1638521Y-196240D01*
X1628998Y-205764D01*
X1619474Y-196240D01*
X1628998Y-186717D01*
X1628998Y-205764D01*
D12*
X-40050Y-620050D02*
X-50Y-660050D01*
X-50Y-620050D02*
X-40050Y-660050D01*
D11*
X295664Y-530526D02*
X314712Y-530526D01*
X333760Y-540050D01*
X343283Y-549574D01*
X352807Y-568621D01*
X362331Y-606717D01*
X362331Y-654336D01*
X352807Y-692431D01*
X343283Y-711478D01*
X333760Y-721002D01*
X314712Y-730526D01*
X295664Y-730526D01*
X276617Y-721002D01*
X267093Y-711478D01*
X257569Y-692431D01*
X248045Y-654336D01*
X248045Y-606717D01*
X257569Y-568621D01*
X267093Y-549574D01*
X276617Y-540050D01*
X295664Y-530526D01*
X448045Y-711478D02*
X457569Y-721002D01*
X448045Y-730526D01*
X438521Y-721002D01*
X448045Y-711478D01*
X448045Y-730526D01*
X628998Y-597193D02*
X628998Y-730526D01*
X581379Y-521002D02*
X533760Y-663860D01*
X657569Y-663860D01*
X771855Y-530526D02*
X790902Y-530526D01*
X809950Y-540050D01*
X819474Y-549574D01*
X828998Y-568621D01*
X838521Y-606717D01*
X838521Y-654336D01*
X828998Y-692431D01*
X819474Y-711478D01*
X809950Y-721002D01*
X790902Y-730526D01*
X771855Y-730526D01*
X752807Y-721002D01*
X743283Y-711478D01*
X733759Y-692431D01*
X724236Y-654336D01*
X724236Y-606717D01*
X733759Y-568621D01*
X743283Y-549574D01*
X752807Y-540050D01*
X771855Y-530526D01*
X962331Y-530526D02*
X981378Y-530526D01*
X1000426Y-540050D01*
X1009950Y-549574D01*
X1019474Y-568621D01*
X1028998Y-606717D01*
X1028998Y-654336D01*
X1019474Y-692431D01*
X1009950Y-711478D01*
X1000426Y-721002D01*
X981378Y-730526D01*
X962331Y-730526D01*
X943283Y-721002D01*
X933759Y-711478D01*
X924236Y-692431D01*
X914712Y-654336D01*
X914712Y-606717D01*
X924236Y-568621D01*
X933759Y-549574D01*
X943283Y-540050D01*
X962331Y-530526D01*
X1114712Y-730526D02*
X1114712Y-597193D01*
X1114712Y-616240D02*
X1124236Y-606717D01*
X1143283Y-597193D01*
X1171855Y-597193D01*
X1190902Y-606717D01*
X1200426Y-625764D01*
X1200426Y-730526D01*
X1200426Y-625764D02*
X1209950Y-606717D01*
X1228998Y-597193D01*
X1257569Y-597193D01*
X1276617Y-606717D01*
X1286140Y-625764D01*
X1286140Y-730526D01*
X1381379Y-730526D02*
X1381379Y-597193D01*
X1381379Y-616240D02*
X1390902Y-606717D01*
X1409950Y-597193D01*
X1438521Y-597193D01*
X1457569Y-606717D01*
X1467093Y-625764D01*
X1467093Y-730526D01*
X1467093Y-625764D02*
X1476617Y-606717D01*
X1495664Y-597193D01*
X1524236Y-597193D01*
X1543283Y-606717D01*
X1552807Y-625764D01*
X1552807Y-730526D01*
X1943283Y-521002D02*
X1771855Y-778145D01*
X2200426Y-530526D02*
X2219474Y-530526D01*
X2238521Y-540050D01*
X2248045Y-549574D01*
X2257569Y-568621D01*
X2267093Y-606717D01*
X2267093Y-654336D01*
X2257569Y-692431D01*
X2248045Y-711478D01*
X2238521Y-721002D01*
X2219474Y-730526D01*
X2200426Y-730526D01*
X2181379Y-721002D01*
X2171855Y-711478D01*
X2162331Y-692431D01*
X2152807Y-654336D01*
X2152807Y-606717D01*
X2162331Y-568621D01*
X2171855Y-549574D01*
X2181379Y-540050D01*
X2200426Y-530526D01*
X2352807Y-711478D02*
X2362331Y-721002D01*
X2352807Y-730526D01*
X2343283Y-721002D01*
X2352807Y-711478D01*
X2352807Y-730526D01*
X2486140Y-530526D02*
X2505188Y-530526D01*
X2524236Y-540050D01*
X2533760Y-549574D01*
X2543283Y-568621D01*
X2552807Y-606717D01*
X2552807Y-654336D01*
X2543283Y-692431D01*
X2533760Y-711478D01*
X2524236Y-721002D01*
X2505188Y-730526D01*
X2486140Y-730526D01*
X2467093Y-721002D01*
X2457569Y-711478D01*
X2448045Y-692431D01*
X2438521Y-654336D01*
X2438521Y-606717D01*
X2448045Y-568621D01*
X2457569Y-549574D01*
X2467093Y-540050D01*
X2486140Y-530526D01*
X2743283Y-730526D02*
X2628998Y-730526D01*
X2686140Y-730526D02*
X2686140Y-530526D01*
X2667093Y-559098D01*
X2648045Y-578145D01*
X2628998Y-587669D01*
X2924236Y-530526D02*
X2828998Y-530526D01*
X2819474Y-625764D01*
X2828998Y-616240D01*
X2848045Y-606717D01*
X2895664Y-606717D01*
X2914712Y-616240D01*
X2924236Y-625764D01*
X2933759Y-644812D01*
X2933759Y-692431D01*
X2924236Y-711478D01*
X2914712Y-721002D01*
X2895664Y-730526D01*
X2848045Y-730526D01*
X2828998Y-721002D01*
X2819474Y-711478D01*
X3000426Y-530526D02*
X3133759Y-530526D01*
X3048045Y-730526D01*
X3200426Y-530526D02*
X3200426Y-568621D01*
X3276617Y-530526D02*
X3276617Y-568621D01*
X3571855Y-806717D02*
X3562331Y-797193D01*
X3543283Y-768621D01*
X3533759Y-749574D01*
X3524236Y-721002D01*
X3514712Y-673383D01*
X3514712Y-635288D01*
X3524236Y-587669D01*
X3533759Y-559098D01*
X3543283Y-540050D01*
X3562331Y-511478D01*
X3571855Y-501955D01*
X3638521Y-549574D02*
X3648045Y-540050D01*
X3667093Y-530526D01*
X3714712Y-530526D01*
X3733759Y-540050D01*
X3743283Y-549574D01*
X3752807Y-568621D01*
X3752807Y-587669D01*
X3743283Y-616240D01*
X3628998Y-730526D01*
X3752807Y-730526D01*
X3924236Y-597193D02*
X3924236Y-730526D01*
X3876617Y-521002D02*
X3828998Y-663860D01*
X3952807Y-663860D01*
X4019474Y-549574D02*
X4028998Y-540050D01*
X4048045Y-530526D01*
X4095664Y-530526D01*
X4114712Y-540050D01*
X4124236Y-549574D01*
X4133759Y-568621D01*
X4133759Y-587669D01*
X4124236Y-616240D01*
X4009950Y-730526D01*
X4133759Y-730526D01*
X4371855Y-730526D02*
X4371855Y-530526D01*
X4457569Y-730526D02*
X4457569Y-625764D01*
X4448045Y-606717D01*
X4428998Y-597193D01*
X4400426Y-597193D01*
X4381379Y-606717D01*
X4371855Y-616240D01*
X4581379Y-730526D02*
X4562331Y-721002D01*
X4552807Y-711478D01*
X4543283Y-692431D01*
X4543283Y-635288D01*
X4552807Y-616240D01*
X4562331Y-606717D01*
X4581379Y-597193D01*
X4609950Y-597193D01*
X4628998Y-606717D01*
X4638521Y-616240D01*
X4648045Y-635288D01*
X4648045Y-692431D01*
X4638521Y-711478D01*
X4628998Y-721002D01*
X4609950Y-730526D01*
X4581379Y-730526D01*
X4762331Y-730526D02*
X4743283Y-721002D01*
X4733760Y-701955D01*
X4733760Y-530526D01*
X4914712Y-721002D02*
X4895664Y-730526D01*
X4857569Y-730526D01*
X4838521Y-721002D01*
X4828998Y-701955D01*
X4828998Y-625764D01*
X4838521Y-606717D01*
X4857569Y-597193D01*
X4895664Y-597193D01*
X4914712Y-606717D01*
X4924236Y-625764D01*
X4924236Y-644812D01*
X4828998Y-663860D01*
X5000426Y-721002D02*
X5019474Y-730526D01*
X5057569Y-730526D01*
X5076617Y-721002D01*
X5086140Y-701955D01*
X5086140Y-692431D01*
X5076617Y-673383D01*
X5057569Y-663860D01*
X5028998Y-663860D01*
X5009950Y-654336D01*
X5000426Y-635288D01*
X5000426Y-625764D01*
X5009950Y-606717D01*
X5028998Y-597193D01*
X5057569Y-597193D01*
X5076617Y-606717D01*
X5152807Y-806717D02*
X5162331Y-797193D01*
X5181379Y-768621D01*
X5190902Y-749574D01*
X5200426Y-721002D01*
X5209950Y-673383D01*
X5209950Y-635288D01*
X5200426Y-587669D01*
X5190902Y-559098D01*
X5181379Y-540050D01*
X5162331Y-511478D01*
X5152807Y-501955D01*
D13*
X-50Y-904050D02*
G75*
G03*
X-50Y-904050I-25000J0D01*
G01*
D11*
X295664Y-794526D02*
X314712Y-794526D01*
X333760Y-804050D01*
X343283Y-813574D01*
X352807Y-832621D01*
X362331Y-870717D01*
X362331Y-918336D01*
X352807Y-956431D01*
X343283Y-975478D01*
X333760Y-985002D01*
X314712Y-994526D01*
X295664Y-994526D01*
X276617Y-985002D01*
X267093Y-975478D01*
X257569Y-956431D01*
X248045Y-918336D01*
X248045Y-870717D01*
X257569Y-832621D01*
X267093Y-813574D01*
X276617Y-804050D01*
X295664Y-794526D01*
X448045Y-975478D02*
X457569Y-985002D01*
X448045Y-994526D01*
X438521Y-985002D01*
X448045Y-975478D01*
X448045Y-994526D01*
X638521Y-794526D02*
X543283Y-794526D01*
X533760Y-889764D01*
X543283Y-880240D01*
X562331Y-870717D01*
X609950Y-870717D01*
X628998Y-880240D01*
X638521Y-889764D01*
X648045Y-908812D01*
X648045Y-956431D01*
X638521Y-975478D01*
X628998Y-985002D01*
X609950Y-994526D01*
X562331Y-994526D01*
X543283Y-985002D01*
X533760Y-975478D01*
X771855Y-794526D02*
X790902Y-794526D01*
X809950Y-804050D01*
X819474Y-813574D01*
X828998Y-832621D01*
X838521Y-870717D01*
X838521Y-918336D01*
X828998Y-956431D01*
X819474Y-975478D01*
X809950Y-985002D01*
X790902Y-994526D01*
X771855Y-994526D01*
X752807Y-985002D01*
X743283Y-975478D01*
X733759Y-956431D01*
X724236Y-918336D01*
X724236Y-870717D01*
X733759Y-832621D01*
X743283Y-813574D01*
X752807Y-804050D01*
X771855Y-794526D01*
X962331Y-794526D02*
X981378Y-794526D01*
X1000426Y-804050D01*
X1009950Y-813574D01*
X1019474Y-832621D01*
X1028998Y-870717D01*
X1028998Y-918336D01*
X1019474Y-956431D01*
X1009950Y-975478D01*
X1000426Y-985002D01*
X981378Y-994526D01*
X962331Y-994526D01*
X943283Y-985002D01*
X933759Y-975478D01*
X924236Y-956431D01*
X914712Y-918336D01*
X914712Y-870717D01*
X924236Y-832621D01*
X933759Y-813574D01*
X943283Y-804050D01*
X962331Y-794526D01*
X1114712Y-994526D02*
X1114712Y-861193D01*
X1114712Y-880240D02*
X1124236Y-870717D01*
X1143283Y-861193D01*
X1171855Y-861193D01*
X1190902Y-870717D01*
X1200426Y-889764D01*
X1200426Y-994526D01*
X1200426Y-889764D02*
X1209950Y-870717D01*
X1228998Y-861193D01*
X1257569Y-861193D01*
X1276617Y-870717D01*
X1286140Y-889764D01*
X1286140Y-994526D01*
X1381379Y-994526D02*
X1381379Y-861193D01*
X1381379Y-880240D02*
X1390902Y-870717D01*
X1409950Y-861193D01*
X1438521Y-861193D01*
X1457569Y-870717D01*
X1467093Y-889764D01*
X1467093Y-994526D01*
X1467093Y-889764D02*
X1476617Y-870717D01*
X1495664Y-861193D01*
X1524236Y-861193D01*
X1543283Y-870717D01*
X1552807Y-889764D01*
X1552807Y-994526D01*
X1943283Y-785002D02*
X1771855Y-1042145D01*
X2200426Y-794526D02*
X2219474Y-794526D01*
X2238521Y-804050D01*
X2248045Y-813574D01*
X2257569Y-832621D01*
X2267093Y-870717D01*
X2267093Y-918336D01*
X2257569Y-956431D01*
X2248045Y-975478D01*
X2238521Y-985002D01*
X2219474Y-994526D01*
X2200426Y-994526D01*
X2181379Y-985002D01*
X2171855Y-975478D01*
X2162331Y-956431D01*
X2152807Y-918336D01*
X2152807Y-870717D01*
X2162331Y-832621D01*
X2171855Y-813574D01*
X2181379Y-804050D01*
X2200426Y-794526D01*
X2352807Y-975478D02*
X2362331Y-985002D01*
X2352807Y-994526D01*
X2343283Y-985002D01*
X2352807Y-975478D01*
X2352807Y-994526D01*
X2486140Y-794526D02*
X2505188Y-794526D01*
X2524236Y-804050D01*
X2533760Y-813574D01*
X2543283Y-832621D01*
X2552807Y-870717D01*
X2552807Y-918336D01*
X2543283Y-956431D01*
X2533760Y-975478D01*
X2524236Y-985002D01*
X2505188Y-994526D01*
X2486140Y-994526D01*
X2467093Y-985002D01*
X2457569Y-975478D01*
X2448045Y-956431D01*
X2438521Y-918336D01*
X2438521Y-870717D01*
X2448045Y-832621D01*
X2457569Y-813574D01*
X2467093Y-804050D01*
X2486140Y-794526D01*
X2743283Y-994526D02*
X2628998Y-994526D01*
X2686140Y-994526D02*
X2686140Y-794526D01*
X2667093Y-823098D01*
X2648045Y-842145D01*
X2628998Y-851669D01*
X2838521Y-994526D02*
X2876617Y-994526D01*
X2895664Y-985002D01*
X2905188Y-975478D01*
X2924236Y-946907D01*
X2933759Y-908812D01*
X2933759Y-832621D01*
X2924236Y-813574D01*
X2914712Y-804050D01*
X2895664Y-794526D01*
X2857569Y-794526D01*
X2838521Y-804050D01*
X2828998Y-813574D01*
X2819474Y-832621D01*
X2819474Y-880240D01*
X2828998Y-899288D01*
X2838521Y-908812D01*
X2857569Y-918336D01*
X2895664Y-918336D01*
X2914712Y-908812D01*
X2924236Y-899288D01*
X2933759Y-880240D01*
X3000426Y-794526D02*
X3133759Y-794526D01*
X3048045Y-994526D01*
X3200426Y-794526D02*
X3200426Y-832621D01*
X3276617Y-794526D02*
X3276617Y-832621D01*
X3571855Y-1070717D02*
X3562331Y-1061193D01*
X3543283Y-1032621D01*
X3533759Y-1013574D01*
X3524236Y-985002D01*
X3514712Y-937383D01*
X3514712Y-899288D01*
X3524236Y-851669D01*
X3533759Y-823098D01*
X3543283Y-804050D01*
X3562331Y-775478D01*
X3571855Y-765955D01*
X3752807Y-994526D02*
X3638521Y-994526D01*
X3695664Y-994526D02*
X3695664Y-794526D01*
X3676617Y-823098D01*
X3657569Y-842145D01*
X3638521Y-851669D01*
X3876617Y-794526D02*
X3895664Y-794526D01*
X3914712Y-804050D01*
X3924236Y-813574D01*
X3933759Y-832621D01*
X3943283Y-870717D01*
X3943283Y-918336D01*
X3933759Y-956431D01*
X3924236Y-975478D01*
X3914712Y-985002D01*
X3895664Y-994526D01*
X3876617Y-994526D01*
X3857569Y-985002D01*
X3848045Y-975478D01*
X3838521Y-956431D01*
X3828998Y-918336D01*
X3828998Y-870717D01*
X3838521Y-832621D01*
X3848045Y-813574D01*
X3857569Y-804050D01*
X3876617Y-794526D01*
X4114712Y-861193D02*
X4114712Y-994526D01*
X4067093Y-785002D02*
X4019474Y-927859D01*
X4143283Y-927859D01*
X4371855Y-994526D02*
X4371855Y-794526D01*
X4457569Y-994526D02*
X4457569Y-889764D01*
X4448045Y-870717D01*
X4428998Y-861193D01*
X4400426Y-861193D01*
X4381379Y-870717D01*
X4371855Y-880240D01*
X4581379Y-994526D02*
X4562331Y-985002D01*
X4552807Y-975478D01*
X4543283Y-956431D01*
X4543283Y-899288D01*
X4552807Y-880240D01*
X4562331Y-870717D01*
X4581379Y-861193D01*
X4609950Y-861193D01*
X4628998Y-870717D01*
X4638521Y-880240D01*
X4648045Y-899288D01*
X4648045Y-956431D01*
X4638521Y-975478D01*
X4628998Y-985002D01*
X4609950Y-994526D01*
X4581379Y-994526D01*
X4762331Y-994526D02*
X4743283Y-985002D01*
X4733760Y-965955D01*
X4733760Y-794526D01*
X4914712Y-985002D02*
X4895664Y-994526D01*
X4857569Y-994526D01*
X4838521Y-985002D01*
X4828998Y-965955D01*
X4828998Y-889764D01*
X4838521Y-870717D01*
X4857569Y-861193D01*
X4895664Y-861193D01*
X4914712Y-870717D01*
X4924236Y-889764D01*
X4924236Y-908812D01*
X4828998Y-927859D01*
X5000426Y-985002D02*
X5019474Y-994526D01*
X5057569Y-994526D01*
X5076617Y-985002D01*
X5086140Y-965955D01*
X5086140Y-956431D01*
X5076617Y-937383D01*
X5057569Y-927859D01*
X5028998Y-927859D01*
X5009950Y-918336D01*
X5000426Y-899288D01*
X5000426Y-889764D01*
X5009950Y-870717D01*
X5028998Y-861193D01*
X5057569Y-861193D01*
X5076617Y-870717D01*
X5152807Y-1070717D02*
X5162331Y-1061193D01*
X5181379Y-1032621D01*
X5190902Y-1013574D01*
X5200426Y-985002D01*
X5209950Y-937383D01*
X5209950Y-899288D01*
X5200426Y-851669D01*
X5190902Y-823098D01*
X5181379Y-804050D01*
X5162331Y-775478D01*
X5152807Y-765955D01*
D14*
X-50050Y-1118050D02*
X-50050Y-1218050D01*
X-100050Y-1168050D02*
X-50Y-1168050D01*
D11*
X362331Y-1258526D02*
X248045Y-1258526D01*
X305188Y-1258526D02*
X305188Y-1058526D01*
X286140Y-1087098D01*
X267093Y-1106145D01*
X248045Y-1115669D01*
X448045Y-1239479D02*
X457569Y-1249002D01*
X448045Y-1258526D01*
X438521Y-1249002D01*
X448045Y-1239479D01*
X448045Y-1258526D01*
X581379Y-1058526D02*
X600426Y-1058526D01*
X619474Y-1068050D01*
X628998Y-1077574D01*
X638521Y-1096621D01*
X648045Y-1134717D01*
X648045Y-1182336D01*
X638521Y-1220431D01*
X628998Y-1239479D01*
X619474Y-1249002D01*
X600426Y-1258526D01*
X581379Y-1258526D01*
X562331Y-1249002D01*
X552807Y-1239479D01*
X543283Y-1220431D01*
X533760Y-1182336D01*
X533760Y-1134717D01*
X543283Y-1096621D01*
X552807Y-1077574D01*
X562331Y-1068050D01*
X581379Y-1058526D01*
X771855Y-1058526D02*
X790902Y-1058526D01*
X809950Y-1068050D01*
X819474Y-1077574D01*
X828998Y-1096621D01*
X838521Y-1134717D01*
X838521Y-1182336D01*
X828998Y-1220431D01*
X819474Y-1239479D01*
X809950Y-1249002D01*
X790902Y-1258526D01*
X771855Y-1258526D01*
X752807Y-1249002D01*
X743283Y-1239479D01*
X733759Y-1220431D01*
X724236Y-1182336D01*
X724236Y-1134717D01*
X733759Y-1096621D01*
X743283Y-1077574D01*
X752807Y-1068050D01*
X771855Y-1058526D01*
X962331Y-1058526D02*
X981378Y-1058526D01*
X1000426Y-1068050D01*
X1009950Y-1077574D01*
X1019474Y-1096621D01*
X1028998Y-1134717D01*
X1028998Y-1182336D01*
X1019474Y-1220431D01*
X1009950Y-1239479D01*
X1000426Y-1249002D01*
X981378Y-1258526D01*
X962331Y-1258526D01*
X943283Y-1249002D01*
X933759Y-1239479D01*
X924236Y-1220431D01*
X914712Y-1182336D01*
X914712Y-1134717D01*
X924236Y-1096621D01*
X933759Y-1077574D01*
X943283Y-1068050D01*
X962331Y-1058526D01*
X1114712Y-1258526D02*
X1114712Y-1125193D01*
X1114712Y-1144240D02*
X1124236Y-1134717D01*
X1143283Y-1125193D01*
X1171855Y-1125193D01*
X1190902Y-1134717D01*
X1200426Y-1153764D01*
X1200426Y-1258526D01*
X1200426Y-1153764D02*
X1209950Y-1134717D01*
X1228998Y-1125193D01*
X1257569Y-1125193D01*
X1276617Y-1134717D01*
X1286140Y-1153764D01*
X1286140Y-1258526D01*
X1381379Y-1258526D02*
X1381379Y-1125193D01*
X1381379Y-1144240D02*
X1390902Y-1134717D01*
X1409950Y-1125193D01*
X1438521Y-1125193D01*
X1457569Y-1134717D01*
X1467093Y-1153764D01*
X1467093Y-1258526D01*
X1467093Y-1153764D02*
X1476617Y-1134717D01*
X1495664Y-1125193D01*
X1524236Y-1125193D01*
X1543283Y-1134717D01*
X1552807Y-1153764D01*
X1552807Y-1258526D01*
X1943283Y-1049002D02*
X1771855Y-1306145D01*
X2200426Y-1058526D02*
X2219474Y-1058526D01*
X2238521Y-1068050D01*
X2248045Y-1077574D01*
X2257569Y-1096621D01*
X2267093Y-1134717D01*
X2267093Y-1182336D01*
X2257569Y-1220431D01*
X2248045Y-1239479D01*
X2238521Y-1249002D01*
X2219474Y-1258526D01*
X2200426Y-1258526D01*
X2181379Y-1249002D01*
X2171855Y-1239479D01*
X2162331Y-1220431D01*
X2152807Y-1182336D01*
X2152807Y-1134717D01*
X2162331Y-1096621D01*
X2171855Y-1077574D01*
X2181379Y-1068050D01*
X2200426Y-1058526D01*
X2352807Y-1239479D02*
X2362331Y-1249002D01*
X2352807Y-1258526D01*
X2343283Y-1249002D01*
X2352807Y-1239479D01*
X2352807Y-1258526D01*
X2486140Y-1058526D02*
X2505188Y-1058526D01*
X2524236Y-1068050D01*
X2533760Y-1077574D01*
X2543283Y-1096621D01*
X2552807Y-1134717D01*
X2552807Y-1182336D01*
X2543283Y-1220431D01*
X2533760Y-1239479D01*
X2524236Y-1249002D01*
X2505188Y-1258526D01*
X2486140Y-1258526D01*
X2467093Y-1249002D01*
X2457569Y-1239479D01*
X2448045Y-1220431D01*
X2438521Y-1182336D01*
X2438521Y-1134717D01*
X2448045Y-1096621D01*
X2457569Y-1077574D01*
X2467093Y-1068050D01*
X2486140Y-1058526D01*
X2619474Y-1058526D02*
X2743283Y-1058526D01*
X2676617Y-1134717D01*
X2705188Y-1134717D01*
X2724236Y-1144240D01*
X2733760Y-1153764D01*
X2743283Y-1172812D01*
X2743283Y-1220431D01*
X2733760Y-1239479D01*
X2724236Y-1249002D01*
X2705188Y-1258526D01*
X2648045Y-1258526D01*
X2628998Y-1249002D01*
X2619474Y-1239479D01*
X2838521Y-1258526D02*
X2876617Y-1258526D01*
X2895664Y-1249002D01*
X2905188Y-1239479D01*
X2924236Y-1210907D01*
X2933759Y-1172812D01*
X2933759Y-1096621D01*
X2924236Y-1077574D01*
X2914712Y-1068050D01*
X2895664Y-1058526D01*
X2857569Y-1058526D01*
X2838521Y-1068050D01*
X2828998Y-1077574D01*
X2819474Y-1096621D01*
X2819474Y-1144240D01*
X2828998Y-1163288D01*
X2838521Y-1172812D01*
X2857569Y-1182336D01*
X2895664Y-1182336D01*
X2914712Y-1172812D01*
X2924236Y-1163288D01*
X2933759Y-1144240D01*
X3105188Y-1125193D02*
X3105188Y-1258526D01*
X3057569Y-1049002D02*
X3009950Y-1191860D01*
X3133759Y-1191860D01*
X3200426Y-1058526D02*
X3200426Y-1096621D01*
X3276617Y-1058526D02*
X3276617Y-1096621D01*
X3571855Y-1334717D02*
X3562331Y-1325193D01*
X3543283Y-1296621D01*
X3533759Y-1277574D01*
X3524236Y-1249002D01*
X3514712Y-1201383D01*
X3514712Y-1163288D01*
X3524236Y-1115669D01*
X3533759Y-1087098D01*
X3543283Y-1068050D01*
X3562331Y-1039478D01*
X3571855Y-1029955D01*
X3752807Y-1258526D02*
X3638521Y-1258526D01*
X3695664Y-1258526D02*
X3695664Y-1058526D01*
X3676617Y-1087098D01*
X3657569Y-1106145D01*
X3638521Y-1115669D01*
X3828998Y-1077574D02*
X3838521Y-1068050D01*
X3857569Y-1058526D01*
X3905188Y-1058526D01*
X3924236Y-1068050D01*
X3933759Y-1077574D01*
X3943283Y-1096621D01*
X3943283Y-1115669D01*
X3933759Y-1144240D01*
X3819474Y-1258526D01*
X3943283Y-1258526D01*
X4181378Y-1258526D02*
X4181378Y-1058526D01*
X4267093Y-1258526D02*
X4267093Y-1153764D01*
X4257569Y-1134717D01*
X4238521Y-1125193D01*
X4209950Y-1125193D01*
X4190902Y-1134717D01*
X4181378Y-1144240D01*
X4390902Y-1258526D02*
X4371855Y-1249002D01*
X4362331Y-1239479D01*
X4352807Y-1220431D01*
X4352807Y-1163288D01*
X4362331Y-1144240D01*
X4371855Y-1134717D01*
X4390902Y-1125193D01*
X4419474Y-1125193D01*
X4438521Y-1134717D01*
X4448045Y-1144240D01*
X4457569Y-1163288D01*
X4457569Y-1220431D01*
X4448045Y-1239479D01*
X4438521Y-1249002D01*
X4419474Y-1258526D01*
X4390902Y-1258526D01*
X4571855Y-1258526D02*
X4552807Y-1249002D01*
X4543283Y-1229955D01*
X4543283Y-1058526D01*
X4724236Y-1249002D02*
X4705188Y-1258526D01*
X4667093Y-1258526D01*
X4648045Y-1249002D01*
X4638521Y-1229955D01*
X4638521Y-1153764D01*
X4648045Y-1134717D01*
X4667093Y-1125193D01*
X4705188Y-1125193D01*
X4724236Y-1134717D01*
X4733760Y-1153764D01*
X4733760Y-1172812D01*
X4638521Y-1191860D01*
X4809950Y-1249002D02*
X4828998Y-1258526D01*
X4867093Y-1258526D01*
X4886140Y-1249002D01*
X4895664Y-1229955D01*
X4895664Y-1220431D01*
X4886140Y-1201383D01*
X4867093Y-1191860D01*
X4838521Y-1191860D01*
X4819474Y-1182336D01*
X4809950Y-1163288D01*
X4809950Y-1153764D01*
X4819474Y-1134717D01*
X4838521Y-1125193D01*
X4867093Y-1125193D01*
X4886140Y-1134717D01*
X4962331Y-1334717D02*
X4971855Y-1325193D01*
X4990902Y-1296621D01*
X5000426Y-1277574D01*
X5009950Y-1249002D01*
X5019474Y-1201383D01*
X5019474Y-1163288D01*
X5009950Y-1115669D01*
X5000426Y-1087098D01*
X4990902Y-1068050D01*
X4971855Y-1039478D01*
X4962331Y-1029955D01*
D15*
X-18795Y-1477305D02*
X-18795Y-1386795D01*
X-109305Y-1386795D01*
X-109305Y-1477305D01*
X-18795Y-1477305D01*
D11*
X362331Y-1522526D02*
X248045Y-1522526D01*
X305188Y-1522526D02*
X305188Y-1322526D01*
X286140Y-1351098D01*
X267093Y-1370145D01*
X248045Y-1379669D01*
X448045Y-1503478D02*
X457569Y-1513002D01*
X448045Y-1522526D01*
X438521Y-1513002D01*
X448045Y-1503478D01*
X448045Y-1522526D01*
X533760Y-1341574D02*
X543283Y-1332050D01*
X562331Y-1322526D01*
X609950Y-1322526D01*
X628998Y-1332050D01*
X638521Y-1341574D01*
X648045Y-1360621D01*
X648045Y-1379669D01*
X638521Y-1408240D01*
X524236Y-1522526D01*
X648045Y-1522526D01*
X762331Y-1408240D02*
X743283Y-1398717D01*
X733759Y-1389193D01*
X724236Y-1370145D01*
X724236Y-1360621D01*
X733759Y-1341574D01*
X743283Y-1332050D01*
X762331Y-1322526D01*
X800426Y-1322526D01*
X819474Y-1332050D01*
X828998Y-1341574D01*
X838521Y-1360621D01*
X838521Y-1370145D01*
X828998Y-1389193D01*
X819474Y-1398717D01*
X800426Y-1408240D01*
X762331Y-1408240D01*
X743283Y-1417764D01*
X733759Y-1427288D01*
X724236Y-1446336D01*
X724236Y-1484431D01*
X733759Y-1503478D01*
X743283Y-1513002D01*
X762331Y-1522526D01*
X800426Y-1522526D01*
X819474Y-1513002D01*
X828998Y-1503478D01*
X838521Y-1484431D01*
X838521Y-1446336D01*
X828998Y-1427288D01*
X819474Y-1417764D01*
X800426Y-1408240D01*
X962331Y-1322526D02*
X981378Y-1322526D01*
X1000426Y-1332050D01*
X1009950Y-1341574D01*
X1019474Y-1360621D01*
X1028998Y-1398717D01*
X1028998Y-1446336D01*
X1019474Y-1484431D01*
X1009950Y-1503478D01*
X1000426Y-1513002D01*
X981378Y-1522526D01*
X962331Y-1522526D01*
X943283Y-1513002D01*
X933759Y-1503478D01*
X924236Y-1484431D01*
X914712Y-1446336D01*
X914712Y-1398717D01*
X924236Y-1360621D01*
X933759Y-1341574D01*
X943283Y-1332050D01*
X962331Y-1322526D01*
X1114712Y-1522526D02*
X1114712Y-1389193D01*
X1114712Y-1408240D02*
X1124236Y-1398717D01*
X1143283Y-1389193D01*
X1171855Y-1389193D01*
X1190902Y-1398717D01*
X1200426Y-1417764D01*
X1200426Y-1522526D01*
X1200426Y-1417764D02*
X1209950Y-1398717D01*
X1228998Y-1389193D01*
X1257569Y-1389193D01*
X1276617Y-1398717D01*
X1286140Y-1417764D01*
X1286140Y-1522526D01*
X1381379Y-1522526D02*
X1381379Y-1389193D01*
X1381379Y-1408240D02*
X1390902Y-1398717D01*
X1409950Y-1389193D01*
X1438521Y-1389193D01*
X1457569Y-1398717D01*
X1467093Y-1417764D01*
X1467093Y-1522526D01*
X1467093Y-1417764D02*
X1476617Y-1398717D01*
X1495664Y-1389193D01*
X1524236Y-1389193D01*
X1543283Y-1398717D01*
X1552807Y-1417764D01*
X1552807Y-1522526D01*
X1943283Y-1313002D02*
X1771855Y-1570145D01*
X2200426Y-1322526D02*
X2219474Y-1322526D01*
X2238521Y-1332050D01*
X2248045Y-1341574D01*
X2257569Y-1360621D01*
X2267093Y-1398717D01*
X2267093Y-1446336D01*
X2257569Y-1484431D01*
X2248045Y-1503478D01*
X2238521Y-1513002D01*
X2219474Y-1522526D01*
X2200426Y-1522526D01*
X2181379Y-1513002D01*
X2171855Y-1503478D01*
X2162331Y-1484431D01*
X2152807Y-1446336D01*
X2152807Y-1398717D01*
X2162331Y-1360621D01*
X2171855Y-1341574D01*
X2181379Y-1332050D01*
X2200426Y-1322526D01*
X2352807Y-1503478D02*
X2362331Y-1513002D01*
X2352807Y-1522526D01*
X2343283Y-1513002D01*
X2352807Y-1503478D01*
X2352807Y-1522526D01*
X2486140Y-1322526D02*
X2505188Y-1322526D01*
X2524236Y-1332050D01*
X2533760Y-1341574D01*
X2543283Y-1360621D01*
X2552807Y-1398717D01*
X2552807Y-1446336D01*
X2543283Y-1484431D01*
X2533760Y-1503478D01*
X2524236Y-1513002D01*
X2505188Y-1522526D01*
X2486140Y-1522526D01*
X2467093Y-1513002D01*
X2457569Y-1503478D01*
X2448045Y-1484431D01*
X2438521Y-1446336D01*
X2438521Y-1398717D01*
X2448045Y-1360621D01*
X2457569Y-1341574D01*
X2467093Y-1332050D01*
X2486140Y-1322526D01*
X2733760Y-1322526D02*
X2638521Y-1322526D01*
X2628998Y-1417764D01*
X2638521Y-1408240D01*
X2657569Y-1398717D01*
X2705188Y-1398717D01*
X2724236Y-1408240D01*
X2733760Y-1417764D01*
X2743283Y-1436812D01*
X2743283Y-1484431D01*
X2733760Y-1503478D01*
X2724236Y-1513002D01*
X2705188Y-1522526D01*
X2657569Y-1522526D01*
X2638521Y-1513002D01*
X2628998Y-1503478D01*
X2867093Y-1322526D02*
X2886140Y-1322526D01*
X2905188Y-1332050D01*
X2914712Y-1341574D01*
X2924236Y-1360621D01*
X2933759Y-1398717D01*
X2933759Y-1446336D01*
X2924236Y-1484431D01*
X2914712Y-1503478D01*
X2905188Y-1513002D01*
X2886140Y-1522526D01*
X2867093Y-1522526D01*
X2848045Y-1513002D01*
X2838521Y-1503478D01*
X2828998Y-1484431D01*
X2819474Y-1446336D01*
X2819474Y-1398717D01*
X2828998Y-1360621D01*
X2838521Y-1341574D01*
X2848045Y-1332050D01*
X2867093Y-1322526D01*
X3105188Y-1389193D02*
X3105188Y-1522526D01*
X3057569Y-1313002D02*
X3009950Y-1455859D01*
X3133759Y-1455859D01*
X3200426Y-1322526D02*
X3200426Y-1360621D01*
X3276617Y-1322526D02*
X3276617Y-1360621D01*
X3571855Y-1598717D02*
X3562331Y-1589193D01*
X3543283Y-1560621D01*
X3533759Y-1541574D01*
X3524236Y-1513002D01*
X3514712Y-1465383D01*
X3514712Y-1427288D01*
X3524236Y-1379669D01*
X3533759Y-1351098D01*
X3543283Y-1332050D01*
X3562331Y-1303479D01*
X3571855Y-1293955D01*
X3638521Y-1341574D02*
X3648045Y-1332050D01*
X3667093Y-1322526D01*
X3714712Y-1322526D01*
X3733759Y-1332050D01*
X3743283Y-1341574D01*
X3752807Y-1360621D01*
X3752807Y-1379669D01*
X3743283Y-1408240D01*
X3628998Y-1522526D01*
X3752807Y-1522526D01*
X3924236Y-1389193D02*
X3924236Y-1522526D01*
X3876617Y-1313002D02*
X3828998Y-1455859D01*
X3952807Y-1455859D01*
X4181378Y-1522526D02*
X4181378Y-1322526D01*
X4267093Y-1522526D02*
X4267093Y-1417764D01*
X4257569Y-1398717D01*
X4238521Y-1389193D01*
X4209950Y-1389193D01*
X4190902Y-1398717D01*
X4181378Y-1408240D01*
X4390902Y-1522526D02*
X4371855Y-1513002D01*
X4362331Y-1503478D01*
X4352807Y-1484431D01*
X4352807Y-1427288D01*
X4362331Y-1408240D01*
X4371855Y-1398717D01*
X4390902Y-1389193D01*
X4419474Y-1389193D01*
X4438521Y-1398717D01*
X4448045Y-1408240D01*
X4457569Y-1427288D01*
X4457569Y-1484431D01*
X4448045Y-1503478D01*
X4438521Y-1513002D01*
X4419474Y-1522526D01*
X4390902Y-1522526D01*
X4571855Y-1522526D02*
X4552807Y-1513002D01*
X4543283Y-1493955D01*
X4543283Y-1322526D01*
X4724236Y-1513002D02*
X4705188Y-1522526D01*
X4667093Y-1522526D01*
X4648045Y-1513002D01*
X4638521Y-1493955D01*
X4638521Y-1417764D01*
X4648045Y-1398717D01*
X4667093Y-1389193D01*
X4705188Y-1389193D01*
X4724236Y-1398717D01*
X4733760Y-1417764D01*
X4733760Y-1436812D01*
X4638521Y-1455859D01*
X4809950Y-1513002D02*
X4828998Y-1522526D01*
X4867093Y-1522526D01*
X4886140Y-1513002D01*
X4895664Y-1493955D01*
X4895664Y-1484431D01*
X4886140Y-1465383D01*
X4867093Y-1455859D01*
X4838521Y-1455859D01*
X4819474Y-1446336D01*
X4809950Y-1427288D01*
X4809950Y-1417764D01*
X4819474Y-1398717D01*
X4838521Y-1389193D01*
X4867093Y-1389193D01*
X4886140Y-1398717D01*
X4962331Y-1598717D02*
X4971855Y-1589193D01*
X4990902Y-1560621D01*
X5000426Y-1541574D01*
X5009950Y-1513002D01*
X5019474Y-1465383D01*
X5019474Y-1427288D01*
X5009950Y-1379669D01*
X5000426Y-1351098D01*
X4990902Y-1332050D01*
X4971855Y-1303479D01*
X4962331Y-1293955D01*
D16*
X-65050Y-1761050D02*
X-50Y-1696050D01*
X-65050Y-1631050D01*
X-130050Y-1696050D01*
X-65050Y-1761050D01*
D11*
X362331Y-1786526D02*
X248045Y-1786526D01*
X305188Y-1786526D02*
X305188Y-1586526D01*
X286140Y-1615098D01*
X267093Y-1634145D01*
X248045Y-1643669D01*
X448045Y-1767478D02*
X457569Y-1777002D01*
X448045Y-1786526D01*
X438521Y-1777002D01*
X448045Y-1767478D01*
X448045Y-1786526D01*
X524236Y-1586526D02*
X648045Y-1586526D01*
X581379Y-1662717D01*
X609950Y-1662717D01*
X628998Y-1672240D01*
X638521Y-1681764D01*
X648045Y-1700812D01*
X648045Y-1748431D01*
X638521Y-1767478D01*
X628998Y-1777002D01*
X609950Y-1786526D01*
X552807Y-1786526D01*
X533760Y-1777002D01*
X524236Y-1767478D01*
X771855Y-1586526D02*
X790902Y-1586526D01*
X809950Y-1596050D01*
X819474Y-1605574D01*
X828998Y-1624621D01*
X838521Y-1662717D01*
X838521Y-1710336D01*
X828998Y-1748431D01*
X819474Y-1767478D01*
X809950Y-1777002D01*
X790902Y-1786526D01*
X771855Y-1786526D01*
X752807Y-1777002D01*
X743283Y-1767478D01*
X733759Y-1748431D01*
X724236Y-1710336D01*
X724236Y-1662717D01*
X733759Y-1624621D01*
X743283Y-1605574D01*
X752807Y-1596050D01*
X771855Y-1586526D01*
X962331Y-1586526D02*
X981378Y-1586526D01*
X1000426Y-1596050D01*
X1009950Y-1605574D01*
X1019474Y-1624621D01*
X1028998Y-1662717D01*
X1028998Y-1710336D01*
X1019474Y-1748431D01*
X1009950Y-1767478D01*
X1000426Y-1777002D01*
X981378Y-1786526D01*
X962331Y-1786526D01*
X943283Y-1777002D01*
X933759Y-1767478D01*
X924236Y-1748431D01*
X914712Y-1710336D01*
X914712Y-1662717D01*
X924236Y-1624621D01*
X933759Y-1605574D01*
X943283Y-1596050D01*
X962331Y-1586526D01*
X1114712Y-1786526D02*
X1114712Y-1653193D01*
X1114712Y-1672240D02*
X1124236Y-1662717D01*
X1143283Y-1653193D01*
X1171855Y-1653193D01*
X1190902Y-1662717D01*
X1200426Y-1681764D01*
X1200426Y-1786526D01*
X1200426Y-1681764D02*
X1209950Y-1662717D01*
X1228998Y-1653193D01*
X1257569Y-1653193D01*
X1276617Y-1662717D01*
X1286140Y-1681764D01*
X1286140Y-1786526D01*
X1381379Y-1786526D02*
X1381379Y-1653193D01*
X1381379Y-1672240D02*
X1390902Y-1662717D01*
X1409950Y-1653193D01*
X1438521Y-1653193D01*
X1457569Y-1662717D01*
X1467093Y-1681764D01*
X1467093Y-1786526D01*
X1467093Y-1681764D02*
X1476617Y-1662717D01*
X1495664Y-1653193D01*
X1524236Y-1653193D01*
X1543283Y-1662717D01*
X1552807Y-1681764D01*
X1552807Y-1786526D01*
X1943283Y-1577002D02*
X1771855Y-1834145D01*
X2200426Y-1586526D02*
X2219474Y-1586526D01*
X2238521Y-1596050D01*
X2248045Y-1605574D01*
X2257569Y-1624621D01*
X2267093Y-1662717D01*
X2267093Y-1710336D01*
X2257569Y-1748431D01*
X2248045Y-1767478D01*
X2238521Y-1777002D01*
X2219474Y-1786526D01*
X2200426Y-1786526D01*
X2181379Y-1777002D01*
X2171855Y-1767478D01*
X2162331Y-1748431D01*
X2152807Y-1710336D01*
X2152807Y-1662717D01*
X2162331Y-1624621D01*
X2171855Y-1605574D01*
X2181379Y-1596050D01*
X2200426Y-1586526D01*
X2352807Y-1767478D02*
X2362331Y-1777002D01*
X2352807Y-1786526D01*
X2343283Y-1777002D01*
X2352807Y-1767478D01*
X2352807Y-1786526D01*
X2486140Y-1586526D02*
X2505188Y-1586526D01*
X2524236Y-1596050D01*
X2533760Y-1605574D01*
X2543283Y-1624621D01*
X2552807Y-1662717D01*
X2552807Y-1710336D01*
X2543283Y-1748431D01*
X2533760Y-1767478D01*
X2524236Y-1777002D01*
X2505188Y-1786526D01*
X2486140Y-1786526D01*
X2467093Y-1777002D01*
X2457569Y-1767478D01*
X2448045Y-1748431D01*
X2438521Y-1710336D01*
X2438521Y-1662717D01*
X2448045Y-1624621D01*
X2457569Y-1605574D01*
X2467093Y-1596050D01*
X2486140Y-1586526D01*
X2733760Y-1586526D02*
X2638521Y-1586526D01*
X2628998Y-1681764D01*
X2638521Y-1672240D01*
X2657569Y-1662717D01*
X2705188Y-1662717D01*
X2724236Y-1672240D01*
X2733760Y-1681764D01*
X2743283Y-1700812D01*
X2743283Y-1748431D01*
X2733760Y-1767478D01*
X2724236Y-1777002D01*
X2705188Y-1786526D01*
X2657569Y-1786526D01*
X2638521Y-1777002D01*
X2628998Y-1767478D01*
X2933759Y-1786526D02*
X2819474Y-1786526D01*
X2876617Y-1786526D02*
X2876617Y-1586526D01*
X2857569Y-1615098D01*
X2838521Y-1634145D01*
X2819474Y-1643669D01*
X3009950Y-1605574D02*
X3019474Y-1596050D01*
X3038521Y-1586526D01*
X3086140Y-1586526D01*
X3105188Y-1596050D01*
X3114712Y-1605574D01*
X3124236Y-1624621D01*
X3124236Y-1643669D01*
X3114712Y-1672240D01*
X3000426Y-1786526D01*
X3124236Y-1786526D01*
X3200426Y-1586526D02*
X3200426Y-1624621D01*
X3276617Y-1586526D02*
X3276617Y-1624621D01*
X3571855Y-1862717D02*
X3562331Y-1853193D01*
X3543283Y-1824621D01*
X3533759Y-1805574D01*
X3524236Y-1777002D01*
X3514712Y-1729383D01*
X3514712Y-1691288D01*
X3524236Y-1643669D01*
X3533759Y-1615098D01*
X3543283Y-1596050D01*
X3562331Y-1567478D01*
X3571855Y-1557955D01*
X3628998Y-1586526D02*
X3752807Y-1586526D01*
X3686140Y-1662717D01*
X3714712Y-1662717D01*
X3733759Y-1672240D01*
X3743283Y-1681764D01*
X3752807Y-1700812D01*
X3752807Y-1748431D01*
X3743283Y-1767478D01*
X3733759Y-1777002D01*
X3714712Y-1786526D01*
X3657569Y-1786526D01*
X3638521Y-1777002D01*
X3628998Y-1767478D01*
X3828998Y-1605574D02*
X3838521Y-1596050D01*
X3857569Y-1586526D01*
X3905188Y-1586526D01*
X3924236Y-1596050D01*
X3933759Y-1605574D01*
X3943283Y-1624621D01*
X3943283Y-1643669D01*
X3933759Y-1672240D01*
X3819474Y-1786526D01*
X3943283Y-1786526D01*
X4181378Y-1786526D02*
X4181378Y-1586526D01*
X4267093Y-1786526D02*
X4267093Y-1681764D01*
X4257569Y-1662717D01*
X4238521Y-1653193D01*
X4209950Y-1653193D01*
X4190902Y-1662717D01*
X4181378Y-1672240D01*
X4390902Y-1786526D02*
X4371855Y-1777002D01*
X4362331Y-1767478D01*
X4352807Y-1748431D01*
X4352807Y-1691288D01*
X4362331Y-1672240D01*
X4371855Y-1662717D01*
X4390902Y-1653193D01*
X4419474Y-1653193D01*
X4438521Y-1662717D01*
X4448045Y-1672240D01*
X4457569Y-1691288D01*
X4457569Y-1748431D01*
X4448045Y-1767478D01*
X4438521Y-1777002D01*
X4419474Y-1786526D01*
X4390902Y-1786526D01*
X4571855Y-1786526D02*
X4552807Y-1777002D01*
X4543283Y-1757955D01*
X4543283Y-1586526D01*
X4724236Y-1777002D02*
X4705188Y-1786526D01*
X4667093Y-1786526D01*
X4648045Y-1777002D01*
X4638521Y-1757955D01*
X4638521Y-1681764D01*
X4648045Y-1662717D01*
X4667093Y-1653193D01*
X4705188Y-1653193D01*
X4724236Y-1662717D01*
X4733760Y-1681764D01*
X4733760Y-1700812D01*
X4638521Y-1719859D01*
X4809950Y-1777002D02*
X4828998Y-1786526D01*
X4867093Y-1786526D01*
X4886140Y-1777002D01*
X4895664Y-1757955D01*
X4895664Y-1748431D01*
X4886140Y-1729383D01*
X4867093Y-1719859D01*
X4838521Y-1719859D01*
X4819474Y-1710336D01*
X4809950Y-1691288D01*
X4809950Y-1681764D01*
X4819474Y-1662717D01*
X4838521Y-1653193D01*
X4867093Y-1653193D01*
X4886140Y-1662717D01*
X4962331Y-1862717D02*
X4971855Y-1853193D01*
X4990902Y-1824621D01*
X5000426Y-1805574D01*
X5009950Y-1777002D01*
X5019474Y-1729383D01*
X5019474Y-1691288D01*
X5009950Y-1643669D01*
X5000426Y-1615098D01*
X4990902Y-1596050D01*
X4971855Y-1567478D01*
X4962331Y-1557955D01*
X-200050Y-1860050D02*
X-50Y-2060050D01*
X-50Y-1860050D02*
X-200050Y-2060050D01*
X-50Y-1960050D02*
G75*
G03*
X-50Y-1960050I-100000J0D01*
G01*
X248045Y-1869574D02*
X257569Y-1860050D01*
X276617Y-1850526D01*
X324236Y-1850526D01*
X343283Y-1860050D01*
X352807Y-1869574D01*
X362331Y-1888621D01*
X362331Y-1907669D01*
X352807Y-1936240D01*
X238521Y-2050526D01*
X362331Y-2050526D01*
X448045Y-2031478D02*
X457569Y-2041002D01*
X448045Y-2050526D01*
X438521Y-2041002D01*
X448045Y-2031478D01*
X448045Y-2050526D01*
X524236Y-1850526D02*
X657569Y-1850526D01*
X571855Y-2050526D01*
X771855Y-1850526D02*
X790902Y-1850526D01*
X809950Y-1860050D01*
X819474Y-1869574D01*
X828998Y-1888621D01*
X838521Y-1926717D01*
X838521Y-1974336D01*
X828998Y-2012431D01*
X819474Y-2031478D01*
X809950Y-2041002D01*
X790902Y-2050526D01*
X771855Y-2050526D01*
X752807Y-2041002D01*
X743283Y-2031478D01*
X733759Y-2012431D01*
X724236Y-1974336D01*
X724236Y-1926717D01*
X733759Y-1888621D01*
X743283Y-1869574D01*
X752807Y-1860050D01*
X771855Y-1850526D01*
X962331Y-1850526D02*
X981378Y-1850526D01*
X1000426Y-1860050D01*
X1009950Y-1869574D01*
X1019474Y-1888621D01*
X1028998Y-1926717D01*
X1028998Y-1974336D01*
X1019474Y-2012431D01*
X1009950Y-2031478D01*
X1000426Y-2041002D01*
X981378Y-2050526D01*
X962331Y-2050526D01*
X943283Y-2041002D01*
X933759Y-2031478D01*
X924236Y-2012431D01*
X914712Y-1974336D01*
X914712Y-1926717D01*
X924236Y-1888621D01*
X933759Y-1869574D01*
X943283Y-1860050D01*
X962331Y-1850526D01*
X1114712Y-2050526D02*
X1114712Y-1917193D01*
X1114712Y-1936240D02*
X1124236Y-1926717D01*
X1143283Y-1917193D01*
X1171855Y-1917193D01*
X1190902Y-1926717D01*
X1200426Y-1945764D01*
X1200426Y-2050526D01*
X1200426Y-1945764D02*
X1209950Y-1926717D01*
X1228998Y-1917193D01*
X1257569Y-1917193D01*
X1276617Y-1926717D01*
X1286140Y-1945764D01*
X1286140Y-2050526D01*
X1381379Y-2050526D02*
X1381379Y-1917193D01*
X1381379Y-1936240D02*
X1390902Y-1926717D01*
X1409950Y-1917193D01*
X1438521Y-1917193D01*
X1457569Y-1926717D01*
X1467093Y-1945764D01*
X1467093Y-2050526D01*
X1467093Y-1945764D02*
X1476617Y-1926717D01*
X1495664Y-1917193D01*
X1524236Y-1917193D01*
X1543283Y-1926717D01*
X1552807Y-1945764D01*
X1552807Y-2050526D01*
X1943283Y-1841002D02*
X1771855Y-2098145D01*
X2200426Y-1850526D02*
X2219474Y-1850526D01*
X2238521Y-1860050D01*
X2248045Y-1869574D01*
X2257569Y-1888621D01*
X2267093Y-1926717D01*
X2267093Y-1974336D01*
X2257569Y-2012431D01*
X2248045Y-2031478D01*
X2238521Y-2041002D01*
X2219474Y-2050526D01*
X2200426Y-2050526D01*
X2181379Y-2041002D01*
X2171855Y-2031478D01*
X2162331Y-2012431D01*
X2152807Y-1974336D01*
X2152807Y-1926717D01*
X2162331Y-1888621D01*
X2171855Y-1869574D01*
X2181379Y-1860050D01*
X2200426Y-1850526D01*
X2352807Y-2031478D02*
X2362331Y-2041002D01*
X2352807Y-2050526D01*
X2343283Y-2041002D01*
X2352807Y-2031478D01*
X2352807Y-2050526D01*
X2552807Y-2050526D02*
X2438521Y-2050526D01*
X2495664Y-2050526D02*
X2495664Y-1850526D01*
X2476617Y-1879098D01*
X2457569Y-1898145D01*
X2438521Y-1907669D01*
X2676617Y-1850526D02*
X2695664Y-1850526D01*
X2714712Y-1860050D01*
X2724236Y-1869574D01*
X2733760Y-1888621D01*
X2743283Y-1926717D01*
X2743283Y-1974336D01*
X2733760Y-2012431D01*
X2724236Y-2031478D01*
X2714712Y-2041002D01*
X2695664Y-2050526D01*
X2676617Y-2050526D01*
X2657569Y-2041002D01*
X2648045Y-2031478D01*
X2638521Y-2012431D01*
X2628998Y-1974336D01*
X2628998Y-1926717D01*
X2638521Y-1888621D01*
X2648045Y-1869574D01*
X2657569Y-1860050D01*
X2676617Y-1850526D01*
X2914712Y-1850526D02*
X2876617Y-1850526D01*
X2857569Y-1860050D01*
X2848045Y-1869574D01*
X2828998Y-1898145D01*
X2819474Y-1936240D01*
X2819474Y-2012431D01*
X2828998Y-2031478D01*
X2838521Y-2041002D01*
X2857569Y-2050526D01*
X2895664Y-2050526D01*
X2914712Y-2041002D01*
X2924236Y-2031478D01*
X2933759Y-2012431D01*
X2933759Y-1964812D01*
X2924236Y-1945764D01*
X2914712Y-1936240D01*
X2895664Y-1926717D01*
X2857569Y-1926717D01*
X2838521Y-1936240D01*
X2828998Y-1945764D01*
X2819474Y-1964812D01*
X3000426Y-1850526D02*
X3124236Y-1850526D01*
X3057569Y-1926717D01*
X3086140Y-1926717D01*
X3105188Y-1936240D01*
X3114712Y-1945764D01*
X3124236Y-1964812D01*
X3124236Y-2012431D01*
X3114712Y-2031478D01*
X3105188Y-2041002D01*
X3086140Y-2050526D01*
X3028998Y-2050526D01*
X3009950Y-2041002D01*
X3000426Y-2031478D01*
X3200426Y-1850526D02*
X3200426Y-1888621D01*
X3276617Y-1850526D02*
X3276617Y-1888621D01*
X3571855Y-2126717D02*
X3562331Y-2117193D01*
X3543283Y-2088621D01*
X3533759Y-2069574D01*
X3524236Y-2041002D01*
X3514712Y-1993383D01*
X3514712Y-1955288D01*
X3524236Y-1907669D01*
X3533759Y-1879098D01*
X3543283Y-1860050D01*
X3562331Y-1831478D01*
X3571855Y-1821955D01*
X3638521Y-1869574D02*
X3648045Y-1860050D01*
X3667093Y-1850526D01*
X3714712Y-1850526D01*
X3733759Y-1860050D01*
X3743283Y-1869574D01*
X3752807Y-1888621D01*
X3752807Y-1907669D01*
X3743283Y-1936240D01*
X3628998Y-2050526D01*
X3752807Y-2050526D01*
X3990902Y-2050526D02*
X3990902Y-1850526D01*
X4076617Y-2050526D02*
X4076617Y-1945764D01*
X4067093Y-1926717D01*
X4048045Y-1917193D01*
X4019474Y-1917193D01*
X4000426Y-1926717D01*
X3990902Y-1936240D01*
X4200426Y-2050526D02*
X4181378Y-2041002D01*
X4171855Y-2031478D01*
X4162331Y-2012431D01*
X4162331Y-1955288D01*
X4171855Y-1936240D01*
X4181378Y-1926717D01*
X4200426Y-1917193D01*
X4228998Y-1917193D01*
X4248045Y-1926717D01*
X4257569Y-1936240D01*
X4267093Y-1955288D01*
X4267093Y-2012431D01*
X4257569Y-2031478D01*
X4248045Y-2041002D01*
X4228998Y-2050526D01*
X4200426Y-2050526D01*
X4381379Y-2050526D02*
X4362331Y-2041002D01*
X4352807Y-2021955D01*
X4352807Y-1850526D01*
X4533760Y-2041002D02*
X4514712Y-2050526D01*
X4476617Y-2050526D01*
X4457569Y-2041002D01*
X4448045Y-2021955D01*
X4448045Y-1945764D01*
X4457569Y-1926717D01*
X4476617Y-1917193D01*
X4514712Y-1917193D01*
X4533760Y-1926717D01*
X4543283Y-1945764D01*
X4543283Y-1964812D01*
X4448045Y-1983859D01*
X4619474Y-2041002D02*
X4638521Y-2050526D01*
X4676617Y-2050526D01*
X4695664Y-2041002D01*
X4705188Y-2021955D01*
X4705188Y-2012431D01*
X4695664Y-1993383D01*
X4676617Y-1983859D01*
X4648045Y-1983859D01*
X4628998Y-1974336D01*
X4619474Y-1955288D01*
X4619474Y-1945764D01*
X4628998Y-1926717D01*
X4648045Y-1917193D01*
X4676617Y-1917193D01*
X4695664Y-1926717D01*
X4771855Y-2126717D02*
X4781379Y-2117193D01*
X4800426Y-2088621D01*
X4809950Y-2069574D01*
X4819474Y-2041002D01*
X4828998Y-1993383D01*
X4828998Y-1955288D01*
X4819474Y-1907669D01*
X4809950Y-1879098D01*
X4800426Y-1860050D01*
X4781379Y-1831478D01*
X4771855Y-1821955D01*
X-200050Y-2180050D02*
X-50Y-2380050D01*
X-50Y-2180050D02*
X-200050Y-2380050D01*
X-100050Y-2180050D02*
X-100050Y-2380050D01*
X-200050Y-2280050D02*
X-50Y-2280050D01*
X238521Y-2170526D02*
X362331Y-2170526D01*
X295664Y-2246717D01*
X324236Y-2246717D01*
X343283Y-2256240D01*
X352807Y-2265764D01*
X362331Y-2284812D01*
X362331Y-2332431D01*
X352807Y-2351479D01*
X343283Y-2361002D01*
X324236Y-2370526D01*
X267093Y-2370526D01*
X248045Y-2361002D01*
X238521Y-2351479D01*
X448045Y-2351479D02*
X457569Y-2361002D01*
X448045Y-2370526D01*
X438521Y-2361002D01*
X448045Y-2351479D01*
X448045Y-2370526D01*
X533760Y-2189574D02*
X543283Y-2180050D01*
X562331Y-2170526D01*
X609950Y-2170526D01*
X628998Y-2180050D01*
X638521Y-2189574D01*
X648045Y-2208621D01*
X648045Y-2227669D01*
X638521Y-2256240D01*
X524236Y-2370526D01*
X648045Y-2370526D01*
X771855Y-2170526D02*
X790902Y-2170526D01*
X809950Y-2180050D01*
X819474Y-2189574D01*
X828998Y-2208621D01*
X838521Y-2246717D01*
X838521Y-2294336D01*
X828998Y-2332431D01*
X819474Y-2351479D01*
X809950Y-2361002D01*
X790902Y-2370526D01*
X771855Y-2370526D01*
X752807Y-2361002D01*
X743283Y-2351479D01*
X733759Y-2332431D01*
X724236Y-2294336D01*
X724236Y-2246717D01*
X733759Y-2208621D01*
X743283Y-2189574D01*
X752807Y-2180050D01*
X771855Y-2170526D01*
X962331Y-2170526D02*
X981378Y-2170526D01*
X1000426Y-2180050D01*
X1009950Y-2189574D01*
X1019474Y-2208621D01*
X1028998Y-2246717D01*
X1028998Y-2294336D01*
X1019474Y-2332431D01*
X1009950Y-2351479D01*
X1000426Y-2361002D01*
X981378Y-2370526D01*
X962331Y-2370526D01*
X943283Y-2361002D01*
X933759Y-2351479D01*
X924236Y-2332431D01*
X914712Y-2294336D01*
X914712Y-2246717D01*
X924236Y-2208621D01*
X933759Y-2189574D01*
X943283Y-2180050D01*
X962331Y-2170526D01*
X1114712Y-2370526D02*
X1114712Y-2237193D01*
X1114712Y-2256240D02*
X1124236Y-2246717D01*
X1143283Y-2237193D01*
X1171855Y-2237193D01*
X1190902Y-2246717D01*
X1200426Y-2265764D01*
X1200426Y-2370526D01*
X1200426Y-2265764D02*
X1209950Y-2246717D01*
X1228998Y-2237193D01*
X1257569Y-2237193D01*
X1276617Y-2246717D01*
X1286140Y-2265764D01*
X1286140Y-2370526D01*
X1381379Y-2370526D02*
X1381379Y-2237193D01*
X1381379Y-2256240D02*
X1390902Y-2246717D01*
X1409950Y-2237193D01*
X1438521Y-2237193D01*
X1457569Y-2246717D01*
X1467093Y-2265764D01*
X1467093Y-2370526D01*
X1467093Y-2265764D02*
X1476617Y-2246717D01*
X1495664Y-2237193D01*
X1524236Y-2237193D01*
X1543283Y-2246717D01*
X1552807Y-2265764D01*
X1552807Y-2370526D01*
X1943283Y-2161002D02*
X1771855Y-2418145D01*
X2200426Y-2170526D02*
X2219474Y-2170526D01*
X2238521Y-2180050D01*
X2248045Y-2189574D01*
X2257569Y-2208621D01*
X2267093Y-2246717D01*
X2267093Y-2294336D01*
X2257569Y-2332431D01*
X2248045Y-2351479D01*
X2238521Y-2361002D01*
X2219474Y-2370526D01*
X2200426Y-2370526D01*
X2181379Y-2361002D01*
X2171855Y-2351479D01*
X2162331Y-2332431D01*
X2152807Y-2294336D01*
X2152807Y-2246717D01*
X2162331Y-2208621D01*
X2171855Y-2189574D01*
X2181379Y-2180050D01*
X2200426Y-2170526D01*
X2352807Y-2351479D02*
X2362331Y-2361002D01*
X2352807Y-2370526D01*
X2343283Y-2361002D01*
X2352807Y-2351479D01*
X2352807Y-2370526D01*
X2552807Y-2370526D02*
X2438521Y-2370526D01*
X2495664Y-2370526D02*
X2495664Y-2170526D01*
X2476617Y-2199098D01*
X2457569Y-2218145D01*
X2438521Y-2227669D01*
X2628998Y-2189574D02*
X2638521Y-2180050D01*
X2657569Y-2170526D01*
X2705188Y-2170526D01*
X2724236Y-2180050D01*
X2733760Y-2189574D01*
X2743283Y-2208621D01*
X2743283Y-2227669D01*
X2733760Y-2256240D01*
X2619474Y-2370526D01*
X2743283Y-2370526D01*
X2914712Y-2170526D02*
X2876617Y-2170526D01*
X2857569Y-2180050D01*
X2848045Y-2189574D01*
X2828998Y-2218145D01*
X2819474Y-2256240D01*
X2819474Y-2332431D01*
X2828998Y-2351479D01*
X2838521Y-2361002D01*
X2857569Y-2370526D01*
X2895664Y-2370526D01*
X2914712Y-2361002D01*
X2924236Y-2351479D01*
X2933759Y-2332431D01*
X2933759Y-2284812D01*
X2924236Y-2265764D01*
X2914712Y-2256240D01*
X2895664Y-2246717D01*
X2857569Y-2246717D01*
X2838521Y-2256240D01*
X2828998Y-2265764D01*
X2819474Y-2284812D01*
X3057569Y-2170526D02*
X3076617Y-2170526D01*
X3095664Y-2180050D01*
X3105188Y-2189574D01*
X3114712Y-2208621D01*
X3124236Y-2246717D01*
X3124236Y-2294336D01*
X3114712Y-2332431D01*
X3105188Y-2351479D01*
X3095664Y-2361002D01*
X3076617Y-2370526D01*
X3057569Y-2370526D01*
X3038521Y-2361002D01*
X3028998Y-2351479D01*
X3019474Y-2332431D01*
X3009950Y-2294336D01*
X3009950Y-2246717D01*
X3019474Y-2208621D01*
X3028998Y-2189574D01*
X3038521Y-2180050D01*
X3057569Y-2170526D01*
X3200426Y-2170526D02*
X3200426Y-2208621D01*
X3276617Y-2170526D02*
X3276617Y-2208621D01*
X3571855Y-2446717D02*
X3562331Y-2437193D01*
X3543283Y-2408621D01*
X3533759Y-2389574D01*
X3524236Y-2361002D01*
X3514712Y-2313383D01*
X3514712Y-2275288D01*
X3524236Y-2227669D01*
X3533759Y-2199098D01*
X3543283Y-2180050D01*
X3562331Y-2151479D01*
X3571855Y-2141955D01*
X3752807Y-2370526D02*
X3638521Y-2370526D01*
X3695664Y-2370526D02*
X3695664Y-2170526D01*
X3676617Y-2199098D01*
X3657569Y-2218145D01*
X3638521Y-2227669D01*
X3819474Y-2170526D02*
X3943283Y-2170526D01*
X3876617Y-2246717D01*
X3905188Y-2246717D01*
X3924236Y-2256240D01*
X3933759Y-2265764D01*
X3943283Y-2284812D01*
X3943283Y-2332431D01*
X3933759Y-2351479D01*
X3924236Y-2361002D01*
X3905188Y-2370526D01*
X3848045Y-2370526D01*
X3828998Y-2361002D01*
X3819474Y-2351479D01*
X4181378Y-2370526D02*
X4181378Y-2170526D01*
X4267093Y-2370526D02*
X4267093Y-2265764D01*
X4257569Y-2246717D01*
X4238521Y-2237193D01*
X4209950Y-2237193D01*
X4190902Y-2246717D01*
X4181378Y-2256240D01*
X4390902Y-2370526D02*
X4371855Y-2361002D01*
X4362331Y-2351479D01*
X4352807Y-2332431D01*
X4352807Y-2275288D01*
X4362331Y-2256240D01*
X4371855Y-2246717D01*
X4390902Y-2237193D01*
X4419474Y-2237193D01*
X4438521Y-2246717D01*
X4448045Y-2256240D01*
X4457569Y-2275288D01*
X4457569Y-2332431D01*
X4448045Y-2351479D01*
X4438521Y-2361002D01*
X4419474Y-2370526D01*
X4390902Y-2370526D01*
X4571855Y-2370526D02*
X4552807Y-2361002D01*
X4543283Y-2341955D01*
X4543283Y-2170526D01*
X4724236Y-2361002D02*
X4705188Y-2370526D01*
X4667093Y-2370526D01*
X4648045Y-2361002D01*
X4638521Y-2341955D01*
X4638521Y-2265764D01*
X4648045Y-2246717D01*
X4667093Y-2237193D01*
X4705188Y-2237193D01*
X4724236Y-2246717D01*
X4733760Y-2265764D01*
X4733760Y-2284812D01*
X4638521Y-2303860D01*
X4809950Y-2361002D02*
X4828998Y-2370526D01*
X4867093Y-2370526D01*
X4886140Y-2361002D01*
X4895664Y-2341955D01*
X4895664Y-2332431D01*
X4886140Y-2313383D01*
X4867093Y-2303860D01*
X4838521Y-2303860D01*
X4819474Y-2294336D01*
X4809950Y-2275288D01*
X4809950Y-2265764D01*
X4819474Y-2246717D01*
X4838521Y-2237193D01*
X4867093Y-2237193D01*
X4886140Y-2246717D01*
X4962331Y-2446717D02*
X4971855Y-2437193D01*
X4990902Y-2408621D01*
X5000426Y-2389574D01*
X5009950Y-2361002D01*
X5019474Y-2313383D01*
X5019474Y-2275288D01*
X5009950Y-2227669D01*
X5000426Y-2199098D01*
X4990902Y-2180050D01*
X4971855Y-2151479D01*
X4962331Y-2141955D01*
M02*
