G04 #@! TF.GenerationSoftware,KiCad,Pcbnew,(6.0.5)*
G04 #@! TF.CreationDate,2022-07-13T14:18:21-07:00*
G04 #@! TF.ProjectId,solid_state_relays_24v,736f6c69-645f-4737-9461-74655f72656c,0.0.10*
G04 #@! TF.SameCoordinates,PX2faf080PY8583b00*
G04 #@! TF.FileFunction,Legend,Top*
G04 #@! TF.FilePolarity,Positive*
%FSLAX46Y46*%
G04 Gerber Fmt 4.6, Leading zero omitted, Abs format (unit mm)*
G04 Created by KiCad (PCBNEW (6.0.5)) date 2022-07-13 14:18:21*
%MOMM*%
%LPD*%
G01*
G04 APERTURE LIST*
%ADD10C,0.150000*%
%ADD11C,0.250000*%
%ADD12C,0.254000*%
%ADD13C,1.000000*%
%ADD14C,0.200000*%
%ADD15C,0.113500*%
%ADD16C,0.120000*%
%ADD17C,0.100000*%
%ADD18C,0.300000*%
%ADD19C,0.010000*%
G04 APERTURE END LIST*
D10*
X38369047Y22428572D02*
X39130952Y22428572D01*
X38750000Y22047620D02*
X38750000Y22809524D01*
D11*
X106400000Y13621429D02*
X105900000Y14335715D01*
X105542857Y13621429D02*
X105542857Y15121429D01*
X106114285Y15121429D01*
X106257142Y15050000D01*
X106328571Y14978572D01*
X106400000Y14835715D01*
X106400000Y14621429D01*
X106328571Y14478572D01*
X106257142Y14407143D01*
X106114285Y14335715D01*
X105542857Y14335715D01*
X107614285Y13692858D02*
X107471428Y13621429D01*
X107185714Y13621429D01*
X107042857Y13692858D01*
X106971428Y13835715D01*
X106971428Y14407143D01*
X107042857Y14550000D01*
X107185714Y14621429D01*
X107471428Y14621429D01*
X107614285Y14550000D01*
X107685714Y14407143D01*
X107685714Y14264286D01*
X106971428Y14121429D01*
X108185714Y14621429D02*
X108542857Y13621429D01*
X108900000Y14621429D01*
X109471428Y13764286D02*
X109542857Y13692858D01*
X109471428Y13621429D01*
X109400000Y13692858D01*
X109471428Y13764286D01*
X109471428Y13621429D01*
X109471428Y14550000D02*
X109542857Y14478572D01*
X109471428Y14407143D01*
X109400000Y14478572D01*
X109471428Y14550000D01*
X109471428Y14407143D01*
X111614285Y15121429D02*
X111757142Y15121429D01*
X111900000Y15050000D01*
X111971428Y14978572D01*
X112042857Y14835715D01*
X112114285Y14550000D01*
X112114285Y14192858D01*
X112042857Y13907143D01*
X111971428Y13764286D01*
X111900000Y13692858D01*
X111757142Y13621429D01*
X111614285Y13621429D01*
X111471428Y13692858D01*
X111400000Y13764286D01*
X111328571Y13907143D01*
X111257142Y14192858D01*
X111257142Y14550000D01*
X111328571Y14835715D01*
X111400000Y14978572D01*
X111471428Y15050000D01*
X111614285Y15121429D01*
X112757142Y13764286D02*
X112828571Y13692858D01*
X112757142Y13621429D01*
X112685714Y13692858D01*
X112757142Y13764286D01*
X112757142Y13621429D01*
X113757142Y15121429D02*
X113900000Y15121429D01*
X114042857Y15050000D01*
X114114285Y14978572D01*
X114185714Y14835715D01*
X114257142Y14550000D01*
X114257142Y14192858D01*
X114185714Y13907143D01*
X114114285Y13764286D01*
X114042857Y13692858D01*
X113900000Y13621429D01*
X113757142Y13621429D01*
X113614285Y13692858D01*
X113542857Y13764286D01*
X113471428Y13907143D01*
X113400000Y14192858D01*
X113400000Y14550000D01*
X113471428Y14835715D01*
X113542857Y14978572D01*
X113614285Y15050000D01*
X113757142Y15121429D01*
X114900000Y13764286D02*
X114971428Y13692858D01*
X114900000Y13621429D01*
X114828571Y13692858D01*
X114900000Y13764286D01*
X114900000Y13621429D01*
X116400000Y13621429D02*
X115542857Y13621429D01*
X115971428Y13621429D02*
X115971428Y15121429D01*
X115828571Y14907143D01*
X115685714Y14764286D01*
X115542857Y14692858D01*
X117328571Y15121429D02*
X117471428Y15121429D01*
X117614285Y15050000D01*
X117685714Y14978572D01*
X117757142Y14835715D01*
X117828571Y14550000D01*
X117828571Y14192858D01*
X117757142Y13907143D01*
X117685714Y13764286D01*
X117614285Y13692858D01*
X117471428Y13621429D01*
X117328571Y13621429D01*
X117185714Y13692858D01*
X117114285Y13764286D01*
X117042857Y13907143D01*
X116971428Y14192858D01*
X116971428Y14550000D01*
X117042857Y14835715D01*
X117114285Y14978572D01*
X117185714Y15050000D01*
X117328571Y15121429D01*
D10*
X81630952Y67571429D02*
X80869047Y67571429D01*
X81250000Y67952381D02*
X81250000Y67190477D01*
X56630952Y67571429D02*
X55869047Y67571429D01*
X56250000Y67952381D02*
X56250000Y67190477D01*
X63369047Y22428572D02*
X64130952Y22428572D01*
X63750000Y22047620D02*
X63750000Y22809524D01*
X13369047Y22428572D02*
X14130952Y22428572D01*
X13750000Y22047620D02*
X13750000Y22809524D01*
X88369047Y22428572D02*
X89130952Y22428572D01*
X88750000Y22047620D02*
X88750000Y22809524D01*
X106630952Y67571429D02*
X105869047Y67571429D01*
X106250000Y67952381D02*
X106250000Y67190477D01*
X11719047Y31478572D02*
X12480952Y31478572D01*
X12100000Y31097620D02*
X12100000Y31859524D01*
X31630952Y67571429D02*
X30869047Y67571429D01*
X31250000Y67952381D02*
X31250000Y67190477D01*
X9219047Y54828572D02*
X9980952Y54828572D01*
X9600000Y54447620D02*
X9600000Y55209524D01*
G04 #@! TO.C,H1*
X3857142Y79721429D02*
X3857142Y81221429D01*
X3857142Y80507143D02*
X4714285Y80507143D01*
X4714285Y79721429D02*
X4714285Y81221429D01*
X6214285Y79721429D02*
X5357142Y79721429D01*
X5785714Y79721429D02*
X5785714Y81221429D01*
X5642857Y81007143D01*
X5500000Y80864286D01*
X5357142Y80792858D01*
G04 #@! TO.C,RP4*
X95703333Y55425477D02*
X95280000Y56030239D01*
X94977619Y55425477D02*
X94977619Y56695477D01*
X95461428Y56695477D01*
X95582380Y56635000D01*
X95642857Y56574524D01*
X95703333Y56453572D01*
X95703333Y56272143D01*
X95642857Y56151191D01*
X95582380Y56090715D01*
X95461428Y56030239D01*
X94977619Y56030239D01*
X96247619Y55425477D02*
X96247619Y56695477D01*
X96731428Y56695477D01*
X96852380Y56635000D01*
X96912857Y56574524D01*
X96973333Y56453572D01*
X96973333Y56272143D01*
X96912857Y56151191D01*
X96852380Y56090715D01*
X96731428Y56030239D01*
X96247619Y56030239D01*
X98061904Y56272143D02*
X98061904Y55425477D01*
X97759523Y56755953D02*
X97457142Y55848810D01*
X98243333Y55848810D01*
G04 #@! TO.C,TVS1*
X30500000Y77271429D02*
X31357142Y77271429D01*
X30928571Y75771429D02*
X30928571Y77271429D01*
X31642857Y77271429D02*
X32142857Y75771429D01*
X32642857Y77271429D01*
X33071428Y75842858D02*
X33285714Y75771429D01*
X33642857Y75771429D01*
X33785714Y75842858D01*
X33857142Y75914286D01*
X33928571Y76057143D01*
X33928571Y76200000D01*
X33857142Y76342858D01*
X33785714Y76414286D01*
X33642857Y76485715D01*
X33357142Y76557143D01*
X33214285Y76628572D01*
X33142857Y76700000D01*
X33071428Y76842858D01*
X33071428Y76985715D01*
X33142857Y77128572D01*
X33214285Y77200000D01*
X33357142Y77271429D01*
X33714285Y77271429D01*
X33928571Y77200000D01*
X35357142Y75771429D02*
X34500000Y75771429D01*
X34928571Y75771429D02*
X34928571Y77271429D01*
X34785714Y77057143D01*
X34642857Y76914286D01*
X34500000Y76842858D01*
G04 #@! TO.C,H4*
X3857142Y8821429D02*
X3857142Y10321429D01*
X3857142Y9607143D02*
X4714285Y9607143D01*
X4714285Y8821429D02*
X4714285Y10321429D01*
X6071428Y9821429D02*
X6071428Y8821429D01*
X5714285Y10392858D02*
X5357142Y9321429D01*
X6285714Y9321429D01*
G04 #@! TO.C,RP1*
X20703333Y55425477D02*
X20280000Y56030239D01*
X19977619Y55425477D02*
X19977619Y56695477D01*
X20461428Y56695477D01*
X20582380Y56635000D01*
X20642857Y56574524D01*
X20703333Y56453572D01*
X20703333Y56272143D01*
X20642857Y56151191D01*
X20582380Y56090715D01*
X20461428Y56030239D01*
X19977619Y56030239D01*
X21247619Y55425477D02*
X21247619Y56695477D01*
X21731428Y56695477D01*
X21852380Y56635000D01*
X21912857Y56574524D01*
X21973333Y56453572D01*
X21973333Y56272143D01*
X21912857Y56151191D01*
X21852380Y56090715D01*
X21731428Y56030239D01*
X21247619Y56030239D01*
X23182857Y55425477D02*
X22457142Y55425477D01*
X22820000Y55425477D02*
X22820000Y56695477D01*
X22699047Y56514048D01*
X22578095Y56393096D01*
X22457142Y56332620D01*
G04 #@! TO.C,TVS5*
X84650000Y14171429D02*
X85507142Y14171429D01*
X85078571Y12671429D02*
X85078571Y14171429D01*
X85792857Y14171429D02*
X86292857Y12671429D01*
X86792857Y14171429D01*
X87221428Y12742858D02*
X87435714Y12671429D01*
X87792857Y12671429D01*
X87935714Y12742858D01*
X88007142Y12814286D01*
X88078571Y12957143D01*
X88078571Y13100000D01*
X88007142Y13242858D01*
X87935714Y13314286D01*
X87792857Y13385715D01*
X87507142Y13457143D01*
X87364285Y13528572D01*
X87292857Y13600000D01*
X87221428Y13742858D01*
X87221428Y13885715D01*
X87292857Y14028572D01*
X87364285Y14100000D01*
X87507142Y14171429D01*
X87864285Y14171429D01*
X88078571Y14100000D01*
X89435714Y14171429D02*
X88721428Y14171429D01*
X88650000Y13457143D01*
X88721428Y13528572D01*
X88864285Y13600000D01*
X89221428Y13600000D01*
X89364285Y13528572D01*
X89435714Y13457143D01*
X89507142Y13314286D01*
X89507142Y12957143D01*
X89435714Y12814286D01*
X89364285Y12742858D01*
X89221428Y12671429D01*
X88864285Y12671429D01*
X88721428Y12742858D01*
X88650000Y12814286D01*
G04 #@! TO.C,RP5*
X87703333Y33325477D02*
X87280000Y33930239D01*
X86977619Y33325477D02*
X86977619Y34595477D01*
X87461428Y34595477D01*
X87582380Y34535000D01*
X87642857Y34474524D01*
X87703333Y34353572D01*
X87703333Y34172143D01*
X87642857Y34051191D01*
X87582380Y33990715D01*
X87461428Y33930239D01*
X86977619Y33930239D01*
X88247619Y33325477D02*
X88247619Y34595477D01*
X88731428Y34595477D01*
X88852380Y34535000D01*
X88912857Y34474524D01*
X88973333Y34353572D01*
X88973333Y34172143D01*
X88912857Y34051191D01*
X88852380Y33990715D01*
X88731428Y33930239D01*
X88247619Y33930239D01*
X90122380Y34595477D02*
X89517619Y34595477D01*
X89457142Y33990715D01*
X89517619Y34051191D01*
X89638571Y34111667D01*
X89940952Y34111667D01*
X90061904Y34051191D01*
X90122380Y33990715D01*
X90182857Y33869762D01*
X90182857Y33567381D01*
X90122380Y33446429D01*
X90061904Y33385953D01*
X89940952Y33325477D01*
X89638571Y33325477D01*
X89517619Y33385953D01*
X89457142Y33446429D01*
G04 #@! TO.C,HQ2*
X33321428Y57361429D02*
X33321428Y58861429D01*
X33321428Y58147143D02*
X34178571Y58147143D01*
X34178571Y57361429D02*
X34178571Y58861429D01*
X35892857Y57218572D02*
X35750000Y57290000D01*
X35607142Y57432858D01*
X35392857Y57647143D01*
X35250000Y57718572D01*
X35107142Y57718572D01*
X35178571Y57361429D02*
X35035714Y57432858D01*
X34892857Y57575715D01*
X34821428Y57861429D01*
X34821428Y58361429D01*
X34892857Y58647143D01*
X35035714Y58790000D01*
X35178571Y58861429D01*
X35464285Y58861429D01*
X35607142Y58790000D01*
X35750000Y58647143D01*
X35821428Y58361429D01*
X35821428Y57861429D01*
X35750000Y57575715D01*
X35607142Y57432858D01*
X35464285Y57361429D01*
X35178571Y57361429D01*
X36392857Y58718572D02*
X36464285Y58790000D01*
X36607142Y58861429D01*
X36964285Y58861429D01*
X37107142Y58790000D01*
X37178571Y58718572D01*
X37250000Y58575715D01*
X37250000Y58432858D01*
X37178571Y58218572D01*
X36321428Y57361429D01*
X37250000Y57361429D01*
G04 #@! TO.C,TVS2*
X55500000Y77271429D02*
X56357142Y77271429D01*
X55928571Y75771429D02*
X55928571Y77271429D01*
X56642857Y77271429D02*
X57142857Y75771429D01*
X57642857Y77271429D01*
X58071428Y75842858D02*
X58285714Y75771429D01*
X58642857Y75771429D01*
X58785714Y75842858D01*
X58857142Y75914286D01*
X58928571Y76057143D01*
X58928571Y76200000D01*
X58857142Y76342858D01*
X58785714Y76414286D01*
X58642857Y76485715D01*
X58357142Y76557143D01*
X58214285Y76628572D01*
X58142857Y76700000D01*
X58071428Y76842858D01*
X58071428Y76985715D01*
X58142857Y77128572D01*
X58214285Y77200000D01*
X58357142Y77271429D01*
X58714285Y77271429D01*
X58928571Y77200000D01*
X59500000Y77128572D02*
X59571428Y77200000D01*
X59714285Y77271429D01*
X60071428Y77271429D01*
X60214285Y77200000D01*
X60285714Y77128572D01*
X60357142Y76985715D01*
X60357142Y76842858D01*
X60285714Y76628572D01*
X59428571Y75771429D01*
X60357142Y75771429D01*
G04 #@! TO.C,JP1*
X9916666Y73397620D02*
X9916666Y72683334D01*
X9869047Y72540477D01*
X9773809Y72445239D01*
X9630952Y72397620D01*
X9535714Y72397620D01*
X10392857Y72397620D02*
X10392857Y73397620D01*
X10773809Y73397620D01*
X10869047Y73350000D01*
X10916666Y73302381D01*
X10964285Y73207143D01*
X10964285Y73064286D01*
X10916666Y72969048D01*
X10869047Y72921429D01*
X10773809Y72873810D01*
X10392857Y72873810D01*
X11916666Y72397620D02*
X11345238Y72397620D01*
X11630952Y72397620D02*
X11630952Y73397620D01*
X11535714Y73254762D01*
X11440476Y73159524D01*
X11345238Y73111905D01*
G04 #@! TO.C,RP6*
X62703333Y33325477D02*
X62280000Y33930239D01*
X61977619Y33325477D02*
X61977619Y34595477D01*
X62461428Y34595477D01*
X62582380Y34535000D01*
X62642857Y34474524D01*
X62703333Y34353572D01*
X62703333Y34172143D01*
X62642857Y34051191D01*
X62582380Y33990715D01*
X62461428Y33930239D01*
X61977619Y33930239D01*
X63247619Y33325477D02*
X63247619Y34595477D01*
X63731428Y34595477D01*
X63852380Y34535000D01*
X63912857Y34474524D01*
X63973333Y34353572D01*
X63973333Y34172143D01*
X63912857Y34051191D01*
X63852380Y33990715D01*
X63731428Y33930239D01*
X63247619Y33930239D01*
X65061904Y34595477D02*
X64820000Y34595477D01*
X64699047Y34535000D01*
X64638571Y34474524D01*
X64517619Y34293096D01*
X64457142Y34051191D01*
X64457142Y33567381D01*
X64517619Y33446429D01*
X64578095Y33385953D01*
X64699047Y33325477D01*
X64940952Y33325477D01*
X65061904Y33385953D01*
X65122380Y33446429D01*
X65182857Y33567381D01*
X65182857Y33869762D01*
X65122380Y33990715D01*
X65061904Y34051191D01*
X64940952Y34111667D01*
X64699047Y34111667D01*
X64578095Y34051191D01*
X64517619Y33990715D01*
X64457142Y33869762D01*
G04 #@! TO.C,H2*
X113857142Y79721429D02*
X113857142Y81221429D01*
X113857142Y80507143D02*
X114714285Y80507143D01*
X114714285Y79721429D02*
X114714285Y81221429D01*
X115357142Y81078572D02*
X115428571Y81150000D01*
X115571428Y81221429D01*
X115928571Y81221429D01*
X116071428Y81150000D01*
X116142857Y81078572D01*
X116214285Y80935715D01*
X116214285Y80792858D01*
X116142857Y80578572D01*
X115285714Y79721429D01*
X116214285Y79721429D01*
G04 #@! TO.C,HQ1*
X14521428Y61871429D02*
X14521428Y63371429D01*
X14521428Y62657143D02*
X15378571Y62657143D01*
X15378571Y61871429D02*
X15378571Y63371429D01*
X17092857Y61728572D02*
X16950000Y61800000D01*
X16807142Y61942858D01*
X16592857Y62157143D01*
X16450000Y62228572D01*
X16307142Y62228572D01*
X16378571Y61871429D02*
X16235714Y61942858D01*
X16092857Y62085715D01*
X16021428Y62371429D01*
X16021428Y62871429D01*
X16092857Y63157143D01*
X16235714Y63300000D01*
X16378571Y63371429D01*
X16664285Y63371429D01*
X16807142Y63300000D01*
X16950000Y63157143D01*
X17021428Y62871429D01*
X17021428Y62371429D01*
X16950000Y62085715D01*
X16807142Y61942858D01*
X16664285Y61871429D01*
X16378571Y61871429D01*
X18450000Y61871429D02*
X17592857Y61871429D01*
X18021428Y61871429D02*
X18021428Y63371429D01*
X17878571Y63157143D01*
X17735714Y63014286D01*
X17592857Y62942858D01*
G04 #@! TO.C,RP2*
X45703333Y55425477D02*
X45280000Y56030239D01*
X44977619Y55425477D02*
X44977619Y56695477D01*
X45461428Y56695477D01*
X45582380Y56635000D01*
X45642857Y56574524D01*
X45703333Y56453572D01*
X45703333Y56272143D01*
X45642857Y56151191D01*
X45582380Y56090715D01*
X45461428Y56030239D01*
X44977619Y56030239D01*
X46247619Y55425477D02*
X46247619Y56695477D01*
X46731428Y56695477D01*
X46852380Y56635000D01*
X46912857Y56574524D01*
X46973333Y56453572D01*
X46973333Y56272143D01*
X46912857Y56151191D01*
X46852380Y56090715D01*
X46731428Y56030239D01*
X46247619Y56030239D01*
X47457142Y56574524D02*
X47517619Y56635000D01*
X47638571Y56695477D01*
X47940952Y56695477D01*
X48061904Y56635000D01*
X48122380Y56574524D01*
X48182857Y56453572D01*
X48182857Y56332620D01*
X48122380Y56151191D01*
X47396666Y55425477D01*
X48182857Y55425477D01*
G04 #@! TO.C,TVS8*
X9500000Y14371429D02*
X10357142Y14371429D01*
X9928571Y12871429D02*
X9928571Y14371429D01*
X10642857Y14371429D02*
X11142857Y12871429D01*
X11642857Y14371429D01*
X12071428Y12942858D02*
X12285714Y12871429D01*
X12642857Y12871429D01*
X12785714Y12942858D01*
X12857142Y13014286D01*
X12928571Y13157143D01*
X12928571Y13300000D01*
X12857142Y13442858D01*
X12785714Y13514286D01*
X12642857Y13585715D01*
X12357142Y13657143D01*
X12214285Y13728572D01*
X12142857Y13800000D01*
X12071428Y13942858D01*
X12071428Y14085715D01*
X12142857Y14228572D01*
X12214285Y14300000D01*
X12357142Y14371429D01*
X12714285Y14371429D01*
X12928571Y14300000D01*
X13785714Y13728572D02*
X13642857Y13800000D01*
X13571428Y13871429D01*
X13500000Y14014286D01*
X13500000Y14085715D01*
X13571428Y14228572D01*
X13642857Y14300000D01*
X13785714Y14371429D01*
X14071428Y14371429D01*
X14214285Y14300000D01*
X14285714Y14228572D01*
X14357142Y14085715D01*
X14357142Y14014286D01*
X14285714Y13871429D01*
X14214285Y13800000D01*
X14071428Y13728572D01*
X13785714Y13728572D01*
X13642857Y13657143D01*
X13571428Y13585715D01*
X13500000Y13442858D01*
X13500000Y13157143D01*
X13571428Y13014286D01*
X13642857Y12942858D01*
X13785714Y12871429D01*
X14071428Y12871429D01*
X14214285Y12942858D01*
X14285714Y13014286D01*
X14357142Y13157143D01*
X14357142Y13442858D01*
X14285714Y13585715D01*
X14214285Y13657143D01*
X14071428Y13728572D01*
G04 #@! TO.C,RL6*
X79524285Y9125477D02*
X79100952Y9730239D01*
X78798571Y9125477D02*
X78798571Y10395477D01*
X79282380Y10395477D01*
X79403333Y10335000D01*
X79463809Y10274524D01*
X79524285Y10153572D01*
X79524285Y9972143D01*
X79463809Y9851191D01*
X79403333Y9790715D01*
X79282380Y9730239D01*
X78798571Y9730239D01*
X80673333Y9125477D02*
X80068571Y9125477D01*
X80068571Y10395477D01*
X81640952Y10395477D02*
X81399047Y10395477D01*
X81278095Y10335000D01*
X81217619Y10274524D01*
X81096666Y10093096D01*
X81036190Y9851191D01*
X81036190Y9367381D01*
X81096666Y9246429D01*
X81157142Y9185953D01*
X81278095Y9125477D01*
X81520000Y9125477D01*
X81640952Y9185953D01*
X81701428Y9246429D01*
X81761904Y9367381D01*
X81761904Y9669762D01*
X81701428Y9790715D01*
X81640952Y9851191D01*
X81520000Y9911667D01*
X81278095Y9911667D01*
X81157142Y9851191D01*
X81096666Y9790715D01*
X81036190Y9669762D01*
G04 #@! TO.C,J2*
X56350000Y87421429D02*
X56350000Y86350000D01*
X56278571Y86135715D01*
X56135714Y85992858D01*
X55921428Y85921429D01*
X55778571Y85921429D01*
X56992857Y87278572D02*
X57064285Y87350000D01*
X57207142Y87421429D01*
X57564285Y87421429D01*
X57707142Y87350000D01*
X57778571Y87278572D01*
X57850000Y87135715D01*
X57850000Y86992858D01*
X57778571Y86778572D01*
X56921428Y85921429D01*
X57850000Y85921429D01*
G04 #@! TO.C,TVS3*
X80500000Y77321429D02*
X81357142Y77321429D01*
X80928571Y75821429D02*
X80928571Y77321429D01*
X81642857Y77321429D02*
X82142857Y75821429D01*
X82642857Y77321429D01*
X83071428Y75892858D02*
X83285714Y75821429D01*
X83642857Y75821429D01*
X83785714Y75892858D01*
X83857142Y75964286D01*
X83928571Y76107143D01*
X83928571Y76250000D01*
X83857142Y76392858D01*
X83785714Y76464286D01*
X83642857Y76535715D01*
X83357142Y76607143D01*
X83214285Y76678572D01*
X83142857Y76750000D01*
X83071428Y76892858D01*
X83071428Y77035715D01*
X83142857Y77178572D01*
X83214285Y77250000D01*
X83357142Y77321429D01*
X83714285Y77321429D01*
X83928571Y77250000D01*
X84428571Y77321429D02*
X85357142Y77321429D01*
X84857142Y76750000D01*
X85071428Y76750000D01*
X85214285Y76678572D01*
X85285714Y76607143D01*
X85357142Y76464286D01*
X85357142Y76107143D01*
X85285714Y75964286D01*
X85214285Y75892858D01*
X85071428Y75821429D01*
X84642857Y75821429D01*
X84500000Y75892858D01*
X84428571Y75964286D01*
G04 #@! TO.C,LED7*
X57121428Y4571429D02*
X56407142Y4571429D01*
X56407142Y6071429D01*
X57621428Y5357143D02*
X58121428Y5357143D01*
X58335714Y4571429D02*
X57621428Y4571429D01*
X57621428Y6071429D01*
X58335714Y6071429D01*
X58978571Y4571429D02*
X58978571Y6071429D01*
X59335714Y6071429D01*
X59550000Y6000000D01*
X59692857Y5857143D01*
X59764285Y5714286D01*
X59835714Y5428572D01*
X59835714Y5214286D01*
X59764285Y4928572D01*
X59692857Y4785715D01*
X59550000Y4642858D01*
X59335714Y4571429D01*
X58978571Y4571429D01*
X60335714Y6071429D02*
X61335714Y6071429D01*
X60692857Y4571429D01*
G04 #@! TO.C,H3*
X113857142Y8821429D02*
X113857142Y10321429D01*
X113857142Y9607143D02*
X114714285Y9607143D01*
X114714285Y8821429D02*
X114714285Y10321429D01*
X115285714Y10321429D02*
X116214285Y10321429D01*
X115714285Y9750000D01*
X115928571Y9750000D01*
X116071428Y9678572D01*
X116142857Y9607143D01*
X116214285Y9464286D01*
X116214285Y9107143D01*
X116142857Y8964286D01*
X116071428Y8892858D01*
X115928571Y8821429D01*
X115500000Y8821429D01*
X115357142Y8892858D01*
X115285714Y8964286D01*
G04 #@! TO.C,J1*
X31350000Y87421429D02*
X31350000Y86350000D01*
X31278571Y86135715D01*
X31135714Y85992858D01*
X30921428Y85921429D01*
X30778571Y85921429D01*
X32850000Y85921429D02*
X31992857Y85921429D01*
X32421428Y85921429D02*
X32421428Y87421429D01*
X32278571Y87207143D01*
X32135714Y87064286D01*
X31992857Y86992858D01*
G04 #@! TO.C,RL4*
X89274285Y79925477D02*
X88850952Y80530239D01*
X88548571Y79925477D02*
X88548571Y81195477D01*
X89032380Y81195477D01*
X89153333Y81135000D01*
X89213809Y81074524D01*
X89274285Y80953572D01*
X89274285Y80772143D01*
X89213809Y80651191D01*
X89153333Y80590715D01*
X89032380Y80530239D01*
X88548571Y80530239D01*
X90423333Y79925477D02*
X89818571Y79925477D01*
X89818571Y81195477D01*
X91390952Y80772143D02*
X91390952Y79925477D01*
X91088571Y81255953D02*
X90786190Y80348810D01*
X91572380Y80348810D01*
G04 #@! TO.C,HQ7*
X57821428Y31281429D02*
X57821428Y32781429D01*
X57821428Y32067143D02*
X58678571Y32067143D01*
X58678571Y31281429D02*
X58678571Y32781429D01*
X60392857Y31138572D02*
X60250000Y31210000D01*
X60107142Y31352858D01*
X59892857Y31567143D01*
X59750000Y31638572D01*
X59607142Y31638572D01*
X59678571Y31281429D02*
X59535714Y31352858D01*
X59392857Y31495715D01*
X59321428Y31781429D01*
X59321428Y32281429D01*
X59392857Y32567143D01*
X59535714Y32710000D01*
X59678571Y32781429D01*
X59964285Y32781429D01*
X60107142Y32710000D01*
X60250000Y32567143D01*
X60321428Y32281429D01*
X60321428Y31781429D01*
X60250000Y31495715D01*
X60107142Y31352858D01*
X59964285Y31281429D01*
X59678571Y31281429D01*
X60821428Y32781429D02*
X61821428Y32781429D01*
X61178571Y31281429D01*
G04 #@! TO.C,J6*
X63000000Y4571429D02*
X63000000Y3500000D01*
X62928571Y3285715D01*
X62785714Y3142858D01*
X62571428Y3071429D01*
X62428571Y3071429D01*
X64357142Y4571429D02*
X64071428Y4571429D01*
X63928571Y4500000D01*
X63857142Y4428572D01*
X63714285Y4214286D01*
X63642857Y3928572D01*
X63642857Y3357143D01*
X63714285Y3214286D01*
X63785714Y3142858D01*
X63928571Y3071429D01*
X64214285Y3071429D01*
X64357142Y3142858D01*
X64428571Y3214286D01*
X64500000Y3357143D01*
X64500000Y3714286D01*
X64428571Y3857143D01*
X64357142Y3928572D01*
X64214285Y4000000D01*
X63928571Y4000000D01*
X63785714Y3928572D01*
X63714285Y3857143D01*
X63642857Y3714286D01*
G04 #@! TO.C,RL7*
X54524285Y9125477D02*
X54100952Y9730239D01*
X53798571Y9125477D02*
X53798571Y10395477D01*
X54282380Y10395477D01*
X54403333Y10335000D01*
X54463809Y10274524D01*
X54524285Y10153572D01*
X54524285Y9972143D01*
X54463809Y9851191D01*
X54403333Y9790715D01*
X54282380Y9730239D01*
X53798571Y9730239D01*
X55673333Y9125477D02*
X55068571Y9125477D01*
X55068571Y10395477D01*
X55975714Y10395477D02*
X56822380Y10395477D01*
X56278095Y9125477D01*
G04 #@! TO.C,TVS6*
X59550000Y13871429D02*
X60407142Y13871429D01*
X59978571Y12371429D02*
X59978571Y13871429D01*
X60692857Y13871429D02*
X61192857Y12371429D01*
X61692857Y13871429D01*
X62121428Y12442858D02*
X62335714Y12371429D01*
X62692857Y12371429D01*
X62835714Y12442858D01*
X62907142Y12514286D01*
X62978571Y12657143D01*
X62978571Y12800000D01*
X62907142Y12942858D01*
X62835714Y13014286D01*
X62692857Y13085715D01*
X62407142Y13157143D01*
X62264285Y13228572D01*
X62192857Y13300000D01*
X62121428Y13442858D01*
X62121428Y13585715D01*
X62192857Y13728572D01*
X62264285Y13800000D01*
X62407142Y13871429D01*
X62764285Y13871429D01*
X62978571Y13800000D01*
X64264285Y13871429D02*
X63978571Y13871429D01*
X63835714Y13800000D01*
X63764285Y13728572D01*
X63621428Y13514286D01*
X63550000Y13228572D01*
X63550000Y12657143D01*
X63621428Y12514286D01*
X63692857Y12442858D01*
X63835714Y12371429D01*
X64121428Y12371429D01*
X64264285Y12442858D01*
X64335714Y12514286D01*
X64407142Y12657143D01*
X64407142Y13014286D01*
X64335714Y13157143D01*
X64264285Y13228572D01*
X64121428Y13300000D01*
X63835714Y13300000D01*
X63692857Y13228572D01*
X63621428Y13157143D01*
X63550000Y13014286D01*
G04 #@! TO.C,RL5*
X104524285Y9125477D02*
X104100952Y9730239D01*
X103798571Y9125477D02*
X103798571Y10395477D01*
X104282380Y10395477D01*
X104403333Y10335000D01*
X104463809Y10274524D01*
X104524285Y10153572D01*
X104524285Y9972143D01*
X104463809Y9851191D01*
X104403333Y9790715D01*
X104282380Y9730239D01*
X103798571Y9730239D01*
X105673333Y9125477D02*
X105068571Y9125477D01*
X105068571Y10395477D01*
X106701428Y10395477D02*
X106096666Y10395477D01*
X106036190Y9790715D01*
X106096666Y9851191D01*
X106217619Y9911667D01*
X106520000Y9911667D01*
X106640952Y9851191D01*
X106701428Y9790715D01*
X106761904Y9669762D01*
X106761904Y9367381D01*
X106701428Y9246429D01*
X106640952Y9185953D01*
X106520000Y9125477D01*
X106217619Y9125477D01*
X106096666Y9185953D01*
X106036190Y9246429D01*
G04 #@! TO.C,LED3*
X59821428Y83821429D02*
X59107142Y83821429D01*
X59107142Y85321429D01*
X60321428Y84607143D02*
X60821428Y84607143D01*
X61035714Y83821429D02*
X60321428Y83821429D01*
X60321428Y85321429D01*
X61035714Y85321429D01*
X61678571Y83821429D02*
X61678571Y85321429D01*
X62035714Y85321429D01*
X62250000Y85250000D01*
X62392857Y85107143D01*
X62464285Y84964286D01*
X62535714Y84678572D01*
X62535714Y84464286D01*
X62464285Y84178572D01*
X62392857Y84035715D01*
X62250000Y83892858D01*
X62035714Y83821429D01*
X61678571Y83821429D01*
X63035714Y85321429D02*
X63964285Y85321429D01*
X63464285Y84750000D01*
X63678571Y84750000D01*
X63821428Y84678572D01*
X63892857Y84607143D01*
X63964285Y84464286D01*
X63964285Y84107143D01*
X63892857Y83964286D01*
X63821428Y83892858D01*
X63678571Y83821429D01*
X63250000Y83821429D01*
X63107142Y83892858D01*
X63035714Y83964286D01*
G04 #@! TO.C,LED5*
X107021428Y4571429D02*
X106307142Y4571429D01*
X106307142Y6071429D01*
X107521428Y5357143D02*
X108021428Y5357143D01*
X108235714Y4571429D02*
X107521428Y4571429D01*
X107521428Y6071429D01*
X108235714Y6071429D01*
X108878571Y4571429D02*
X108878571Y6071429D01*
X109235714Y6071429D01*
X109450000Y6000000D01*
X109592857Y5857143D01*
X109664285Y5714286D01*
X109735714Y5428572D01*
X109735714Y5214286D01*
X109664285Y4928572D01*
X109592857Y4785715D01*
X109450000Y4642858D01*
X109235714Y4571429D01*
X108878571Y4571429D01*
X111092857Y6071429D02*
X110378571Y6071429D01*
X110307142Y5357143D01*
X110378571Y5428572D01*
X110521428Y5500000D01*
X110878571Y5500000D01*
X111021428Y5428572D01*
X111092857Y5357143D01*
X111164285Y5214286D01*
X111164285Y4857143D01*
X111092857Y4714286D01*
X111021428Y4642858D01*
X110878571Y4571429D01*
X110521428Y4571429D01*
X110378571Y4642858D01*
X110307142Y4714286D01*
G04 #@! TO.C,J4*
X106000000Y87071429D02*
X106000000Y86000000D01*
X105928571Y85785715D01*
X105785714Y85642858D01*
X105571428Y85571429D01*
X105428571Y85571429D01*
X107357142Y86571429D02*
X107357142Y85571429D01*
X107000000Y87142858D02*
X106642857Y86071429D01*
X107571428Y86071429D01*
G04 #@! TO.C,RP3*
X70703333Y55425477D02*
X70280000Y56030239D01*
X69977619Y55425477D02*
X69977619Y56695477D01*
X70461428Y56695477D01*
X70582380Y56635000D01*
X70642857Y56574524D01*
X70703333Y56453572D01*
X70703333Y56272143D01*
X70642857Y56151191D01*
X70582380Y56090715D01*
X70461428Y56030239D01*
X69977619Y56030239D01*
X71247619Y55425477D02*
X71247619Y56695477D01*
X71731428Y56695477D01*
X71852380Y56635000D01*
X71912857Y56574524D01*
X71973333Y56453572D01*
X71973333Y56272143D01*
X71912857Y56151191D01*
X71852380Y56090715D01*
X71731428Y56030239D01*
X71247619Y56030239D01*
X72396666Y56695477D02*
X73182857Y56695477D01*
X72759523Y56211667D01*
X72940952Y56211667D01*
X73061904Y56151191D01*
X73122380Y56090715D01*
X73182857Y55969762D01*
X73182857Y55667381D01*
X73122380Y55546429D01*
X73061904Y55485953D01*
X72940952Y55425477D01*
X72578095Y55425477D01*
X72457142Y55485953D01*
X72396666Y55546429D01*
G04 #@! TO.C,J3*
X81000000Y87071429D02*
X81000000Y86000000D01*
X80928571Y85785715D01*
X80785714Y85642858D01*
X80571428Y85571429D01*
X80428571Y85571429D01*
X81571428Y87071429D02*
X82500000Y87071429D01*
X82000000Y86500000D01*
X82214285Y86500000D01*
X82357142Y86428572D01*
X82428571Y86357143D01*
X82500000Y86214286D01*
X82500000Y85857143D01*
X82428571Y85714286D01*
X82357142Y85642858D01*
X82214285Y85571429D01*
X81785714Y85571429D01*
X81642857Y85642858D01*
X81571428Y85714286D01*
G04 #@! TO.C,RP7*
X37703333Y33325477D02*
X37280000Y33930239D01*
X36977619Y33325477D02*
X36977619Y34595477D01*
X37461428Y34595477D01*
X37582380Y34535000D01*
X37642857Y34474524D01*
X37703333Y34353572D01*
X37703333Y34172143D01*
X37642857Y34051191D01*
X37582380Y33990715D01*
X37461428Y33930239D01*
X36977619Y33930239D01*
X38247619Y33325477D02*
X38247619Y34595477D01*
X38731428Y34595477D01*
X38852380Y34535000D01*
X38912857Y34474524D01*
X38973333Y34353572D01*
X38973333Y34172143D01*
X38912857Y34051191D01*
X38852380Y33990715D01*
X38731428Y33930239D01*
X38247619Y33930239D01*
X39396666Y34595477D02*
X40243333Y34595477D01*
X39699047Y33325477D01*
G04 #@! TO.C,JCNTL1*
X97685714Y45821429D02*
X97685714Y44750000D01*
X97614285Y44535715D01*
X97471428Y44392858D01*
X97257142Y44321429D01*
X97114285Y44321429D01*
X99257142Y44464286D02*
X99185714Y44392858D01*
X98971428Y44321429D01*
X98828571Y44321429D01*
X98614285Y44392858D01*
X98471428Y44535715D01*
X98400000Y44678572D01*
X98328571Y44964286D01*
X98328571Y45178572D01*
X98400000Y45464286D01*
X98471428Y45607143D01*
X98614285Y45750000D01*
X98828571Y45821429D01*
X98971428Y45821429D01*
X99185714Y45750000D01*
X99257142Y45678572D01*
X99900000Y44321429D02*
X99900000Y45821429D01*
X100757142Y44321429D01*
X100757142Y45821429D01*
X101257142Y45821429D02*
X102114285Y45821429D01*
X101685714Y44321429D02*
X101685714Y45821429D01*
X103328571Y44321429D02*
X102614285Y44321429D01*
X102614285Y45821429D01*
X104614285Y44321429D02*
X103757142Y44321429D01*
X104185714Y44321429D02*
X104185714Y45821429D01*
X104042857Y45607143D01*
X103900000Y45464286D01*
X103757142Y45392858D01*
G04 #@! TO.C,HQ6*
X82821428Y31281429D02*
X82821428Y32781429D01*
X82821428Y32067143D02*
X83678571Y32067143D01*
X83678571Y31281429D02*
X83678571Y32781429D01*
X85392857Y31138572D02*
X85250000Y31210000D01*
X85107142Y31352858D01*
X84892857Y31567143D01*
X84750000Y31638572D01*
X84607142Y31638572D01*
X84678571Y31281429D02*
X84535714Y31352858D01*
X84392857Y31495715D01*
X84321428Y31781429D01*
X84321428Y32281429D01*
X84392857Y32567143D01*
X84535714Y32710000D01*
X84678571Y32781429D01*
X84964285Y32781429D01*
X85107142Y32710000D01*
X85250000Y32567143D01*
X85321428Y32281429D01*
X85321428Y31781429D01*
X85250000Y31495715D01*
X85107142Y31352858D01*
X84964285Y31281429D01*
X84678571Y31281429D01*
X86607142Y32781429D02*
X86321428Y32781429D01*
X86178571Y32710000D01*
X86107142Y32638572D01*
X85964285Y32424286D01*
X85892857Y32138572D01*
X85892857Y31567143D01*
X85964285Y31424286D01*
X86035714Y31352858D01*
X86178571Y31281429D01*
X86464285Y31281429D01*
X86607142Y31352858D01*
X86678571Y31424286D01*
X86750000Y31567143D01*
X86750000Y31924286D01*
X86678571Y32067143D01*
X86607142Y32138572D01*
X86464285Y32210000D01*
X86178571Y32210000D01*
X86035714Y32138572D01*
X85964285Y32067143D01*
X85892857Y31924286D01*
G04 #@! TO.C,HQ8*
X32821428Y31281429D02*
X32821428Y32781429D01*
X32821428Y32067143D02*
X33678571Y32067143D01*
X33678571Y31281429D02*
X33678571Y32781429D01*
X35392857Y31138572D02*
X35250000Y31210000D01*
X35107142Y31352858D01*
X34892857Y31567143D01*
X34750000Y31638572D01*
X34607142Y31638572D01*
X34678571Y31281429D02*
X34535714Y31352858D01*
X34392857Y31495715D01*
X34321428Y31781429D01*
X34321428Y32281429D01*
X34392857Y32567143D01*
X34535714Y32710000D01*
X34678571Y32781429D01*
X34964285Y32781429D01*
X35107142Y32710000D01*
X35250000Y32567143D01*
X35321428Y32281429D01*
X35321428Y31781429D01*
X35250000Y31495715D01*
X35107142Y31352858D01*
X34964285Y31281429D01*
X34678571Y31281429D01*
X36178571Y32138572D02*
X36035714Y32210000D01*
X35964285Y32281429D01*
X35892857Y32424286D01*
X35892857Y32495715D01*
X35964285Y32638572D01*
X36035714Y32710000D01*
X36178571Y32781429D01*
X36464285Y32781429D01*
X36607142Y32710000D01*
X36678571Y32638572D01*
X36750000Y32495715D01*
X36750000Y32424286D01*
X36678571Y32281429D01*
X36607142Y32210000D01*
X36464285Y32138572D01*
X36178571Y32138572D01*
X36035714Y32067143D01*
X35964285Y31995715D01*
X35892857Y31852858D01*
X35892857Y31567143D01*
X35964285Y31424286D01*
X36035714Y31352858D01*
X36178571Y31281429D01*
X36464285Y31281429D01*
X36607142Y31352858D01*
X36678571Y31424286D01*
X36750000Y31567143D01*
X36750000Y31852858D01*
X36678571Y31995715D01*
X36607142Y32067143D01*
X36464285Y32138572D01*
G04 #@! TO.C,RL8*
X29524285Y9125477D02*
X29100952Y9730239D01*
X28798571Y9125477D02*
X28798571Y10395477D01*
X29282380Y10395477D01*
X29403333Y10335000D01*
X29463809Y10274524D01*
X29524285Y10153572D01*
X29524285Y9972143D01*
X29463809Y9851191D01*
X29403333Y9790715D01*
X29282380Y9730239D01*
X28798571Y9730239D01*
X30673333Y9125477D02*
X30068571Y9125477D01*
X30068571Y10395477D01*
X31278095Y9851191D02*
X31157142Y9911667D01*
X31096666Y9972143D01*
X31036190Y10093096D01*
X31036190Y10153572D01*
X31096666Y10274524D01*
X31157142Y10335000D01*
X31278095Y10395477D01*
X31520000Y10395477D01*
X31640952Y10335000D01*
X31701428Y10274524D01*
X31761904Y10153572D01*
X31761904Y10093096D01*
X31701428Y9972143D01*
X31640952Y9911667D01*
X31520000Y9851191D01*
X31278095Y9851191D01*
X31157142Y9790715D01*
X31096666Y9730239D01*
X31036190Y9609286D01*
X31036190Y9367381D01*
X31096666Y9246429D01*
X31157142Y9185953D01*
X31278095Y9125477D01*
X31520000Y9125477D01*
X31640952Y9185953D01*
X31701428Y9246429D01*
X31761904Y9367381D01*
X31761904Y9609286D01*
X31701428Y9730239D01*
X31640952Y9790715D01*
X31520000Y9851191D01*
G04 #@! TO.C,J8*
X13000000Y4571429D02*
X13000000Y3500000D01*
X12928571Y3285715D01*
X12785714Y3142858D01*
X12571428Y3071429D01*
X12428571Y3071429D01*
X13928571Y3928572D02*
X13785714Y4000000D01*
X13714285Y4071429D01*
X13642857Y4214286D01*
X13642857Y4285715D01*
X13714285Y4428572D01*
X13785714Y4500000D01*
X13928571Y4571429D01*
X14214285Y4571429D01*
X14357142Y4500000D01*
X14428571Y4428572D01*
X14500000Y4285715D01*
X14500000Y4214286D01*
X14428571Y4071429D01*
X14357142Y4000000D01*
X14214285Y3928572D01*
X13928571Y3928572D01*
X13785714Y3857143D01*
X13714285Y3785715D01*
X13642857Y3642858D01*
X13642857Y3357143D01*
X13714285Y3214286D01*
X13785714Y3142858D01*
X13928571Y3071429D01*
X14214285Y3071429D01*
X14357142Y3142858D01*
X14428571Y3214286D01*
X14500000Y3357143D01*
X14500000Y3642858D01*
X14428571Y3785715D01*
X14357142Y3857143D01*
X14214285Y3928572D01*
D12*
G04 #@! TO.C,JPWR1*
X22580952Y37795477D02*
X22580952Y36888334D01*
X22520476Y36706905D01*
X22399523Y36585953D01*
X22218095Y36525477D01*
X22097142Y36525477D01*
X23185714Y36525477D02*
X23185714Y37795477D01*
X23669523Y37795477D01*
X23790476Y37735000D01*
X23850952Y37674524D01*
X23911428Y37553572D01*
X23911428Y37372143D01*
X23850952Y37251191D01*
X23790476Y37190715D01*
X23669523Y37130239D01*
X23185714Y37130239D01*
X24334761Y37795477D02*
X24637142Y36525477D01*
X24879047Y37432620D01*
X25120952Y36525477D01*
X25423333Y37795477D01*
X26632857Y36525477D02*
X26209523Y37130239D01*
X25907142Y36525477D02*
X25907142Y37795477D01*
X26390952Y37795477D01*
X26511904Y37735000D01*
X26572380Y37674524D01*
X26632857Y37553572D01*
X26632857Y37372143D01*
X26572380Y37251191D01*
X26511904Y37190715D01*
X26390952Y37130239D01*
X25907142Y37130239D01*
X27842380Y36525477D02*
X27116666Y36525477D01*
X27479523Y36525477D02*
X27479523Y37795477D01*
X27358571Y37614048D01*
X27237619Y37493096D01*
X27116666Y37432620D01*
D10*
X13707142Y48028572D02*
X13707142Y49171429D01*
X14278571Y48600000D02*
X13135714Y48600000D01*
X13707142Y40828572D02*
X13707142Y41971429D01*
G04 #@! TO.C,TVS4*
X105500000Y77321429D02*
X106357142Y77321429D01*
X105928571Y75821429D02*
X105928571Y77321429D01*
X106642857Y77321429D02*
X107142857Y75821429D01*
X107642857Y77321429D01*
X108071428Y75892858D02*
X108285714Y75821429D01*
X108642857Y75821429D01*
X108785714Y75892858D01*
X108857142Y75964286D01*
X108928571Y76107143D01*
X108928571Y76250000D01*
X108857142Y76392858D01*
X108785714Y76464286D01*
X108642857Y76535715D01*
X108357142Y76607143D01*
X108214285Y76678572D01*
X108142857Y76750000D01*
X108071428Y76892858D01*
X108071428Y77035715D01*
X108142857Y77178572D01*
X108214285Y77250000D01*
X108357142Y77321429D01*
X108714285Y77321429D01*
X108928571Y77250000D01*
X110214285Y76821429D02*
X110214285Y75821429D01*
X109857142Y77392858D02*
X109500000Y76321429D01*
X110428571Y76321429D01*
G04 #@! TO.C,LED1*
X9921428Y83821429D02*
X9207142Y83821429D01*
X9207142Y85321429D01*
X10421428Y84607143D02*
X10921428Y84607143D01*
X11135714Y83821429D02*
X10421428Y83821429D01*
X10421428Y85321429D01*
X11135714Y85321429D01*
X11778571Y83821429D02*
X11778571Y85321429D01*
X12135714Y85321429D01*
X12350000Y85250000D01*
X12492857Y85107143D01*
X12564285Y84964286D01*
X12635714Y84678572D01*
X12635714Y84464286D01*
X12564285Y84178572D01*
X12492857Y84035715D01*
X12350000Y83892858D01*
X12135714Y83821429D01*
X11778571Y83821429D01*
X14064285Y83821429D02*
X13207142Y83821429D01*
X13635714Y83821429D02*
X13635714Y85321429D01*
X13492857Y85107143D01*
X13350000Y84964286D01*
X13207142Y84892858D01*
G04 #@! TO.C,LEDP1*
X5476190Y77234524D02*
X4880952Y77234524D01*
X4880952Y78484524D01*
X5892857Y77889286D02*
X6309523Y77889286D01*
X6488095Y77234524D02*
X5892857Y77234524D01*
X5892857Y78484524D01*
X6488095Y78484524D01*
X7023809Y77234524D02*
X7023809Y78484524D01*
X7321428Y78484524D01*
X7500000Y78425000D01*
X7619047Y78305953D01*
X7678571Y78186905D01*
X7738095Y77948810D01*
X7738095Y77770239D01*
X7678571Y77532143D01*
X7619047Y77413096D01*
X7500000Y77294048D01*
X7321428Y77234524D01*
X7023809Y77234524D01*
X8273809Y77234524D02*
X8273809Y78484524D01*
X8750000Y78484524D01*
X8869047Y78425000D01*
X8928571Y78365477D01*
X8988095Y78246429D01*
X8988095Y78067858D01*
X8928571Y77948810D01*
X8869047Y77889286D01*
X8750000Y77829762D01*
X8273809Y77829762D01*
X10178571Y77234524D02*
X9464285Y77234524D01*
X9821428Y77234524D02*
X9821428Y78484524D01*
X9702380Y78305953D01*
X9583333Y78186905D01*
X9464285Y78127381D01*
G04 #@! TO.C,HC1*
X58107142Y48821429D02*
X58107142Y50321429D01*
X58107142Y49607143D02*
X58964285Y49607143D01*
X58964285Y48821429D02*
X58964285Y50321429D01*
X60535714Y48964286D02*
X60464285Y48892858D01*
X60250000Y48821429D01*
X60107142Y48821429D01*
X59892857Y48892858D01*
X59750000Y49035715D01*
X59678571Y49178572D01*
X59607142Y49464286D01*
X59607142Y49678572D01*
X59678571Y49964286D01*
X59750000Y50107143D01*
X59892857Y50250000D01*
X60107142Y50321429D01*
X60250000Y50321429D01*
X60464285Y50250000D01*
X60535714Y50178572D01*
X61964285Y48821429D02*
X61107142Y48821429D01*
X61535714Y48821429D02*
X61535714Y50321429D01*
X61392857Y50107143D01*
X61250000Y49964286D01*
X61107142Y49892858D01*
G04 #@! TO.C,RL2*
X39374285Y79725477D02*
X38950952Y80330239D01*
X38648571Y79725477D02*
X38648571Y80995477D01*
X39132380Y80995477D01*
X39253333Y80935000D01*
X39313809Y80874524D01*
X39374285Y80753572D01*
X39374285Y80572143D01*
X39313809Y80451191D01*
X39253333Y80390715D01*
X39132380Y80330239D01*
X38648571Y80330239D01*
X40523333Y79725477D02*
X39918571Y79725477D01*
X39918571Y80995477D01*
X40886190Y80874524D02*
X40946666Y80935000D01*
X41067619Y80995477D01*
X41370000Y80995477D01*
X41490952Y80935000D01*
X41551428Y80874524D01*
X41611904Y80753572D01*
X41611904Y80632620D01*
X41551428Y80451191D01*
X40825714Y79725477D01*
X41611904Y79725477D01*
G04 #@! TO.C,RP8*
X20653333Y33425477D02*
X20230000Y34030239D01*
X19927619Y33425477D02*
X19927619Y34695477D01*
X20411428Y34695477D01*
X20532380Y34635000D01*
X20592857Y34574524D01*
X20653333Y34453572D01*
X20653333Y34272143D01*
X20592857Y34151191D01*
X20532380Y34090715D01*
X20411428Y34030239D01*
X19927619Y34030239D01*
X21197619Y33425477D02*
X21197619Y34695477D01*
X21681428Y34695477D01*
X21802380Y34635000D01*
X21862857Y34574524D01*
X21923333Y34453572D01*
X21923333Y34272143D01*
X21862857Y34151191D01*
X21802380Y34090715D01*
X21681428Y34030239D01*
X21197619Y34030239D01*
X22649047Y34151191D02*
X22528095Y34211667D01*
X22467619Y34272143D01*
X22407142Y34393096D01*
X22407142Y34453572D01*
X22467619Y34574524D01*
X22528095Y34635000D01*
X22649047Y34695477D01*
X22890952Y34695477D01*
X23011904Y34635000D01*
X23072380Y34574524D01*
X23132857Y34453572D01*
X23132857Y34393096D01*
X23072380Y34272143D01*
X23011904Y34211667D01*
X22890952Y34151191D01*
X22649047Y34151191D01*
X22528095Y34090715D01*
X22467619Y34030239D01*
X22407142Y33909286D01*
X22407142Y33667381D01*
X22467619Y33546429D01*
X22528095Y33485953D01*
X22649047Y33425477D01*
X22890952Y33425477D01*
X23011904Y33485953D01*
X23072380Y33546429D01*
X23132857Y33667381D01*
X23132857Y33909286D01*
X23072380Y34030239D01*
X23011904Y34090715D01*
X22890952Y34151191D01*
G04 #@! TO.C,LED2*
X34921428Y83821429D02*
X34207142Y83821429D01*
X34207142Y85321429D01*
X35421428Y84607143D02*
X35921428Y84607143D01*
X36135714Y83821429D02*
X35421428Y83821429D01*
X35421428Y85321429D01*
X36135714Y85321429D01*
X36778571Y83821429D02*
X36778571Y85321429D01*
X37135714Y85321429D01*
X37350000Y85250000D01*
X37492857Y85107143D01*
X37564285Y84964286D01*
X37635714Y84678572D01*
X37635714Y84464286D01*
X37564285Y84178572D01*
X37492857Y84035715D01*
X37350000Y83892858D01*
X37135714Y83821429D01*
X36778571Y83821429D01*
X38207142Y85178572D02*
X38278571Y85250000D01*
X38421428Y85321429D01*
X38778571Y85321429D01*
X38921428Y85250000D01*
X38992857Y85178572D01*
X39064285Y85035715D01*
X39064285Y84892858D01*
X38992857Y84678572D01*
X38135714Y83821429D01*
X39064285Y83821429D01*
G04 #@! TO.C,RL1*
X14374285Y79725477D02*
X13950952Y80330239D01*
X13648571Y79725477D02*
X13648571Y80995477D01*
X14132380Y80995477D01*
X14253333Y80935000D01*
X14313809Y80874524D01*
X14374285Y80753572D01*
X14374285Y80572143D01*
X14313809Y80451191D01*
X14253333Y80390715D01*
X14132380Y80330239D01*
X13648571Y80330239D01*
X15523333Y79725477D02*
X14918571Y79725477D01*
X14918571Y80995477D01*
X16611904Y79725477D02*
X15886190Y79725477D01*
X16249047Y79725477D02*
X16249047Y80995477D01*
X16128095Y80814048D01*
X16007142Y80693096D01*
X15886190Y80632620D01*
G04 #@! TO.C,LED4*
X84821428Y83821429D02*
X84107142Y83821429D01*
X84107142Y85321429D01*
X85321428Y84607143D02*
X85821428Y84607143D01*
X86035714Y83821429D02*
X85321428Y83821429D01*
X85321428Y85321429D01*
X86035714Y85321429D01*
X86678571Y83821429D02*
X86678571Y85321429D01*
X87035714Y85321429D01*
X87250000Y85250000D01*
X87392857Y85107143D01*
X87464285Y84964286D01*
X87535714Y84678572D01*
X87535714Y84464286D01*
X87464285Y84178572D01*
X87392857Y84035715D01*
X87250000Y83892858D01*
X87035714Y83821429D01*
X86678571Y83821429D01*
X88821428Y84821429D02*
X88821428Y83821429D01*
X88464285Y85392858D02*
X88107142Y84321429D01*
X89035714Y84321429D01*
G04 #@! TO.C,J7*
X38000000Y4571429D02*
X38000000Y3500000D01*
X37928571Y3285715D01*
X37785714Y3142858D01*
X37571428Y3071429D01*
X37428571Y3071429D01*
X38571428Y4571429D02*
X39571428Y4571429D01*
X38928571Y3071429D01*
G04 #@! TO.C,R1*
X12383333Y77493370D02*
X12050000Y77969560D01*
X11811904Y77493370D02*
X11811904Y78493370D01*
X12192857Y78493370D01*
X12288095Y78445750D01*
X12335714Y78398131D01*
X12383333Y78302893D01*
X12383333Y78160036D01*
X12335714Y78064798D01*
X12288095Y78017179D01*
X12192857Y77969560D01*
X11811904Y77969560D01*
X13335714Y77493370D02*
X12764285Y77493370D01*
X13050000Y77493370D02*
X13050000Y78493370D01*
X12954761Y78350512D01*
X12859523Y78255274D01*
X12764285Y78207655D01*
G04 #@! TO.C,J5*
X88000000Y4571429D02*
X88000000Y3500000D01*
X87928571Y3285715D01*
X87785714Y3142858D01*
X87571428Y3071429D01*
X87428571Y3071429D01*
X89428571Y4571429D02*
X88714285Y4571429D01*
X88642857Y3857143D01*
X88714285Y3928572D01*
X88857142Y4000000D01*
X89214285Y4000000D01*
X89357142Y3928572D01*
X89428571Y3857143D01*
X89500000Y3714286D01*
X89500000Y3357143D01*
X89428571Y3214286D01*
X89357142Y3142858D01*
X89214285Y3071429D01*
X88857142Y3071429D01*
X88714285Y3142858D01*
X88642857Y3214286D01*
G04 #@! TO.C,HQ5*
X107821428Y31281429D02*
X107821428Y32781429D01*
X107821428Y32067143D02*
X108678571Y32067143D01*
X108678571Y31281429D02*
X108678571Y32781429D01*
X110392857Y31138572D02*
X110250000Y31210000D01*
X110107142Y31352858D01*
X109892857Y31567143D01*
X109750000Y31638572D01*
X109607142Y31638572D01*
X109678571Y31281429D02*
X109535714Y31352858D01*
X109392857Y31495715D01*
X109321428Y31781429D01*
X109321428Y32281429D01*
X109392857Y32567143D01*
X109535714Y32710000D01*
X109678571Y32781429D01*
X109964285Y32781429D01*
X110107142Y32710000D01*
X110250000Y32567143D01*
X110321428Y32281429D01*
X110321428Y31781429D01*
X110250000Y31495715D01*
X110107142Y31352858D01*
X109964285Y31281429D01*
X109678571Y31281429D01*
X111678571Y32781429D02*
X110964285Y32781429D01*
X110892857Y32067143D01*
X110964285Y32138572D01*
X111107142Y32210000D01*
X111464285Y32210000D01*
X111607142Y32138572D01*
X111678571Y32067143D01*
X111750000Y31924286D01*
X111750000Y31567143D01*
X111678571Y31424286D01*
X111607142Y31352858D01*
X111464285Y31281429D01*
X111107142Y31281429D01*
X110964285Y31352858D01*
X110892857Y31424286D01*
G04 #@! TO.C,LED6*
X82121428Y4571429D02*
X81407142Y4571429D01*
X81407142Y6071429D01*
X82621428Y5357143D02*
X83121428Y5357143D01*
X83335714Y4571429D02*
X82621428Y4571429D01*
X82621428Y6071429D01*
X83335714Y6071429D01*
X83978571Y4571429D02*
X83978571Y6071429D01*
X84335714Y6071429D01*
X84550000Y6000000D01*
X84692857Y5857143D01*
X84764285Y5714286D01*
X84835714Y5428572D01*
X84835714Y5214286D01*
X84764285Y4928572D01*
X84692857Y4785715D01*
X84550000Y4642858D01*
X84335714Y4571429D01*
X83978571Y4571429D01*
X86121428Y6071429D02*
X85835714Y6071429D01*
X85692857Y6000000D01*
X85621428Y5928572D01*
X85478571Y5714286D01*
X85407142Y5428572D01*
X85407142Y4857143D01*
X85478571Y4714286D01*
X85550000Y4642858D01*
X85692857Y4571429D01*
X85978571Y4571429D01*
X86121428Y4642858D01*
X86192857Y4714286D01*
X86264285Y4857143D01*
X86264285Y5214286D01*
X86192857Y5357143D01*
X86121428Y5428572D01*
X85978571Y5500000D01*
X85692857Y5500000D01*
X85550000Y5428572D01*
X85478571Y5357143D01*
X85407142Y5214286D01*
G04 #@! TO.C,TVSP1*
X4500000Y30521429D02*
X5357142Y30521429D01*
X4928571Y29021429D02*
X4928571Y30521429D01*
X5642857Y30521429D02*
X6142857Y29021429D01*
X6642857Y30521429D01*
X7071428Y29092858D02*
X7285714Y29021429D01*
X7642857Y29021429D01*
X7785714Y29092858D01*
X7857142Y29164286D01*
X7928571Y29307143D01*
X7928571Y29450000D01*
X7857142Y29592858D01*
X7785714Y29664286D01*
X7642857Y29735715D01*
X7357142Y29807143D01*
X7214285Y29878572D01*
X7142857Y29950000D01*
X7071428Y30092858D01*
X7071428Y30235715D01*
X7142857Y30378572D01*
X7214285Y30450000D01*
X7357142Y30521429D01*
X7714285Y30521429D01*
X7928571Y30450000D01*
X8571428Y29021429D02*
X8571428Y30521429D01*
X9142857Y30521429D01*
X9285714Y30450000D01*
X9357142Y30378572D01*
X9428571Y30235715D01*
X9428571Y30021429D01*
X9357142Y29878572D01*
X9285714Y29807143D01*
X9142857Y29735715D01*
X8571428Y29735715D01*
X10857142Y29021429D02*
X10000000Y29021429D01*
X10428571Y29021429D02*
X10428571Y30521429D01*
X10285714Y30307143D01*
X10142857Y30164286D01*
X10000000Y30092858D01*
G04 #@! TO.C,TVS7*
X34550000Y14271429D02*
X35407142Y14271429D01*
X34978571Y12771429D02*
X34978571Y14271429D01*
X35692857Y14271429D02*
X36192857Y12771429D01*
X36692857Y14271429D01*
X37121428Y12842858D02*
X37335714Y12771429D01*
X37692857Y12771429D01*
X37835714Y12842858D01*
X37907142Y12914286D01*
X37978571Y13057143D01*
X37978571Y13200000D01*
X37907142Y13342858D01*
X37835714Y13414286D01*
X37692857Y13485715D01*
X37407142Y13557143D01*
X37264285Y13628572D01*
X37192857Y13700000D01*
X37121428Y13842858D01*
X37121428Y13985715D01*
X37192857Y14128572D01*
X37264285Y14200000D01*
X37407142Y14271429D01*
X37764285Y14271429D01*
X37978571Y14200000D01*
X38478571Y14271429D02*
X39478571Y14271429D01*
X38835714Y12771429D01*
D13*
G04 #@! TO.C,#LOGO3*
X93892857Y48785715D02*
X92750000Y48785715D01*
X92178571Y48500000D01*
X91892857Y48214286D01*
X91321428Y47357143D01*
X91035714Y46214286D01*
X91035714Y43928572D01*
X91321428Y43357143D01*
X91607142Y43071429D01*
X92178571Y42785715D01*
X93321428Y42785715D01*
X93892857Y43071429D01*
X94178571Y43357143D01*
X94464285Y43928572D01*
X94464285Y45357143D01*
X94178571Y45928572D01*
X93892857Y46214286D01*
X93321428Y46500000D01*
X92178571Y46500000D01*
X91607142Y46214286D01*
X91321428Y45928572D01*
X91035714Y45357143D01*
D10*
G04 #@! TO.C,HQ4*
X83321428Y57361429D02*
X83321428Y58861429D01*
X83321428Y58147143D02*
X84178571Y58147143D01*
X84178571Y57361429D02*
X84178571Y58861429D01*
X85892857Y57218572D02*
X85750000Y57290000D01*
X85607142Y57432858D01*
X85392857Y57647143D01*
X85250000Y57718572D01*
X85107142Y57718572D01*
X85178571Y57361429D02*
X85035714Y57432858D01*
X84892857Y57575715D01*
X84821428Y57861429D01*
X84821428Y58361429D01*
X84892857Y58647143D01*
X85035714Y58790000D01*
X85178571Y58861429D01*
X85464285Y58861429D01*
X85607142Y58790000D01*
X85750000Y58647143D01*
X85821428Y58361429D01*
X85821428Y57861429D01*
X85750000Y57575715D01*
X85607142Y57432858D01*
X85464285Y57361429D01*
X85178571Y57361429D01*
X87107142Y58361429D02*
X87107142Y57361429D01*
X86750000Y58932858D02*
X86392857Y57861429D01*
X87321428Y57861429D01*
G04 #@! TO.C,LED8*
X32121428Y4571429D02*
X31407142Y4571429D01*
X31407142Y6071429D01*
X32621428Y5357143D02*
X33121428Y5357143D01*
X33335714Y4571429D02*
X32621428Y4571429D01*
X32621428Y6071429D01*
X33335714Y6071429D01*
X33978571Y4571429D02*
X33978571Y6071429D01*
X34335714Y6071429D01*
X34550000Y6000000D01*
X34692857Y5857143D01*
X34764285Y5714286D01*
X34835714Y5428572D01*
X34835714Y5214286D01*
X34764285Y4928572D01*
X34692857Y4785715D01*
X34550000Y4642858D01*
X34335714Y4571429D01*
X33978571Y4571429D01*
X35692857Y5428572D02*
X35550000Y5500000D01*
X35478571Y5571429D01*
X35407142Y5714286D01*
X35407142Y5785715D01*
X35478571Y5928572D01*
X35550000Y6000000D01*
X35692857Y6071429D01*
X35978571Y6071429D01*
X36121428Y6000000D01*
X36192857Y5928572D01*
X36264285Y5785715D01*
X36264285Y5714286D01*
X36192857Y5571429D01*
X36121428Y5500000D01*
X35978571Y5428572D01*
X35692857Y5428572D01*
X35550000Y5357143D01*
X35478571Y5285715D01*
X35407142Y5142858D01*
X35407142Y4857143D01*
X35478571Y4714286D01*
X35550000Y4642858D01*
X35692857Y4571429D01*
X35978571Y4571429D01*
X36121428Y4642858D01*
X36192857Y4714286D01*
X36264285Y4857143D01*
X36264285Y5142858D01*
X36192857Y5285715D01*
X36121428Y5357143D01*
X35978571Y5428572D01*
G04 #@! TO.C,RL3*
X64274285Y79925477D02*
X63850952Y80530239D01*
X63548571Y79925477D02*
X63548571Y81195477D01*
X64032380Y81195477D01*
X64153333Y81135000D01*
X64213809Y81074524D01*
X64274285Y80953572D01*
X64274285Y80772143D01*
X64213809Y80651191D01*
X64153333Y80590715D01*
X64032380Y80530239D01*
X63548571Y80530239D01*
X65423333Y79925477D02*
X64818571Y79925477D01*
X64818571Y81195477D01*
X65725714Y81195477D02*
X66511904Y81195477D01*
X66088571Y80711667D01*
X66270000Y80711667D01*
X66390952Y80651191D01*
X66451428Y80590715D01*
X66511904Y80469762D01*
X66511904Y80167381D01*
X66451428Y80046429D01*
X66390952Y79985953D01*
X66270000Y79925477D01*
X65907142Y79925477D01*
X65786190Y79985953D01*
X65725714Y80046429D01*
G04 #@! TO.C,TVSP2*
X10050000Y57521429D02*
X10907142Y57521429D01*
X10478571Y56021429D02*
X10478571Y57521429D01*
X11192857Y57521429D02*
X11692857Y56021429D01*
X12192857Y57521429D01*
X12621428Y56092858D02*
X12835714Y56021429D01*
X13192857Y56021429D01*
X13335714Y56092858D01*
X13407142Y56164286D01*
X13478571Y56307143D01*
X13478571Y56450000D01*
X13407142Y56592858D01*
X13335714Y56664286D01*
X13192857Y56735715D01*
X12907142Y56807143D01*
X12764285Y56878572D01*
X12692857Y56950000D01*
X12621428Y57092858D01*
X12621428Y57235715D01*
X12692857Y57378572D01*
X12764285Y57450000D01*
X12907142Y57521429D01*
X13264285Y57521429D01*
X13478571Y57450000D01*
X14121428Y56021429D02*
X14121428Y57521429D01*
X14692857Y57521429D01*
X14835714Y57450000D01*
X14907142Y57378572D01*
X14978571Y57235715D01*
X14978571Y57021429D01*
X14907142Y56878572D01*
X14835714Y56807143D01*
X14692857Y56735715D01*
X14121428Y56735715D01*
X15550000Y57378572D02*
X15621428Y57450000D01*
X15764285Y57521429D01*
X16121428Y57521429D01*
X16264285Y57450000D01*
X16335714Y57378572D01*
X16407142Y57235715D01*
X16407142Y57092858D01*
X16335714Y56878572D01*
X15478571Y56021429D01*
X16407142Y56021429D01*
G04 #@! TO.C,HQ3*
X58321428Y57361429D02*
X58321428Y58861429D01*
X58321428Y58147143D02*
X59178571Y58147143D01*
X59178571Y57361429D02*
X59178571Y58861429D01*
X60892857Y57218572D02*
X60750000Y57290000D01*
X60607142Y57432858D01*
X60392857Y57647143D01*
X60250000Y57718572D01*
X60107142Y57718572D01*
X60178571Y57361429D02*
X60035714Y57432858D01*
X59892857Y57575715D01*
X59821428Y57861429D01*
X59821428Y58361429D01*
X59892857Y58647143D01*
X60035714Y58790000D01*
X60178571Y58861429D01*
X60464285Y58861429D01*
X60607142Y58790000D01*
X60750000Y58647143D01*
X60821428Y58361429D01*
X60821428Y57861429D01*
X60750000Y57575715D01*
X60607142Y57432858D01*
X60464285Y57361429D01*
X60178571Y57361429D01*
X61321428Y58861429D02*
X62250000Y58861429D01*
X61750000Y58290000D01*
X61964285Y58290000D01*
X62107142Y58218572D01*
X62178571Y58147143D01*
X62250000Y58004286D01*
X62250000Y57647143D01*
X62178571Y57504286D01*
X62107142Y57432858D01*
X61964285Y57361429D01*
X61535714Y57361429D01*
X61392857Y57432858D01*
X61321428Y57504286D01*
D14*
G04 #@! TO.C,RP4*
X100550000Y55475000D02*
X100550000Y56525000D01*
D15*
X101876750Y57270000D02*
G75*
G03*
X101876750Y57270000I-56750J0D01*
G01*
D14*
G04 #@! TO.C,TVS1*
X34812000Y69125000D02*
X34812000Y74475000D01*
X31188000Y69125000D02*
X31188000Y74475000D01*
G04 #@! TO.C,RP1*
X25550000Y55475000D02*
X25550000Y56525000D01*
D15*
X26876750Y57270000D02*
G75*
G03*
X26876750Y57270000I-56750J0D01*
G01*
D14*
G04 #@! TO.C,TVS5*
X85188000Y20875000D02*
X85188000Y15525000D01*
X88812000Y20875000D02*
X88812000Y15525000D01*
G04 #@! TO.C,RP5*
X92550000Y33475000D02*
X92550000Y34525000D01*
D15*
X93876750Y35270000D02*
G75*
G03*
X93876750Y35270000I-56750J0D01*
G01*
D14*
G04 #@! TO.C,TVS2*
X59812000Y69125000D02*
X59812000Y74475000D01*
X56188000Y69125000D02*
X56188000Y74475000D01*
D16*
G04 #@! TO.C,JP1*
X14500000Y72850000D02*
X14500000Y71450000D01*
X12500000Y71450000D02*
X12500000Y72850000D01*
X13200000Y73550000D02*
X13800000Y73550000D01*
X13800000Y70750000D02*
X13200000Y70750000D01*
X13800000Y70750000D02*
G75*
G03*
X14500000Y71450000I1J699999D01*
G01*
X14500000Y72850000D02*
G75*
G03*
X13800000Y73550000I-700000J0D01*
G01*
X12500000Y71450000D02*
G75*
G03*
X13200000Y70750000I699999J-1D01*
G01*
X13200000Y73550000D02*
G75*
G03*
X12500000Y72850000I0J-700000D01*
G01*
D14*
G04 #@! TO.C,RP6*
X67550000Y33475000D02*
X67550000Y34525000D01*
D15*
X68876750Y35270000D02*
G75*
G03*
X68876750Y35270000I-56750J0D01*
G01*
D14*
G04 #@! TO.C,RP2*
X50550000Y55475000D02*
X50550000Y56525000D01*
D15*
X51876750Y57270000D02*
G75*
G03*
X51876750Y57270000I-56750J0D01*
G01*
D14*
G04 #@! TO.C,TVS8*
X10188000Y20875000D02*
X10188000Y15525000D01*
X13812000Y20875000D02*
X13812000Y15525000D01*
G04 #@! TO.C,RL6*
X80275000Y6850000D02*
X79225000Y6850000D01*
D15*
X78536750Y8120000D02*
G75*
G03*
X78536750Y8120000I-56750J0D01*
G01*
D14*
G04 #@! TO.C,J2*
X42830000Y88900000D02*
X54330000Y88900000D01*
X54800000Y74000000D02*
X54800000Y74000000D01*
X54330000Y88900000D02*
X54330000Y71100000D01*
X42830000Y71100000D02*
X42830000Y88900000D01*
X54900000Y74000000D02*
X54900000Y74000000D01*
X54330000Y71100000D02*
X42830000Y71100000D01*
X54900000Y74000000D02*
X54900000Y74000000D01*
X54900000Y74000000D02*
G75*
G03*
X54800000Y74000000I-50000J0D01*
G01*
X54800000Y74000000D02*
G75*
G03*
X54900000Y74000000I50000J0D01*
G01*
X54900000Y74000000D02*
G75*
G03*
X54800000Y74000000I-50000J0D01*
G01*
G04 #@! TO.C,TVS3*
X84812000Y69125000D02*
X84812000Y74475000D01*
X81188000Y69125000D02*
X81188000Y74475000D01*
G04 #@! TO.C,LED7*
X57025000Y2400000D02*
X57025000Y4000000D01*
X54750000Y2400000D02*
X57025000Y2400000D01*
X57025000Y4000000D02*
X54750000Y4000000D01*
G04 #@! TO.C,J1*
X17830000Y88900000D02*
X29330000Y88900000D01*
X29330000Y71100000D02*
X17830000Y71100000D01*
X29330000Y88900000D02*
X29330000Y71100000D01*
X29900000Y74000000D02*
X29900000Y74000000D01*
X17830000Y71100000D02*
X17830000Y88900000D01*
X29800000Y74000000D02*
X29800000Y74000000D01*
X29900000Y74000000D02*
X29900000Y74000000D01*
X29900000Y74000000D02*
G75*
G03*
X29800000Y74000000I-50000J0D01*
G01*
X29800000Y74000000D02*
G75*
G03*
X29900000Y74000000I50000J0D01*
G01*
X29900000Y74000000D02*
G75*
G03*
X29800000Y74000000I-50000J0D01*
G01*
G04 #@! TO.C,RL4*
X89725000Y83150000D02*
X90775000Y83150000D01*
D15*
X91576750Y81880000D02*
G75*
G03*
X91576750Y81880000I-56750J0D01*
G01*
D14*
G04 #@! TO.C,J6*
X77170000Y18900000D02*
X77170000Y1100000D01*
X65100000Y16000000D02*
X65100000Y16000000D01*
X65200000Y16000000D02*
X65200000Y16000000D01*
X65100000Y16000000D02*
X65100000Y16000000D01*
X65670000Y1100000D02*
X65670000Y18900000D01*
X77170000Y1100000D02*
X65670000Y1100000D01*
X65670000Y18900000D02*
X77170000Y18900000D01*
X65100000Y16000000D02*
G75*
G03*
X65200000Y16000000I50000J0D01*
G01*
X65200000Y16000000D02*
G75*
G03*
X65100000Y16000000I-50000J0D01*
G01*
X65100000Y16000000D02*
G75*
G03*
X65200000Y16000000I50000J0D01*
G01*
G04 #@! TO.C,RL7*
X55275000Y6850000D02*
X54225000Y6850000D01*
D15*
X53536750Y8120000D02*
G75*
G03*
X53536750Y8120000I-56750J0D01*
G01*
D14*
G04 #@! TO.C,TVS6*
X63812000Y20875000D02*
X63812000Y15525000D01*
X60188000Y20875000D02*
X60188000Y15525000D01*
G04 #@! TO.C,RL5*
X105275000Y6850000D02*
X104225000Y6850000D01*
D15*
X103536750Y8120000D02*
G75*
G03*
X103536750Y8120000I-56750J0D01*
G01*
D14*
G04 #@! TO.C,LED3*
X65250000Y87300000D02*
X62975000Y87300000D01*
X62975000Y85700000D02*
X65250000Y85700000D01*
X62975000Y87300000D02*
X62975000Y85700000D01*
G04 #@! TO.C,LED5*
X107025000Y2400000D02*
X107025000Y4000000D01*
X107025000Y4000000D02*
X104750000Y4000000D01*
X104750000Y2400000D02*
X107025000Y2400000D01*
G04 #@! TO.C,J4*
X92830000Y88900000D02*
X104330000Y88900000D01*
X104330000Y71100000D02*
X92830000Y71100000D01*
X104330000Y88900000D02*
X104330000Y71100000D01*
X104900000Y74000000D02*
X104900000Y74000000D01*
X92830000Y71100000D02*
X92830000Y88900000D01*
X104800000Y74000000D02*
X104800000Y74000000D01*
X104900000Y74000000D02*
X104900000Y74000000D01*
X104900000Y74000000D02*
G75*
G03*
X104800000Y74000000I-50000J0D01*
G01*
X104800000Y74000000D02*
G75*
G03*
X104900000Y74000000I50000J0D01*
G01*
X104900000Y74000000D02*
G75*
G03*
X104800000Y74000000I-50000J0D01*
G01*
G04 #@! TO.C,RP3*
X75550000Y55475000D02*
X75550000Y56525000D01*
D15*
X76876750Y57270000D02*
G75*
G03*
X76876750Y57270000I-56750J0D01*
G01*
D14*
G04 #@! TO.C,J3*
X79900000Y74000000D02*
X79900000Y74000000D01*
X67830000Y88900000D02*
X79330000Y88900000D01*
X79800000Y74000000D02*
X79800000Y74000000D01*
X67830000Y71100000D02*
X67830000Y88900000D01*
X79330000Y88900000D02*
X79330000Y71100000D01*
X79900000Y74000000D02*
X79900000Y74000000D01*
X79330000Y71100000D02*
X67830000Y71100000D01*
X79900000Y74000000D02*
G75*
G03*
X79800000Y74000000I-50000J0D01*
G01*
X79800000Y74000000D02*
G75*
G03*
X79900000Y74000000I50000J0D01*
G01*
X79900000Y74000000D02*
G75*
G03*
X79800000Y74000000I-50000J0D01*
G01*
G04 #@! TO.C,RP7*
X42550000Y33475000D02*
X42550000Y34525000D01*
D15*
X43876750Y35270000D02*
G75*
G03*
X43876750Y35270000I-56750J0D01*
G01*
D16*
G04 #@! TO.C,JCNTL1*
X119590000Y56610000D02*
X119590000Y33490000D01*
X103850000Y50900000D02*
X104850000Y51400000D01*
X119590000Y33490000D02*
X110470000Y33490000D01*
X104850000Y51400000D02*
X103850000Y51900000D01*
X110470000Y33490000D02*
X110470000Y56610000D01*
X110470000Y43000000D02*
X119590000Y43000000D01*
X110470000Y56610000D02*
X119590000Y56610000D01*
X103850000Y51900000D02*
X103850000Y50900000D01*
X110470000Y47100000D02*
X119590000Y47100000D01*
D14*
G04 #@! TO.C,RL8*
X30275000Y6850000D02*
X29225000Y6850000D01*
D15*
X28536750Y8120000D02*
G75*
G03*
X28536750Y8120000I-56750J0D01*
G01*
D14*
G04 #@! TO.C,J8*
X15100000Y16000000D02*
X15100000Y16000000D01*
X15100000Y16000000D02*
X15100000Y16000000D01*
X15200000Y16000000D02*
X15200000Y16000000D01*
X15670000Y1100000D02*
X15670000Y18900000D01*
X27170000Y1100000D02*
X15670000Y1100000D01*
X15670000Y18900000D02*
X27170000Y18900000D01*
X27170000Y18900000D02*
X27170000Y1100000D01*
X15100000Y16000000D02*
G75*
G03*
X15200000Y16000000I50000J0D01*
G01*
X15100000Y16000000D02*
G75*
G03*
X15200000Y16000000I50000J0D01*
G01*
X15200000Y16000000D02*
G75*
G03*
X15100000Y16000000I-50000J0D01*
G01*
D17*
G04 #@! TO.C,JPWR1*
X18450000Y50400000D02*
X18450000Y52750000D01*
X13600000Y37250000D02*
X18450000Y37250000D01*
X18450000Y52750000D02*
X13600000Y52750000D01*
X250000Y37250000D02*
X250000Y52750000D01*
X250000Y52750000D02*
X9600000Y52750000D01*
X18450000Y37250000D02*
X18450000Y39300000D01*
X9600000Y37250000D02*
X250000Y37250000D01*
D18*
X16750000Y36500000D02*
G75*
G03*
X16750000Y36500000I-150000J0D01*
G01*
D14*
G04 #@! TO.C,TVS4*
X109812000Y69125000D02*
X109812000Y74475000D01*
X106188000Y69125000D02*
X106188000Y74475000D01*
D10*
G04 #@! TO.C,#LOGO2*
X27002800Y43801120D02*
X27401580Y43801120D01*
X30601980Y45701040D02*
X30502920Y45200660D01*
X26901200Y46000760D02*
X26700540Y45500380D01*
X31701800Y43300740D02*
X32301240Y43001020D01*
X32501900Y46899920D02*
X31800860Y46600200D01*
X26700540Y44199900D02*
X27000260Y43600460D01*
X24998740Y47100580D02*
X24699020Y46099820D01*
X32301240Y43001020D02*
X32900680Y42901960D01*
X35001260Y43199140D02*
X35400040Y44700280D01*
X28801120Y47199640D02*
X29301500Y47199640D01*
X28501400Y47397760D02*
X27899420Y47098040D01*
X33700780Y42701300D02*
X32801620Y42599700D01*
X28702060Y42901960D02*
X29103380Y42800360D01*
X24800620Y43699520D02*
X25199400Y42599700D01*
X29702820Y42599700D02*
X29103380Y42500640D01*
X29103380Y42500640D02*
X28402340Y42701300D01*
X27703840Y43501400D02*
X28204220Y43100080D01*
X32600960Y40301000D02*
X34201160Y41598940D01*
X30000000Y50400040D02*
X29499620Y50400040D01*
X27299980Y45800100D02*
X27200920Y45299720D01*
X33002280Y47400300D02*
X32402840Y47400300D01*
X33299460Y47301240D02*
X33098800Y46998980D01*
X31000760Y44900940D02*
X31000760Y44301500D01*
X31399540Y50199380D02*
X30000000Y50300980D01*
X31501140Y42800360D02*
X32100580Y42500640D01*
X32600960Y42401580D02*
X33002280Y42401580D01*
X27200920Y43600460D02*
X27000260Y44298960D01*
X29103380Y42800360D02*
X29502160Y42800360D01*
X31300480Y46000760D02*
X31000760Y45401320D01*
X33401060Y49099560D02*
X32400300Y49800600D01*
X31201420Y43399800D02*
X30802640Y44301500D01*
X28699520Y39699020D02*
X30099060Y39699020D01*
X27200920Y45299720D02*
X27200920Y44799340D01*
X30802640Y44301500D02*
X30701040Y45299720D01*
X28300740Y46998980D02*
X28801120Y47199640D01*
X29100840Y46998980D02*
X28600460Y46897380D01*
X26901200Y45000000D02*
X27000260Y45599440D01*
X31102360Y46600200D02*
X30802640Y46099820D01*
X25199400Y42599700D02*
X26200160Y41101100D01*
X29801880Y42599700D02*
X29702820Y42401580D01*
X33101340Y46899920D02*
X32501900Y46899920D01*
X28803660Y42401580D02*
X29304040Y42299980D01*
X32301240Y47100580D02*
X33002280Y47100580D01*
X26700540Y45500380D02*
X26598940Y44601220D01*
X27503180Y43001020D02*
X28102620Y42599700D01*
X32100580Y42500640D02*
X32600960Y42401580D01*
X29601220Y46998980D02*
X29100840Y46998980D01*
X29700280Y47199640D02*
X29799340Y47397760D01*
X29700280Y42399040D02*
X29799340Y42899420D01*
X27800360Y46699260D02*
X28300740Y46998980D01*
X33802380Y42500640D02*
X33700780Y42701300D01*
X27299980Y46099820D02*
X27800360Y46600200D01*
X26700540Y49201160D02*
X25999500Y48599180D01*
X33002280Y47100580D02*
X33101340Y46899920D01*
X29799340Y47397760D02*
X29400560Y47499360D01*
X33700780Y42899420D02*
X33799840Y42599700D01*
X34699000Y47499360D02*
X33401060Y49099560D01*
X30502920Y44502160D02*
X30601980Y43900180D01*
X25499120Y47999740D02*
X24998740Y47100580D01*
X31000760Y46000760D02*
X31602740Y46701800D01*
X30802640Y46099820D02*
X30601980Y45701040D01*
X29298960Y42299980D02*
X29700280Y42399040D01*
X27000260Y44298960D02*
X26901200Y45000000D01*
X34201160Y41598940D02*
X35001260Y43199140D01*
X31300480Y43801120D02*
X31701800Y43300740D01*
X29499620Y50400040D02*
X28699520Y50100320D01*
X27703840Y43201680D02*
X27203460Y43702060D01*
X30601980Y43900180D02*
X31000760Y43300740D01*
X27399040Y40199400D02*
X28699520Y39699020D01*
X27401580Y46600200D02*
X26901200Y45899160D01*
X26200160Y41101100D02*
X27399040Y40199400D01*
X27000260Y45800100D02*
X27299980Y46300480D01*
X30099060Y39699020D02*
X31600200Y39800620D01*
X31800860Y42901960D02*
X31201420Y43399800D01*
X28100080Y46597660D02*
X27599700Y46198880D01*
X27899420Y47098040D02*
X27401580Y46699260D01*
X27299980Y49699000D02*
X26700540Y49201160D01*
X27302520Y43999240D02*
X27602240Y43600460D01*
X31800860Y46600200D02*
X31300480Y46000760D01*
X33401060Y42901960D02*
X33700780Y43001020D01*
X24599960Y44900940D02*
X24800620Y43699520D01*
X31000760Y43300740D02*
X31501140Y42800360D01*
X29301500Y47199640D02*
X29700280Y47199640D01*
X24699020Y46099820D02*
X24599960Y44900940D01*
X31602740Y46701800D02*
X32301240Y47100580D01*
X27599700Y46300480D02*
X27299980Y45800100D01*
X28999240Y47499360D02*
X28501400Y47397760D01*
X32001520Y47202180D02*
X31501140Y47001520D01*
X31600200Y39800620D02*
X32600960Y40301000D01*
X32400300Y49800600D02*
X31399540Y50199380D01*
X32999740Y47400300D02*
X33299460Y47301240D01*
X26700540Y44598680D02*
X26799600Y43999240D01*
X28402340Y42701300D02*
X27703840Y43201680D01*
X35400040Y44700280D02*
X35199380Y46399540D01*
X32402840Y47400300D02*
X32001520Y47202180D01*
X28600460Y46897380D02*
X28100080Y46597660D01*
X31000760Y45401320D02*
X31000760Y44900940D01*
X26700540Y45299720D02*
X26700540Y44598680D01*
X28102620Y42599700D02*
X28803660Y42401580D01*
X32900680Y42901960D02*
X33401060Y42901960D01*
X29801880Y42901960D02*
X29702820Y42599700D01*
X27101860Y43501400D02*
X27503180Y43001020D01*
X26598940Y44601220D02*
X26700540Y44100840D01*
X27200920Y44799340D02*
X27401580Y43999240D01*
X25999500Y48599180D02*
X25499120Y47999740D01*
X26901200Y45899160D02*
X26700540Y45299720D01*
X30701040Y45299720D02*
X31000760Y46000760D01*
X27299980Y46600200D02*
X26901200Y46000760D01*
X30502920Y45200660D02*
X30502920Y44502160D01*
X29502160Y42800360D02*
X29801880Y42901960D01*
X29400560Y47499360D02*
X28999240Y47499360D01*
X32801620Y42599700D02*
X31800860Y42901960D01*
X33002280Y42401580D02*
X33401060Y42401580D01*
X28001020Y49899660D02*
X27299980Y49699000D01*
X31501140Y47001520D02*
X31102360Y46600200D01*
X28204220Y43100080D02*
X28702060Y42901960D01*
X31000760Y44301500D02*
X31300480Y43801120D01*
X27500640Y46699260D02*
X27299980Y46600200D01*
X33401060Y42401580D02*
X33802380Y42500640D01*
X35199380Y46399540D02*
X34699000Y47499360D01*
X28699520Y50100320D02*
X28001020Y49899660D01*
X35588000Y45000000D02*
G75*
G03*
X35588000Y45000000I-5588000J0D01*
G01*
X35180604Y45000000D02*
G75*
G03*
X35180604Y45000000I-5180604J0D01*
G01*
D14*
G04 #@! TO.C,LED1*
X12975000Y85700000D02*
X15250000Y85700000D01*
X12975000Y87300000D02*
X12975000Y85700000D01*
X15250000Y87300000D02*
X12975000Y87300000D01*
G04 #@! TO.C,LEDP1*
X5900000Y76825000D02*
X5900000Y75175000D01*
X8300000Y76825000D02*
X5900000Y76825000D01*
X5900000Y75175000D02*
X8300000Y75175000D01*
G04 #@! TO.C,RL2*
X39725000Y83150000D02*
X40775000Y83150000D01*
D15*
X41576750Y81880000D02*
G75*
G03*
X41576750Y81880000I-56750J0D01*
G01*
D14*
G04 #@! TO.C,RP8*
X17550000Y33475000D02*
X17550000Y34525000D01*
D15*
X18876750Y35270000D02*
G75*
G03*
X18876750Y35270000I-56750J0D01*
G01*
D14*
G04 #@! TO.C,LED2*
X40250000Y87300000D02*
X37975000Y87300000D01*
X37975000Y85700000D02*
X40250000Y85700000D01*
X37975000Y87300000D02*
X37975000Y85700000D01*
G04 #@! TO.C,#LOGO1*
G36*
X45532764Y40241079D02*
G01*
X45570030Y40229909D01*
X45582043Y40205367D01*
X45582549Y40194288D01*
X45584704Y40163428D01*
X45599551Y40158583D01*
X45639657Y40179740D01*
X45663480Y40194194D01*
X45738638Y40225150D01*
X45828406Y40240456D01*
X45922529Y40241633D01*
X46010754Y40230201D01*
X46082826Y40207680D01*
X46128492Y40175591D01*
X46137498Y40135455D01*
X46132953Y40124585D01*
X46099821Y40079466D01*
X46048445Y40023974D01*
X46039152Y40015004D01*
X45990182Y39973755D01*
X45947931Y39960428D01*
X45888841Y39969729D01*
X45865169Y39975910D01*
X45791504Y39990754D01*
X45739710Y39984079D01*
X45695969Y39960535D01*
X45655902Y39928939D01*
X45626392Y39889202D01*
X45605884Y39833748D01*
X45592824Y39754997D01*
X45585656Y39645371D01*
X45582824Y39497294D01*
X45582549Y39407889D01*
X45582549Y39023529D01*
X45333529Y39023529D01*
X45333529Y40243725D01*
X45458039Y40243725D01*
X45532764Y40241079D01*
G37*
D19*
X45532764Y40241079D02*
X45570030Y40229909D01*
X45582043Y40205367D01*
X45582549Y40194288D01*
X45584704Y40163428D01*
X45599551Y40158583D01*
X45639657Y40179740D01*
X45663480Y40194194D01*
X45738638Y40225150D01*
X45828406Y40240456D01*
X45922529Y40241633D01*
X46010754Y40230201D01*
X46082826Y40207680D01*
X46128492Y40175591D01*
X46137498Y40135455D01*
X46132953Y40124585D01*
X46099821Y40079466D01*
X46048445Y40023974D01*
X46039152Y40015004D01*
X45990182Y39973755D01*
X45947931Y39960428D01*
X45888841Y39969729D01*
X45865169Y39975910D01*
X45791504Y39990754D01*
X45739710Y39984079D01*
X45695969Y39960535D01*
X45655902Y39928939D01*
X45626392Y39889202D01*
X45605884Y39833748D01*
X45592824Y39754997D01*
X45585656Y39645371D01*
X45582824Y39497294D01*
X45582549Y39407889D01*
X45582549Y39023529D01*
X45333529Y39023529D01*
X45333529Y40243725D01*
X45458039Y40243725D01*
X45532764Y40241079D01*
G36*
X50738446Y40244117D02*
G01*
X50834177Y40225245D01*
X50888677Y40197301D01*
X50946008Y40150877D01*
X50864441Y40047889D01*
X50814150Y39985521D01*
X50780001Y39955093D01*
X50746063Y39950445D01*
X50696406Y39965414D01*
X50673096Y39973883D01*
X50578063Y39986378D01*
X50491032Y39959594D01*
X50427138Y39899085D01*
X50416759Y39879792D01*
X50405456Y39828686D01*
X50396732Y39734500D01*
X50390997Y39603911D01*
X50388660Y39443595D01*
X50388627Y39420789D01*
X50388627Y39023529D01*
X50114705Y39023529D01*
X50114705Y40243725D01*
X50251666Y40243725D01*
X50330638Y40241663D01*
X50371779Y40232487D01*
X50386992Y40211710D01*
X50388627Y40192114D01*
X50388627Y40140503D01*
X50454240Y40192114D01*
X50529475Y40227325D01*
X50630544Y40244735D01*
X50738446Y40244117D01*
G37*
X50738446Y40244117D02*
X50834177Y40225245D01*
X50888677Y40197301D01*
X50946008Y40150877D01*
X50864441Y40047889D01*
X50814150Y39985521D01*
X50780001Y39955093D01*
X50746063Y39950445D01*
X50696406Y39965414D01*
X50673096Y39973883D01*
X50578063Y39986378D01*
X50491032Y39959594D01*
X50427138Y39899085D01*
X50416759Y39879792D01*
X50405456Y39828686D01*
X50396732Y39734500D01*
X50390997Y39603911D01*
X50388660Y39443595D01*
X50388627Y39420789D01*
X50388627Y39023529D01*
X50114705Y39023529D01*
X50114705Y40243725D01*
X50251666Y40243725D01*
X50330638Y40241663D01*
X50371779Y40232487D01*
X50386992Y40211710D01*
X50388627Y40192114D01*
X50388627Y40140503D01*
X50454240Y40192114D01*
X50529475Y40227325D01*
X50630544Y40244735D01*
X50738446Y40244117D01*
G36*
X43129705Y42111372D02*
G01*
X43211935Y42108121D01*
X43254360Y42096574D01*
X43266661Y42074048D01*
X43266666Y42073380D01*
X43272374Y42051319D01*
X43297547Y42053824D01*
X43347598Y42078065D01*
X43464219Y42115149D01*
X43595429Y42119047D01*
X43719909Y42090440D01*
X43772412Y42064501D01*
X43837158Y42019300D01*
X43884347Y41970009D01*
X43916665Y41908115D01*
X43936797Y41825104D01*
X43947430Y41712462D01*
X43951247Y41561676D01*
X43951470Y41496851D01*
X43950818Y41354779D01*
X43948112Y41253243D01*
X43942224Y41182985D01*
X43932027Y41134744D01*
X43916394Y41099262D01*
X43900128Y41075057D01*
X43796295Y40972071D01*
X43674021Y40910126D01*
X43542114Y40891494D01*
X43409384Y40918451D01*
X43367333Y40937514D01*
X43266666Y40989985D01*
X43266666Y40167741D01*
X43340135Y40205733D01*
X43436941Y40235128D01*
X43555928Y40242658D01*
X43674745Y40228755D01*
X43764473Y40197524D01*
X43838899Y40138046D01*
X43902490Y40052934D01*
X43907271Y40044195D01*
X43927437Y40003034D01*
X43942165Y39961546D01*
X43952303Y39911287D01*
X43958699Y39843816D01*
X43962201Y39750691D01*
X43963658Y39623469D01*
X43963921Y39480299D01*
X43963921Y39023529D01*
X43690000Y39023529D01*
X43690000Y39865769D01*
X43613383Y39930237D01*
X43533793Y39981806D01*
X43458422Y39991182D01*
X43382633Y39967053D01*
X43342241Y39943426D01*
X43312179Y39909773D01*
X43290797Y39858913D01*
X43276450Y39783666D01*
X43267490Y39676854D01*
X43262270Y39531296D01*
X43260431Y39434412D01*
X43254215Y39035980D01*
X43123480Y39028453D01*
X42992745Y39020927D01*
X42992745Y41493418D01*
X43266666Y41493418D01*
X43273650Y41355577D01*
X43297182Y41259893D01*
X43341135Y41200359D01*
X43409382Y41170971D01*
X43478333Y41165098D01*
X43556386Y41171846D01*
X43608189Y41198406D01*
X43640583Y41233501D01*
X43666084Y41271248D01*
X43681265Y41313300D01*
X43688019Y41372221D01*
X43688241Y41460572D01*
X43685968Y41534552D01*
X43680749Y41646000D01*
X43672979Y41719167D01*
X43659895Y41765578D01*
X43638732Y41796756D01*
X43618760Y41814777D01*
X43535314Y41854075D01*
X43436551Y41860421D01*
X43379841Y41846884D01*
X43323692Y41798767D01*
X43286499Y41705167D01*
X43268472Y41566746D01*
X43266666Y41493418D01*
X42992745Y41493418D01*
X42992745Y42111372D01*
X43129705Y42111372D01*
G37*
X43129705Y42111372D02*
X43211935Y42108121D01*
X43254360Y42096574D01*
X43266661Y42074048D01*
X43266666Y42073380D01*
X43272374Y42051319D01*
X43297547Y42053824D01*
X43347598Y42078065D01*
X43464219Y42115149D01*
X43595429Y42119047D01*
X43719909Y42090440D01*
X43772412Y42064501D01*
X43837158Y42019300D01*
X43884347Y41970009D01*
X43916665Y41908115D01*
X43936797Y41825104D01*
X43947430Y41712462D01*
X43951247Y41561676D01*
X43951470Y41496851D01*
X43950818Y41354779D01*
X43948112Y41253243D01*
X43942224Y41182985D01*
X43932027Y41134744D01*
X43916394Y41099262D01*
X43900128Y41075057D01*
X43796295Y40972071D01*
X43674021Y40910126D01*
X43542114Y40891494D01*
X43409384Y40918451D01*
X43367333Y40937514D01*
X43266666Y40989985D01*
X43266666Y40167741D01*
X43340135Y40205733D01*
X43436941Y40235128D01*
X43555928Y40242658D01*
X43674745Y40228755D01*
X43764473Y40197524D01*
X43838899Y40138046D01*
X43902490Y40052934D01*
X43907271Y40044195D01*
X43927437Y40003034D01*
X43942165Y39961546D01*
X43952303Y39911287D01*
X43958699Y39843816D01*
X43962201Y39750691D01*
X43963658Y39623469D01*
X43963921Y39480299D01*
X43963921Y39023529D01*
X43690000Y39023529D01*
X43690000Y39865769D01*
X43613383Y39930237D01*
X43533793Y39981806D01*
X43458422Y39991182D01*
X43382633Y39967053D01*
X43342241Y39943426D01*
X43312179Y39909773D01*
X43290797Y39858913D01*
X43276450Y39783666D01*
X43267490Y39676854D01*
X43262270Y39531296D01*
X43260431Y39434412D01*
X43254215Y39035980D01*
X43123480Y39028453D01*
X42992745Y39020927D01*
X42992745Y41493418D01*
X43266666Y41493418D01*
X43273650Y41355577D01*
X43297182Y41259893D01*
X43341135Y41200359D01*
X43409382Y41170971D01*
X43478333Y41165098D01*
X43556386Y41171846D01*
X43608189Y41198406D01*
X43640583Y41233501D01*
X43666084Y41271248D01*
X43681265Y41313300D01*
X43688019Y41372221D01*
X43688241Y41460572D01*
X43685968Y41534552D01*
X43680749Y41646000D01*
X43672979Y41719167D01*
X43659895Y41765578D01*
X43638732Y41796756D01*
X43618760Y41814777D01*
X43535314Y41854075D01*
X43436551Y41860421D01*
X43379841Y41846884D01*
X43323692Y41798767D01*
X43286499Y41705167D01*
X43268472Y41566746D01*
X43266666Y41493418D01*
X42992745Y41493418D01*
X42992745Y42111372D01*
X43129705Y42111372D01*
G36*
X51063637Y42112528D02*
G01*
X51149290Y42086359D01*
X51204437Y42053293D01*
X51222401Y42027145D01*
X51217457Y41996148D01*
X51185372Y41947453D01*
X51158243Y41912965D01*
X51102317Y41850617D01*
X51060299Y41824385D01*
X51024480Y41826097D01*
X50918224Y41853137D01*
X50840189Y41851909D01*
X50776820Y41821265D01*
X50755546Y41803330D01*
X50687451Y41740221D01*
X50687451Y40916078D01*
X50413529Y40916078D01*
X50413529Y42111372D01*
X50550490Y42111372D01*
X50632719Y42108121D01*
X50675144Y42096574D01*
X50687445Y42074048D01*
X50687451Y42073380D01*
X50693260Y42049785D01*
X50719531Y42052862D01*
X50755931Y42069885D01*
X50831111Y42101561D01*
X50892158Y42120619D01*
X50970708Y42125504D01*
X51063637Y42112528D01*
G37*
X51063637Y42112528D02*
X51149290Y42086359D01*
X51204437Y42053293D01*
X51222401Y42027145D01*
X51217457Y41996148D01*
X51185372Y41947453D01*
X51158243Y41912965D01*
X51102317Y41850617D01*
X51060299Y41824385D01*
X51024480Y41826097D01*
X50918224Y41853137D01*
X50840189Y41851909D01*
X50776820Y41821265D01*
X50755546Y41803330D01*
X50687451Y41740221D01*
X50687451Y40916078D01*
X50413529Y40916078D01*
X50413529Y42111372D01*
X50550490Y42111372D01*
X50632719Y42108121D01*
X50675144Y42096574D01*
X50687445Y42074048D01*
X50687451Y42073380D01*
X50693260Y42049785D01*
X50719531Y42052862D01*
X50755931Y42069885D01*
X50831111Y42101561D01*
X50892158Y42120619D01*
X50970708Y42125504D01*
X51063637Y42112528D01*
G36*
X46006760Y42090801D02*
G01*
X46068736Y42061198D01*
X46128759Y42018439D01*
X46174486Y41969225D01*
X46207793Y41906456D01*
X46230555Y41823029D01*
X46244647Y41711841D01*
X46251942Y41565791D01*
X46254318Y41377777D01*
X46254355Y41358088D01*
X46254902Y40916078D01*
X45980980Y40916078D01*
X45980980Y41323565D01*
X45980785Y41474529D01*
X45979436Y41583944D01*
X45975788Y41660067D01*
X45968696Y41711152D01*
X45957013Y41745455D01*
X45939594Y41771232D01*
X45915329Y41796702D01*
X45830435Y41851429D01*
X45737761Y41861584D01*
X45649473Y41826983D01*
X45618770Y41801230D01*
X45596229Y41777018D01*
X45580046Y41751088D01*
X45569168Y41715292D01*
X45562542Y41661481D01*
X45559115Y41581507D01*
X45557834Y41467221D01*
X45557647Y41328093D01*
X45557647Y40916078D01*
X45283725Y40916078D01*
X45283725Y42111372D01*
X45420686Y42111372D01*
X45502916Y42108121D01*
X45545340Y42096574D01*
X45557641Y42074048D01*
X45557647Y42073380D01*
X45563354Y42051319D01*
X45588527Y42053823D01*
X45638578Y42078063D01*
X45752094Y42113729D01*
X45881945Y42117695D01*
X46006760Y42090801D01*
G37*
X46006760Y42090801D02*
X46068736Y42061198D01*
X46128759Y42018439D01*
X46174486Y41969225D01*
X46207793Y41906456D01*
X46230555Y41823029D01*
X46244647Y41711841D01*
X46251942Y41565791D01*
X46254318Y41377777D01*
X46254355Y41358088D01*
X46254902Y40916078D01*
X45980980Y40916078D01*
X45980980Y41323565D01*
X45980785Y41474529D01*
X45979436Y41583944D01*
X45975788Y41660067D01*
X45968696Y41711152D01*
X45957013Y41745455D01*
X45939594Y41771232D01*
X45915329Y41796702D01*
X45830435Y41851429D01*
X45737761Y41861584D01*
X45649473Y41826983D01*
X45618770Y41801230D01*
X45596229Y41777018D01*
X45580046Y41751088D01*
X45569168Y41715292D01*
X45562542Y41661481D01*
X45559115Y41581507D01*
X45557834Y41467221D01*
X45557647Y41328093D01*
X45557647Y40916078D01*
X45283725Y40916078D01*
X45283725Y42111372D01*
X45420686Y42111372D01*
X45502916Y42108121D01*
X45545340Y42096574D01*
X45557641Y42074048D01*
X45557647Y42073380D01*
X45563354Y42051319D01*
X45588527Y42053823D01*
X45638578Y42078063D01*
X45752094Y42113729D01*
X45881945Y42117695D01*
X46006760Y42090801D01*
G36*
X48246535Y50366828D02*
G01*
X48359117Y49769637D01*
X48774531Y49598390D01*
X49189944Y49427143D01*
X49688302Y49766022D01*
X49827868Y49860378D01*
X49954028Y49944625D01*
X50060895Y50014917D01*
X50142582Y50067408D01*
X50193201Y50098251D01*
X50206986Y50104902D01*
X50231820Y50087797D01*
X50284888Y50040511D01*
X50360240Y49969083D01*
X50451929Y49879555D01*
X50554007Y49777966D01*
X50660526Y49670357D01*
X50765536Y49562768D01*
X50863091Y49461240D01*
X50947242Y49371814D01*
X51012040Y49300529D01*
X51051538Y49253427D01*
X51060980Y49237663D01*
X51047391Y49208602D01*
X51009293Y49144934D01*
X50950694Y49052888D01*
X50875597Y48938691D01*
X50788009Y48808571D01*
X50737254Y48734354D01*
X50644745Y48598833D01*
X50562540Y48476539D01*
X50494630Y48373560D01*
X50445000Y48295982D01*
X50417640Y48249894D01*
X50413529Y48240208D01*
X50422849Y48212681D01*
X50448254Y48148527D01*
X50485911Y48056765D01*
X50531986Y47946416D01*
X50582646Y47826500D01*
X50634059Y47706036D01*
X50682389Y47594046D01*
X50723806Y47499548D01*
X50754474Y47431563D01*
X50770562Y47399112D01*
X50771511Y47397835D01*
X50796772Y47391638D01*
X50864046Y47377815D01*
X50966360Y47357723D01*
X51096741Y47332721D01*
X51248216Y47304169D01*
X51336594Y47287704D01*
X51498452Y47256886D01*
X51644649Y47227561D01*
X51767787Y47201334D01*
X51860469Y47179809D01*
X51915301Y47164590D01*
X51926323Y47159762D01*
X51937119Y47127081D01*
X51945829Y47053270D01*
X51952460Y46946963D01*
X51957018Y46816788D01*
X51959509Y46671379D01*
X51959938Y46519365D01*
X51958311Y46369378D01*
X51954635Y46230049D01*
X51948915Y46110010D01*
X51941158Y46017890D01*
X51931368Y45962323D01*
X51925496Y45950755D01*
X51890399Y45936890D01*
X51816028Y45917067D01*
X51712223Y45893616D01*
X51588819Y45868864D01*
X51545741Y45860857D01*
X51338047Y45822814D01*
X51173984Y45792176D01*
X51048130Y45767726D01*
X50955065Y45748246D01*
X50889367Y45732519D01*
X50845617Y45719327D01*
X50818392Y45707451D01*
X50802272Y45695675D01*
X50800017Y45693347D01*
X50777503Y45655855D01*
X50743158Y45582890D01*
X50700411Y45483388D01*
X50652692Y45366282D01*
X50603430Y45240507D01*
X50556055Y45114998D01*
X50513995Y44998690D01*
X50480680Y44900516D01*
X50459541Y44829412D01*
X50454005Y44794313D01*
X50454466Y44793083D01*
X50473223Y44764394D01*
X50515776Y44701270D01*
X50577653Y44610282D01*
X50654382Y44498000D01*
X50741491Y44370995D01*
X50766299Y44334902D01*
X50854753Y44204052D01*
X50932588Y44084664D01*
X50995566Y43983593D01*
X51039445Y43907696D01*
X51059985Y43863828D01*
X51060980Y43858438D01*
X51043722Y43830111D01*
X50996036Y43773994D01*
X50924050Y43696118D01*
X50833897Y43602515D01*
X50731705Y43499214D01*
X50623606Y43392249D01*
X50515728Y43287649D01*
X50414204Y43191446D01*
X50325162Y43109671D01*
X50254733Y43048355D01*
X50209047Y43013529D01*
X50196409Y43007843D01*
X50166991Y43021235D01*
X50106761Y43057356D01*
X50025530Y43110119D01*
X49963030Y43152588D01*
X49849785Y43230515D01*
X49715674Y43322271D01*
X49581155Y43413880D01*
X49508833Y43462909D01*
X49264038Y43628485D01*
X49058551Y43517380D01*
X48964936Y43468707D01*
X48885330Y43430874D01*
X48831467Y43409297D01*
X48817757Y43406294D01*
X48801270Y43428462D01*
X48768745Y43491106D01*
X48722609Y43588446D01*
X48665290Y43714706D01*
X48599216Y43864105D01*
X48526815Y44030867D01*
X48450516Y44209213D01*
X48372746Y44393364D01*
X48295934Y44577543D01*
X48222506Y44755970D01*
X48154892Y44922868D01*
X48095520Y45072458D01*
X48046816Y45198962D01*
X48011210Y45296601D01*
X47991130Y45359598D01*
X47987900Y45381234D01*
X48013496Y45408831D01*
X48069539Y45453630D01*
X48144311Y45506321D01*
X48150587Y45510490D01*
X48343845Y45665186D01*
X48499674Y45845664D01*
X48616724Y46046153D01*
X48693645Y46260881D01*
X48729086Y46484078D01*
X48721697Y46709974D01*
X48670127Y46932796D01*
X48573026Y47146776D01*
X48544458Y47193591D01*
X48395868Y47382637D01*
X48220327Y47534443D01*
X48023910Y47648221D01*
X47812693Y47723180D01*
X47592753Y47758533D01*
X47370163Y47753488D01*
X47151001Y47707256D01*
X46941342Y47619049D01*
X46747261Y47488076D01*
X46687226Y47434918D01*
X46534435Y47268516D01*
X46423097Y47093343D01*
X46346723Y46896989D01*
X46304187Y46702538D01*
X46293686Y46483913D01*
X46328701Y46264203D01*
X46405673Y46050835D01*
X46521047Y45851233D01*
X46671266Y45672826D01*
X46852773Y45523038D01*
X46876627Y45507249D01*
X46952201Y45455543D01*
X47009651Y45410743D01*
X47037117Y45382138D01*
X47037517Y45381234D01*
X47031620Y45350291D01*
X47008245Y45280064D01*
X46969821Y45176330D01*
X46918777Y45044865D01*
X46857542Y44891448D01*
X46788544Y44721854D01*
X46714214Y44541862D01*
X46636978Y44357247D01*
X46559268Y44173787D01*
X46483511Y43997259D01*
X46412137Y43833441D01*
X46347574Y43688108D01*
X46292252Y43567038D01*
X46248600Y43476008D01*
X46219046Y43420795D01*
X46207144Y43406294D01*
X46170777Y43417586D01*
X46102730Y43447870D01*
X46014737Y43491735D01*
X45966351Y43517380D01*
X45760863Y43628485D01*
X45516068Y43462909D01*
X45391106Y43378085D01*
X45254295Y43284739D01*
X45126089Y43196847D01*
X45061871Y43152588D01*
X44971551Y43091937D01*
X44895071Y43043874D01*
X44842407Y43014485D01*
X44825302Y43008273D01*
X44800405Y43025032D01*
X44745305Y43071819D01*
X44665343Y43143775D01*
X44565861Y43236043D01*
X44452200Y43343765D01*
X44380315Y43412929D01*
X44254551Y43536498D01*
X44145863Y43647021D01*
X44058645Y43739770D01*
X43997289Y43810018D01*
X43966191Y43853035D01*
X43963208Y43861765D01*
X43977053Y43894971D01*
X44015312Y43962113D01*
X44073742Y44056392D01*
X44148097Y44171010D01*
X44234135Y44299172D01*
X44258603Y44334902D01*
X44347755Y44464766D01*
X44427738Y44581686D01*
X44494080Y44679093D01*
X44542311Y44750416D01*
X44567957Y44789085D01*
X44570435Y44793083D01*
X44566729Y44823900D01*
X44547061Y44891656D01*
X44514860Y44987416D01*
X44473555Y45102246D01*
X44426575Y45227211D01*
X44377349Y45353376D01*
X44329308Y45471807D01*
X44285881Y45573570D01*
X44250496Y45649729D01*
X44226584Y45691351D01*
X44224884Y45693347D01*
X44210262Y45705242D01*
X44185565Y45717005D01*
X44145372Y45729854D01*
X44084263Y45745006D01*
X43996817Y45763679D01*
X43877612Y45787090D01*
X43721227Y45816458D01*
X43522243Y45853000D01*
X43479160Y45860857D01*
X43351471Y45885528D01*
X43240153Y45909662D01*
X43155045Y45930931D01*
X43105983Y45947007D01*
X43099405Y45950755D01*
X43088564Y45983982D01*
X43079753Y46058234D01*
X43072976Y46164879D01*
X43068240Y46295288D01*
X43065550Y46440828D01*
X43064913Y46592869D01*
X43066334Y46742779D01*
X43069820Y46881927D01*
X43075376Y47001683D01*
X43083008Y47093414D01*
X43092722Y47148489D01*
X43098578Y47159762D01*
X43131180Y47171132D01*
X43205418Y47189631D01*
X43313896Y47213653D01*
X43449217Y47241593D01*
X43603985Y47271847D01*
X43688308Y47287704D01*
X43848296Y47317611D01*
X43990967Y47344705D01*
X44109348Y47367624D01*
X44196465Y47385012D01*
X44245345Y47395508D01*
X44253390Y47397835D01*
X44266987Y47424069D01*
X44295729Y47487260D01*
X44335785Y47578378D01*
X44383324Y47688398D01*
X44434515Y47808290D01*
X44485526Y47929028D01*
X44532526Y48041584D01*
X44571684Y48136929D01*
X44599169Y48206038D01*
X44611149Y48239881D01*
X44611372Y48241360D01*
X44597791Y48268058D01*
X44559715Y48329495D01*
X44501147Y48419566D01*
X44426088Y48532165D01*
X44338540Y48661185D01*
X44287647Y48735294D01*
X44194909Y48871178D01*
X44112541Y48994546D01*
X44044561Y49099158D01*
X43994988Y49178772D01*
X43967842Y49227148D01*
X43963921Y49237993D01*
X43980775Y49263235D01*
X44027368Y49317131D01*
X44097749Y49393642D01*
X44185965Y49486732D01*
X44286065Y49590360D01*
X44392098Y49698491D01*
X44498111Y49805085D01*
X44598152Y49904105D01*
X44686270Y49989513D01*
X44756513Y50055270D01*
X44802928Y50095339D01*
X44818456Y50104902D01*
X44843739Y50091455D01*
X44904211Y50053680D01*
X44993992Y49995420D01*
X45107203Y49920521D01*
X45237964Y49832830D01*
X45336600Y49766022D01*
X45834957Y49427143D01*
X46250371Y49598390D01*
X46665784Y49769637D01*
X46778366Y50366828D01*
X46890949Y50964020D01*
X48133952Y50964020D01*
X48246535Y50366828D01*
G37*
X48246535Y50366828D02*
X48359117Y49769637D01*
X48774531Y49598390D01*
X49189944Y49427143D01*
X49688302Y49766022D01*
X49827868Y49860378D01*
X49954028Y49944625D01*
X50060895Y50014917D01*
X50142582Y50067408D01*
X50193201Y50098251D01*
X50206986Y50104902D01*
X50231820Y50087797D01*
X50284888Y50040511D01*
X50360240Y49969083D01*
X50451929Y49879555D01*
X50554007Y49777966D01*
X50660526Y49670357D01*
X50765536Y49562768D01*
X50863091Y49461240D01*
X50947242Y49371814D01*
X51012040Y49300529D01*
X51051538Y49253427D01*
X51060980Y49237663D01*
X51047391Y49208602D01*
X51009293Y49144934D01*
X50950694Y49052888D01*
X50875597Y48938691D01*
X50788009Y48808571D01*
X50737254Y48734354D01*
X50644745Y48598833D01*
X50562540Y48476539D01*
X50494630Y48373560D01*
X50445000Y48295982D01*
X50417640Y48249894D01*
X50413529Y48240208D01*
X50422849Y48212681D01*
X50448254Y48148527D01*
X50485911Y48056765D01*
X50531986Y47946416D01*
X50582646Y47826500D01*
X50634059Y47706036D01*
X50682389Y47594046D01*
X50723806Y47499548D01*
X50754474Y47431563D01*
X50770562Y47399112D01*
X50771511Y47397835D01*
X50796772Y47391638D01*
X50864046Y47377815D01*
X50966360Y47357723D01*
X51096741Y47332721D01*
X51248216Y47304169D01*
X51336594Y47287704D01*
X51498452Y47256886D01*
X51644649Y47227561D01*
X51767787Y47201334D01*
X51860469Y47179809D01*
X51915301Y47164590D01*
X51926323Y47159762D01*
X51937119Y47127081D01*
X51945829Y47053270D01*
X51952460Y46946963D01*
X51957018Y46816788D01*
X51959509Y46671379D01*
X51959938Y46519365D01*
X51958311Y46369378D01*
X51954635Y46230049D01*
X51948915Y46110010D01*
X51941158Y46017890D01*
X51931368Y45962323D01*
X51925496Y45950755D01*
X51890399Y45936890D01*
X51816028Y45917067D01*
X51712223Y45893616D01*
X51588819Y45868864D01*
X51545741Y45860857D01*
X51338047Y45822814D01*
X51173984Y45792176D01*
X51048130Y45767726D01*
X50955065Y45748246D01*
X50889367Y45732519D01*
X50845617Y45719327D01*
X50818392Y45707451D01*
X50802272Y45695675D01*
X50800017Y45693347D01*
X50777503Y45655855D01*
X50743158Y45582890D01*
X50700411Y45483388D01*
X50652692Y45366282D01*
X50603430Y45240507D01*
X50556055Y45114998D01*
X50513995Y44998690D01*
X50480680Y44900516D01*
X50459541Y44829412D01*
X50454005Y44794313D01*
X50454466Y44793083D01*
X50473223Y44764394D01*
X50515776Y44701270D01*
X50577653Y44610282D01*
X50654382Y44498000D01*
X50741491Y44370995D01*
X50766299Y44334902D01*
X50854753Y44204052D01*
X50932588Y44084664D01*
X50995566Y43983593D01*
X51039445Y43907696D01*
X51059985Y43863828D01*
X51060980Y43858438D01*
X51043722Y43830111D01*
X50996036Y43773994D01*
X50924050Y43696118D01*
X50833897Y43602515D01*
X50731705Y43499214D01*
X50623606Y43392249D01*
X50515728Y43287649D01*
X50414204Y43191446D01*
X50325162Y43109671D01*
X50254733Y43048355D01*
X50209047Y43013529D01*
X50196409Y43007843D01*
X50166991Y43021235D01*
X50106761Y43057356D01*
X50025530Y43110119D01*
X49963030Y43152588D01*
X49849785Y43230515D01*
X49715674Y43322271D01*
X49581155Y43413880D01*
X49508833Y43462909D01*
X49264038Y43628485D01*
X49058551Y43517380D01*
X48964936Y43468707D01*
X48885330Y43430874D01*
X48831467Y43409297D01*
X48817757Y43406294D01*
X48801270Y43428462D01*
X48768745Y43491106D01*
X48722609Y43588446D01*
X48665290Y43714706D01*
X48599216Y43864105D01*
X48526815Y44030867D01*
X48450516Y44209213D01*
X48372746Y44393364D01*
X48295934Y44577543D01*
X48222506Y44755970D01*
X48154892Y44922868D01*
X48095520Y45072458D01*
X48046816Y45198962D01*
X48011210Y45296601D01*
X47991130Y45359598D01*
X47987900Y45381234D01*
X48013496Y45408831D01*
X48069539Y45453630D01*
X48144311Y45506321D01*
X48150587Y45510490D01*
X48343845Y45665186D01*
X48499674Y45845664D01*
X48616724Y46046153D01*
X48693645Y46260881D01*
X48729086Y46484078D01*
X48721697Y46709974D01*
X48670127Y46932796D01*
X48573026Y47146776D01*
X48544458Y47193591D01*
X48395868Y47382637D01*
X48220327Y47534443D01*
X48023910Y47648221D01*
X47812693Y47723180D01*
X47592753Y47758533D01*
X47370163Y47753488D01*
X47151001Y47707256D01*
X46941342Y47619049D01*
X46747261Y47488076D01*
X46687226Y47434918D01*
X46534435Y47268516D01*
X46423097Y47093343D01*
X46346723Y46896989D01*
X46304187Y46702538D01*
X46293686Y46483913D01*
X46328701Y46264203D01*
X46405673Y46050835D01*
X46521047Y45851233D01*
X46671266Y45672826D01*
X46852773Y45523038D01*
X46876627Y45507249D01*
X46952201Y45455543D01*
X47009651Y45410743D01*
X47037117Y45382138D01*
X47037517Y45381234D01*
X47031620Y45350291D01*
X47008245Y45280064D01*
X46969821Y45176330D01*
X46918777Y45044865D01*
X46857542Y44891448D01*
X46788544Y44721854D01*
X46714214Y44541862D01*
X46636978Y44357247D01*
X46559268Y44173787D01*
X46483511Y43997259D01*
X46412137Y43833441D01*
X46347574Y43688108D01*
X46292252Y43567038D01*
X46248600Y43476008D01*
X46219046Y43420795D01*
X46207144Y43406294D01*
X46170777Y43417586D01*
X46102730Y43447870D01*
X46014737Y43491735D01*
X45966351Y43517380D01*
X45760863Y43628485D01*
X45516068Y43462909D01*
X45391106Y43378085D01*
X45254295Y43284739D01*
X45126089Y43196847D01*
X45061871Y43152588D01*
X44971551Y43091937D01*
X44895071Y43043874D01*
X44842407Y43014485D01*
X44825302Y43008273D01*
X44800405Y43025032D01*
X44745305Y43071819D01*
X44665343Y43143775D01*
X44565861Y43236043D01*
X44452200Y43343765D01*
X44380315Y43412929D01*
X44254551Y43536498D01*
X44145863Y43647021D01*
X44058645Y43739770D01*
X43997289Y43810018D01*
X43966191Y43853035D01*
X43963208Y43861765D01*
X43977053Y43894971D01*
X44015312Y43962113D01*
X44073742Y44056392D01*
X44148097Y44171010D01*
X44234135Y44299172D01*
X44258603Y44334902D01*
X44347755Y44464766D01*
X44427738Y44581686D01*
X44494080Y44679093D01*
X44542311Y44750416D01*
X44567957Y44789085D01*
X44570435Y44793083D01*
X44566729Y44823900D01*
X44547061Y44891656D01*
X44514860Y44987416D01*
X44473555Y45102246D01*
X44426575Y45227211D01*
X44377349Y45353376D01*
X44329308Y45471807D01*
X44285881Y45573570D01*
X44250496Y45649729D01*
X44226584Y45691351D01*
X44224884Y45693347D01*
X44210262Y45705242D01*
X44185565Y45717005D01*
X44145372Y45729854D01*
X44084263Y45745006D01*
X43996817Y45763679D01*
X43877612Y45787090D01*
X43721227Y45816458D01*
X43522243Y45853000D01*
X43479160Y45860857D01*
X43351471Y45885528D01*
X43240153Y45909662D01*
X43155045Y45930931D01*
X43105983Y45947007D01*
X43099405Y45950755D01*
X43088564Y45983982D01*
X43079753Y46058234D01*
X43072976Y46164879D01*
X43068240Y46295288D01*
X43065550Y46440828D01*
X43064913Y46592869D01*
X43066334Y46742779D01*
X43069820Y46881927D01*
X43075376Y47001683D01*
X43083008Y47093414D01*
X43092722Y47148489D01*
X43098578Y47159762D01*
X43131180Y47171132D01*
X43205418Y47189631D01*
X43313896Y47213653D01*
X43449217Y47241593D01*
X43603985Y47271847D01*
X43688308Y47287704D01*
X43848296Y47317611D01*
X43990967Y47344705D01*
X44109348Y47367624D01*
X44196465Y47385012D01*
X44245345Y47395508D01*
X44253390Y47397835D01*
X44266987Y47424069D01*
X44295729Y47487260D01*
X44335785Y47578378D01*
X44383324Y47688398D01*
X44434515Y47808290D01*
X44485526Y47929028D01*
X44532526Y48041584D01*
X44571684Y48136929D01*
X44599169Y48206038D01*
X44611149Y48239881D01*
X44611372Y48241360D01*
X44597791Y48268058D01*
X44559715Y48329495D01*
X44501147Y48419566D01*
X44426088Y48532165D01*
X44338540Y48661185D01*
X44287647Y48735294D01*
X44194909Y48871178D01*
X44112541Y48994546D01*
X44044561Y49099158D01*
X43994988Y49178772D01*
X43967842Y49227148D01*
X43963921Y49237993D01*
X43980775Y49263235D01*
X44027368Y49317131D01*
X44097749Y49393642D01*
X44185965Y49486732D01*
X44286065Y49590360D01*
X44392098Y49698491D01*
X44498111Y49805085D01*
X44598152Y49904105D01*
X44686270Y49989513D01*
X44756513Y50055270D01*
X44802928Y50095339D01*
X44818456Y50104902D01*
X44843739Y50091455D01*
X44904211Y50053680D01*
X44993992Y49995420D01*
X45107203Y49920521D01*
X45237964Y49832830D01*
X45336600Y49766022D01*
X45834957Y49427143D01*
X46250371Y49598390D01*
X46665784Y49769637D01*
X46778366Y50366828D01*
X46890949Y50964020D01*
X48133952Y50964020D01*
X48246535Y50366828D01*
G36*
X49467254Y41723755D02*
G01*
X49469608Y41541121D01*
X49478207Y41402400D01*
X49495360Y41301853D01*
X49523374Y41233746D01*
X49564557Y41192341D01*
X49621217Y41171903D01*
X49691372Y41166682D01*
X49764848Y41172532D01*
X49820657Y41193907D01*
X49861109Y41236542D01*
X49888509Y41306175D01*
X49905167Y41408540D01*
X49913389Y41549376D01*
X49915490Y41723755D01*
X49915490Y42111372D01*
X50189411Y42111372D01*
X50189411Y40916078D01*
X50052451Y40916078D01*
X49969884Y40919424D01*
X49927368Y40931174D01*
X49915490Y40953480D01*
X49908336Y40973346D01*
X49879865Y40969143D01*
X49822476Y40941029D01*
X49690945Y40897658D01*
X49551438Y40900730D01*
X49417765Y40947826D01*
X49354108Y40985029D01*
X49305553Y41025309D01*
X49270081Y41075709D01*
X49245674Y41143271D01*
X49230313Y41235035D01*
X49221982Y41358045D01*
X49218662Y41519341D01*
X49218235Y41644072D01*
X49218235Y42111372D01*
X49467254Y42111372D01*
X49467254Y41723755D01*
G37*
X49467254Y41723755D02*
X49469608Y41541121D01*
X49478207Y41402400D01*
X49495360Y41301853D01*
X49523374Y41233746D01*
X49564557Y41192341D01*
X49621217Y41171903D01*
X49691372Y41166682D01*
X49764848Y41172532D01*
X49820657Y41193907D01*
X49861109Y41236542D01*
X49888509Y41306175D01*
X49905167Y41408540D01*
X49913389Y41549376D01*
X49915490Y41723755D01*
X49915490Y42111372D01*
X50189411Y42111372D01*
X50189411Y40916078D01*
X50052451Y40916078D01*
X49969884Y40919424D01*
X49927368Y40931174D01*
X49915490Y40953480D01*
X49908336Y40973346D01*
X49879865Y40969143D01*
X49822476Y40941029D01*
X49690945Y40897658D01*
X49551438Y40900730D01*
X49417765Y40947826D01*
X49354108Y40985029D01*
X49305553Y41025309D01*
X49270081Y41075709D01*
X49245674Y41143271D01*
X49230313Y41235035D01*
X49221982Y41358045D01*
X49218662Y41519341D01*
X49218235Y41644072D01*
X49218235Y42111372D01*
X49467254Y42111372D01*
X49467254Y41723755D01*
G36*
X47527759Y42115655D02*
G01*
X47622059Y42097771D01*
X47719890Y42060367D01*
X47730343Y42055598D01*
X47804531Y42016588D01*
X47855910Y41980336D01*
X47872517Y41957113D01*
X47856702Y41919239D01*
X47818288Y41863356D01*
X47801237Y41842495D01*
X47730969Y41760382D01*
X47640379Y41813832D01*
X47554164Y41849439D01*
X47454549Y41868471D01*
X47359019Y41869674D01*
X47285061Y41851790D01*
X47267312Y41840627D01*
X47233512Y41789447D01*
X47229404Y41730491D01*
X47254696Y41684433D01*
X47269656Y41675501D01*
X47314486Y41664408D01*
X47393286Y41651370D01*
X47490426Y41638912D01*
X47508346Y41636958D01*
X47664365Y41609970D01*
X47777523Y41564127D01*
X47852569Y41495197D01*
X47894253Y41398946D01*
X47907238Y41281383D01*
X47889299Y41147746D01*
X47831050Y41042805D01*
X47732255Y40966370D01*
X47592682Y40918252D01*
X47437745Y40899268D01*
X47311398Y40899496D01*
X47208913Y40916738D01*
X47138921Y40940543D01*
X47050483Y40982022D01*
X46968754Y41030158D01*
X46939705Y41051345D01*
X46865000Y41112324D01*
X46955098Y41203492D01*
X47045196Y41294661D01*
X47147632Y41226872D01*
X47250374Y41175958D01*
X47360087Y41149327D01*
X47465551Y41146517D01*
X47555546Y41167065D01*
X47618854Y41210507D01*
X47639296Y41247162D01*
X47636229Y41305947D01*
X47585434Y41350901D01*
X47487048Y41381943D01*
X47379256Y41396290D01*
X47213365Y41423663D01*
X47090124Y41475307D01*
X47007886Y41552734D01*
X46965001Y41657456D01*
X46959060Y41781613D01*
X46988406Y41911298D01*
X47055309Y42009323D01*
X47160371Y42076134D01*
X47304190Y42112180D01*
X47410738Y42119246D01*
X47527759Y42115655D01*
G37*
X47527759Y42115655D02*
X47622059Y42097771D01*
X47719890Y42060367D01*
X47730343Y42055598D01*
X47804531Y42016588D01*
X47855910Y41980336D01*
X47872517Y41957113D01*
X47856702Y41919239D01*
X47818288Y41863356D01*
X47801237Y41842495D01*
X47730969Y41760382D01*
X47640379Y41813832D01*
X47554164Y41849439D01*
X47454549Y41868471D01*
X47359019Y41869674D01*
X47285061Y41851790D01*
X47267312Y41840627D01*
X47233512Y41789447D01*
X47229404Y41730491D01*
X47254696Y41684433D01*
X47269656Y41675501D01*
X47314486Y41664408D01*
X47393286Y41651370D01*
X47490426Y41638912D01*
X47508346Y41636958D01*
X47664365Y41609970D01*
X47777523Y41564127D01*
X47852569Y41495197D01*
X47894253Y41398946D01*
X47907238Y41281383D01*
X47889299Y41147746D01*
X47831050Y41042805D01*
X47732255Y40966370D01*
X47592682Y40918252D01*
X47437745Y40899268D01*
X47311398Y40899496D01*
X47208913Y40916738D01*
X47138921Y40940543D01*
X47050483Y40982022D01*
X46968754Y41030158D01*
X46939705Y41051345D01*
X46865000Y41112324D01*
X46955098Y41203492D01*
X47045196Y41294661D01*
X47147632Y41226872D01*
X47250374Y41175958D01*
X47360087Y41149327D01*
X47465551Y41146517D01*
X47555546Y41167065D01*
X47618854Y41210507D01*
X47639296Y41247162D01*
X47636229Y41305947D01*
X47585434Y41350901D01*
X47487048Y41381943D01*
X47379256Y41396290D01*
X47213365Y41423663D01*
X47090124Y41475307D01*
X47007886Y41552734D01*
X46965001Y41657456D01*
X46959060Y41781613D01*
X46988406Y41911298D01*
X47055309Y42009323D01*
X47160371Y42076134D01*
X47304190Y42112180D01*
X47410738Y42119246D01*
X47527759Y42115655D01*
G36*
X51890976Y42100944D02*
G01*
X52035256Y42039652D01*
X52080699Y42009815D01*
X52138779Y41963964D01*
X52175238Y41927911D01*
X52181568Y41916168D01*
X52163693Y41890111D01*
X52117950Y41845895D01*
X52081328Y41815035D01*
X51981088Y41734480D01*
X51901935Y41801082D01*
X51840769Y41844079D01*
X51781129Y41858921D01*
X51712872Y41855296D01*
X51604482Y41828348D01*
X51529872Y41772413D01*
X51484530Y41681986D01*
X51463947Y41551565D01*
X51463942Y41551483D01*
X51465722Y41405710D01*
X51493387Y41298755D01*
X51548571Y41225936D01*
X51586192Y41201277D01*
X51686105Y41170569D01*
X51792822Y41170551D01*
X51885669Y41200345D01*
X51907647Y41214902D01*
X51962765Y41252086D01*
X52005859Y41258180D01*
X52052335Y41230504D01*
X52103716Y41180795D01*
X52185046Y41096884D01*
X52094749Y41022454D01*
X51955236Y40938451D01*
X51797912Y40897053D01*
X51633503Y40900050D01*
X51525531Y40927500D01*
X51399331Y40995380D01*
X51298401Y41102169D01*
X51252548Y41177549D01*
X51215410Y41285703D01*
X51196827Y41422682D01*
X51196684Y41571136D01*
X51214865Y41713719D01*
X51251255Y41833082D01*
X51256987Y41845320D01*
X51341865Y41965345D01*
X51456782Y42052733D01*
X51592659Y42105671D01*
X51740417Y42122346D01*
X51890976Y42100944D01*
G37*
X51890976Y42100944D02*
X52035256Y42039652D01*
X52080699Y42009815D01*
X52138779Y41963964D01*
X52175238Y41927911D01*
X52181568Y41916168D01*
X52163693Y41890111D01*
X52117950Y41845895D01*
X52081328Y41815035D01*
X51981088Y41734480D01*
X51901935Y41801082D01*
X51840769Y41844079D01*
X51781129Y41858921D01*
X51712872Y41855296D01*
X51604482Y41828348D01*
X51529872Y41772413D01*
X51484530Y41681986D01*
X51463947Y41551565D01*
X51463942Y41551483D01*
X51465722Y41405710D01*
X51493387Y41298755D01*
X51548571Y41225936D01*
X51586192Y41201277D01*
X51686105Y41170569D01*
X51792822Y41170551D01*
X51885669Y41200345D01*
X51907647Y41214902D01*
X51962765Y41252086D01*
X52005859Y41258180D01*
X52052335Y41230504D01*
X52103716Y41180795D01*
X52185046Y41096884D01*
X52094749Y41022454D01*
X51955236Y40938451D01*
X51797912Y40897053D01*
X51633503Y40900050D01*
X51525531Y40927500D01*
X51399331Y40995380D01*
X51298401Y41102169D01*
X51252548Y41177549D01*
X51215410Y41285703D01*
X51196827Y41422682D01*
X51196684Y41571136D01*
X51214865Y41713719D01*
X51251255Y41833082D01*
X51256987Y41845320D01*
X51341865Y41965345D01*
X51456782Y42052733D01*
X51592659Y42105671D01*
X51740417Y42122346D01*
X51890976Y42100944D01*
G36*
X50993520Y39987729D02*
G01*
X51065635Y40105931D01*
X51168273Y40186560D01*
X51302332Y40230861D01*
X51374957Y40239393D01*
X51525307Y40237216D01*
X51644337Y40206269D01*
X51744021Y40142400D01*
X51792288Y40094687D01*
X51871408Y39981894D01*
X51916752Y39851050D01*
X51932330Y39690208D01*
X51932410Y39677206D01*
X51932549Y39546470D01*
X51180091Y39546470D01*
X51196130Y39477990D01*
X51225091Y39415969D01*
X51275778Y39351346D01*
X51286379Y39341029D01*
X51377494Y39285195D01*
X51481400Y39275725D01*
X51601000Y39312460D01*
X51621274Y39322353D01*
X51683456Y39352426D01*
X51725106Y39369560D01*
X51732373Y39371145D01*
X51757740Y39355758D01*
X51806120Y39318113D01*
X51830679Y39297541D01*
X51881570Y39250286D01*
X51898281Y39219083D01*
X51886683Y39190380D01*
X51880483Y39182532D01*
X51838493Y39148181D01*
X51769206Y39106435D01*
X51720882Y39082065D01*
X51583711Y39039127D01*
X51431847Y39025214D01*
X51288024Y39041700D01*
X51247745Y39053504D01*
X51123078Y39120311D01*
X51030671Y39223108D01*
X50969990Y39362895D01*
X50940498Y39540670D01*
X50937260Y39633627D01*
X50946714Y39768967D01*
X51185490Y39768967D01*
X51208584Y39758962D01*
X51270662Y39751112D01*
X51360914Y39746479D01*
X51422058Y39745686D01*
X51532040Y39746451D01*
X51601457Y39750030D01*
X51639538Y39758351D01*
X51655515Y39773343D01*
X51658627Y39795097D01*
X51637278Y39862108D01*
X51583529Y39928336D01*
X51512822Y39979168D01*
X51442089Y39999962D01*
X51346016Y39981516D01*
X51262849Y39928189D01*
X51205186Y39851323D01*
X51185490Y39768967D01*
X50946714Y39768967D01*
X50951028Y39830709D01*
X50993520Y39987729D01*
G37*
X50993520Y39987729D02*
X51065635Y40105931D01*
X51168273Y40186560D01*
X51302332Y40230861D01*
X51374957Y40239393D01*
X51525307Y40237216D01*
X51644337Y40206269D01*
X51744021Y40142400D01*
X51792288Y40094687D01*
X51871408Y39981894D01*
X51916752Y39851050D01*
X51932330Y39690208D01*
X51932410Y39677206D01*
X51932549Y39546470D01*
X51180091Y39546470D01*
X51196130Y39477990D01*
X51225091Y39415969D01*
X51275778Y39351346D01*
X51286379Y39341029D01*
X51377494Y39285195D01*
X51481400Y39275725D01*
X51601000Y39312460D01*
X51621274Y39322353D01*
X51683456Y39352426D01*
X51725106Y39369560D01*
X51732373Y39371145D01*
X51757740Y39355758D01*
X51806120Y39318113D01*
X51830679Y39297541D01*
X51881570Y39250286D01*
X51898281Y39219083D01*
X51886683Y39190380D01*
X51880483Y39182532D01*
X51838493Y39148181D01*
X51769206Y39106435D01*
X51720882Y39082065D01*
X51583711Y39039127D01*
X51431847Y39025214D01*
X51288024Y39041700D01*
X51247745Y39053504D01*
X51123078Y39120311D01*
X51030671Y39223108D01*
X50969990Y39362895D01*
X50940498Y39540670D01*
X50937260Y39633627D01*
X50946714Y39768967D01*
X51185490Y39768967D01*
X51208584Y39758962D01*
X51270662Y39751112D01*
X51360914Y39746479D01*
X51422058Y39745686D01*
X51532040Y39746451D01*
X51601457Y39750030D01*
X51639538Y39758351D01*
X51655515Y39773343D01*
X51658627Y39795097D01*
X51637278Y39862108D01*
X51583529Y39928336D01*
X51512822Y39979168D01*
X51442089Y39999962D01*
X51346016Y39981516D01*
X51262849Y39928189D01*
X51205186Y39851323D01*
X51185490Y39768967D01*
X50946714Y39768967D01*
X50951028Y39830709D01*
X50993520Y39987729D01*
G36*
X41828260Y41716400D02*
G01*
X41843283Y41803633D01*
X41870376Y41872470D01*
X41911600Y41933263D01*
X41926885Y41951314D01*
X42022454Y42041254D01*
X42124961Y42093789D01*
X42250321Y42115799D01*
X42311450Y42117598D01*
X42473247Y42098432D01*
X42603522Y42040837D01*
X42702419Y41944666D01*
X42770082Y41809771D01*
X42806655Y41636004D01*
X42809276Y41608874D01*
X42811330Y41417592D01*
X42784699Y41249927D01*
X42731001Y41114033D01*
X42702247Y41070319D01*
X42602091Y40977802D01*
X42474537Y40917881D01*
X42331837Y40893015D01*
X42186240Y40905661D01*
X42075562Y40944609D01*
X41980384Y41010245D01*
X41902594Y41096301D01*
X41901249Y41098315D01*
X41869657Y41151430D01*
X41849127Y41204840D01*
X41836695Y41272246D01*
X41829397Y41367347D01*
X41826182Y41445334D01*
X41824844Y41516056D01*
X42073814Y41516056D01*
X42076247Y41445652D01*
X42085080Y41351932D01*
X42100664Y41291786D01*
X42128766Y41248994D01*
X42155086Y41223998D01*
X42248392Y41171662D01*
X42346020Y41164667D01*
X42436942Y41202324D01*
X42482402Y41244521D01*
X42515162Y41287044D01*
X42534323Y41327733D01*
X42542733Y41380686D01*
X42543237Y41460003D01*
X42540645Y41533050D01*
X42535071Y41637399D01*
X42526234Y41705080D01*
X42510307Y41749226D01*
X42483462Y41782969D01*
X42462189Y41802254D01*
X42373206Y41852914D01*
X42277211Y41855440D01*
X42196719Y41825433D01*
X42128053Y41762769D01*
X42087144Y41659832D01*
X42073814Y41516056D01*
X41824844Y41516056D01*
X41823246Y41600418D01*
X41828260Y41716400D01*
G37*
X41828260Y41716400D02*
X41843283Y41803633D01*
X41870376Y41872470D01*
X41911600Y41933263D01*
X41926885Y41951314D01*
X42022454Y42041254D01*
X42124961Y42093789D01*
X42250321Y42115799D01*
X42311450Y42117598D01*
X42473247Y42098432D01*
X42603522Y42040837D01*
X42702419Y41944666D01*
X42770082Y41809771D01*
X42806655Y41636004D01*
X42809276Y41608874D01*
X42811330Y41417592D01*
X42784699Y41249927D01*
X42731001Y41114033D01*
X42702247Y41070319D01*
X42602091Y40977802D01*
X42474537Y40917881D01*
X42331837Y40893015D01*
X42186240Y40905661D01*
X42075562Y40944609D01*
X41980384Y41010245D01*
X41902594Y41096301D01*
X41901249Y41098315D01*
X41869657Y41151430D01*
X41849127Y41204840D01*
X41836695Y41272246D01*
X41829397Y41367347D01*
X41826182Y41445334D01*
X41824844Y41516056D01*
X42073814Y41516056D01*
X42076247Y41445652D01*
X42085080Y41351932D01*
X42100664Y41291786D01*
X42128766Y41248994D01*
X42155086Y41223998D01*
X42248392Y41171662D01*
X42346020Y41164667D01*
X42436942Y41202324D01*
X42482402Y41244521D01*
X42515162Y41287044D01*
X42534323Y41327733D01*
X42542733Y41380686D01*
X42543237Y41460003D01*
X42540645Y41533050D01*
X42535071Y41637399D01*
X42526234Y41705080D01*
X42510307Y41749226D01*
X42483462Y41782969D01*
X42462189Y41802254D01*
X42373206Y41852914D01*
X42277211Y41855440D01*
X42196719Y41825433D01*
X42128053Y41762769D01*
X42087144Y41659832D01*
X42073814Y41516056D01*
X41824844Y41516056D01*
X41823246Y41600418D01*
X41828260Y41716400D01*
G36*
X48958880Y39583145D02*
G01*
X49020196Y39659715D01*
X49057332Y39692819D01*
X49093687Y39714575D01*
X49140990Y39727839D01*
X49210973Y39735472D01*
X49315364Y39740330D01*
X49356770Y39741727D01*
X49616666Y39750220D01*
X49616285Y39828884D01*
X49606219Y39911572D01*
X49569829Y39961569D01*
X49496311Y39993511D01*
X49494339Y39994080D01*
X49390105Y40006639D01*
X49288108Y39990234D01*
X49212305Y39950343D01*
X49181890Y39930646D01*
X49149132Y39933371D01*
X49098721Y39961909D01*
X49069119Y39982050D01*
X49011218Y40025081D01*
X48975352Y40057338D01*
X48969597Y40066573D01*
X48993295Y40114364D01*
X49063313Y40171438D01*
X49093725Y40190695D01*
X49181155Y40223860D01*
X49298983Y40242650D01*
X49429866Y40246871D01*
X49556459Y40236331D01*
X49661420Y40210837D01*
X49691761Y40197331D01*
X49750573Y40161954D01*
X49795709Y40122110D01*
X49829106Y40070880D01*
X49852701Y40001346D01*
X49868433Y39906591D01*
X49878239Y39779695D01*
X49884057Y39613742D01*
X49886266Y39502892D01*
X49894396Y39023529D01*
X49755531Y39023529D01*
X49671287Y39027062D01*
X49627884Y39039134D01*
X49616666Y39059406D01*
X49610744Y39081326D01*
X49584266Y39077135D01*
X49548186Y39059559D01*
X49457862Y39032618D01*
X49341777Y39025358D01*
X49219680Y39037233D01*
X49111321Y39067695D01*
X49101602Y39071923D01*
X49002568Y39141495D01*
X48937281Y39238211D01*
X48907240Y39351262D01*
X48909535Y39391878D01*
X49154633Y39391878D01*
X49176229Y39337218D01*
X49240259Y39298048D01*
X49343565Y39277026D01*
X49398774Y39274234D01*
X49490782Y39281380D01*
X49551941Y39309152D01*
X49566862Y39322353D01*
X49607287Y39394171D01*
X49616666Y39459314D01*
X49616666Y39546470D01*
X49495269Y39546470D01*
X49354153Y39539278D01*
X49255173Y39516655D01*
X49192633Y39477036D01*
X49178631Y39459372D01*
X49154633Y39391878D01*
X48909535Y39391878D01*
X48913941Y39469843D01*
X48958880Y39583145D01*
G37*
X48958880Y39583145D02*
X49020196Y39659715D01*
X49057332Y39692819D01*
X49093687Y39714575D01*
X49140990Y39727839D01*
X49210973Y39735472D01*
X49315364Y39740330D01*
X49356770Y39741727D01*
X49616666Y39750220D01*
X49616285Y39828884D01*
X49606219Y39911572D01*
X49569829Y39961569D01*
X49496311Y39993511D01*
X49494339Y39994080D01*
X49390105Y40006639D01*
X49288108Y39990234D01*
X49212305Y39950343D01*
X49181890Y39930646D01*
X49149132Y39933371D01*
X49098721Y39961909D01*
X49069119Y39982050D01*
X49011218Y40025081D01*
X48975352Y40057338D01*
X48969597Y40066573D01*
X48993295Y40114364D01*
X49063313Y40171438D01*
X49093725Y40190695D01*
X49181155Y40223860D01*
X49298983Y40242650D01*
X49429866Y40246871D01*
X49556459Y40236331D01*
X49661420Y40210837D01*
X49691761Y40197331D01*
X49750573Y40161954D01*
X49795709Y40122110D01*
X49829106Y40070880D01*
X49852701Y40001346D01*
X49868433Y39906591D01*
X49878239Y39779695D01*
X49884057Y39613742D01*
X49886266Y39502892D01*
X49894396Y39023529D01*
X49755531Y39023529D01*
X49671287Y39027062D01*
X49627884Y39039134D01*
X49616666Y39059406D01*
X49610744Y39081326D01*
X49584266Y39077135D01*
X49548186Y39059559D01*
X49457862Y39032618D01*
X49341777Y39025358D01*
X49219680Y39037233D01*
X49111321Y39067695D01*
X49101602Y39071923D01*
X49002568Y39141495D01*
X48937281Y39238211D01*
X48907240Y39351262D01*
X48909535Y39391878D01*
X49154633Y39391878D01*
X49176229Y39337218D01*
X49240259Y39298048D01*
X49343565Y39277026D01*
X49398774Y39274234D01*
X49490782Y39281380D01*
X49551941Y39309152D01*
X49566862Y39322353D01*
X49607287Y39394171D01*
X49616666Y39459314D01*
X49616666Y39546470D01*
X49495269Y39546470D01*
X49354153Y39539278D01*
X49255173Y39516655D01*
X49192633Y39477036D01*
X49178631Y39459372D01*
X49154633Y39391878D01*
X48909535Y39391878D01*
X48913941Y39469843D01*
X48958880Y39583145D01*
G36*
X44171534Y39605718D02*
G01*
X44258200Y39689288D01*
X44270179Y39696890D01*
X44321655Y39721643D01*
X44385368Y39736632D01*
X44474435Y39743918D01*
X44580245Y39745593D01*
X44810588Y39745686D01*
X44810588Y39842245D01*
X44800817Y39917164D01*
X44775884Y39967356D01*
X44772965Y39970028D01*
X44717481Y39991985D01*
X44633727Y40000495D01*
X44541167Y39996313D01*
X44459270Y39980191D01*
X44410673Y39956010D01*
X44384341Y39936641D01*
X44356535Y39932943D01*
X44318161Y39948812D01*
X44260125Y39988145D01*
X44173331Y40054836D01*
X44165365Y40061084D01*
X44169447Y40084200D01*
X44203501Y40122648D01*
X44255260Y40165373D01*
X44312455Y40201321D01*
X44330425Y40209809D01*
X44395972Y40226748D01*
X44492020Y40238830D01*
X44599329Y40243677D01*
X44604347Y40243687D01*
X44758720Y40234078D01*
X44875870Y40202820D01*
X44965051Y40146163D01*
X45027984Y40071955D01*
X45047548Y40040284D01*
X45061992Y40007109D01*
X45072089Y39964671D01*
X45078615Y39905212D01*
X45082342Y39820971D01*
X45084046Y39704190D01*
X45084500Y39547110D01*
X45084509Y39505435D01*
X45084509Y39023529D01*
X44964980Y39023529D01*
X44888739Y39028869D01*
X44832366Y39042396D01*
X44818242Y39050738D01*
X44779630Y39065136D01*
X44740192Y39050738D01*
X44675262Y39032763D01*
X44580945Y39025528D01*
X44476407Y39028667D01*
X44380811Y39041814D01*
X44325000Y39058682D01*
X44216998Y39128014D01*
X44149503Y39224228D01*
X44119159Y39352156D01*
X44118877Y39355441D01*
X44121540Y39412192D01*
X44362353Y39412192D01*
X44383405Y39347642D01*
X44417697Y39311314D01*
X44486532Y39283838D01*
X44577390Y39272871D01*
X44670042Y39278269D01*
X44744256Y39299890D01*
X44765049Y39313761D01*
X44801381Y39377857D01*
X44810588Y39450722D01*
X44810588Y39546470D01*
X44672827Y39546470D01*
X44541953Y39536395D01*
X44442741Y39507852D01*
X44381023Y39463361D01*
X44362353Y39412192D01*
X44121540Y39412192D01*
X44125436Y39495210D01*
X44171534Y39605718D01*
G37*
X44171534Y39605718D02*
X44258200Y39689288D01*
X44270179Y39696890D01*
X44321655Y39721643D01*
X44385368Y39736632D01*
X44474435Y39743918D01*
X44580245Y39745593D01*
X44810588Y39745686D01*
X44810588Y39842245D01*
X44800817Y39917164D01*
X44775884Y39967356D01*
X44772965Y39970028D01*
X44717481Y39991985D01*
X44633727Y40000495D01*
X44541167Y39996313D01*
X44459270Y39980191D01*
X44410673Y39956010D01*
X44384341Y39936641D01*
X44356535Y39932943D01*
X44318161Y39948812D01*
X44260125Y39988145D01*
X44173331Y40054836D01*
X44165365Y40061084D01*
X44169447Y40084200D01*
X44203501Y40122648D01*
X44255260Y40165373D01*
X44312455Y40201321D01*
X44330425Y40209809D01*
X44395972Y40226748D01*
X44492020Y40238830D01*
X44599329Y40243677D01*
X44604347Y40243687D01*
X44758720Y40234078D01*
X44875870Y40202820D01*
X44965051Y40146163D01*
X45027984Y40071955D01*
X45047548Y40040284D01*
X45061992Y40007109D01*
X45072089Y39964671D01*
X45078615Y39905212D01*
X45082342Y39820971D01*
X45084046Y39704190D01*
X45084500Y39547110D01*
X45084509Y39505435D01*
X45084509Y39023529D01*
X44964980Y39023529D01*
X44888739Y39028869D01*
X44832366Y39042396D01*
X44818242Y39050738D01*
X44779630Y39065136D01*
X44740192Y39050738D01*
X44675262Y39032763D01*
X44580945Y39025528D01*
X44476407Y39028667D01*
X44380811Y39041814D01*
X44325000Y39058682D01*
X44216998Y39128014D01*
X44149503Y39224228D01*
X44119159Y39352156D01*
X44118877Y39355441D01*
X44121540Y39412192D01*
X44362353Y39412192D01*
X44383405Y39347642D01*
X44417697Y39311314D01*
X44486532Y39283838D01*
X44577390Y39272871D01*
X44670042Y39278269D01*
X44744256Y39299890D01*
X44765049Y39313761D01*
X44801381Y39377857D01*
X44810588Y39450722D01*
X44810588Y39546470D01*
X44672827Y39546470D01*
X44541953Y39536395D01*
X44442741Y39507852D01*
X44381023Y39463361D01*
X44362353Y39412192D01*
X44121540Y39412192D01*
X44125436Y39495210D01*
X44171534Y39605718D01*
G36*
X44200590Y41910539D02*
G01*
X44264421Y41988539D01*
X44382433Y42073118D01*
X44521158Y42118314D01*
X44668710Y42122400D01*
X44813204Y42083646D01*
X44838019Y42071963D01*
X44923906Y42009049D01*
X45005121Y41917231D01*
X45065764Y41816132D01*
X45083012Y41769651D01*
X45098749Y41686624D01*
X45108133Y41586287D01*
X45109272Y41544853D01*
X45109411Y41414118D01*
X44356953Y41414118D01*
X44372993Y41345637D01*
X44412363Y41264645D01*
X44481194Y41194649D01*
X44563081Y41149559D01*
X44615263Y41140196D01*
X44686029Y41151559D01*
X44770460Y41180057D01*
X44799142Y41193169D01*
X44905209Y41246142D01*
X44995728Y41177099D01*
X45047961Y41130403D01*
X45075753Y41091860D01*
X45077160Y41080548D01*
X45052332Y41053132D01*
X44997917Y41011468D01*
X44948528Y40978963D01*
X44815252Y40920532D01*
X44665839Y40894085D01*
X44517751Y40900961D01*
X44399705Y40936904D01*
X44278018Y41013899D01*
X44191540Y41115272D01*
X44137441Y41246430D01*
X44112891Y41412776D01*
X44110714Y41488892D01*
X44119427Y41663315D01*
X44120497Y41668389D01*
X44369827Y41668389D01*
X44376694Y41652032D01*
X44404917Y41643012D01*
X44463127Y41639146D01*
X44559958Y41638251D01*
X44597243Y41638235D01*
X44710683Y41639587D01*
X44782622Y41644495D01*
X44821313Y41654240D01*
X44835005Y41670101D01*
X44835490Y41675195D01*
X44819863Y41715674D01*
X44780753Y41772379D01*
X44763939Y41792234D01*
X44701519Y41848389D01*
X44636453Y41870468D01*
X44601397Y41872314D01*
X44506558Y41849234D01*
X44427027Y41787241D01*
X44376577Y41697198D01*
X44375683Y41694265D01*
X44369827Y41668389D01*
X44120497Y41668389D01*
X44148399Y41800657D01*
X44200590Y41910539D01*
G37*
X44200590Y41910539D02*
X44264421Y41988539D01*
X44382433Y42073118D01*
X44521158Y42118314D01*
X44668710Y42122400D01*
X44813204Y42083646D01*
X44838019Y42071963D01*
X44923906Y42009049D01*
X45005121Y41917231D01*
X45065764Y41816132D01*
X45083012Y41769651D01*
X45098749Y41686624D01*
X45108133Y41586287D01*
X45109272Y41544853D01*
X45109411Y41414118D01*
X44356953Y41414118D01*
X44372993Y41345637D01*
X44412363Y41264645D01*
X44481194Y41194649D01*
X44563081Y41149559D01*
X44615263Y41140196D01*
X44686029Y41151559D01*
X44770460Y41180057D01*
X44799142Y41193169D01*
X44905209Y41246142D01*
X44995728Y41177099D01*
X45047961Y41130403D01*
X45075753Y41091860D01*
X45077160Y41080548D01*
X45052332Y41053132D01*
X44997917Y41011468D01*
X44948528Y40978963D01*
X44815252Y40920532D01*
X44665839Y40894085D01*
X44517751Y40900961D01*
X44399705Y40936904D01*
X44278018Y41013899D01*
X44191540Y41115272D01*
X44137441Y41246430D01*
X44112891Y41412776D01*
X44110714Y41488892D01*
X44119427Y41663315D01*
X44120497Y41668389D01*
X44369827Y41668389D01*
X44376694Y41652032D01*
X44404917Y41643012D01*
X44463127Y41639146D01*
X44559958Y41638251D01*
X44597243Y41638235D01*
X44710683Y41639587D01*
X44782622Y41644495D01*
X44821313Y41654240D01*
X44835005Y41670101D01*
X44835490Y41675195D01*
X44819863Y41715674D01*
X44780753Y41772379D01*
X44763939Y41792234D01*
X44701519Y41848389D01*
X44636453Y41870468D01*
X44601397Y41872314D01*
X44506558Y41849234D01*
X44427027Y41787241D01*
X44376577Y41697198D01*
X44375683Y41694265D01*
X44369827Y41668389D01*
X44120497Y41668389D01*
X44148399Y41800657D01*
X44200590Y41910539D01*
G36*
X52309773Y41902289D02*
G01*
X52400878Y42012026D01*
X52515978Y42086826D01*
X52651355Y42122696D01*
X52803287Y42115645D01*
X52867051Y42100155D01*
X52989300Y42043431D01*
X53093834Y41956798D01*
X53166180Y41852926D01*
X53176119Y41829604D01*
X53189754Y41768516D01*
X53199298Y41678147D01*
X53202549Y41586810D01*
X53202549Y41414118D01*
X52841470Y41414118D01*
X52692546Y41413555D01*
X52587632Y41410136D01*
X52520937Y41401269D01*
X52486666Y41384359D01*
X52479028Y41356811D01*
X52492229Y41316032D01*
X52515877Y41268317D01*
X52581843Y41188686D01*
X52673512Y41149013D01*
X52785555Y41150305D01*
X52912472Y41193486D01*
X53022158Y41246776D01*
X53113173Y41174809D01*
X53204188Y41102843D01*
X53118563Y41023731D01*
X53004250Y40948983D01*
X52863666Y40903916D01*
X52712449Y40891304D01*
X52566236Y40913921D01*
X52542647Y40921595D01*
X52414141Y40988704D01*
X52318551Y41088753D01*
X52253861Y41224729D01*
X52218057Y41399620D01*
X52217640Y41403368D01*
X52214434Y41593968D01*
X52227393Y41661965D01*
X52480392Y41661965D01*
X52503627Y41651509D01*
X52566710Y41643500D01*
X52659706Y41638927D01*
X52718638Y41638235D01*
X52828537Y41638668D01*
X52897252Y41641422D01*
X52933405Y41648679D01*
X52945615Y41662624D01*
X52942504Y41685438D01*
X52939894Y41694265D01*
X52895344Y41777200D01*
X52825279Y41844040D01*
X52763446Y41873411D01*
X52681301Y41871638D01*
X52598062Y41835010D01*
X52528238Y41774366D01*
X52486337Y41700544D01*
X52480392Y41661965D01*
X52227393Y41661965D01*
X52246385Y41761605D01*
X52309773Y41902289D01*
G37*
X52309773Y41902289D02*
X52400878Y42012026D01*
X52515978Y42086826D01*
X52651355Y42122696D01*
X52803287Y42115645D01*
X52867051Y42100155D01*
X52989300Y42043431D01*
X53093834Y41956798D01*
X53166180Y41852926D01*
X53176119Y41829604D01*
X53189754Y41768516D01*
X53199298Y41678147D01*
X53202549Y41586810D01*
X53202549Y41414118D01*
X52841470Y41414118D01*
X52692546Y41413555D01*
X52587632Y41410136D01*
X52520937Y41401269D01*
X52486666Y41384359D01*
X52479028Y41356811D01*
X52492229Y41316032D01*
X52515877Y41268317D01*
X52581843Y41188686D01*
X52673512Y41149013D01*
X52785555Y41150305D01*
X52912472Y41193486D01*
X53022158Y41246776D01*
X53113173Y41174809D01*
X53204188Y41102843D01*
X53118563Y41023731D01*
X53004250Y40948983D01*
X52863666Y40903916D01*
X52712449Y40891304D01*
X52566236Y40913921D01*
X52542647Y40921595D01*
X52414141Y40988704D01*
X52318551Y41088753D01*
X52253861Y41224729D01*
X52218057Y41399620D01*
X52217640Y41403368D01*
X52214434Y41593968D01*
X52227393Y41661965D01*
X52480392Y41661965D01*
X52503627Y41651509D01*
X52566710Y41643500D01*
X52659706Y41638927D01*
X52718638Y41638235D01*
X52828537Y41638668D01*
X52897252Y41641422D01*
X52933405Y41648679D01*
X52945615Y41662624D01*
X52942504Y41685438D01*
X52939894Y41694265D01*
X52895344Y41777200D01*
X52825279Y41844040D01*
X52763446Y41873411D01*
X52681301Y41871638D01*
X52598062Y41835010D01*
X52528238Y41774366D01*
X52486337Y41700544D01*
X52480392Y41661965D01*
X52227393Y41661965D01*
X52246385Y41761605D01*
X52309773Y41902289D01*
G36*
X46134194Y39727082D02*
G01*
X46146373Y39888645D01*
X46171685Y40009947D01*
X46213793Y40099621D01*
X46276359Y40166301D01*
X46337100Y40205443D01*
X46421964Y40232960D01*
X46527515Y40242397D01*
X46635598Y40234710D01*
X46728058Y40210854D01*
X46776910Y40182315D01*
X46827647Y40136399D01*
X46827647Y40716863D01*
X47101568Y40716863D01*
X47101568Y39023529D01*
X46964607Y39023529D01*
X46885111Y39025860D01*
X46843708Y39035512D01*
X46828801Y39056475D01*
X46827647Y39070649D01*
X46825133Y39099073D01*
X46809280Y39104525D01*
X46767621Y39087002D01*
X46735224Y39070649D01*
X46610849Y39031897D01*
X46475646Y39029654D01*
X46365726Y39058556D01*
X46263366Y39128381D01*
X46185340Y39231445D01*
X46142614Y39353011D01*
X46141526Y39359808D01*
X46135178Y39433968D01*
X46132021Y39540430D01*
X46132275Y39620948D01*
X46404289Y39620948D01*
X46410590Y39513930D01*
X46424925Y39425722D01*
X46444331Y39375910D01*
X46517746Y39307838D01*
X46604914Y39283436D01*
X46694804Y39303169D01*
X46771617Y39362032D01*
X46800708Y39401621D01*
X46817717Y39448862D01*
X46825684Y39517819D01*
X46827647Y39621393D01*
X46824134Y39723961D01*
X46814857Y39814079D01*
X46801706Y39874387D01*
X46799514Y39879792D01*
X46746478Y39944060D01*
X46669067Y39979344D01*
X46582454Y39985041D01*
X46501807Y39960547D01*
X46442297Y39905258D01*
X46436124Y39894257D01*
X46416801Y39827173D01*
X46406274Y39730716D01*
X46404289Y39620948D01*
X46132275Y39620948D01*
X46132404Y39661775D01*
X46134194Y39727082D01*
G37*
X46134194Y39727082D02*
X46146373Y39888645D01*
X46171685Y40009947D01*
X46213793Y40099621D01*
X46276359Y40166301D01*
X46337100Y40205443D01*
X46421964Y40232960D01*
X46527515Y40242397D01*
X46635598Y40234710D01*
X46728058Y40210854D01*
X46776910Y40182315D01*
X46827647Y40136399D01*
X46827647Y40716863D01*
X47101568Y40716863D01*
X47101568Y39023529D01*
X46964607Y39023529D01*
X46885111Y39025860D01*
X46843708Y39035512D01*
X46828801Y39056475D01*
X46827647Y39070649D01*
X46825133Y39099073D01*
X46809280Y39104525D01*
X46767621Y39087002D01*
X46735224Y39070649D01*
X46610849Y39031897D01*
X46475646Y39029654D01*
X46365726Y39058556D01*
X46263366Y39128381D01*
X46185340Y39231445D01*
X46142614Y39353011D01*
X46141526Y39359808D01*
X46135178Y39433968D01*
X46132021Y39540430D01*
X46132275Y39620948D01*
X46404289Y39620948D01*
X46410590Y39513930D01*
X46424925Y39425722D01*
X46444331Y39375910D01*
X46517746Y39307838D01*
X46604914Y39283436D01*
X46694804Y39303169D01*
X46771617Y39362032D01*
X46800708Y39401621D01*
X46817717Y39448862D01*
X46825684Y39517819D01*
X46827647Y39621393D01*
X46824134Y39723961D01*
X46814857Y39814079D01*
X46801706Y39874387D01*
X46799514Y39879792D01*
X46746478Y39944060D01*
X46669067Y39979344D01*
X46582454Y39985041D01*
X46501807Y39960547D01*
X46442297Y39905258D01*
X46436124Y39894257D01*
X46416801Y39827173D01*
X46406274Y39730716D01*
X46404289Y39620948D01*
X46132275Y39620948D01*
X46132404Y39661775D01*
X46134194Y39727082D01*
G36*
X48065180Y41810577D02*
G01*
X48131802Y41945186D01*
X48230799Y42041960D01*
X48362175Y42100906D01*
X48390385Y42107741D01*
X48559926Y42123787D01*
X48709547Y42096636D01*
X48835502Y42028041D01*
X48934047Y41919755D01*
X48980478Y41831685D01*
X49000412Y41753899D01*
X49013328Y41643007D01*
X49018863Y41515262D01*
X49016654Y41386916D01*
X49006337Y41274221D01*
X48994286Y41214031D01*
X48953634Y41131689D01*
X48883230Y41044230D01*
X48798382Y40967749D01*
X48714397Y40918345D01*
X48712349Y40917561D01*
X48608134Y40895973D01*
X48484627Y40895438D01*
X48367261Y40915092D01*
X48321942Y40930845D01*
X48205220Y40997034D01*
X48121624Y41083754D01*
X48066701Y41198562D01*
X48035995Y41349018D01*
X48029047Y41427827D01*
X48029933Y41526855D01*
X48296862Y41526855D01*
X48305854Y41382355D01*
X48331736Y41272240D01*
X48372868Y41201884D01*
X48402172Y41181765D01*
X48477251Y41167735D01*
X48566494Y41171889D01*
X48643650Y41192078D01*
X48663883Y41203185D01*
X48717265Y41267877D01*
X48752500Y41366881D01*
X48767498Y41487368D01*
X48760172Y41616506D01*
X48743799Y41694225D01*
X48696790Y41784229D01*
X48622582Y41840491D01*
X48533209Y41859943D01*
X48440707Y41839519D01*
X48369653Y41789563D01*
X48332312Y41748345D01*
X48310518Y41707719D01*
X48300130Y41652736D01*
X48297006Y41568451D01*
X48296862Y41526855D01*
X48029933Y41526855D01*
X48030930Y41638126D01*
X48065180Y41810577D01*
G37*
X48065180Y41810577D02*
X48131802Y41945186D01*
X48230799Y42041960D01*
X48362175Y42100906D01*
X48390385Y42107741D01*
X48559926Y42123787D01*
X48709547Y42096636D01*
X48835502Y42028041D01*
X48934047Y41919755D01*
X48980478Y41831685D01*
X49000412Y41753899D01*
X49013328Y41643007D01*
X49018863Y41515262D01*
X49016654Y41386916D01*
X49006337Y41274221D01*
X48994286Y41214031D01*
X48953634Y41131689D01*
X48883230Y41044230D01*
X48798382Y40967749D01*
X48714397Y40918345D01*
X48712349Y40917561D01*
X48608134Y40895973D01*
X48484627Y40895438D01*
X48367261Y40915092D01*
X48321942Y40930845D01*
X48205220Y40997034D01*
X48121624Y41083754D01*
X48066701Y41198562D01*
X48035995Y41349018D01*
X48029047Y41427827D01*
X48029933Y41526855D01*
X48296862Y41526855D01*
X48305854Y41382355D01*
X48331736Y41272240D01*
X48372868Y41201884D01*
X48402172Y41181765D01*
X48477251Y41167735D01*
X48566494Y41171889D01*
X48643650Y41192078D01*
X48663883Y41203185D01*
X48717265Y41267877D01*
X48752500Y41366881D01*
X48767498Y41487368D01*
X48760172Y41616506D01*
X48743799Y41694225D01*
X48696790Y41784229D01*
X48622582Y41840491D01*
X48533209Y41859943D01*
X48440707Y41839519D01*
X48369653Y41789563D01*
X48332312Y41748345D01*
X48310518Y41707719D01*
X48300130Y41652736D01*
X48297006Y41568451D01*
X48296862Y41526855D01*
X48029933Y41526855D01*
X48030930Y41638126D01*
X48065180Y41810577D01*
G36*
X48057528Y40238668D02*
G01*
X48156014Y40231274D01*
X48284776Y39845294D01*
X48413537Y39459314D01*
X48453911Y39596274D01*
X48478207Y39680917D01*
X48510167Y39795303D01*
X48544679Y39921037D01*
X48562928Y39988480D01*
X48631571Y40243725D01*
X48914773Y40243725D01*
X48830122Y39976029D01*
X48788435Y39844362D01*
X48738074Y39685542D01*
X48685481Y39519872D01*
X48638530Y39372157D01*
X48531589Y39035980D01*
X48300661Y39020956D01*
X48238050Y39227684D01*
X48199438Y39356104D01*
X48157300Y39497678D01*
X48120472Y39622715D01*
X48119018Y39627691D01*
X48091511Y39712414D01*
X48067242Y39770222D01*
X48050243Y39792082D01*
X48046750Y39789554D01*
X48034490Y39755664D01*
X48011195Y39683070D01*
X47979700Y39580899D01*
X47942842Y39458280D01*
X47922899Y39390833D01*
X47814895Y39023529D01*
X47585679Y39023529D01*
X47402439Y39602500D01*
X47350963Y39764909D01*
X47304070Y39912398D01*
X47263977Y40038040D01*
X47232897Y40134905D01*
X47213045Y40196066D01*
X47207011Y40213935D01*
X47211788Y40232232D01*
X47249297Y40240245D01*
X47327355Y40239443D01*
X47339574Y40238837D01*
X47484326Y40231274D01*
X47579130Y39882647D01*
X47613977Y39755503D01*
X47645117Y39643735D01*
X47669809Y39557047D01*
X47685312Y39505144D01*
X47688176Y39496682D01*
X47700046Y39506413D01*
X47723983Y39556828D01*
X47757239Y39641065D01*
X47797064Y39752259D01*
X47830730Y39852703D01*
X47959041Y40246061D01*
X48057528Y40238668D01*
G37*
X48057528Y40238668D02*
X48156014Y40231274D01*
X48284776Y39845294D01*
X48413537Y39459314D01*
X48453911Y39596274D01*
X48478207Y39680917D01*
X48510167Y39795303D01*
X48544679Y39921037D01*
X48562928Y39988480D01*
X48631571Y40243725D01*
X48914773Y40243725D01*
X48830122Y39976029D01*
X48788435Y39844362D01*
X48738074Y39685542D01*
X48685481Y39519872D01*
X48638530Y39372157D01*
X48531589Y39035980D01*
X48300661Y39020956D01*
X48238050Y39227684D01*
X48199438Y39356104D01*
X48157300Y39497678D01*
X48120472Y39622715D01*
X48119018Y39627691D01*
X48091511Y39712414D01*
X48067242Y39770222D01*
X48050243Y39792082D01*
X48046750Y39789554D01*
X48034490Y39755664D01*
X48011195Y39683070D01*
X47979700Y39580899D01*
X47942842Y39458280D01*
X47922899Y39390833D01*
X47814895Y39023529D01*
X47585679Y39023529D01*
X47402439Y39602500D01*
X47350963Y39764909D01*
X47304070Y39912398D01*
X47263977Y40038040D01*
X47232897Y40134905D01*
X47213045Y40196066D01*
X47207011Y40213935D01*
X47211788Y40232232D01*
X47249297Y40240245D01*
X47327355Y40239443D01*
X47339574Y40238837D01*
X47484326Y40231274D01*
X47579130Y39882647D01*
X47613977Y39755503D01*
X47645117Y39643735D01*
X47669809Y39557047D01*
X47685312Y39505144D01*
X47688176Y39496682D01*
X47700046Y39506413D01*
X47723983Y39556828D01*
X47757239Y39641065D01*
X47797064Y39752259D01*
X47830730Y39852703D01*
X47959041Y40246061D01*
X48057528Y40238668D01*
D14*
G04 #@! TO.C,RL1*
X14725000Y83150000D02*
X15775000Y83150000D01*
D15*
X16576750Y81880000D02*
G75*
G03*
X16576750Y81880000I-56750J0D01*
G01*
D14*
G04 #@! TO.C,LED4*
X87975000Y87300000D02*
X87975000Y85700000D01*
X90250000Y87300000D02*
X87975000Y87300000D01*
X87975000Y85700000D02*
X90250000Y85700000D01*
G04 #@! TO.C,J7*
X40670000Y1100000D02*
X40670000Y18900000D01*
X40100000Y16000000D02*
X40100000Y16000000D01*
X40670000Y18900000D02*
X52170000Y18900000D01*
X52170000Y1100000D02*
X40670000Y1100000D01*
X52170000Y18900000D02*
X52170000Y1100000D01*
X40100000Y16000000D02*
X40100000Y16000000D01*
X40200000Y16000000D02*
X40200000Y16000000D01*
X40200000Y16000000D02*
G75*
G03*
X40100000Y16000000I-50000J0D01*
G01*
X40100000Y16000000D02*
G75*
G03*
X40200000Y16000000I50000J0D01*
G01*
X40100000Y16000000D02*
G75*
G03*
X40200000Y16000000I50000J0D01*
G01*
G04 #@! TO.C,R1*
X12550000Y76525000D02*
X12550000Y75475000D01*
D15*
X11336750Y74730000D02*
G75*
G03*
X11336750Y74730000I-56750J0D01*
G01*
D14*
G04 #@! TO.C,J5*
X90670000Y1100000D02*
X90670000Y18900000D01*
X90200000Y16000000D02*
X90200000Y16000000D01*
X102170000Y1100000D02*
X90670000Y1100000D01*
X90100000Y16000000D02*
X90100000Y16000000D01*
X90670000Y18900000D02*
X102170000Y18900000D01*
X90100000Y16000000D02*
X90100000Y16000000D01*
X102170000Y18900000D02*
X102170000Y1100000D01*
X90100000Y16000000D02*
G75*
G03*
X90200000Y16000000I50000J0D01*
G01*
X90200000Y16000000D02*
G75*
G03*
X90100000Y16000000I-50000J0D01*
G01*
X90100000Y16000000D02*
G75*
G03*
X90200000Y16000000I50000J0D01*
G01*
G04 #@! TO.C,LED6*
X82025000Y2400000D02*
X82025000Y4000000D01*
X82025000Y4000000D02*
X79750000Y4000000D01*
X79750000Y2400000D02*
X82025000Y2400000D01*
G04 #@! TO.C,TVSP1*
X10425000Y31538000D02*
X5075000Y31538000D01*
X10425000Y35162000D02*
X5075000Y35162000D01*
G04 #@! TO.C,TVS7*
X35188000Y20875000D02*
X35188000Y15525000D01*
X38812000Y20875000D02*
X38812000Y15525000D01*
G04 #@! TO.C,#LOGO3*
G36*
X68627999Y42635024D02*
G01*
X68627199Y42843216D01*
X68626661Y43076909D01*
X68626338Y43337602D01*
X68626183Y43626796D01*
X68626146Y43945991D01*
X68626183Y44296687D01*
X68626245Y44680386D01*
X68626285Y45098586D01*
X68626286Y45181607D01*
X68626309Y45604211D01*
X68626388Y45992019D01*
X68626533Y46346520D01*
X68626756Y46669203D01*
X68627069Y46961558D01*
X68627483Y47225073D01*
X68628009Y47461238D01*
X68628660Y47671542D01*
X68629447Y47857474D01*
X68630381Y48020525D01*
X68631474Y48162182D01*
X68632737Y48283936D01*
X68634183Y48387275D01*
X68635821Y48473689D01*
X68637666Y48544667D01*
X68639726Y48601699D01*
X68642015Y48646273D01*
X68644544Y48679879D01*
X68647324Y48704007D01*
X68650367Y48720144D01*
X68653684Y48729782D01*
X68653807Y48730022D01*
X68660640Y48744745D01*
X68666330Y48758074D01*
X68672626Y48770078D01*
X68681272Y48780827D01*
X68694014Y48790389D01*
X68712600Y48798833D01*
X68738774Y48806229D01*
X68774284Y48812646D01*
X68820875Y48818152D01*
X68880293Y48822817D01*
X68954285Y48826709D01*
X69044597Y48829898D01*
X69152975Y48832453D01*
X69281165Y48834442D01*
X69430913Y48835935D01*
X69603966Y48837002D01*
X69802069Y48837709D01*
X70026969Y48838128D01*
X70280412Y48838327D01*
X70564144Y48838374D01*
X70879911Y48838340D01*
X71229460Y48838293D01*
X71392170Y48838286D01*
X73996571Y48838285D01*
X73996571Y48684762D01*
X74012957Y48497937D01*
X74062412Y48325633D01*
X74145380Y48166825D01*
X74262305Y48020490D01*
X74301864Y47980968D01*
X74444170Y47868862D01*
X74601078Y47787101D01*
X74767928Y47735647D01*
X74940061Y47714463D01*
X75112815Y47723513D01*
X75281530Y47762758D01*
X75441546Y47832162D01*
X75588202Y47931689D01*
X75654068Y47991735D01*
X75776808Y48138957D01*
X75866812Y48300853D01*
X75923294Y48475573D01*
X75945471Y48661265D01*
X75945766Y48679533D01*
X75946928Y48838280D01*
X76016700Y48838283D01*
X76078595Y48829882D01*
X76135135Y48809444D01*
X76138872Y48807333D01*
X76151642Y48800707D01*
X76163368Y48795546D01*
X76174094Y48790349D01*
X76183861Y48783610D01*
X76192712Y48773829D01*
X76200689Y48759500D01*
X76207835Y48739122D01*
X76214192Y48711192D01*
X76219802Y48674205D01*
X76224707Y48626660D01*
X76228951Y48567053D01*
X76232576Y48493881D01*
X76235623Y48405641D01*
X76238136Y48300830D01*
X76240156Y48177945D01*
X76241726Y48035483D01*
X76242888Y47871940D01*
X76243686Y47685814D01*
X76244160Y47475602D01*
X76244354Y47239800D01*
X76244310Y46976906D01*
X76244070Y46685416D01*
X76243677Y46363828D01*
X76243173Y46010638D01*
X76242600Y45624343D01*
X76242001Y45203440D01*
X76241932Y45152160D01*
X76241395Y44728574D01*
X76240939Y44339770D01*
X76240516Y43984247D01*
X76240079Y43660502D01*
X76239578Y43367034D01*
X76238965Y43102339D01*
X76238192Y42864915D01*
X76237211Y42653260D01*
X76235974Y42465871D01*
X76234432Y42301246D01*
X76232537Y42157883D01*
X76230241Y42034280D01*
X76227496Y41928933D01*
X76224253Y41840341D01*
X76220464Y41767000D01*
X76216081Y41707410D01*
X76211055Y41660067D01*
X76205339Y41623469D01*
X76198884Y41596114D01*
X76191641Y41576498D01*
X76183563Y41563121D01*
X76174602Y41554479D01*
X76164708Y41549070D01*
X76153835Y41545392D01*
X76141933Y41541942D01*
X76128954Y41537218D01*
X76125783Y41535780D01*
X76115819Y41532549D01*
X76099141Y41529580D01*
X76074293Y41526863D01*
X76039820Y41524387D01*
X75994264Y41522142D01*
X75936170Y41520117D01*
X75864081Y41518302D01*
X75776542Y41516685D01*
X75672095Y41515257D01*
X75549285Y41514007D01*
X75406655Y41512924D01*
X75242749Y41511998D01*
X75056110Y41511218D01*
X74845284Y41510574D01*
X74608812Y41510054D01*
X74345239Y41509649D01*
X74053110Y41509348D01*
X73730966Y41509140D01*
X73377353Y41509015D01*
X72990814Y41508962D01*
X72569892Y41508971D01*
X72433544Y41508984D01*
X72003284Y41509053D01*
X71607836Y41509166D01*
X71245727Y41509335D01*
X70915483Y41509570D01*
X70615629Y41509884D01*
X70344692Y41510287D01*
X70101200Y41510793D01*
X69883677Y41511411D01*
X69690650Y41512154D01*
X69520646Y41513032D01*
X69372190Y41514059D01*
X69243810Y41515244D01*
X69134031Y41516600D01*
X69041380Y41518138D01*
X68964383Y41519870D01*
X68901566Y41521806D01*
X68851456Y41523960D01*
X68812579Y41526341D01*
X68783462Y41528963D01*
X68762629Y41531835D01*
X68748609Y41534970D01*
X68740966Y41537841D01*
X68727382Y41543570D01*
X68714910Y41547794D01*
X68703502Y41552015D01*
X68693111Y41557732D01*
X68683691Y41566445D01*
X68675192Y41579655D01*
X68667570Y41598863D01*
X68660775Y41625567D01*
X68654762Y41661270D01*
X68649483Y41707470D01*
X68644890Y41765668D01*
X68640936Y41837365D01*
X68637575Y41924060D01*
X68634759Y42027254D01*
X68632440Y42148447D01*
X68630572Y42289140D01*
X68630084Y42343143D01*
X69114296Y42343143D01*
X70825744Y42343143D01*
X70792813Y42393036D01*
X70760053Y42444307D01*
X70732311Y42493131D01*
X70709193Y42542924D01*
X70690303Y42597102D01*
X70675249Y42659084D01*
X70663633Y42732285D01*
X70655064Y42820122D01*
X70649144Y42926012D01*
X70645481Y43053372D01*
X70643679Y43205619D01*
X70643344Y43386168D01*
X70644081Y43598438D01*
X70644499Y43677245D01*
X70649214Y44522089D01*
X71184428Y43793443D01*
X71336054Y43586735D01*
X71467419Y43406740D01*
X71579943Y43251075D01*
X71675043Y43117353D01*
X71754138Y43003191D01*
X71818647Y42906203D01*
X71869988Y42824006D01*
X71909580Y42754214D01*
X71938840Y42694442D01*
X71959188Y42642307D01*
X71972042Y42595424D01*
X71978819Y42551407D01*
X71980940Y42507873D01*
X71979821Y42462436D01*
X71979536Y42456725D01*
X71973643Y42343067D01*
X73849229Y42343143D01*
X73709722Y42483811D01*
X73671865Y42522285D01*
X73635953Y42559721D01*
X73600407Y42598186D01*
X73563653Y42639742D01*
X73524114Y42686455D01*
X73480214Y42740390D01*
X73430377Y42803610D01*
X73373028Y42878182D01*
X73306589Y42966168D01*
X73229485Y43069635D01*
X73140139Y43190646D01*
X73036976Y43331266D01*
X72918420Y43493560D01*
X72782895Y43679593D01*
X72628823Y43891429D01*
X72502538Y44065196D01*
X72344046Y44283499D01*
X72205784Y44474371D01*
X72086501Y44639626D01*
X71984943Y44781074D01*
X71899859Y44900529D01*
X71829995Y44999802D01*
X71774100Y45080705D01*
X71730920Y45145051D01*
X71699203Y45194653D01*
X71677698Y45231321D01*
X71665150Y45256868D01*
X71660308Y45273107D01*
X71661763Y45281645D01*
X71679401Y45304365D01*
X71717534Y45352457D01*
X71773862Y45423062D01*
X71846084Y45513322D01*
X71931899Y45620379D01*
X72029006Y45741373D01*
X72135104Y45873446D01*
X72247891Y46013740D01*
X72365068Y46159397D01*
X72484333Y46307556D01*
X72549933Y46389000D01*
X74178686Y46389000D01*
X74246379Y46266535D01*
X74314071Y46144071D01*
X74314071Y42588071D01*
X74246379Y42465607D01*
X74178686Y42343143D01*
X74979441Y42343143D01*
X75170602Y42343198D01*
X75328499Y42343449D01*
X75456152Y42344021D01*
X75556581Y42345041D01*
X75632807Y42346635D01*
X75687852Y42348930D01*
X75724736Y42352050D01*
X75746479Y42356123D01*
X75756102Y42361275D01*
X75756627Y42367633D01*
X75751074Y42375321D01*
X75751016Y42375385D01*
X75728140Y42408476D01*
X75697849Y42462281D01*
X75671097Y42515992D01*
X75620357Y42624357D01*
X75615182Y44506678D01*
X75610007Y46389000D01*
X74178686Y46389000D01*
X72549933Y46389000D01*
X72603385Y46455361D01*
X72719923Y46599953D01*
X72831646Y46738472D01*
X72936254Y46868061D01*
X73031444Y46985860D01*
X73114917Y47089012D01*
X73184371Y47174657D01*
X73237506Y47239938D01*
X73268715Y47278000D01*
X73389903Y47420330D01*
X73506493Y47548770D01*
X73614397Y47659114D01*
X73709530Y47747159D01*
X73777043Y47801138D01*
X73856873Y47858571D01*
X72020892Y47858571D01*
X72021408Y47750835D01*
X72016276Y47671628D01*
X71996985Y47598195D01*
X71967123Y47528585D01*
X71947712Y47489259D01*
X71926841Y47450293D01*
X71902604Y47409099D01*
X71873094Y47363092D01*
X71836406Y47309683D01*
X71790632Y47246286D01*
X71733865Y47170315D01*
X71664200Y47079183D01*
X71579730Y46970302D01*
X71478547Y46841086D01*
X71358747Y46688948D01*
X71218421Y46511302D01*
X71202571Y46491258D01*
X70649214Y45791492D01*
X70643857Y46566496D01*
X70642779Y46798632D01*
X70643008Y46995154D01*
X70644557Y47156708D01*
X70647437Y47283944D01*
X70651659Y47377508D01*
X70657234Y47438048D01*
X70659107Y47449532D01*
X70688505Y47570501D01*
X70727022Y47679554D01*
X70770974Y47767237D01*
X70797379Y47804426D01*
X70842940Y47858571D01*
X69978470Y47858571D01*
X69772255Y47858395D01*
X69599812Y47857821D01*
X69458627Y47856783D01*
X69346188Y47855213D01*
X69259983Y47853046D01*
X69197498Y47850212D01*
X69156221Y47846647D01*
X69133640Y47842282D01*
X69127241Y47837051D01*
X69127683Y47835893D01*
X69146009Y47808231D01*
X69176604Y47764385D01*
X69192433Y47742209D01*
X69208798Y47720080D01*
X69223508Y47700291D01*
X69236656Y47680894D01*
X69248333Y47659942D01*
X69258632Y47635488D01*
X69267646Y47605584D01*
X69275468Y47568283D01*
X69282191Y47521637D01*
X69287906Y47463699D01*
X69292707Y47392521D01*
X69296685Y47306156D01*
X69299935Y47202656D01*
X69302548Y47080075D01*
X69304617Y46936463D01*
X69306234Y46769875D01*
X69307493Y46578363D01*
X69308485Y46359978D01*
X69309304Y46112774D01*
X69310042Y45834804D01*
X69310791Y45524119D01*
X69311492Y45238700D01*
X69312153Y44920508D01*
X69312497Y44616923D01*
X69312532Y44329885D01*
X69312268Y44061331D01*
X69311715Y43813202D01*
X69310880Y43587437D01*
X69309773Y43385974D01*
X69308404Y43210754D01*
X69306781Y43063714D01*
X69304913Y42946794D01*
X69302811Y42861933D01*
X69300482Y42811071D01*
X69300041Y42805696D01*
X69283992Y42682387D01*
X69258936Y42583356D01*
X69220779Y42496930D01*
X69165428Y42411435D01*
X69158504Y42402107D01*
X69114296Y42343143D01*
X68630084Y42343143D01*
X68629108Y42450832D01*
X68627999Y42635024D01*
G37*
D19*
X68627999Y42635024D02*
X68627199Y42843216D01*
X68626661Y43076909D01*
X68626338Y43337602D01*
X68626183Y43626796D01*
X68626146Y43945991D01*
X68626183Y44296687D01*
X68626245Y44680386D01*
X68626285Y45098586D01*
X68626286Y45181607D01*
X68626309Y45604211D01*
X68626388Y45992019D01*
X68626533Y46346520D01*
X68626756Y46669203D01*
X68627069Y46961558D01*
X68627483Y47225073D01*
X68628009Y47461238D01*
X68628660Y47671542D01*
X68629447Y47857474D01*
X68630381Y48020525D01*
X68631474Y48162182D01*
X68632737Y48283936D01*
X68634183Y48387275D01*
X68635821Y48473689D01*
X68637666Y48544667D01*
X68639726Y48601699D01*
X68642015Y48646273D01*
X68644544Y48679879D01*
X68647324Y48704007D01*
X68650367Y48720144D01*
X68653684Y48729782D01*
X68653807Y48730022D01*
X68660640Y48744745D01*
X68666330Y48758074D01*
X68672626Y48770078D01*
X68681272Y48780827D01*
X68694014Y48790389D01*
X68712600Y48798833D01*
X68738774Y48806229D01*
X68774284Y48812646D01*
X68820875Y48818152D01*
X68880293Y48822817D01*
X68954285Y48826709D01*
X69044597Y48829898D01*
X69152975Y48832453D01*
X69281165Y48834442D01*
X69430913Y48835935D01*
X69603966Y48837002D01*
X69802069Y48837709D01*
X70026969Y48838128D01*
X70280412Y48838327D01*
X70564144Y48838374D01*
X70879911Y48838340D01*
X71229460Y48838293D01*
X71392170Y48838286D01*
X73996571Y48838285D01*
X73996571Y48684762D01*
X74012957Y48497937D01*
X74062412Y48325633D01*
X74145380Y48166825D01*
X74262305Y48020490D01*
X74301864Y47980968D01*
X74444170Y47868862D01*
X74601078Y47787101D01*
X74767928Y47735647D01*
X74940061Y47714463D01*
X75112815Y47723513D01*
X75281530Y47762758D01*
X75441546Y47832162D01*
X75588202Y47931689D01*
X75654068Y47991735D01*
X75776808Y48138957D01*
X75866812Y48300853D01*
X75923294Y48475573D01*
X75945471Y48661265D01*
X75945766Y48679533D01*
X75946928Y48838280D01*
X76016700Y48838283D01*
X76078595Y48829882D01*
X76135135Y48809444D01*
X76138872Y48807333D01*
X76151642Y48800707D01*
X76163368Y48795546D01*
X76174094Y48790349D01*
X76183861Y48783610D01*
X76192712Y48773829D01*
X76200689Y48759500D01*
X76207835Y48739122D01*
X76214192Y48711192D01*
X76219802Y48674205D01*
X76224707Y48626660D01*
X76228951Y48567053D01*
X76232576Y48493881D01*
X76235623Y48405641D01*
X76238136Y48300830D01*
X76240156Y48177945D01*
X76241726Y48035483D01*
X76242888Y47871940D01*
X76243686Y47685814D01*
X76244160Y47475602D01*
X76244354Y47239800D01*
X76244310Y46976906D01*
X76244070Y46685416D01*
X76243677Y46363828D01*
X76243173Y46010638D01*
X76242600Y45624343D01*
X76242001Y45203440D01*
X76241932Y45152160D01*
X76241395Y44728574D01*
X76240939Y44339770D01*
X76240516Y43984247D01*
X76240079Y43660502D01*
X76239578Y43367034D01*
X76238965Y43102339D01*
X76238192Y42864915D01*
X76237211Y42653260D01*
X76235974Y42465871D01*
X76234432Y42301246D01*
X76232537Y42157883D01*
X76230241Y42034280D01*
X76227496Y41928933D01*
X76224253Y41840341D01*
X76220464Y41767000D01*
X76216081Y41707410D01*
X76211055Y41660067D01*
X76205339Y41623469D01*
X76198884Y41596114D01*
X76191641Y41576498D01*
X76183563Y41563121D01*
X76174602Y41554479D01*
X76164708Y41549070D01*
X76153835Y41545392D01*
X76141933Y41541942D01*
X76128954Y41537218D01*
X76125783Y41535780D01*
X76115819Y41532549D01*
X76099141Y41529580D01*
X76074293Y41526863D01*
X76039820Y41524387D01*
X75994264Y41522142D01*
X75936170Y41520117D01*
X75864081Y41518302D01*
X75776542Y41516685D01*
X75672095Y41515257D01*
X75549285Y41514007D01*
X75406655Y41512924D01*
X75242749Y41511998D01*
X75056110Y41511218D01*
X74845284Y41510574D01*
X74608812Y41510054D01*
X74345239Y41509649D01*
X74053110Y41509348D01*
X73730966Y41509140D01*
X73377353Y41509015D01*
X72990814Y41508962D01*
X72569892Y41508971D01*
X72433544Y41508984D01*
X72003284Y41509053D01*
X71607836Y41509166D01*
X71245727Y41509335D01*
X70915483Y41509570D01*
X70615629Y41509884D01*
X70344692Y41510287D01*
X70101200Y41510793D01*
X69883677Y41511411D01*
X69690650Y41512154D01*
X69520646Y41513032D01*
X69372190Y41514059D01*
X69243810Y41515244D01*
X69134031Y41516600D01*
X69041380Y41518138D01*
X68964383Y41519870D01*
X68901566Y41521806D01*
X68851456Y41523960D01*
X68812579Y41526341D01*
X68783462Y41528963D01*
X68762629Y41531835D01*
X68748609Y41534970D01*
X68740966Y41537841D01*
X68727382Y41543570D01*
X68714910Y41547794D01*
X68703502Y41552015D01*
X68693111Y41557732D01*
X68683691Y41566445D01*
X68675192Y41579655D01*
X68667570Y41598863D01*
X68660775Y41625567D01*
X68654762Y41661270D01*
X68649483Y41707470D01*
X68644890Y41765668D01*
X68640936Y41837365D01*
X68637575Y41924060D01*
X68634759Y42027254D01*
X68632440Y42148447D01*
X68630572Y42289140D01*
X68630084Y42343143D01*
X69114296Y42343143D01*
X70825744Y42343143D01*
X70792813Y42393036D01*
X70760053Y42444307D01*
X70732311Y42493131D01*
X70709193Y42542924D01*
X70690303Y42597102D01*
X70675249Y42659084D01*
X70663633Y42732285D01*
X70655064Y42820122D01*
X70649144Y42926012D01*
X70645481Y43053372D01*
X70643679Y43205619D01*
X70643344Y43386168D01*
X70644081Y43598438D01*
X70644499Y43677245D01*
X70649214Y44522089D01*
X71184428Y43793443D01*
X71336054Y43586735D01*
X71467419Y43406740D01*
X71579943Y43251075D01*
X71675043Y43117353D01*
X71754138Y43003191D01*
X71818647Y42906203D01*
X71869988Y42824006D01*
X71909580Y42754214D01*
X71938840Y42694442D01*
X71959188Y42642307D01*
X71972042Y42595424D01*
X71978819Y42551407D01*
X71980940Y42507873D01*
X71979821Y42462436D01*
X71979536Y42456725D01*
X71973643Y42343067D01*
X73849229Y42343143D01*
X73709722Y42483811D01*
X73671865Y42522285D01*
X73635953Y42559721D01*
X73600407Y42598186D01*
X73563653Y42639742D01*
X73524114Y42686455D01*
X73480214Y42740390D01*
X73430377Y42803610D01*
X73373028Y42878182D01*
X73306589Y42966168D01*
X73229485Y43069635D01*
X73140139Y43190646D01*
X73036976Y43331266D01*
X72918420Y43493560D01*
X72782895Y43679593D01*
X72628823Y43891429D01*
X72502538Y44065196D01*
X72344046Y44283499D01*
X72205784Y44474371D01*
X72086501Y44639626D01*
X71984943Y44781074D01*
X71899859Y44900529D01*
X71829995Y44999802D01*
X71774100Y45080705D01*
X71730920Y45145051D01*
X71699203Y45194653D01*
X71677698Y45231321D01*
X71665150Y45256868D01*
X71660308Y45273107D01*
X71661763Y45281645D01*
X71679401Y45304365D01*
X71717534Y45352457D01*
X71773862Y45423062D01*
X71846084Y45513322D01*
X71931899Y45620379D01*
X72029006Y45741373D01*
X72135104Y45873446D01*
X72247891Y46013740D01*
X72365068Y46159397D01*
X72484333Y46307556D01*
X72549933Y46389000D01*
X74178686Y46389000D01*
X74246379Y46266535D01*
X74314071Y46144071D01*
X74314071Y42588071D01*
X74246379Y42465607D01*
X74178686Y42343143D01*
X74979441Y42343143D01*
X75170602Y42343198D01*
X75328499Y42343449D01*
X75456152Y42344021D01*
X75556581Y42345041D01*
X75632807Y42346635D01*
X75687852Y42348930D01*
X75724736Y42352050D01*
X75746479Y42356123D01*
X75756102Y42361275D01*
X75756627Y42367633D01*
X75751074Y42375321D01*
X75751016Y42375385D01*
X75728140Y42408476D01*
X75697849Y42462281D01*
X75671097Y42515992D01*
X75620357Y42624357D01*
X75615182Y44506678D01*
X75610007Y46389000D01*
X74178686Y46389000D01*
X72549933Y46389000D01*
X72603385Y46455361D01*
X72719923Y46599953D01*
X72831646Y46738472D01*
X72936254Y46868061D01*
X73031444Y46985860D01*
X73114917Y47089012D01*
X73184371Y47174657D01*
X73237506Y47239938D01*
X73268715Y47278000D01*
X73389903Y47420330D01*
X73506493Y47548770D01*
X73614397Y47659114D01*
X73709530Y47747159D01*
X73777043Y47801138D01*
X73856873Y47858571D01*
X72020892Y47858571D01*
X72021408Y47750835D01*
X72016276Y47671628D01*
X71996985Y47598195D01*
X71967123Y47528585D01*
X71947712Y47489259D01*
X71926841Y47450293D01*
X71902604Y47409099D01*
X71873094Y47363092D01*
X71836406Y47309683D01*
X71790632Y47246286D01*
X71733865Y47170315D01*
X71664200Y47079183D01*
X71579730Y46970302D01*
X71478547Y46841086D01*
X71358747Y46688948D01*
X71218421Y46511302D01*
X71202571Y46491258D01*
X70649214Y45791492D01*
X70643857Y46566496D01*
X70642779Y46798632D01*
X70643008Y46995154D01*
X70644557Y47156708D01*
X70647437Y47283944D01*
X70651659Y47377508D01*
X70657234Y47438048D01*
X70659107Y47449532D01*
X70688505Y47570501D01*
X70727022Y47679554D01*
X70770974Y47767237D01*
X70797379Y47804426D01*
X70842940Y47858571D01*
X69978470Y47858571D01*
X69772255Y47858395D01*
X69599812Y47857821D01*
X69458627Y47856783D01*
X69346188Y47855213D01*
X69259983Y47853046D01*
X69197498Y47850212D01*
X69156221Y47846647D01*
X69133640Y47842282D01*
X69127241Y47837051D01*
X69127683Y47835893D01*
X69146009Y47808231D01*
X69176604Y47764385D01*
X69192433Y47742209D01*
X69208798Y47720080D01*
X69223508Y47700291D01*
X69236656Y47680894D01*
X69248333Y47659942D01*
X69258632Y47635488D01*
X69267646Y47605584D01*
X69275468Y47568283D01*
X69282191Y47521637D01*
X69287906Y47463699D01*
X69292707Y47392521D01*
X69296685Y47306156D01*
X69299935Y47202656D01*
X69302548Y47080075D01*
X69304617Y46936463D01*
X69306234Y46769875D01*
X69307493Y46578363D01*
X69308485Y46359978D01*
X69309304Y46112774D01*
X69310042Y45834804D01*
X69310791Y45524119D01*
X69311492Y45238700D01*
X69312153Y44920508D01*
X69312497Y44616923D01*
X69312532Y44329885D01*
X69312268Y44061331D01*
X69311715Y43813202D01*
X69310880Y43587437D01*
X69309773Y43385974D01*
X69308404Y43210754D01*
X69306781Y43063714D01*
X69304913Y42946794D01*
X69302811Y42861933D01*
X69300482Y42811071D01*
X69300041Y42805696D01*
X69283992Y42682387D01*
X69258936Y42583356D01*
X69220779Y42496930D01*
X69165428Y42411435D01*
X69158504Y42402107D01*
X69114296Y42343143D01*
X68630084Y42343143D01*
X68629108Y42450832D01*
X68627999Y42635024D01*
G36*
X75147682Y49416067D02*
G01*
X75283929Y49368828D01*
X75410779Y49294473D01*
X75524067Y49193013D01*
X75619628Y49064457D01*
X75662554Y48983428D01*
X75699705Y48870092D01*
X75717712Y48739249D01*
X75715717Y48604735D01*
X75693577Y48482842D01*
X75633064Y48333893D01*
X75545314Y48204691D01*
X75434788Y48097777D01*
X75305946Y48015694D01*
X75163247Y47960984D01*
X75011151Y47936190D01*
X74854119Y47943853D01*
X74776714Y47960228D01*
X74625859Y48018911D01*
X74491875Y48108457D01*
X74377994Y48226107D01*
X74287448Y48369098D01*
X74279788Y48384714D01*
X74253306Y48443314D01*
X74236678Y48492666D01*
X74227650Y48544730D01*
X74223968Y48611461D01*
X74223357Y48684071D01*
X74224367Y48771309D01*
X74228928Y48834376D01*
X74239334Y48885364D01*
X74257879Y48936367D01*
X74280770Y48986687D01*
X74366154Y49129530D01*
X74471301Y49245190D01*
X74592045Y49333675D01*
X74724221Y49394995D01*
X74863663Y49429161D01*
X75006205Y49436182D01*
X75147682Y49416067D01*
G37*
X75147682Y49416067D02*
X75283929Y49368828D01*
X75410779Y49294473D01*
X75524067Y49193013D01*
X75619628Y49064457D01*
X75662554Y48983428D01*
X75699705Y48870092D01*
X75717712Y48739249D01*
X75715717Y48604735D01*
X75693577Y48482842D01*
X75633064Y48333893D01*
X75545314Y48204691D01*
X75434788Y48097777D01*
X75305946Y48015694D01*
X75163247Y47960984D01*
X75011151Y47936190D01*
X74854119Y47943853D01*
X74776714Y47960228D01*
X74625859Y48018911D01*
X74491875Y48108457D01*
X74377994Y48226107D01*
X74287448Y48369098D01*
X74279788Y48384714D01*
X74253306Y48443314D01*
X74236678Y48492666D01*
X74227650Y48544730D01*
X74223968Y48611461D01*
X74223357Y48684071D01*
X74224367Y48771309D01*
X74228928Y48834376D01*
X74239334Y48885364D01*
X74257879Y48936367D01*
X74280770Y48986687D01*
X74366154Y49129530D01*
X74471301Y49245190D01*
X74592045Y49333675D01*
X74724221Y49394995D01*
X74863663Y49429161D01*
X75006205Y49436182D01*
X75147682Y49416067D01*
G36*
X79331378Y47930769D02*
G01*
X79527019Y47909351D01*
X79716562Y47871015D01*
X79907717Y47813762D01*
X80108196Y47735591D01*
X80325708Y47634504D01*
X80364880Y47614924D01*
X80454772Y47570638D01*
X80539553Y47530761D01*
X80610855Y47499102D01*
X80660310Y47479468D01*
X80667908Y47476996D01*
X80740714Y47455183D01*
X80414803Y46981056D01*
X80335123Y46865177D01*
X80262272Y46759306D01*
X80198730Y46667038D01*
X80146972Y46591967D01*
X80109477Y46537687D01*
X80088723Y46507793D01*
X80085351Y46503059D01*
X80071655Y46512958D01*
X80037943Y46542715D01*
X79990244Y46586927D01*
X79963920Y46611916D01*
X79814772Y46730544D01*
X79647268Y46820687D01*
X79502928Y46870064D01*
X79416283Y46885571D01*
X79307796Y46895021D01*
X79190227Y46898239D01*
X79076334Y46895049D01*
X78978879Y46885276D01*
X78939990Y46877791D01*
X78764712Y46817488D01*
X78606765Y46725410D01*
X78466268Y46601727D01*
X78343335Y46446607D01*
X78238085Y46260219D01*
X78150635Y46042730D01*
X78081100Y45794308D01*
X78039775Y45581643D01*
X78028994Y45487759D01*
X78021648Y45366476D01*
X78017667Y45226507D01*
X78016979Y45076569D01*
X78019514Y44925378D01*
X78025200Y44781649D01*
X78033967Y44654097D01*
X78045744Y44551438D01*
X78048293Y44535599D01*
X78104481Y44280464D01*
X78181036Y44054658D01*
X78278426Y43857169D01*
X78397114Y43686986D01*
X78481363Y43594978D01*
X78632770Y43470057D01*
X78798817Y43377460D01*
X78976701Y43317691D01*
X79163622Y43291254D01*
X79356778Y43298652D01*
X79553369Y43340389D01*
X79669597Y43381229D01*
X79830438Y43463010D01*
X79996213Y43580322D01*
X80089073Y43659655D01*
X80141214Y43705571D01*
X80182180Y43739258D01*
X80205498Y43755490D01*
X80208393Y43755985D01*
X80218800Y43739399D01*
X80245767Y43695568D01*
X80286996Y43628252D01*
X80340189Y43541206D01*
X80403050Y43438190D01*
X80473281Y43322959D01*
X80512372Y43258769D01*
X80810964Y42768323D01*
X80438161Y42584085D01*
X80303369Y42517907D01*
X80194175Y42465722D01*
X80103907Y42424940D01*
X80025888Y42392967D01*
X79953444Y42367213D01*
X79879901Y42345086D01*
X79798584Y42323993D01*
X79720643Y42305470D01*
X79651366Y42291137D01*
X79578917Y42280306D01*
X79496042Y42272374D01*
X79395488Y42266742D01*
X79270003Y42262808D01*
X79185428Y42261109D01*
X79064754Y42259950D01*
X78949042Y42260535D01*
X78845951Y42262696D01*
X78763138Y42266268D01*
X78708260Y42271083D01*
X78705008Y42271563D01*
X78420043Y42333214D01*
X78152442Y42426715D01*
X77902297Y42552007D01*
X77669704Y42709026D01*
X77454757Y42897711D01*
X77257550Y43118000D01*
X77114727Y43313786D01*
X76962680Y43570051D01*
X76839773Y43840683D01*
X76745410Y44127851D01*
X76678999Y44433724D01*
X76639944Y44760472D01*
X76627640Y45092261D01*
X76637759Y45413221D01*
X76669561Y45709354D01*
X76724054Y45985655D01*
X76802250Y46247119D01*
X76905159Y46498742D01*
X76917447Y46524810D01*
X77052820Y46768493D01*
X77219089Y47000382D01*
X77411541Y47215677D01*
X77625466Y47409578D01*
X77856155Y47577285D01*
X78071109Y47700304D01*
X78288258Y47796655D01*
X78505868Y47866449D01*
X78732362Y47911587D01*
X78976166Y47933969D01*
X79121928Y47937269D01*
X79331378Y47930769D01*
G37*
X79331378Y47930769D02*
X79527019Y47909351D01*
X79716562Y47871015D01*
X79907717Y47813762D01*
X80108196Y47735591D01*
X80325708Y47634504D01*
X80364880Y47614924D01*
X80454772Y47570638D01*
X80539553Y47530761D01*
X80610855Y47499102D01*
X80660310Y47479468D01*
X80667908Y47476996D01*
X80740714Y47455183D01*
X80414803Y46981056D01*
X80335123Y46865177D01*
X80262272Y46759306D01*
X80198730Y46667038D01*
X80146972Y46591967D01*
X80109477Y46537687D01*
X80088723Y46507793D01*
X80085351Y46503059D01*
X80071655Y46512958D01*
X80037943Y46542715D01*
X79990244Y46586927D01*
X79963920Y46611916D01*
X79814772Y46730544D01*
X79647268Y46820687D01*
X79502928Y46870064D01*
X79416283Y46885571D01*
X79307796Y46895021D01*
X79190227Y46898239D01*
X79076334Y46895049D01*
X78978879Y46885276D01*
X78939990Y46877791D01*
X78764712Y46817488D01*
X78606765Y46725410D01*
X78466268Y46601727D01*
X78343335Y46446607D01*
X78238085Y46260219D01*
X78150635Y46042730D01*
X78081100Y45794308D01*
X78039775Y45581643D01*
X78028994Y45487759D01*
X78021648Y45366476D01*
X78017667Y45226507D01*
X78016979Y45076569D01*
X78019514Y44925378D01*
X78025200Y44781649D01*
X78033967Y44654097D01*
X78045744Y44551438D01*
X78048293Y44535599D01*
X78104481Y44280464D01*
X78181036Y44054658D01*
X78278426Y43857169D01*
X78397114Y43686986D01*
X78481363Y43594978D01*
X78632770Y43470057D01*
X78798817Y43377460D01*
X78976701Y43317691D01*
X79163622Y43291254D01*
X79356778Y43298652D01*
X79553369Y43340389D01*
X79669597Y43381229D01*
X79830438Y43463010D01*
X79996213Y43580322D01*
X80089073Y43659655D01*
X80141214Y43705571D01*
X80182180Y43739258D01*
X80205498Y43755490D01*
X80208393Y43755985D01*
X80218800Y43739399D01*
X80245767Y43695568D01*
X80286996Y43628252D01*
X80340189Y43541206D01*
X80403050Y43438190D01*
X80473281Y43322959D01*
X80512372Y43258769D01*
X80810964Y42768323D01*
X80438161Y42584085D01*
X80303369Y42517907D01*
X80194175Y42465722D01*
X80103907Y42424940D01*
X80025888Y42392967D01*
X79953444Y42367213D01*
X79879901Y42345086D01*
X79798584Y42323993D01*
X79720643Y42305470D01*
X79651366Y42291137D01*
X79578917Y42280306D01*
X79496042Y42272374D01*
X79395488Y42266742D01*
X79270003Y42262808D01*
X79185428Y42261109D01*
X79064754Y42259950D01*
X78949042Y42260535D01*
X78845951Y42262696D01*
X78763138Y42266268D01*
X78708260Y42271083D01*
X78705008Y42271563D01*
X78420043Y42333214D01*
X78152442Y42426715D01*
X77902297Y42552007D01*
X77669704Y42709026D01*
X77454757Y42897711D01*
X77257550Y43118000D01*
X77114727Y43313786D01*
X76962680Y43570051D01*
X76839773Y43840683D01*
X76745410Y44127851D01*
X76678999Y44433724D01*
X76639944Y44760472D01*
X76627640Y45092261D01*
X76637759Y45413221D01*
X76669561Y45709354D01*
X76724054Y45985655D01*
X76802250Y46247119D01*
X76905159Y46498742D01*
X76917447Y46524810D01*
X77052820Y46768493D01*
X77219089Y47000382D01*
X77411541Y47215677D01*
X77625466Y47409578D01*
X77856155Y47577285D01*
X78071109Y47700304D01*
X78288258Y47796655D01*
X78505868Y47866449D01*
X78732362Y47911587D01*
X78976166Y47933969D01*
X79121928Y47937269D01*
X79331378Y47930769D01*
G36*
X84920605Y44646287D02*
G01*
X84951358Y44915675D01*
X84998381Y45159715D01*
X85062482Y45382330D01*
X85144472Y45587444D01*
X85173730Y45648254D01*
X85291581Y45846560D01*
X85433996Y46022788D01*
X85597629Y46174092D01*
X85779131Y46297629D01*
X85975153Y46390553D01*
X86092655Y46428885D01*
X86208054Y46451641D01*
X86346907Y46465180D01*
X86497574Y46469508D01*
X86648413Y46464632D01*
X86787785Y46450556D01*
X86899691Y46428475D01*
X87032884Y46385172D01*
X87161979Y46329489D01*
X87274928Y46267064D01*
X87335043Y46224697D01*
X87376510Y46193193D01*
X87405545Y46174010D01*
X87412150Y46171286D01*
X87414198Y46188837D01*
X87416107Y46239125D01*
X87417836Y46318600D01*
X87419341Y46423714D01*
X87420581Y46550917D01*
X87421513Y46696661D01*
X87422095Y46857397D01*
X87422286Y47021116D01*
X87422179Y47230812D01*
X87421658Y47407604D01*
X87420416Y47554874D01*
X87418148Y47676003D01*
X87414550Y47774373D01*
X87409317Y47853366D01*
X87402144Y47916362D01*
X87392726Y47966745D01*
X87380758Y48007895D01*
X87365935Y48043194D01*
X87347952Y48076023D01*
X87326505Y48109765D01*
X87323745Y48113943D01*
X87296083Y48157644D01*
X87279382Y48187695D01*
X87277143Y48194033D01*
X87294643Y48196033D01*
X87344574Y48197660D01*
X87423085Y48198888D01*
X87526323Y48199689D01*
X87650436Y48200039D01*
X87791571Y48199911D01*
X87945876Y48199277D01*
X87998321Y48198958D01*
X88719500Y48194214D01*
X88728571Y45427428D01*
X88729769Y45052244D01*
X88730832Y44711583D01*
X88731827Y44403682D01*
X88732823Y44126779D01*
X88733888Y43879112D01*
X88735091Y43658919D01*
X88736499Y43464438D01*
X88738182Y43293906D01*
X88740206Y43145560D01*
X88742641Y43017639D01*
X88745554Y42908380D01*
X88749015Y42816021D01*
X88753090Y42738800D01*
X88757849Y42674954D01*
X88763360Y42622722D01*
X88769691Y42580340D01*
X88776910Y42546047D01*
X88785085Y42518080D01*
X88794285Y42494676D01*
X88804577Y42474075D01*
X88816031Y42454513D01*
X88828715Y42434228D01*
X88842695Y42411457D01*
X88845561Y42406607D01*
X88893640Y42324567D01*
X87503928Y42334071D01*
X87494857Y42486705D01*
X87489918Y42559955D01*
X87484771Y42602304D01*
X87477786Y42619108D01*
X87467337Y42615723D01*
X87458571Y42606040D01*
X87420388Y42570771D01*
X87358155Y42525437D01*
X87280641Y42475454D01*
X87196613Y42426239D01*
X87114839Y42383209D01*
X87052052Y42354899D01*
X86904954Y42308376D01*
X86736180Y42275421D01*
X86558191Y42257293D01*
X86383447Y42255250D01*
X86224407Y42270553D01*
X86221788Y42270991D01*
X86004168Y42325598D01*
X85800455Y42412599D01*
X85612613Y42530124D01*
X85442607Y42676303D01*
X85292402Y42849266D01*
X85163964Y43047143D01*
X85059257Y43268064D01*
X85002246Y43431714D01*
X84964651Y43568625D01*
X84936771Y43701202D01*
X84917753Y43837498D01*
X84906745Y43985567D01*
X84902895Y44153463D01*
X84904600Y44290560D01*
X86243359Y44290560D01*
X86249694Y44060671D01*
X86269679Y43862889D01*
X86303927Y43695461D01*
X86353055Y43556631D01*
X86417676Y43444642D01*
X86498405Y43357741D01*
X86591591Y43296308D01*
X86640080Y43273374D01*
X86682134Y43259625D01*
X86729020Y43253334D01*
X86792004Y43252778D01*
X86859857Y43255227D01*
X86993295Y43266996D01*
X87098832Y43290045D01*
X87132000Y43301590D01*
X87207735Y43335689D01*
X87287614Y43378509D01*
X87322500Y43399943D01*
X87413214Y43459444D01*
X87413214Y45345416D01*
X87313428Y45405229D01*
X87174267Y45472815D01*
X87032087Y45512786D01*
X86892090Y45525378D01*
X86759474Y45510827D01*
X86639440Y45469368D01*
X86537188Y45401237D01*
X86504195Y45368534D01*
X86424667Y45261381D01*
X86360299Y45131673D01*
X86310553Y44977186D01*
X86274891Y44795698D01*
X86252775Y44584985D01*
X86243667Y44342825D01*
X86243359Y44290560D01*
X84904600Y44290560D01*
X84905310Y44347626D01*
X84920605Y44646287D01*
G37*
X84920605Y44646287D02*
X84951358Y44915675D01*
X84998381Y45159715D01*
X85062482Y45382330D01*
X85144472Y45587444D01*
X85173730Y45648254D01*
X85291581Y45846560D01*
X85433996Y46022788D01*
X85597629Y46174092D01*
X85779131Y46297629D01*
X85975153Y46390553D01*
X86092655Y46428885D01*
X86208054Y46451641D01*
X86346907Y46465180D01*
X86497574Y46469508D01*
X86648413Y46464632D01*
X86787785Y46450556D01*
X86899691Y46428475D01*
X87032884Y46385172D01*
X87161979Y46329489D01*
X87274928Y46267064D01*
X87335043Y46224697D01*
X87376510Y46193193D01*
X87405545Y46174010D01*
X87412150Y46171286D01*
X87414198Y46188837D01*
X87416107Y46239125D01*
X87417836Y46318600D01*
X87419341Y46423714D01*
X87420581Y46550917D01*
X87421513Y46696661D01*
X87422095Y46857397D01*
X87422286Y47021116D01*
X87422179Y47230812D01*
X87421658Y47407604D01*
X87420416Y47554874D01*
X87418148Y47676003D01*
X87414550Y47774373D01*
X87409317Y47853366D01*
X87402144Y47916362D01*
X87392726Y47966745D01*
X87380758Y48007895D01*
X87365935Y48043194D01*
X87347952Y48076023D01*
X87326505Y48109765D01*
X87323745Y48113943D01*
X87296083Y48157644D01*
X87279382Y48187695D01*
X87277143Y48194033D01*
X87294643Y48196033D01*
X87344574Y48197660D01*
X87423085Y48198888D01*
X87526323Y48199689D01*
X87650436Y48200039D01*
X87791571Y48199911D01*
X87945876Y48199277D01*
X87998321Y48198958D01*
X88719500Y48194214D01*
X88728571Y45427428D01*
X88729769Y45052244D01*
X88730832Y44711583D01*
X88731827Y44403682D01*
X88732823Y44126779D01*
X88733888Y43879112D01*
X88735091Y43658919D01*
X88736499Y43464438D01*
X88738182Y43293906D01*
X88740206Y43145560D01*
X88742641Y43017639D01*
X88745554Y42908380D01*
X88749015Y42816021D01*
X88753090Y42738800D01*
X88757849Y42674954D01*
X88763360Y42622722D01*
X88769691Y42580340D01*
X88776910Y42546047D01*
X88785085Y42518080D01*
X88794285Y42494676D01*
X88804577Y42474075D01*
X88816031Y42454513D01*
X88828715Y42434228D01*
X88842695Y42411457D01*
X88845561Y42406607D01*
X88893640Y42324567D01*
X87503928Y42334071D01*
X87494857Y42486705D01*
X87489918Y42559955D01*
X87484771Y42602304D01*
X87477786Y42619108D01*
X87467337Y42615723D01*
X87458571Y42606040D01*
X87420388Y42570771D01*
X87358155Y42525437D01*
X87280641Y42475454D01*
X87196613Y42426239D01*
X87114839Y42383209D01*
X87052052Y42354899D01*
X86904954Y42308376D01*
X86736180Y42275421D01*
X86558191Y42257293D01*
X86383447Y42255250D01*
X86224407Y42270553D01*
X86221788Y42270991D01*
X86004168Y42325598D01*
X85800455Y42412599D01*
X85612613Y42530124D01*
X85442607Y42676303D01*
X85292402Y42849266D01*
X85163964Y43047143D01*
X85059257Y43268064D01*
X85002246Y43431714D01*
X84964651Y43568625D01*
X84936771Y43701202D01*
X84917753Y43837498D01*
X84906745Y43985567D01*
X84902895Y44153463D01*
X84904600Y44290560D01*
X86243359Y44290560D01*
X86249694Y44060671D01*
X86269679Y43862889D01*
X86303927Y43695461D01*
X86353055Y43556631D01*
X86417676Y43444642D01*
X86498405Y43357741D01*
X86591591Y43296308D01*
X86640080Y43273374D01*
X86682134Y43259625D01*
X86729020Y43253334D01*
X86792004Y43252778D01*
X86859857Y43255227D01*
X86993295Y43266996D01*
X87098832Y43290045D01*
X87132000Y43301590D01*
X87207735Y43335689D01*
X87287614Y43378509D01*
X87322500Y43399943D01*
X87413214Y43459444D01*
X87413214Y45345416D01*
X87313428Y45405229D01*
X87174267Y45472815D01*
X87032087Y45512786D01*
X86892090Y45525378D01*
X86759474Y45510827D01*
X86639440Y45469368D01*
X86537188Y45401237D01*
X86504195Y45368534D01*
X86424667Y45261381D01*
X86360299Y45131673D01*
X86310553Y44977186D01*
X86274891Y44795698D01*
X86252775Y44584985D01*
X86243667Y44342825D01*
X86243359Y44290560D01*
X84904600Y44290560D01*
X84905310Y44347626D01*
X84920605Y44646287D01*
G36*
X80816096Y43855435D02*
G01*
X80825670Y43907540D01*
X80886801Y44101003D01*
X80979757Y44279007D01*
X81102783Y44439845D01*
X81254124Y44581810D01*
X81432025Y44703194D01*
X81634732Y44802291D01*
X81807071Y44862467D01*
X81922253Y44894081D01*
X82032423Y44918646D01*
X82144719Y44936961D01*
X82266275Y44949822D01*
X82404229Y44958028D01*
X82565715Y44962376D01*
X82711715Y44963600D01*
X83144645Y44964785D01*
X83136351Y45094920D01*
X83112801Y45236117D01*
X83062703Y45357482D01*
X82988191Y45455983D01*
X82891399Y45528591D01*
X82806171Y45564021D01*
X82684056Y45586350D01*
X82538683Y45589557D01*
X82376867Y45574823D01*
X82205422Y45543330D01*
X82031163Y45496260D01*
X81860904Y45434797D01*
X81737176Y45378583D01*
X81677647Y45349717D01*
X81632242Y45329557D01*
X81609150Y45321690D01*
X81607897Y45321942D01*
X81599929Y45339563D01*
X81580031Y45386267D01*
X81550077Y45457582D01*
X81511939Y45549031D01*
X81467488Y45656141D01*
X81422305Y45765451D01*
X81241667Y46203260D01*
X81370155Y46224364D01*
X81425846Y46234953D01*
X81509564Y46252737D01*
X81614139Y46276102D01*
X81732399Y46303435D01*
X81857172Y46333119D01*
X81906857Y46345182D01*
X82121807Y46395038D01*
X82309995Y46432416D01*
X82478446Y46458073D01*
X82634186Y46472765D01*
X82784240Y46477245D01*
X82935632Y46472270D01*
X83025523Y46465465D01*
X83282715Y46431247D01*
X83510485Y46376669D01*
X83709943Y46300980D01*
X83882197Y46203430D01*
X84028359Y46083268D01*
X84149536Y45939742D01*
X84246839Y45772102D01*
X84317891Y45590714D01*
X84335927Y45532854D01*
X84351632Y45478671D01*
X84365192Y45425248D01*
X84376792Y45369667D01*
X84386617Y45309012D01*
X84394853Y45240365D01*
X84401684Y45160810D01*
X84407295Y45067428D01*
X84411872Y44957304D01*
X84415600Y44827519D01*
X84418665Y44675158D01*
X84421250Y44497302D01*
X84423542Y44291035D01*
X84425725Y44053439D01*
X84427286Y43867143D01*
X84437785Y42588071D01*
X84505821Y42464982D01*
X84538038Y42405683D01*
X84562012Y42359623D01*
X84573450Y42335107D01*
X84573857Y42333447D01*
X84556375Y42331546D01*
X84506574Y42329795D01*
X84428421Y42328242D01*
X84325882Y42326938D01*
X84202922Y42325930D01*
X84063510Y42325269D01*
X83911611Y42325003D01*
X83893500Y42325000D01*
X83213143Y42325000D01*
X83213143Y42479214D01*
X83211982Y42548906D01*
X83208887Y42602206D01*
X83204432Y42630783D01*
X83202463Y42633428D01*
X83184455Y42622347D01*
X83147393Y42593264D01*
X83099222Y42552421D01*
X83098141Y42551476D01*
X83010235Y42486029D01*
X82899217Y42420312D01*
X82777631Y42360781D01*
X82658021Y42313891D01*
X82605357Y42297867D01*
X82500551Y42277515D01*
X82371950Y42264528D01*
X82231325Y42259091D01*
X82090448Y42261389D01*
X81961093Y42271608D01*
X81870571Y42286311D01*
X81648580Y42351501D01*
X81448729Y42444406D01*
X81272319Y42563874D01*
X81120650Y42708753D01*
X80995024Y42877890D01*
X80896741Y43070133D01*
X80854341Y43186786D01*
X80827768Y43300167D01*
X80810158Y43436278D01*
X80802010Y43582563D01*
X80802278Y43603849D01*
X82029321Y43603849D01*
X82039496Y43495150D01*
X82073378Y43404815D01*
X82136000Y43321005D01*
X82160052Y43296429D01*
X82245551Y43229989D01*
X82344373Y43187426D01*
X82462768Y43166823D01*
X82587445Y43165306D01*
X82705698Y43175323D01*
X82796239Y43194915D01*
X82835560Y43209630D01*
X82906432Y43249735D01*
X82981525Y43306137D01*
X83050038Y43369439D01*
X83101172Y43430245D01*
X83114750Y43452551D01*
X83125305Y43483788D01*
X83132810Y43533493D01*
X83137613Y43606413D01*
X83140065Y43707297D01*
X83140571Y43803311D01*
X83140228Y43915250D01*
X83138843Y43996191D01*
X83135881Y44051415D01*
X83130808Y44086206D01*
X83123090Y44105846D01*
X83112192Y44115620D01*
X83108821Y44117176D01*
X83079529Y44121971D01*
X83021756Y44125892D01*
X82943304Y44128586D01*
X82851974Y44129701D01*
X82832143Y44129702D01*
X82710063Y44127754D01*
X82615749Y44121959D01*
X82540807Y44111525D01*
X82478903Y44096286D01*
X82325349Y44038216D01*
X82204932Y43966821D01*
X82116610Y43880961D01*
X82059339Y43779493D01*
X82032078Y43661275D01*
X82029321Y43603849D01*
X80802278Y43603849D01*
X80803823Y43726467D01*
X80816096Y43855435D01*
G37*
X80816096Y43855435D02*
X80825670Y43907540D01*
X80886801Y44101003D01*
X80979757Y44279007D01*
X81102783Y44439845D01*
X81254124Y44581810D01*
X81432025Y44703194D01*
X81634732Y44802291D01*
X81807071Y44862467D01*
X81922253Y44894081D01*
X82032423Y44918646D01*
X82144719Y44936961D01*
X82266275Y44949822D01*
X82404229Y44958028D01*
X82565715Y44962376D01*
X82711715Y44963600D01*
X83144645Y44964785D01*
X83136351Y45094920D01*
X83112801Y45236117D01*
X83062703Y45357482D01*
X82988191Y45455983D01*
X82891399Y45528591D01*
X82806171Y45564021D01*
X82684056Y45586350D01*
X82538683Y45589557D01*
X82376867Y45574823D01*
X82205422Y45543330D01*
X82031163Y45496260D01*
X81860904Y45434797D01*
X81737176Y45378583D01*
X81677647Y45349717D01*
X81632242Y45329557D01*
X81609150Y45321690D01*
X81607897Y45321942D01*
X81599929Y45339563D01*
X81580031Y45386267D01*
X81550077Y45457582D01*
X81511939Y45549031D01*
X81467488Y45656141D01*
X81422305Y45765451D01*
X81241667Y46203260D01*
X81370155Y46224364D01*
X81425846Y46234953D01*
X81509564Y46252737D01*
X81614139Y46276102D01*
X81732399Y46303435D01*
X81857172Y46333119D01*
X81906857Y46345182D01*
X82121807Y46395038D01*
X82309995Y46432416D01*
X82478446Y46458073D01*
X82634186Y46472765D01*
X82784240Y46477245D01*
X82935632Y46472270D01*
X83025523Y46465465D01*
X83282715Y46431247D01*
X83510485Y46376669D01*
X83709943Y46300980D01*
X83882197Y46203430D01*
X84028359Y46083268D01*
X84149536Y45939742D01*
X84246839Y45772102D01*
X84317891Y45590714D01*
X84335927Y45532854D01*
X84351632Y45478671D01*
X84365192Y45425248D01*
X84376792Y45369667D01*
X84386617Y45309012D01*
X84394853Y45240365D01*
X84401684Y45160810D01*
X84407295Y45067428D01*
X84411872Y44957304D01*
X84415600Y44827519D01*
X84418665Y44675158D01*
X84421250Y44497302D01*
X84423542Y44291035D01*
X84425725Y44053439D01*
X84427286Y43867143D01*
X84437785Y42588071D01*
X84505821Y42464982D01*
X84538038Y42405683D01*
X84562012Y42359623D01*
X84573450Y42335107D01*
X84573857Y42333447D01*
X84556375Y42331546D01*
X84506574Y42329795D01*
X84428421Y42328242D01*
X84325882Y42326938D01*
X84202922Y42325930D01*
X84063510Y42325269D01*
X83911611Y42325003D01*
X83893500Y42325000D01*
X83213143Y42325000D01*
X83213143Y42479214D01*
X83211982Y42548906D01*
X83208887Y42602206D01*
X83204432Y42630783D01*
X83202463Y42633428D01*
X83184455Y42622347D01*
X83147393Y42593264D01*
X83099222Y42552421D01*
X83098141Y42551476D01*
X83010235Y42486029D01*
X82899217Y42420312D01*
X82777631Y42360781D01*
X82658021Y42313891D01*
X82605357Y42297867D01*
X82500551Y42277515D01*
X82371950Y42264528D01*
X82231325Y42259091D01*
X82090448Y42261389D01*
X81961093Y42271608D01*
X81870571Y42286311D01*
X81648580Y42351501D01*
X81448729Y42444406D01*
X81272319Y42563874D01*
X81120650Y42708753D01*
X80995024Y42877890D01*
X80896741Y43070133D01*
X80854341Y43186786D01*
X80827768Y43300167D01*
X80810158Y43436278D01*
X80802010Y43582563D01*
X80802278Y43603849D01*
X82029321Y43603849D01*
X82039496Y43495150D01*
X82073378Y43404815D01*
X82136000Y43321005D01*
X82160052Y43296429D01*
X82245551Y43229989D01*
X82344373Y43187426D01*
X82462768Y43166823D01*
X82587445Y43165306D01*
X82705698Y43175323D01*
X82796239Y43194915D01*
X82835560Y43209630D01*
X82906432Y43249735D01*
X82981525Y43306137D01*
X83050038Y43369439D01*
X83101172Y43430245D01*
X83114750Y43452551D01*
X83125305Y43483788D01*
X83132810Y43533493D01*
X83137613Y43606413D01*
X83140065Y43707297D01*
X83140571Y43803311D01*
X83140228Y43915250D01*
X83138843Y43996191D01*
X83135881Y44051415D01*
X83130808Y44086206D01*
X83123090Y44105846D01*
X83112192Y44115620D01*
X83108821Y44117176D01*
X83079529Y44121971D01*
X83021756Y44125892D01*
X82943304Y44128586D01*
X82851974Y44129701D01*
X82832143Y44129702D01*
X82710063Y44127754D01*
X82615749Y44121959D01*
X82540807Y44111525D01*
X82478903Y44096286D01*
X82325349Y44038216D01*
X82204932Y43966821D01*
X82116610Y43880961D01*
X82059339Y43779493D01*
X82032078Y43661275D01*
X82029321Y43603849D01*
X80802278Y43603849D01*
X80803823Y43726467D01*
X80816096Y43855435D01*
D14*
G04 #@! TO.C,LED8*
X32025000Y2400000D02*
X32025000Y4000000D01*
X32025000Y4000000D02*
X29750000Y4000000D01*
X29750000Y2400000D02*
X32025000Y2400000D01*
G04 #@! TO.C,RL3*
X64725000Y83150000D02*
X65775000Y83150000D01*
D15*
X66576750Y81880000D02*
G75*
G03*
X66576750Y81880000I-56750J0D01*
G01*
D14*
G04 #@! TO.C,TVSP2*
X7925000Y58512000D02*
X2575000Y58512000D01*
X7925000Y54888000D02*
X2575000Y54888000D01*
G04 #@! TD*
M02*
