M48
INCH,TZ
T1C0.0157
T2C0.0197
T3C0.0394
T4C0.0504
T5C0.0512
T6C0.1063
T7C0.1260
%
G90
G05
T1
X512Y22323
X787Y23012
X787Y21634
X1496Y13130
X1772Y13819
X1772Y12441
X2106Y29921
X3346Y23012
X3346Y21634
X3622Y22323
X4035Y8425
X4331Y13819
X4331Y12441
X4606Y13130
X4724Y8701
X4882Y34055
X4961Y20709
X4961Y19921
X4961Y19134
X4961Y18346
X4961Y17087
X4961Y16299
X4961Y15512
X4961Y14724
X5354Y20315
X5354Y19528
X5354Y18740
X5354Y17953
X5354Y17480
X5354Y16693
X5354Y15906
X5354Y15118
X5413Y8425
X5748Y20709
X5748Y19921
X5748Y18346
X5748Y14724
X6063Y13386
X6142Y20315
X6142Y17953
X6142Y17480
X6142Y15118
X6535Y20709
X6535Y14724
X6772Y11201
X6772Y10413
X6929Y20315
X6929Y17953
X6929Y17480
X6929Y15118
X7283Y8858
X7283Y8071
X7283Y7283
X7283Y5472
X7283Y4665
X7283Y3898
X7323Y20709
X7323Y19921
X7323Y18346
X7323Y14724
X7717Y20315
X7717Y19528
X7717Y18740
X7717Y17953
X7717Y17480
X7717Y16693
X7717Y15906
X7717Y15118
X7795Y11201
X7795Y10413
X8110Y20709
X8110Y19921
X8110Y19134
X8110Y18346
X8110Y17087
X8110Y16299
X8110Y15512
X8110Y14724
X8268Y6299
X9213Y22047
X9449Y29134
X9921Y25000
X9921Y24213
X10433Y31535
X10433Y30768
X10433Y29961
X10433Y28150
X10433Y27362
X10433Y26575
X10945Y25000
X10945Y24213
X12303Y27008
X12835Y1260
X12992Y26732
X13681Y27008
X13878Y8425
X14567Y8701
X14724Y34055
X15256Y8425
X15354Y20945
X15354Y14469
X15906Y13386
X16535Y20945
X16535Y14469
X16614Y11201
X16614Y10413
X17126Y8858
X17126Y8071
X17126Y7283
X17126Y5472
X17126Y4665
X17126Y3898
X17638Y11201
X17638Y10413
X17717Y20945
X17717Y14469
X18110Y6299
X18898Y20945
X18898Y14469
X19055Y22047
X19291Y29134
X19764Y25000
X19764Y24213
X20079Y20945
X20079Y14469
X20276Y31535
X20276Y30768
X20276Y29961
X20276Y28150
X20276Y27362
X20276Y26575
X20787Y25000
X20787Y24213
X21260Y20945
X21260Y14469
X22146Y27008
X22441Y20945
X22441Y14469
X22677Y1260
X22835Y26732
X23524Y27008
X23622Y20945
X23622Y14469
X23720Y8425
X24409Y8701
X24567Y34055
X24803Y20945
X24803Y14469
X25098Y8425
X25748Y13386
X25984Y20945
X25984Y14469
X26457Y11201
X26457Y10413
X26969Y8858
X26969Y8071
X26969Y7283
X26969Y5472
X26969Y4665
X26969Y3898
X27165Y20945
X27165Y14469
X27480Y11201
X27480Y10413
X27953Y6299
X28346Y20945
X28346Y14469
X28898Y22047
X29134Y29134
X29528Y20945
X29528Y14469
X29606Y25000
X29606Y24213
X30118Y31535
X30118Y30768
X30118Y29961
X30118Y28150
X30118Y27362
X30118Y26575
X30630Y25000
X30630Y24213
X30709Y20945
X30709Y14469
X31890Y20945
X31890Y14469
X31988Y27008
X32520Y1260
X32677Y26732
X33071Y20945
X33071Y14469
X33366Y27008
X33563Y8425
X34252Y20945
X34252Y14469
X34252Y8701
X34409Y34055
X34941Y8425
X35433Y20945
X35433Y14469
X35591Y13386
X36299Y11201
X36299Y10413
X36614Y20945
X36614Y14469
X36811Y8858
X36811Y8071
X36811Y7283
X36811Y5472
X36811Y4665
X36811Y3898
X37323Y11201
X37323Y10413
X37795Y20945
X37795Y14469
X37795Y6299
X38740Y22047
X38976Y29134
X39449Y25000
X39449Y24213
X39961Y31535
X39961Y30768
X39961Y29961
X39961Y28150
X39961Y27362
X39961Y26575
X40472Y25000
X40472Y24213
X41791Y22047
X41831Y27008
X42362Y1260
X42520Y26732
X42795Y22047
X43209Y27008
X44488Y18504
X44488Y17717
X44488Y16929
X45276Y18504
X45276Y17717
X45276Y16929
X46063Y18504
X46063Y17717
X46063Y16929
T2
X1024Y33465
X1024Y1969
X1300Y34133
X1300Y32796
X1300Y2637
X1300Y1300
X1969Y34409
X1969Y32520
X1969Y2913
X1969Y1024
X2637Y34133
X2637Y32796
X2637Y2637
X2637Y1300
X2913Y33465
X2913Y1969
X3091Y24622
X3367Y25290
X3367Y23954
X4035Y25567
X4035Y23677
X4704Y25290
X4704Y23954
X4980Y24622
X12736Y10811
X12933Y24622
X13013Y11479
X13013Y10143
X13210Y25290
X13210Y23954
X13681Y11756
X13681Y9866
X13878Y25567
X13878Y23677
X14349Y11479
X14349Y10143
X14546Y25290
X14546Y23954
X14626Y10811
X14823Y24622
X22579Y10811
X22677Y17717
X22776Y24622
X22855Y11479
X22855Y10143
X22954Y18385
X22954Y17048
X23052Y25290
X23052Y23954
X23524Y11756
X23524Y9866
X23622Y18661
X23622Y16772
X23720Y25567
X23720Y23677
X24192Y11479
X24192Y10143
X24290Y18385
X24290Y17048
X24389Y25290
X24389Y23954
X24469Y10811
X24567Y17717
X24665Y24622
X32421Y10811
X32618Y24622
X32698Y11479
X32698Y10143
X32895Y25290
X32895Y23954
X33366Y11756
X33366Y9866
X33563Y25567
X33563Y23677
X34034Y11479
X34034Y10143
X34231Y25290
X34231Y23954
X34311Y10811
X34508Y24622
X42264Y10811
X42541Y11479
X42541Y10143
X43209Y11756
X43209Y9866
X43877Y11479
X43877Y10143
X44154Y10811
X44331Y33465
X44331Y1969
X44607Y34133
X44607Y32796
X44607Y2637
X44607Y1300
X45276Y34409
X45276Y32520
X45276Y2913
X45276Y1024
X45944Y34133
X45944Y32796
X45944Y2637
X45944Y1300
X46220Y33465
X46220Y1969
T3
X41811Y20236
X41811Y19236
X41811Y18236
X41811Y17236
X41811Y16236
X41811Y15236
X42811Y20236
X42811Y19236
X42811Y18236
X42811Y17236
X42811Y16236
X42811Y15236
T4
X7283Y11811
X7283Y10811
X7283Y9811
X10433Y25622
X10433Y24622
X10433Y23622
X17126Y11811
X17126Y10811
X17126Y9811
X20276Y25622
X20276Y24622
X20276Y23622
X26969Y11811
X26969Y10811
X26969Y9811
X30118Y25622
X30118Y24622
X30118Y23622
X36811Y11811
X36811Y10811
X36811Y9811
X39961Y25622
X39961Y24606
X39961Y23622
T5
X7283Y6299
X7283Y3071
X8465Y32362
X8465Y29134
X9252Y6299
X9252Y3071
X10433Y32362
X10433Y29134
X17126Y6299
X17126Y3071
X18307Y32362
X18307Y29134
X19094Y6299
X19094Y3071
X20276Y32362
X20276Y29134
X26969Y6299
X26969Y3071
X28150Y32362
X28150Y29134
X28937Y6299
X28937Y3071
X30118Y32362
X30118Y29134
X36811Y6299
X36811Y3071
X37992Y32362
X37992Y29134
X38780Y6299
X38780Y3071
X39961Y32362
X39961Y29134
T6
X6535Y19134
X6535Y16299
T7
X1969Y33465
X1969Y1969
X4035Y24622
X13681Y10811
X13878Y24622
X23524Y10811
X23622Y17717
X23720Y24622
X33366Y10811
X33563Y24622
X43209Y10811
X45276Y33465
X45276Y1969
T0
M30
