G04 #@! TF.GenerationSoftware,KiCad,Pcbnew,(6.0.5)*
G04 #@! TF.CreationDate,2022-07-13T14:18:21-07:00*
G04 #@! TF.ProjectId,solid_state_relays_24v,736f6c69-645f-4737-9461-74655f72656c,0.0.10*
G04 #@! TF.SameCoordinates,PX2faf080PY8583b00*
G04 #@! TF.FileFunction,Soldermask,Top*
G04 #@! TF.FilePolarity,Negative*
%FSLAX46Y46*%
G04 Gerber Fmt 4.6, Leading zero omitted, Abs format (unit mm)*
G04 Created by KiCad (PCBNEW (6.0.5)) date 2022-07-13 14:18:21*
%MOMM*%
%LPD*%
G01*
G04 APERTURE LIST*
G04 Aperture macros list*
%AMRoundRect*
0 Rectangle with rounded corners*
0 $1 Rounding radius*
0 $2 $3 $4 $5 $6 $7 $8 $9 X,Y pos of 4 corners*
0 Add a 4 corners polygon primitive as box body*
4,1,4,$2,$3,$4,$5,$6,$7,$8,$9,$2,$3,0*
0 Add four circle primitives for the rounded corners*
1,1,$1+$1,$2,$3*
1,1,$1+$1,$4,$5*
1,1,$1+$1,$6,$7*
1,1,$1+$1,$8,$9*
0 Add four rect primitives between the rounded corners*
20,1,$1+$1,$2,$3,$4,$5,0*
20,1,$1+$1,$4,$5,$6,$7,0*
20,1,$1+$1,$6,$7,$8,$9,0*
20,1,$1+$1,$8,$9,$2,$3,0*%
%AMFreePoly0*
4,1,22,0.500000,-0.750000,0.000000,-0.750000,0.000000,-0.745033,-0.079941,-0.743568,-0.215256,-0.701293,-0.333266,-0.622738,-0.424486,-0.514219,-0.481581,-0.384460,-0.499164,-0.250000,-0.500000,-0.250000,-0.500000,0.250000,-0.499164,0.250000,-0.499963,0.256109,-0.478152,0.396186,-0.417904,0.524511,-0.324060,0.630769,-0.204165,0.706417,-0.067858,0.745374,0.000000,0.744959,0.000000,0.750000,
0.500000,0.750000,0.500000,-0.750000,0.500000,-0.750000,$1*%
%AMFreePoly1*
4,1,20,0.000000,0.744959,0.073905,0.744508,0.209726,0.703889,0.328688,0.626782,0.421226,0.519385,0.479903,0.390333,0.500000,0.250000,0.500000,-0.250000,0.499851,-0.262216,0.476331,-0.402017,0.414519,-0.529596,0.319384,-0.634700,0.198574,-0.708877,0.061801,-0.746166,0.000000,-0.745033,0.000000,-0.750000,-0.500000,-0.750000,-0.500000,0.750000,0.000000,0.750000,0.000000,0.744959,
0.000000,0.744959,$1*%
G04 Aperture macros list end*
%ADD10C,0.800000*%
%ADD11C,6.400000*%
%ADD12R,1.000000X1.400000*%
%ADD13R,2.150000X2.200000*%
%ADD14FreePoly0,90.000000*%
%ADD15FreePoly1,90.000000*%
%ADD16R,1.400000X1.000000*%
%ADD17R,1.950000X1.950000*%
%ADD18C,1.950000*%
%ADD19R,0.900000X0.850000*%
%ADD20RoundRect,0.250000X-0.600000X-0.600000X0.600000X-0.600000X0.600000X0.600000X-0.600000X0.600000X0*%
%ADD21C,1.700000*%
%ADD22O,2.800000X1.600000*%
%ADD23R,4.050000X4.050000*%
%ADD24C,4.050000*%
%ADD25R,0.900000X0.950000*%
%ADD26R,2.200000X2.150000*%
%ADD27R,1.920000X1.920000*%
%ADD28C,1.920000*%
G04 APERTURE END LIST*
D10*
G04 #@! TO.C,H1*
X3302944Y86697056D03*
D11*
X5000000Y85000000D03*
D10*
X7400000Y85000000D03*
X3302944Y83302944D03*
X6697056Y86697056D03*
X5000000Y87400000D03*
X2600000Y85000000D03*
X5000000Y82600000D03*
X6697056Y83302944D03*
G04 #@! TD*
D12*
G04 #@! TO.C,RP4*
X101500000Y56000000D03*
X99600000Y56000000D03*
G04 #@! TD*
D13*
G04 #@! TO.C,TVS1*
X33000000Y69600000D03*
X33000000Y74000000D03*
G04 #@! TD*
D10*
G04 #@! TO.C,H4*
X3302944Y6697056D03*
X6697056Y3302944D03*
X6697056Y6697056D03*
X7400000Y5000000D03*
X3302944Y3302944D03*
X2600000Y5000000D03*
X5000000Y2600000D03*
X5000000Y7400000D03*
D11*
X5000000Y5000000D03*
G04 #@! TD*
D12*
G04 #@! TO.C,RP1*
X26500000Y56000000D03*
X24600000Y56000000D03*
G04 #@! TD*
D13*
G04 #@! TO.C,TVS5*
X87000000Y20400000D03*
X87000000Y16000000D03*
G04 #@! TD*
D12*
G04 #@! TO.C,RP5*
X93500000Y34000000D03*
X91600000Y34000000D03*
G04 #@! TD*
D11*
G04 #@! TO.C,HQ2*
X35250000Y62540000D03*
D10*
X36947056Y64237056D03*
X36947056Y60842944D03*
X35250000Y64940000D03*
X32850000Y62540000D03*
X33552944Y60842944D03*
X37650000Y62540000D03*
X35250000Y60140000D03*
X33552944Y64237056D03*
G04 #@! TD*
D13*
G04 #@! TO.C,TVS2*
X58000000Y69600000D03*
X58000000Y74000000D03*
G04 #@! TD*
D14*
G04 #@! TO.C,JP1*
X13500000Y71500000D03*
D15*
X13500000Y72800000D03*
G04 #@! TD*
D12*
G04 #@! TO.C,RP6*
X68500000Y34000000D03*
X66600000Y34000000D03*
G04 #@! TD*
D10*
G04 #@! TO.C,H2*
X113302944Y83302944D03*
X115000000Y87400000D03*
D11*
X115000000Y85000000D03*
D10*
X112600000Y85000000D03*
X115000000Y82600000D03*
X116697056Y86697056D03*
X113302944Y86697056D03*
X117400000Y85000000D03*
X116697056Y83302944D03*
G04 #@! TD*
G04 #@! TO.C,HQ1*
X10250000Y64940000D03*
X7850000Y62540000D03*
D11*
X10250000Y62540000D03*
D10*
X8552944Y64237056D03*
X11947056Y60842944D03*
X12650000Y62540000D03*
X10250000Y60140000D03*
X11947056Y64237056D03*
X8552944Y60842944D03*
G04 #@! TD*
D12*
G04 #@! TO.C,RP2*
X51500000Y56000000D03*
X49600000Y56000000D03*
G04 #@! TD*
D13*
G04 #@! TO.C,TVS8*
X12000000Y20400000D03*
X12000000Y16000000D03*
G04 #@! TD*
D16*
G04 #@! TO.C,RL6*
X79750000Y7800000D03*
X79750000Y5900000D03*
G04 #@! TD*
D17*
G04 #@! TO.C,J2*
X51500000Y74000000D03*
D18*
X51500000Y82200000D03*
X46500000Y74000000D03*
X46500000Y82200000D03*
G04 #@! TD*
D13*
G04 #@! TO.C,TVS3*
X83000000Y69600000D03*
X83000000Y74000000D03*
G04 #@! TD*
D19*
G04 #@! TO.C,LED7*
X56250000Y3200000D03*
X54750000Y3200000D03*
G04 #@! TD*
D11*
G04 #@! TO.C,H3*
X115000000Y5000000D03*
D10*
X116697056Y6697056D03*
X117400000Y5000000D03*
X116697056Y3302944D03*
X115000000Y7400000D03*
X112600000Y5000000D03*
X115000000Y2600000D03*
X113302944Y3302944D03*
X113302944Y6697056D03*
G04 #@! TD*
D17*
G04 #@! TO.C,J1*
X26500000Y74000000D03*
D18*
X26500000Y82200000D03*
X21500000Y74000000D03*
X21500000Y82200000D03*
G04 #@! TD*
D16*
G04 #@! TO.C,RL4*
X90250000Y82200000D03*
X90250000Y84100000D03*
G04 #@! TD*
D10*
G04 #@! TO.C,HQ7*
X62150000Y27460000D03*
X59750000Y29860000D03*
D11*
X59750000Y27460000D03*
D10*
X61447056Y25762944D03*
X58052944Y25762944D03*
X58052944Y29157056D03*
X57350000Y27460000D03*
X61447056Y29157056D03*
X59750000Y25060000D03*
G04 #@! TD*
D17*
G04 #@! TO.C,J6*
X68500000Y16000000D03*
D18*
X68500000Y7800000D03*
X73500000Y16000000D03*
X73500000Y7800000D03*
G04 #@! TD*
D16*
G04 #@! TO.C,RL7*
X54750000Y7800000D03*
X54750000Y5900000D03*
G04 #@! TD*
D13*
G04 #@! TO.C,TVS6*
X62000000Y20400000D03*
X62000000Y16000000D03*
G04 #@! TD*
D16*
G04 #@! TO.C,RL5*
X104750000Y7800000D03*
X104750000Y5900000D03*
G04 #@! TD*
D19*
G04 #@! TO.C,LED3*
X63750000Y86500000D03*
X65250000Y86500000D03*
G04 #@! TD*
G04 #@! TO.C,LED5*
X106250000Y3200000D03*
X104750000Y3200000D03*
G04 #@! TD*
D17*
G04 #@! TO.C,J4*
X101500000Y74000000D03*
D18*
X101500000Y82200000D03*
X96500000Y74000000D03*
X96500000Y82200000D03*
G04 #@! TD*
D12*
G04 #@! TO.C,RP3*
X76500000Y56000000D03*
X74600000Y56000000D03*
G04 #@! TD*
D17*
G04 #@! TO.C,J3*
X76500000Y74000000D03*
D18*
X76500000Y82200000D03*
X71500000Y74000000D03*
X71500000Y82200000D03*
G04 #@! TD*
D12*
G04 #@! TO.C,RP7*
X43500000Y34000000D03*
X41600000Y34000000D03*
G04 #@! TD*
D20*
G04 #@! TO.C,JCNTL1*
X106200000Y51400000D03*
D21*
X108740000Y51400000D03*
X106200000Y48860000D03*
X108740000Y48860000D03*
X106200000Y46320000D03*
X108740000Y46320000D03*
X106200000Y43780000D03*
X108740000Y43780000D03*
X106200000Y41240000D03*
X108740000Y41240000D03*
X106200000Y38700000D03*
X108740000Y38700000D03*
G04 #@! TD*
D10*
G04 #@! TO.C,HQ6*
X83052944Y25762944D03*
X86447056Y29157056D03*
X82350000Y27460000D03*
D11*
X84750000Y27460000D03*
D10*
X84750000Y29860000D03*
X84750000Y25060000D03*
X87150000Y27460000D03*
X86447056Y25762944D03*
X83052944Y29157056D03*
G04 #@! TD*
G04 #@! TO.C,HQ8*
X36447056Y29157056D03*
X36447056Y25762944D03*
X34750000Y25060000D03*
D11*
X34750000Y27460000D03*
D10*
X32350000Y27460000D03*
X33052944Y25762944D03*
X37150000Y27460000D03*
X33052944Y29157056D03*
X34750000Y29860000D03*
G04 #@! TD*
D16*
G04 #@! TO.C,RL8*
X29750000Y7800000D03*
X29750000Y5900000D03*
G04 #@! TD*
D17*
G04 #@! TO.C,J8*
X18500000Y16000000D03*
D18*
X18500000Y7800000D03*
X23500000Y16000000D03*
X23500000Y7800000D03*
G04 #@! TD*
D22*
G04 #@! TO.C,JPWR1*
X10600000Y51750000D03*
X10600000Y38250000D03*
D23*
X16600000Y41400000D03*
D24*
X16600000Y48600000D03*
G04 #@! TD*
D13*
G04 #@! TO.C,TVS4*
X108000000Y69600000D03*
X108000000Y74000000D03*
G04 #@! TD*
D19*
G04 #@! TO.C,LED1*
X13750000Y86500000D03*
X15250000Y86500000D03*
G04 #@! TD*
D25*
G04 #@! TO.C,LEDP1*
X6700000Y76000000D03*
X8300000Y76000000D03*
G04 #@! TD*
D10*
G04 #@! TO.C,HC1*
X58302944Y43302944D03*
X61697056Y43302944D03*
X58302944Y46697056D03*
D11*
X60000000Y45000000D03*
D10*
X60000000Y42600000D03*
X62400000Y45000000D03*
X57600000Y45000000D03*
X60000000Y47400000D03*
X61697056Y46697056D03*
G04 #@! TD*
D16*
G04 #@! TO.C,RL2*
X40250000Y82200000D03*
X40250000Y84100000D03*
G04 #@! TD*
D12*
G04 #@! TO.C,RP8*
X18500000Y34000000D03*
X16600000Y34000000D03*
G04 #@! TD*
D19*
G04 #@! TO.C,LED2*
X38750000Y86500000D03*
X40250000Y86500000D03*
G04 #@! TD*
D16*
G04 #@! TO.C,RL1*
X15250000Y82200000D03*
X15250000Y84100000D03*
G04 #@! TD*
D19*
G04 #@! TO.C,LED4*
X88750000Y86500000D03*
X90250000Y86500000D03*
G04 #@! TD*
D17*
G04 #@! TO.C,J7*
X43500000Y16000000D03*
D18*
X43500000Y7800000D03*
X48500000Y16000000D03*
X48500000Y7800000D03*
G04 #@! TD*
D12*
G04 #@! TO.C,R1*
X11600000Y76000000D03*
X13500000Y76000000D03*
G04 #@! TD*
D17*
G04 #@! TO.C,J5*
X93500000Y16000000D03*
D18*
X93500000Y7800000D03*
X98500000Y16000000D03*
X98500000Y7800000D03*
G04 #@! TD*
D11*
G04 #@! TO.C,HQ5*
X109750000Y27460000D03*
D10*
X108052944Y25762944D03*
X112150000Y27460000D03*
X107350000Y27460000D03*
X111447056Y29157056D03*
X109750000Y25060000D03*
X111447056Y25762944D03*
X108052944Y29157056D03*
X109750000Y29860000D03*
G04 #@! TD*
D19*
G04 #@! TO.C,LED6*
X81250000Y3200000D03*
X79750000Y3200000D03*
G04 #@! TD*
D26*
G04 #@! TO.C,TVSP1*
X9950000Y33350000D03*
X5550000Y33350000D03*
G04 #@! TD*
D13*
G04 #@! TO.C,TVS7*
X37000000Y20400000D03*
X37000000Y16000000D03*
G04 #@! TD*
D10*
G04 #@! TO.C,HQ4*
X83552944Y60842944D03*
X85250000Y64940000D03*
D11*
X85250000Y62540000D03*
D10*
X87650000Y62540000D03*
X86947056Y60842944D03*
X83552944Y64237056D03*
X85250000Y60140000D03*
X86947056Y64237056D03*
X82850000Y62540000D03*
G04 #@! TD*
D19*
G04 #@! TO.C,LED8*
X31250000Y3200000D03*
X29750000Y3200000D03*
G04 #@! TD*
D16*
G04 #@! TO.C,RL3*
X65250000Y82200000D03*
X65250000Y84100000D03*
G04 #@! TD*
D26*
G04 #@! TO.C,TVSP2*
X7450000Y56700000D03*
X3050000Y56700000D03*
G04 #@! TD*
D10*
G04 #@! TO.C,HQ3*
X60250000Y64940000D03*
X58552944Y60842944D03*
X61947056Y60842944D03*
X58552944Y64237056D03*
D11*
X60250000Y62540000D03*
D10*
X57850000Y62540000D03*
X62650000Y62540000D03*
X61947056Y64237056D03*
X60250000Y60140000D03*
G04 #@! TD*
D27*
G04 #@! TO.C,Q5*
X93500000Y30000000D03*
D28*
X93500000Y27460000D03*
X93500000Y24920000D03*
G04 #@! TD*
D27*
G04 #@! TO.C,Q4*
X101500000Y60000000D03*
D28*
X101500000Y62500000D03*
X101500000Y65080000D03*
G04 #@! TD*
D27*
G04 #@! TO.C,Q1*
X26500000Y60000000D03*
D28*
X26500000Y62540000D03*
X26500000Y65080000D03*
G04 #@! TD*
D27*
G04 #@! TO.C,Q8*
X18500000Y30000000D03*
D28*
X18500000Y27460000D03*
X18500000Y24920000D03*
G04 #@! TD*
D27*
G04 #@! TO.C,Q2*
X51500000Y60000000D03*
D28*
X51500000Y62540000D03*
X51500000Y65080000D03*
G04 #@! TD*
D27*
G04 #@! TO.C,Q3*
X76500000Y60000000D03*
D28*
X76500000Y62540000D03*
X76500000Y65080000D03*
G04 #@! TD*
D27*
G04 #@! TO.C,Q6*
X68500000Y30000000D03*
D28*
X68500000Y27460000D03*
X68500000Y24920000D03*
G04 #@! TD*
D27*
G04 #@! TO.C,Q7*
X43500000Y30000000D03*
D28*
X43500000Y27460000D03*
X43500000Y24920000D03*
G04 #@! TD*
M02*
