%FSLAX45Y45*%
G04 Gerber Fmt 4.5, Leading zero omitted, Abs format (unit mm)*
G04 Created by KiCad (PCBNEW (6.0.5)) date 2022-07-13 14:16:42*
%MOMM*%
%LPD*%
G01*
G04 APERTURE LIST*
%TA.AperFunction,Profile*%
%ADD10C,0.001000*%
%TD*%
%ADD11C,0.200000*%
%ADD12C,0.080000*%
G04 APERTURE END LIST*
D10*
X0Y9000000D02*
X12000000Y9000000D01*
X12000000Y9000000D02*
X12000000Y0D01*
X12000000Y0D02*
X0Y0D01*
X0Y0D02*
X0Y9000000D01*
D11*
D12*
X1020000Y5215000D02*
X1100000Y5135000D01*
X1100000Y5215000D02*
X1020000Y5135000D01*
D11*
X1010000Y5145000D02*
X1110000Y5145000D01*
X1010000Y5205000D02*
X1110000Y5205000D01*
X1110000Y5145000D02*
G75*
G03*
X1110000Y5205000I0J30000D01*
G01*
X1010000Y5205000D02*
G75*
G03*
X1010000Y5145000I0J-30000D01*
G01*
D12*
X1020000Y3865000D02*
X1100000Y3785000D01*
X1100000Y3865000D02*
X1020000Y3785000D01*
D11*
X1010000Y3795000D02*
X1110000Y3795000D01*
X1010000Y3855000D02*
X1110000Y3855000D01*
X1110000Y3795000D02*
G75*
G03*
X1110000Y3855000I0J30000D01*
G01*
X1010000Y3855000D02*
G75*
G03*
X1010000Y3795000I0J-30000D01*
G01*
X257569Y-310526D02*
X257569Y-110526D01*
X305188Y-110526D01*
X333760Y-120050D01*
X352807Y-139098D01*
X362331Y-158145D01*
X371855Y-196240D01*
X371855Y-224812D01*
X362331Y-262907D01*
X352807Y-281955D01*
X333760Y-301002D01*
X305188Y-310526D01*
X257569Y-310526D01*
X457569Y-310526D02*
X457569Y-177193D01*
X457569Y-215288D02*
X467093Y-196240D01*
X476617Y-186717D01*
X495664Y-177193D01*
X514712Y-177193D01*
X581379Y-310526D02*
X581379Y-177193D01*
X581379Y-110526D02*
X571855Y-120050D01*
X581379Y-129574D01*
X590902Y-120050D01*
X581379Y-110526D01*
X581379Y-129574D01*
X705188Y-310526D02*
X686140Y-301002D01*
X676617Y-281955D01*
X676617Y-110526D01*
X809950Y-310526D02*
X790902Y-301002D01*
X781378Y-281955D01*
X781378Y-110526D01*
X1038521Y-310526D02*
X1038521Y-110526D01*
X1105188Y-253383D01*
X1171855Y-110526D01*
X1171855Y-310526D01*
X1352807Y-310526D02*
X1352807Y-205764D01*
X1343283Y-186717D01*
X1324236Y-177193D01*
X1286140Y-177193D01*
X1267093Y-186717D01*
X1352807Y-301002D02*
X1333760Y-310526D01*
X1286140Y-310526D01*
X1267093Y-301002D01*
X1257569Y-281955D01*
X1257569Y-262907D01*
X1267093Y-243859D01*
X1286140Y-234336D01*
X1333760Y-234336D01*
X1352807Y-224812D01*
X1448045Y-177193D02*
X1448045Y-377193D01*
X1448045Y-186717D02*
X1467093Y-177193D01*
X1505188Y-177193D01*
X1524236Y-186717D01*
X1533759Y-196240D01*
X1543283Y-215288D01*
X1543283Y-272431D01*
X1533759Y-291479D01*
X1524236Y-301002D01*
X1505188Y-310526D01*
X1467093Y-310526D01*
X1448045Y-301002D01*
X1628998Y-291479D02*
X1638521Y-301002D01*
X1628998Y-310526D01*
X1619474Y-301002D01*
X1628998Y-291479D01*
X1628998Y-310526D01*
X1628998Y-186717D02*
X1638521Y-196240D01*
X1628998Y-205764D01*
X1619474Y-196240D01*
X1628998Y-186717D01*
X1628998Y-205764D01*
D12*
X-80050Y-600050D02*
X-50Y-680050D01*
X-50Y-600050D02*
X-80050Y-680050D01*
D11*
X295664Y-530526D02*
X314712Y-530526D01*
X333760Y-540050D01*
X343283Y-549574D01*
X352807Y-568621D01*
X362331Y-606717D01*
X362331Y-654336D01*
X352807Y-692431D01*
X343283Y-711478D01*
X333760Y-721002D01*
X314712Y-730526D01*
X295664Y-730526D01*
X276617Y-721002D01*
X267093Y-711478D01*
X257569Y-692431D01*
X248045Y-654336D01*
X248045Y-606717D01*
X257569Y-568621D01*
X267093Y-549574D01*
X276617Y-540050D01*
X295664Y-530526D01*
X448045Y-711478D02*
X457569Y-721002D01*
X448045Y-730526D01*
X438521Y-721002D01*
X448045Y-711478D01*
X448045Y-730526D01*
X571855Y-616240D02*
X552807Y-606717D01*
X543283Y-597193D01*
X533760Y-578145D01*
X533760Y-568621D01*
X543283Y-549574D01*
X552807Y-540050D01*
X571855Y-530526D01*
X609950Y-530526D01*
X628998Y-540050D01*
X638521Y-549574D01*
X648045Y-568621D01*
X648045Y-578145D01*
X638521Y-597193D01*
X628998Y-606717D01*
X609950Y-616240D01*
X571855Y-616240D01*
X552807Y-625764D01*
X543283Y-635288D01*
X533760Y-654336D01*
X533760Y-692431D01*
X543283Y-711478D01*
X552807Y-721002D01*
X571855Y-730526D01*
X609950Y-730526D01*
X628998Y-721002D01*
X638521Y-711478D01*
X648045Y-692431D01*
X648045Y-654336D01*
X638521Y-635288D01*
X628998Y-625764D01*
X609950Y-616240D01*
X771855Y-530526D02*
X790902Y-530526D01*
X809950Y-540050D01*
X819474Y-549574D01*
X828998Y-568621D01*
X838521Y-606717D01*
X838521Y-654336D01*
X828998Y-692431D01*
X819474Y-711478D01*
X809950Y-721002D01*
X790902Y-730526D01*
X771855Y-730526D01*
X752807Y-721002D01*
X743283Y-711478D01*
X733759Y-692431D01*
X724236Y-654336D01*
X724236Y-606717D01*
X733759Y-568621D01*
X743283Y-549574D01*
X752807Y-540050D01*
X771855Y-530526D01*
X962331Y-530526D02*
X981378Y-530526D01*
X1000426Y-540050D01*
X1009950Y-549574D01*
X1019474Y-568621D01*
X1028998Y-606717D01*
X1028998Y-654336D01*
X1019474Y-692431D01*
X1009950Y-711478D01*
X1000426Y-721002D01*
X981378Y-730526D01*
X962331Y-730526D01*
X943283Y-721002D01*
X933759Y-711478D01*
X924236Y-692431D01*
X914712Y-654336D01*
X914712Y-606717D01*
X924236Y-568621D01*
X933759Y-549574D01*
X943283Y-540050D01*
X962331Y-530526D01*
X1114712Y-730526D02*
X1114712Y-597193D01*
X1114712Y-616240D02*
X1124236Y-606717D01*
X1143283Y-597193D01*
X1171855Y-597193D01*
X1190902Y-606717D01*
X1200426Y-625764D01*
X1200426Y-730526D01*
X1200426Y-625764D02*
X1209950Y-606717D01*
X1228998Y-597193D01*
X1257569Y-597193D01*
X1276617Y-606717D01*
X1286140Y-625764D01*
X1286140Y-730526D01*
X1381379Y-730526D02*
X1381379Y-597193D01*
X1381379Y-616240D02*
X1390902Y-606717D01*
X1409950Y-597193D01*
X1438521Y-597193D01*
X1457569Y-606717D01*
X1467093Y-625764D01*
X1467093Y-730526D01*
X1467093Y-625764D02*
X1476617Y-606717D01*
X1495664Y-597193D01*
X1524236Y-597193D01*
X1543283Y-606717D01*
X1552807Y-625764D01*
X1552807Y-730526D01*
X1943283Y-521002D02*
X1771855Y-778145D01*
X2200426Y-530526D02*
X2219474Y-530526D01*
X2238521Y-540050D01*
X2248045Y-549574D01*
X2257569Y-568621D01*
X2267093Y-606717D01*
X2267093Y-654336D01*
X2257569Y-692431D01*
X2248045Y-711478D01*
X2238521Y-721002D01*
X2219474Y-730526D01*
X2200426Y-730526D01*
X2181379Y-721002D01*
X2171855Y-711478D01*
X2162331Y-692431D01*
X2152807Y-654336D01*
X2152807Y-606717D01*
X2162331Y-568621D01*
X2171855Y-549574D01*
X2181379Y-540050D01*
X2200426Y-530526D01*
X2352807Y-711478D02*
X2362331Y-721002D01*
X2352807Y-730526D01*
X2343283Y-721002D01*
X2352807Y-711478D01*
X2352807Y-730526D01*
X2486140Y-530526D02*
X2505188Y-530526D01*
X2524236Y-540050D01*
X2533760Y-549574D01*
X2543283Y-568621D01*
X2552807Y-606717D01*
X2552807Y-654336D01*
X2543283Y-692431D01*
X2533760Y-711478D01*
X2524236Y-721002D01*
X2505188Y-730526D01*
X2486140Y-730526D01*
X2467093Y-721002D01*
X2457569Y-711478D01*
X2448045Y-692431D01*
X2438521Y-654336D01*
X2438521Y-606717D01*
X2448045Y-568621D01*
X2457569Y-549574D01*
X2467093Y-540050D01*
X2486140Y-530526D01*
X2619474Y-530526D02*
X2743283Y-530526D01*
X2676617Y-606717D01*
X2705188Y-606717D01*
X2724236Y-616240D01*
X2733760Y-625764D01*
X2743283Y-644812D01*
X2743283Y-692431D01*
X2733760Y-711478D01*
X2724236Y-721002D01*
X2705188Y-730526D01*
X2648045Y-730526D01*
X2628998Y-721002D01*
X2619474Y-711478D01*
X2933759Y-730526D02*
X2819474Y-730526D01*
X2876617Y-730526D02*
X2876617Y-530526D01*
X2857569Y-559098D01*
X2838521Y-578145D01*
X2819474Y-587669D01*
X3114712Y-530526D02*
X3019474Y-530526D01*
X3009950Y-625764D01*
X3019474Y-616240D01*
X3038521Y-606717D01*
X3086140Y-606717D01*
X3105188Y-616240D01*
X3114712Y-625764D01*
X3124236Y-644812D01*
X3124236Y-692431D01*
X3114712Y-711478D01*
X3105188Y-721002D01*
X3086140Y-730526D01*
X3038521Y-730526D01*
X3019474Y-721002D01*
X3009950Y-711478D01*
X3200426Y-530526D02*
X3200426Y-568621D01*
X3276617Y-530526D02*
X3276617Y-568621D01*
X3571855Y-806717D02*
X3562331Y-797193D01*
X3543283Y-768621D01*
X3533759Y-749574D01*
X3524236Y-721002D01*
X3514712Y-673383D01*
X3514712Y-635288D01*
X3524236Y-587669D01*
X3533759Y-559098D01*
X3543283Y-540050D01*
X3562331Y-511478D01*
X3571855Y-501955D01*
X3686140Y-530526D02*
X3705188Y-530526D01*
X3724236Y-540050D01*
X3733759Y-549574D01*
X3743283Y-568621D01*
X3752807Y-606717D01*
X3752807Y-654336D01*
X3743283Y-692431D01*
X3733759Y-711478D01*
X3724236Y-721002D01*
X3705188Y-730526D01*
X3686140Y-730526D01*
X3667093Y-721002D01*
X3657569Y-711478D01*
X3648045Y-692431D01*
X3638521Y-654336D01*
X3638521Y-606717D01*
X3648045Y-568621D01*
X3657569Y-549574D01*
X3667093Y-540050D01*
X3686140Y-530526D01*
X3990902Y-730526D02*
X3990902Y-530526D01*
X4076617Y-730526D02*
X4076617Y-625764D01*
X4067093Y-606717D01*
X4048045Y-597193D01*
X4019474Y-597193D01*
X4000426Y-606717D01*
X3990902Y-616240D01*
X4200426Y-730526D02*
X4181378Y-721002D01*
X4171855Y-711478D01*
X4162331Y-692431D01*
X4162331Y-635288D01*
X4171855Y-616240D01*
X4181378Y-606717D01*
X4200426Y-597193D01*
X4228998Y-597193D01*
X4248045Y-606717D01*
X4257569Y-616240D01*
X4267093Y-635288D01*
X4267093Y-692431D01*
X4257569Y-711478D01*
X4248045Y-721002D01*
X4228998Y-730526D01*
X4200426Y-730526D01*
X4381379Y-730526D02*
X4362331Y-721002D01*
X4352807Y-701955D01*
X4352807Y-530526D01*
X4533760Y-721002D02*
X4514712Y-730526D01*
X4476617Y-730526D01*
X4457569Y-721002D01*
X4448045Y-701955D01*
X4448045Y-625764D01*
X4457569Y-606717D01*
X4476617Y-597193D01*
X4514712Y-597193D01*
X4533760Y-606717D01*
X4543283Y-625764D01*
X4543283Y-644812D01*
X4448045Y-663860D01*
X4619474Y-721002D02*
X4638521Y-730526D01*
X4676617Y-730526D01*
X4695664Y-721002D01*
X4705188Y-701955D01*
X4705188Y-692431D01*
X4695664Y-673383D01*
X4676617Y-663860D01*
X4648045Y-663860D01*
X4628998Y-654336D01*
X4619474Y-635288D01*
X4619474Y-625764D01*
X4628998Y-606717D01*
X4648045Y-597193D01*
X4676617Y-597193D01*
X4695664Y-606717D01*
X4943283Y-654336D02*
X5095664Y-654336D01*
X5019474Y-730526D02*
X5019474Y-578145D01*
X5333760Y-549574D02*
X5343283Y-540050D01*
X5362331Y-530526D01*
X5409950Y-530526D01*
X5428998Y-540050D01*
X5438521Y-549574D01*
X5448045Y-568621D01*
X5448045Y-587669D01*
X5438521Y-616240D01*
X5324236Y-730526D01*
X5448045Y-730526D01*
X5676617Y-721002D02*
X5695664Y-730526D01*
X5733759Y-730526D01*
X5752807Y-721002D01*
X5762331Y-701955D01*
X5762331Y-692431D01*
X5752807Y-673383D01*
X5733759Y-663860D01*
X5705188Y-663860D01*
X5686140Y-654336D01*
X5676617Y-635288D01*
X5676617Y-625764D01*
X5686140Y-606717D01*
X5705188Y-597193D01*
X5733759Y-597193D01*
X5752807Y-606717D01*
X5876617Y-730526D02*
X5857569Y-721002D01*
X5848045Y-701955D01*
X5848045Y-530526D01*
X5981378Y-730526D02*
X5962331Y-721002D01*
X5952807Y-711478D01*
X5943283Y-692431D01*
X5943283Y-635288D01*
X5952807Y-616240D01*
X5962331Y-606717D01*
X5981378Y-597193D01*
X6009950Y-597193D01*
X6028998Y-606717D01*
X6038521Y-616240D01*
X6048045Y-635288D01*
X6048045Y-692431D01*
X6038521Y-711478D01*
X6028998Y-721002D01*
X6009950Y-730526D01*
X5981378Y-730526D01*
X6105188Y-597193D02*
X6181378Y-597193D01*
X6133759Y-530526D02*
X6133759Y-701955D01*
X6143283Y-721002D01*
X6162331Y-730526D01*
X6181378Y-730526D01*
X6238521Y-721002D02*
X6257569Y-730526D01*
X6295664Y-730526D01*
X6314712Y-721002D01*
X6324236Y-701955D01*
X6324236Y-692431D01*
X6314712Y-673383D01*
X6295664Y-663860D01*
X6267093Y-663860D01*
X6248045Y-654336D01*
X6238521Y-635288D01*
X6238521Y-625764D01*
X6248045Y-606717D01*
X6267093Y-597193D01*
X6295664Y-597193D01*
X6314712Y-606717D01*
X6390902Y-806717D02*
X6400426Y-797193D01*
X6419474Y-768621D01*
X6428998Y-749574D01*
X6438521Y-721002D01*
X6448045Y-673383D01*
X6448045Y-635288D01*
X6438521Y-587669D01*
X6428998Y-559098D01*
X6419474Y-540050D01*
X6400426Y-511478D01*
X6390902Y-501955D01*
X6752807Y-806717D02*
X6743283Y-797193D01*
X6724236Y-768621D01*
X6714712Y-749574D01*
X6705188Y-721002D01*
X6695664Y-673383D01*
X6695664Y-635288D01*
X6705188Y-587669D01*
X6714712Y-559098D01*
X6724236Y-540050D01*
X6743283Y-511478D01*
X6752807Y-501955D01*
X6828998Y-597193D02*
X6828998Y-730526D01*
X6828998Y-616240D02*
X6838521Y-606717D01*
X6857569Y-597193D01*
X6886140Y-597193D01*
X6905188Y-606717D01*
X6914712Y-625764D01*
X6914712Y-730526D01*
X7038521Y-730526D02*
X7019474Y-721002D01*
X7009950Y-711478D01*
X7000426Y-692431D01*
X7000426Y-635288D01*
X7009950Y-616240D01*
X7019474Y-606717D01*
X7038521Y-597193D01*
X7067093Y-597193D01*
X7086140Y-606717D01*
X7095664Y-616240D01*
X7105188Y-635288D01*
X7105188Y-692431D01*
X7095664Y-711478D01*
X7086140Y-721002D01*
X7067093Y-730526D01*
X7038521Y-730526D01*
X7162331Y-597193D02*
X7238521Y-597193D01*
X7190902Y-530526D02*
X7190902Y-701955D01*
X7200426Y-721002D01*
X7219474Y-730526D01*
X7238521Y-730526D01*
X7457569Y-597193D02*
X7457569Y-797193D01*
X7457569Y-606717D02*
X7476617Y-597193D01*
X7514712Y-597193D01*
X7533759Y-606717D01*
X7543283Y-616240D01*
X7552807Y-635288D01*
X7552807Y-692431D01*
X7543283Y-711478D01*
X7533759Y-721002D01*
X7514712Y-730526D01*
X7476617Y-730526D01*
X7457569Y-721002D01*
X7667093Y-730526D02*
X7648045Y-721002D01*
X7638521Y-701955D01*
X7638521Y-530526D01*
X7828998Y-730526D02*
X7828998Y-625764D01*
X7819474Y-606717D01*
X7800426Y-597193D01*
X7762331Y-597193D01*
X7743283Y-606717D01*
X7828998Y-721002D02*
X7809950Y-730526D01*
X7762331Y-730526D01*
X7743283Y-721002D01*
X7733759Y-701955D01*
X7733759Y-682907D01*
X7743283Y-663860D01*
X7762331Y-654336D01*
X7809950Y-654336D01*
X7828998Y-644812D01*
X7895664Y-597193D02*
X7971855Y-597193D01*
X7924236Y-530526D02*
X7924236Y-701955D01*
X7933759Y-721002D01*
X7952807Y-730526D01*
X7971855Y-730526D01*
X8114712Y-721002D02*
X8095664Y-730526D01*
X8057569Y-730526D01*
X8038521Y-721002D01*
X8028998Y-701955D01*
X8028998Y-625764D01*
X8038521Y-606717D01*
X8057569Y-597193D01*
X8095664Y-597193D01*
X8114712Y-606717D01*
X8124236Y-625764D01*
X8124236Y-644812D01*
X8028998Y-663860D01*
X8295664Y-730526D02*
X8295664Y-530526D01*
X8295664Y-721002D02*
X8276617Y-730526D01*
X8238521Y-730526D01*
X8219474Y-721002D01*
X8209950Y-711478D01*
X8200426Y-692431D01*
X8200426Y-635288D01*
X8209950Y-616240D01*
X8219474Y-606717D01*
X8238521Y-597193D01*
X8276617Y-597193D01*
X8295664Y-606717D01*
X8371855Y-806717D02*
X8381378Y-797193D01*
X8400426Y-768621D01*
X8409950Y-749574D01*
X8419474Y-721002D01*
X8428998Y-673383D01*
X8428998Y-635288D01*
X8419474Y-587669D01*
X8409950Y-559098D01*
X8400426Y-540050D01*
X8381378Y-511478D01*
X8371855Y-501955D01*
M02*
